<svg width="58" height="30" viewBox="0 0 58 30" fill="none" xmlns="http://www.w3.org/2000/svg">
<path d="M2.888 30.008C2.696 30.008 2.456 29.944 2.168 29.816L2.216 29.48C2.184 29.544 2.152 29.336 2.12 28.856C2.12 28.76 2.168 28.664 2.264 28.568C2.264 28.504 2.248 28.424 2.216 28.328C2.216 28.232 2.2 28.12 2.168 27.992L2.024 27.512C2.056 27.288 2.072 27.048 2.072 26.792C2.104 26.536 2.136 26.28 2.168 26.024L2.024 25.736V25.4C1.96 25.272 1.88 25.144 1.784 25.016C1.72 24.888 1.656 24.76 1.592 24.632V24.488C1.592 24.328 1.64 24.2 1.736 24.104L2.216 23.72C2.152 23.656 2.088 23.624 2.024 23.624H1.976L1.928 23.672C1.928 23.672 1.8 23.576 1.544 23.384C1.832 23.096 1.848 22.872 1.592 22.712C1.752 22.616 1.848 22.504 1.88 22.376C1.912 22.344 1.896 22.232 1.832 22.04C1.736 21.784 1.688 21.64 1.688 21.608C1.656 21.384 1.624 21.208 1.592 21.08C1.592 20.92 1.608 20.808 1.64 20.744L1.784 20.456V20.168L1.832 20.024L1.688 19.88H1.448C1.384 19.816 1.352 19.72 1.352 19.592L1.496 18.68L1.64 18.536C1.672 18.504 1.608 18.424 1.448 18.296V18.344C1.448 18.344 1.432 18.264 1.4 18.104C1.4 17.912 1.384 17.64 1.352 17.288C1.384 17.192 1.4 16.984 1.4 16.664C1.368 16.632 1.336 16.6 1.304 16.568C1.272 16.536 1.24 16.488 1.208 16.424L1.112 15.128C1.112 15.064 1.16 14.984 1.256 14.888C1.224 14.824 1.208 14.712 1.208 14.552L1.352 14.264C1.352 14.104 1.352 13.928 1.352 13.736C1.352 13.512 1.336 13.288 1.304 13.064C1.304 12.936 1.192 12.824 0.968 12.728L0.92 12.392C1.048 11.784 1.064 11.48 0.968 11.48H0.872C0.872 11.48 0.872 11.464 0.872 11.432C0.872 11.4 0.856 11.368 0.824 11.336L0.968 10.952C1.064 10.76 1.112 10.632 1.112 10.568C1.016 10.504 0.92 10.36 0.824 10.136V9.416C0.792 9.384 0.776 9.352 0.776 9.32C0.776 9.256 0.76 9.208 0.728 9.176C0.696 9.144 0.712 9.064 0.776 8.936C0.744 8.744 0.712 8.568 0.68 8.408C0.68 8.248 0.68 8.104 0.68 7.976L0.728 7.784C0.76 7.72 0.776 7.656 0.776 7.592L0.68 6.056L0.584 5.624C0.552 5.496 0.52 5.416 0.488 5.384C0.456 5.32 0.44 5.272 0.44 5.24L0.536 3.992C0.504 3.928 0.472 3.864 0.44 3.8C0.408 3.704 0.36 3.592 0.296 3.464L0.392 3.128C0.456 2.968 0.472 2.888 0.44 2.888L0.296 2.216C0.328 2.088 0.328 1.928 0.296 1.736C0.264 1.64 0.216 1.544 0.152 1.448C0.12 1.352 0.0880001 1.24 0.0560001 1.112L0.152 1.016C0.184 1.048 0.232 1.064 0.296 1.064C0.456 1.064 0.568 0.983999 0.632 0.823999H0.776L1.208 0.919998C1.208 0.919998 1.304 0.887999 1.496 0.823999L1.784 0.776C1.976 0.776 2.184 0.888 2.408 1.112C2.536 1.08 2.664 0.951999 2.792 0.727998C3.144 0.919999 3.32 1.032 3.32 1.064L3.896 0.823999C3.928 0.823999 4.024 0.903999 4.184 1.064H4.328C4.36 1.032 4.392 0.983999 4.424 0.919998C4.488 0.855999 4.552 0.791999 4.616 0.727998C4.744 0.663999 4.856 0.631999 4.952 0.631999H5C5.256 0.631999 5.384 0.791999 5.384 1.112C5.448 1.368 5.448 1.672 5.384 2.024L5.24 2.36C5.272 2.424 5.288 2.536 5.288 2.696C5.224 2.888 5.192 3.016 5.192 3.08L5.528 3.896C5.528 4.056 5.512 4.184 5.48 4.28L5.528 5.48C5.496 5.608 5.48 5.752 5.48 5.912C5.48 6.072 5.464 6.232 5.432 6.392L5.576 6.632C5.544 6.728 5.528 6.92 5.528 7.208C5.56 7.272 5.592 7.352 5.624 7.448C5.656 7.512 5.688 7.608 5.72 7.736L5.672 8.36C5.64 8.392 5.608 8.424 5.576 8.456C5.576 8.488 5.544 8.52 5.48 8.552C5.48 8.584 5.496 8.6 5.528 8.6C5.592 8.664 5.624 8.728 5.624 8.792C5.624 8.952 5.608 9.096 5.576 9.224C5.544 9.352 5.56 9.464 5.624 9.56C5.688 9.592 5.752 9.656 5.816 9.752C5.88 9.816 5.944 9.896 6.008 9.992V10.04C6.008 10.072 5.992 10.104 5.96 10.136C5.96 10.136 5.944 10.216 5.912 10.376C5.944 10.44 5.96 10.6 5.96 10.856C5.96 10.952 5.896 11.064 5.768 11.192C5.832 11.448 5.848 11.624 5.816 11.72L5.768 11.912C5.768 12.168 5.896 12.264 6.152 12.2L7.64 11.96C7.672 11.96 7.752 12.008 7.88 12.104C8.008 12.2 8.088 12.232 8.12 12.2C8.568 12.136 8.968 11.976 9.32 11.72C9.544 11.752 9.688 11.688 9.752 11.528V11.48C9.752 11.352 9.672 11.24 9.512 11.144C9.48 11.08 9.432 11.016 9.368 10.952C9.336 10.856 9.288 10.76 9.224 10.664L9.32 9.992C9.32 9.992 9.304 9.976 9.272 9.944C9.272 9.88 9.256 9.784 9.224 9.656C9.16 9.496 9.16 9.368 9.224 9.272L9.416 9.32C9.448 9.32 9.464 9.336 9.464 9.368C9.496 9.368 9.528 9.368 9.56 9.368C9.72 9.368 9.8 9.304 9.8 9.176C9.8 8.952 9.72 8.84 9.56 8.84L9.224 9.08V8.84L9.368 8.216L9.272 7.88C9.656 7.816 9.848 7.736 9.848 7.64C9.848 7.576 9.752 7.528 9.56 7.496C9.4 7.496 9.192 7.448 8.936 7.352L8.984 7.016C9.048 6.824 9.08 6.728 9.08 6.728L8.936 6.152C9.032 5.672 9.064 5.416 9.032 5.384C9 5.224 8.968 5.096 8.936 5C8.936 4.872 8.952 4.744 8.984 4.616C8.952 4.488 8.936 4.344 8.936 4.184C8.936 4.024 8.936 3.832 8.936 3.608C8.808 3.48 8.744 3.304 8.744 3.08C8.744 2.856 8.824 2.536 8.984 2.12C8.92 2.056 8.856 1.992 8.792 1.928C8.728 1.864 8.664 1.784 8.6 1.688L8.792 1.064C8.792 0.999998 8.696 0.823997 8.504 0.535997C8.6 0.439999 8.744 0.375999 8.936 0.344C9.096 0.344 9.24 0.375999 9.368 0.439999C9.432 0.535999 9.512 0.584 9.608 0.584C9.768 0.519999 9.928 0.455998 10.088 0.391999C10.248 0.327998 10.424 0.263998 10.616 0.199999C10.744 0.199999 10.824 0.247999 10.856 0.344C10.888 0.471998 11 0.535997 11.192 0.535997C11.352 0.535997 11.592 0.423998 11.912 0.199999C11.976 0.199999 12.04 0.231998 12.104 0.295998V0.439999C12.008 0.471998 11.928 0.551998 11.864 0.679998L11.912 0.919998L12.056 0.967998C12.184 0.967998 12.232 0.903998 12.2 0.776V0.535997C12.424 0.471998 12.648 0.391998 12.872 0.295998C13.096 0.199999 13.32 0.119999 13.544 0.0559978C13.576 0.0559978 13.688 0.0879984 13.88 0.151999C13.848 0.215999 13.832 0.375998 13.832 0.631999C13.864 0.695998 13.896 0.775998 13.928 0.871999C13.96 0.935998 13.992 1.032 14.024 1.16C13.992 1.288 13.976 1.592 13.976 2.072L13.688 2.264C13.56 2.36 13.496 2.44 13.496 2.504C13.56 2.536 13.656 2.52 13.784 2.456C13.912 2.488 13.976 2.568 13.976 2.696C13.944 2.728 13.912 2.792 13.88 2.888C13.848 2.952 13.816 3.032 13.784 3.128L13.928 3.32C13.992 3.416 13.992 3.576 13.928 3.8C13.896 3.8 13.896 3.816 13.928 3.848C14.024 4.04 14.072 4.232 14.072 4.424C14.072 4.744 13.976 5.032 13.784 5.288C13.624 5.512 13.416 5.64 13.16 5.672L13.016 5.624C12.984 5.624 12.952 5.624 12.92 5.624C12.92 5.592 12.904 5.576 12.872 5.576C12.808 5.64 12.776 5.704 12.776 5.768C12.808 5.864 12.856 5.944 12.92 6.008L13.592 6.104C13.688 6.104 13.768 6.072 13.832 6.008L13.736 6.344L13.832 6.392L14.12 6.248C14.216 6.376 14.28 6.504 14.312 6.632C14.312 6.76 14.296 6.888 14.264 7.016C14.264 7.144 14.248 7.288 14.216 7.448C14.28 7.576 14.312 7.72 14.312 7.88C14.28 8.072 14.104 8.376 13.784 8.792C13.944 8.856 14.136 9.016 14.36 9.272V9.608C14.392 9.672 14.424 9.752 14.456 9.848C14.52 9.912 14.568 10.008 14.6 10.136L14.504 10.424C14.44 10.616 14.408 10.712 14.408 10.712L14.6 11.288V11.624C14.664 11.688 14.712 11.768 14.744 11.864L14.696 12.152C14.728 12.312 14.744 12.52 14.744 12.776C14.744 13 14.744 13.256 14.744 13.544L14.648 13.592L14.504 13.352V13.304C14.504 13.304 14.488 13.304 14.456 13.304C14.456 13.304 14.44 13.32 14.408 13.352C14.216 13.352 14.12 13.464 14.12 13.688C14.184 13.88 14.408 14.024 14.792 14.12C14.728 14.312 14.696 14.408 14.696 14.408L14.936 15.08C14.84 15.144 14.76 15.224 14.696 15.32C14.792 15.544 14.84 15.752 14.84 15.944C14.84 16.168 14.744 16.376 14.552 16.568L14.744 16.664C14.744 16.728 14.744 16.808 14.744 16.904C14.776 17 14.808 17.112 14.84 17.24L14.936 17.624C14.936 17.784 14.936 17.944 14.936 18.104C14.968 18.232 14.984 18.36 14.984 18.488C14.984 18.968 14.936 19.208 14.84 19.208H14.792C14.76 19.208 14.712 19.208 14.648 19.208C14.616 19.176 14.584 19.16 14.552 19.16C14.392 19.16 14.312 19.192 14.312 19.256C14.312 19.384 14.52 19.592 14.936 19.88C14.968 19.944 14.904 20.008 14.744 20.072L14.696 20.168C14.696 20.168 14.728 20.264 14.792 20.456C14.952 20.808 15 21.016 14.936 21.08C14.872 21.112 14.776 21.128 14.648 21.128L14.744 21.32C14.904 21.416 15.096 21.592 15.32 21.848L15.176 22.04C15.144 22.104 15.128 22.2 15.128 22.328C15.128 22.456 15.112 22.6 15.08 22.76L15.176 23.096C15.24 23.256 15.208 23.368 15.08 23.432L15.032 23.528C15.288 23.56 15.432 23.752 15.464 24.104C15.528 24.264 15.512 24.408 15.416 24.536L15.272 24.728C15.272 24.856 15.224 25.048 15.128 25.304C15.256 25.4 15.384 25.576 15.512 25.832C15.512 26.024 15.432 26.248 15.272 26.504L15.56 26.744C15.528 26.84 15.512 27.016 15.512 27.272L15.656 27.704V27.8C15.656 27.96 15.592 28.104 15.464 28.232C15.56 28.328 15.672 28.376 15.8 28.376C15.8 28.408 15.784 28.472 15.752 28.568C15.752 28.632 15.736 28.712 15.704 28.808C15.576 29 15.352 29.096 15.032 29.096C14.904 28.968 14.792 28.792 14.696 28.568L14.84 28.376C14.808 28.312 14.76 28.248 14.696 28.184C14.632 28.12 14.568 28.024 14.504 27.896H14.216V28.04C14.248 28.136 14.376 28.296 14.6 28.52L14.264 29C14.136 29.032 13.976 29.064 13.784 29.096C13.624 29.128 13.464 29.16 13.304 29.192C13.272 29.16 13.208 29.128 13.112 29.096C13.048 29.064 12.968 29.032 12.872 29C12.84 29.032 12.776 29.064 12.68 29.096C12.616 29.128 12.536 29.144 12.44 29.144H11.96L10.904 29.432C10.616 29.432 10.488 29.336 10.52 29.144L10.568 28.904C10.6 28.808 10.616 28.728 10.616 28.664C10.584 28.6 10.568 28.52 10.568 28.424C10.568 28.296 10.568 28.168 10.568 28.04C10.568 27.976 10.632 27.88 10.76 27.752C10.728 27.624 10.6 27.512 10.376 27.416V27.08C10.536 26.984 10.664 26.68 10.76 26.168H10.712C10.552 26.168 10.392 26.104 10.232 25.976L10.184 25.64C10.152 25.576 10.12 25.528 10.088 25.496C10.088 25.464 10.088 25.432 10.088 25.4L10.184 24.92C10.216 24.76 10.232 24.616 10.232 24.488C10.232 24.328 10.232 24.216 10.232 24.152L10.184 24.056C10.216 24.024 10.232 23.832 10.232 23.48L10.136 21.656C10.2 21.624 10.312 21.528 10.472 21.368L10.136 21.176C10.104 21.016 10.072 20.872 10.04 20.744C10.008 20.584 9.976 20.44 9.944 20.312L10.04 20.12C10.104 19.992 10.136 19.928 10.136 19.928C10.008 19.8 9.928 19.656 9.896 19.496L10.04 19.16H10.088C10.184 19.16 10.2 18.968 10.136 18.584C10.104 18.232 10.04 18.024 9.944 17.96C9.816 17.832 9.752 17.656 9.752 17.432V17.336C9.752 17.176 9.8 17.032 9.896 16.904C9.704 16.904 9.448 16.792 9.128 16.568C9.096 16.664 8.968 16.792 8.744 16.952C8.616 16.952 8.488 16.952 8.36 16.952C8.232 16.952 8.088 16.936 7.928 16.904L7.64 16.712C7.544 16.808 7.4 16.904 7.208 17L7.112 16.952H6.92C6.92 16.952 6.84 17 6.68 17.096C6.552 17.192 6.456 17.24 6.392 17.24L6.344 17.192H6.296C6.2 17.192 6.12 17.24 6.056 17.336L6.344 17.768C6.408 17.8 6.408 17.944 6.344 18.2C6.344 18.296 6.392 18.392 6.488 18.488C6.456 18.456 6.44 18.6 6.44 18.92L6.248 19.16C6.344 19.256 6.392 19.416 6.392 19.64V20.216C6.456 20.376 6.52 20.472 6.584 20.504C6.424 20.664 6.344 20.776 6.344 20.84L6.632 21.656C6.632 21.72 6.616 21.8 6.584 21.896C6.584 21.96 6.568 22.056 6.536 22.184V22.28C6.536 22.376 6.584 22.504 6.68 22.664C6.712 22.696 6.728 22.776 6.728 22.904L6.68 23.624C6.168 24.008 5.912 24.264 5.912 24.392C5.912 24.488 6.008 24.568 6.2 24.632L6.872 24.824C6.872 24.856 6.872 24.984 6.872 25.208C6.872 25.4 6.888 25.704 6.92 26.12H6.344C6.28 26.248 6.264 26.376 6.296 26.504V26.552C6.296 26.648 6.36 26.76 6.488 26.888C6.584 26.824 6.632 26.76 6.632 26.696H6.824C7.048 27.176 7.16 27.496 7.16 27.656L6.92 27.992C6.92 27.992 6.968 28.056 7.064 28.184C7.128 28.28 7.16 28.392 7.16 28.52C7.16 28.648 7.064 28.744 6.872 28.808C6.968 28.904 7.064 29.048 7.16 29.24C7.16 29.272 7.112 29.368 7.016 29.528C6.92 29.656 6.84 29.72 6.776 29.72L6.104 29.576C6.008 29.64 5.848 29.688 5.624 29.72L5.192 29.672L4.712 29.576L3.896 29.816L3.464 29.672C3.336 29.672 3.256 29.736 3.224 29.864C3.128 29.96 3.016 30.008 2.888 30.008ZM1.976 2.504C2.072 2.536 2.168 2.488 2.264 2.36C2.232 2.328 2.168 2.312 2.072 2.312C1.976 2.312 1.944 2.376 1.976 2.504ZM3.848 3.512C3.88 3.448 3.848 3.384 3.752 3.32C3.72 3.256 3.656 3.272 3.56 3.368C3.624 3.464 3.72 3.512 3.848 3.512ZM10.04 5.24L10.136 5.096C10.136 4.936 10.216 4.824 10.376 4.76C10.536 4.696 10.616 4.616 10.616 4.52L10.568 4.376V4.328C10.504 4.264 10.376 4.264 10.184 4.328C10.248 4.52 10.248 4.648 10.184 4.712C10.024 4.712 9.896 4.76 9.8 4.856L10.04 5.24ZM3.752 9.368C3.752 9.304 3.72 9.24 3.656 9.176C3.656 9.144 3.624 9.16 3.56 9.224L3.752 9.368ZM5.048 11.384C5.048 11.352 5.048 11.336 5.048 11.336C5.08 11.304 5.096 11.288 5.096 11.288C5.096 11.096 5 11.064 4.808 11.192C4.808 11.256 4.888 11.32 5.048 11.384ZM9.464 12.824C9.432 12.824 9.48 12.872 9.608 12.968V12.824C9.576 12.76 9.528 12.76 9.464 12.824ZM10.136 15.368C10.168 15.336 10.184 15.288 10.184 15.224C10.184 15.128 10.12 15.096 9.992 15.128C9.928 15.192 9.976 15.272 10.136 15.368ZM2.6 17.72C2.696 17.72 2.744 17.688 2.744 17.624V17.48L2.408 17.432L2.36 17.576C2.36 17.608 2.392 17.656 2.456 17.72H2.6ZM10.856 23.768C11.272 23.608 11.448 23.448 11.384 23.288C11.384 23.16 11.288 23.128 11.096 23.192L10.856 23.768ZM10.184 24.008V24.056V24.008ZM4.28 27.08C4.504 27.048 4.616 26.936 4.616 26.744C4.616 26.392 4.52 26.216 4.328 26.216C3.976 26.28 3.8 26.392 3.8 26.552C3.8 26.584 3.8 26.632 3.8 26.696C3.832 26.76 3.88 26.824 3.944 26.888C4.072 27.016 4.184 27.08 4.28 27.08ZM13.112 28.088C13.176 28.088 13.24 28.008 13.304 27.848C13.24 27.816 13.176 27.832 13.112 27.896C13.048 27.96 13.048 28.024 13.112 28.088ZM21.7599 29.192L21.1359 29H20.9439C20.8479 29 20.7359 29 20.6079 29C20.4799 28.968 20.3359 28.936 20.1759 28.904L19.1679 28.04C18.9119 27.784 18.7199 27.48 18.5919 27.128C18.5599 27 18.5279 26.84 18.4959 26.648C18.4639 26.456 18.4159 26.232 18.3519 25.976L18.3999 25.736C18.3999 25.64 18.3839 25.56 18.3519 25.496C18.2879 25.304 18.2559 25.208 18.2559 25.208C18.2879 25.144 18.3039 25.048 18.3039 24.92C18.3039 24.76 18.3039 24.6 18.3039 24.44L18.0159 23.48V23.336C18.0159 23.272 18.0159 23.192 18.0159 23.096C18.0159 23 18.0319 22.904 18.0639 22.808L18.3039 22.232V21.896C18.4319 21.704 18.5599 21.464 18.6879 21.176C18.8159 20.856 18.9439 20.488 19.0719 20.072L19.4559 19.88C19.4879 19.816 19.5199 19.752 19.5519 19.688C19.5839 19.624 19.6319 19.56 19.6959 19.496L20.3679 18.824C20.3999 18.76 20.4319 18.696 20.4639 18.632C20.4959 18.536 20.5439 18.424 20.6079 18.296L22.3359 17.24C22.4959 17.144 22.6559 17.048 22.8159 16.952C22.9759 16.856 23.1359 16.744 23.2959 16.616C23.2959 16.616 23.3919 16.648 23.5839 16.712C23.6159 16.68 23.6479 16.648 23.6799 16.616C23.7119 16.552 23.7599 16.504 23.8239 16.472L24.3039 16.28C24.3039 16.12 24.3679 15.96 24.4959 15.8C24.5919 15.736 24.7039 15.64 24.8319 15.512C24.9919 15.384 25.1679 15.224 25.3599 15.032C25.3919 15 25.3919 14.84 25.3599 14.552C25.4239 14.616 25.4559 14.6 25.4559 14.504C25.4559 14.216 25.4399 14.104 25.4079 14.168C25.3759 14.04 25.3279 13.912 25.2639 13.784C25.2319 13.624 25.1999 13.464 25.1679 13.304C25.1359 13.272 25.1519 13.176 25.2159 13.016L25.3119 12.776C25.3119 12.776 25.2319 12.664 25.0719 12.44L24.5919 11.816C24.4319 11.656 24.2239 11.592 23.9679 11.624L23.7279 11.672C23.5359 11.736 23.4399 11.768 23.4399 11.768H23.0079L22.9119 11.864C22.9439 11.896 22.9759 11.928 23.0079 11.96C23.0399 11.992 23.0719 12.04 23.1039 12.104C23.1039 12.168 23.0879 12.216 23.0559 12.248V12.392C22.9279 12.424 22.7839 12.552 22.6239 12.776C22.5599 12.968 22.5279 13.144 22.5279 13.304C22.5919 13.432 22.6879 13.56 22.8159 13.688C22.7839 13.72 22.7359 13.736 22.6719 13.736C22.6079 13.992 22.6079 14.168 22.6719 14.264L22.8159 14.456V14.696C22.8159 14.728 22.7679 14.776 22.6719 14.84L22.0959 14.696C22.0639 14.568 21.9839 14.536 21.8559 14.6C21.7599 14.664 21.6799 14.648 21.6159 14.552H21.5199C21.4239 14.552 21.3599 14.52 21.3279 14.456C21.2959 14.36 21.2319 14.376 21.1359 14.504L20.8479 14.84C20.6879 14.84 20.5599 14.856 20.4639 14.888L20.2239 14.792C20.1279 14.728 20.0639 14.712 20.0319 14.744C19.9999 14.744 19.9679 14.744 19.9359 14.744L18.9279 15.032C18.8639 15.032 18.7839 15.032 18.6879 15.032C18.5919 15.032 18.4799 15.016 18.3519 14.984L18.1119 14.264C18.1119 14.232 18.1279 14.216 18.1599 14.216C18.1919 14.184 18.2079 14.152 18.2079 14.12L18.2559 13.976C18.2239 13.88 18.2079 13.768 18.2079 13.64C18.2079 13.48 18.2079 13.32 18.2079 13.16C18.3039 13.064 18.3679 12.968 18.3999 12.872C18.4319 12.776 18.4479 12.568 18.4479 12.248V11.96C18.4479 11.128 19.1519 10.088 20.5599 8.84C20.5919 8.744 20.7039 8.6 20.8959 8.408C20.9279 8.376 21.1359 8.28 21.5199 8.12C21.5839 8.056 21.5999 8.008 21.5679 7.976L21.6159 7.736C21.7439 7.768 21.8719 7.8 21.9999 7.832C22.1599 7.832 22.3039 7.832 22.4319 7.832L22.7679 7.688C22.8319 7.656 22.8959 7.624 22.9599 7.592C23.0239 7.56 23.0719 7.544 23.1039 7.544H23.4399C23.4719 7.512 23.5839 7.464 23.7759 7.4C23.9679 7.368 24.1279 7.352 24.2559 7.352C24.4159 7.32 24.5599 7.304 24.6879 7.304C24.8479 7.304 25.1839 7.352 25.6959 7.448C26.2719 7.544 26.5919 7.64 26.6559 7.736L26.6079 8.072L26.7519 8.264L27.0399 8.12C27.1359 8.12 27.2479 8.216 27.3759 8.408L27.7599 8.456C27.8239 8.456 27.8879 8.472 27.9519 8.504C28.0479 8.504 28.1119 8.504 28.1439 8.504C28.1759 8.536 28.2079 8.568 28.2399 8.6C28.2719 8.6 28.3039 8.632 28.3359 8.696V9.08L27.9519 9.272C27.9839 9.4 28.1119 9.48 28.3359 9.512C28.5919 9.544 28.7359 9.592 28.7679 9.656L29.2479 11.432C29.2479 11.528 29.3439 11.656 29.5359 11.816C29.5679 12.04 29.5839 12.296 29.5839 12.584C29.5839 12.872 29.5839 13.176 29.5839 13.496L29.7279 13.736C29.7599 13.768 29.7759 13.944 29.7759 14.264L29.7279 15.08C29.6959 15.368 29.6799 15.624 29.6799 15.848C29.6799 16.04 29.6799 16.2 29.6799 16.328L29.7759 16.472C29.8079 16.792 29.8239 17.048 29.8239 17.24C29.8559 17.4 29.8719 17.464 29.8719 17.432L29.6799 17.912C29.6479 18.04 29.6159 18.136 29.5839 18.2C29.5839 18.232 29.5839 18.264 29.5839 18.296C29.5839 18.392 29.5839 18.488 29.5839 18.584C29.6159 18.68 29.6479 18.776 29.6799 18.872C29.7439 18.936 29.7919 19.032 29.8239 19.16C29.8879 19.256 29.9359 19.368 29.9679 19.496L29.9199 20.12C29.8879 20.152 29.8559 20.216 29.8239 20.312C29.7919 20.376 29.7599 20.456 29.7279 20.552C29.7279 20.552 29.7919 20.984 29.9199 21.848L29.7279 22.52C29.7599 22.552 29.8079 22.664 29.8719 22.856C29.9359 23.016 29.9679 23.112 29.9679 23.144V23.384C29.9679 23.576 29.9519 23.72 29.9199 23.816C30.2079 23.848 30.3519 24.088 30.3519 24.536L30.2559 24.824C30.1919 25.016 30.1599 25.112 30.1599 25.112L30.3039 25.64C30.3359 25.768 30.3519 25.912 30.3519 26.072C30.3839 26.232 30.3999 26.44 30.3999 26.696V27.176C30.4959 27.304 30.5919 27.528 30.6879 27.848V27.896C30.6879 28.248 30.2559 28.456 29.3919 28.52L28.4799 28.376C28.4479 28.376 28.3519 28.376 28.1919 28.376C28.0319 28.376 27.7919 28.392 27.4719 28.424C27.4399 28.424 27.3919 28.456 27.3279 28.52C27.2639 28.584 27.1999 28.616 27.1359 28.616H26.7039C26.7039 28.616 26.5119 28.552 26.1279 28.424L26.2239 27.992C26.2239 27.8 26.1279 27.656 25.9359 27.56C25.9359 27.528 25.9519 27.4 25.9839 27.176L26.0799 26.84C25.8559 26.872 25.2799 27.352 24.3519 28.28C24.1279 28.504 23.9679 28.6 23.8719 28.568L23.6799 28.52C23.5839 28.616 23.4879 28.696 23.3919 28.76C23.1999 28.856 23.0239 28.904 22.8639 28.904C22.8319 28.936 22.8159 28.936 22.8159 28.904C22.7839 28.872 22.7519 28.856 22.7199 28.856C22.6879 28.888 22.5279 28.952 22.2399 29.048C21.9839 29.144 21.8239 29.192 21.7599 29.192ZM21.9999 8.504C21.9999 8.408 21.9359 8.344 21.8079 8.312C21.7439 8.376 21.7119 8.424 21.7119 8.456C21.7439 8.648 21.8399 8.664 21.9999 8.504ZM27.9519 10.952L28.0959 10.76C28.1279 10.696 28.0959 10.632 27.9999 10.568C27.9039 10.536 27.7919 10.536 27.6639 10.568C27.6959 10.664 27.7919 10.792 27.9519 10.952ZM21.1359 12.68L21.7119 12.632C21.9679 12.632 22.0959 12.52 22.0959 12.296L21.9999 12.056L21.3759 12.008C21.1199 12.008 21.0079 12.104 21.0399 12.296L21.0879 12.488C21.1199 12.552 21.1359 12.616 21.1359 12.68ZM25.5039 16.184C25.5359 16.216 25.6159 16.216 25.7439 16.184L25.6959 15.992C25.5679 16.024 25.5039 16.088 25.5039 16.184ZM22.3359 19.016L22.3839 18.776L22.0959 18.728L22.3359 19.016ZM23.4879 24.968H23.7279C23.7919 24.968 23.8559 24.936 23.9199 24.872C23.9839 24.808 24.0319 24.776 24.0639 24.776C24.1279 24.808 24.2239 24.856 24.3519 24.92C24.4799 24.92 24.6239 24.84 24.7839 24.68C24.8479 24.52 24.9439 24.328 25.0719 24.104C25.2319 24.04 25.4079 23.912 25.5999 23.72C25.5679 23.656 25.5519 23.528 25.5519 23.336C25.5519 23.176 25.5519 23 25.5519 22.808C25.5839 22.616 25.6159 22.408 25.6479 22.184C25.6159 22.024 25.5839 21.848 25.5519 21.656C25.5199 21.432 25.4879 21.176 25.4559 20.888C25.4559 20.696 25.5519 20.584 25.7439 20.552C25.6479 20.232 25.4399 19.784 25.1199 19.208H24.3519C24.2559 19.592 24.1119 19.928 23.9199 20.216L23.5839 20.456L23.3919 20.792L23.0559 20.984C23.0239 21.112 22.9599 21.256 22.8639 21.416C22.7999 21.576 22.7359 21.768 22.6719 21.992C22.6719 22.184 22.5599 22.504 22.3359 22.952L22.3839 23.144C22.1599 23.4 22.0479 23.56 22.0479 23.624C22.1119 23.592 22.1759 23.624 22.2399 23.72L22.5279 24.488C22.5919 24.52 22.6559 24.552 22.7199 24.584C22.7839 24.584 22.8479 24.616 22.9119 24.68C22.9439 24.712 22.9759 24.744 23.0079 24.776C23.0399 24.808 23.0719 24.856 23.1039 24.92L23.4879 24.968ZM28.3839 22.52C28.4479 22.52 28.5279 22.472 28.6239 22.376C28.7519 22.248 28.8159 22.152 28.8159 22.088L28.7199 21.896C28.6879 21.864 28.6399 21.848 28.5759 21.848C28.5119 21.848 28.4479 21.832 28.3839 21.8L28.0479 22.04C28.0799 22.072 28.1279 22.184 28.1919 22.376C28.2559 22.472 28.3199 22.52 28.3839 22.52ZM26.4159 23.864L26.7039 23.768C26.6719 23.736 26.6559 23.656 26.6559 23.528L26.3679 23.576C26.3679 23.736 26.3839 23.832 26.4159 23.864ZM23.8719 27.944C23.9359 27.688 23.9199 27.56 23.8239 27.56L23.7279 27.656C23.6959 27.688 23.6799 27.768 23.6799 27.896L23.8719 27.944ZM33.3676 29.192C33.2396 29.064 33.1756 28.984 33.1756 28.952C33.1756 28.824 33.3676 28.52 33.7516 28.04V27.848C33.7516 27.72 33.7356 27.608 33.7036 27.512C33.7036 27.384 33.6876 27.256 33.6556 27.128L34.1356 26.168C34.2316 25.944 34.2476 25.8 34.1836 25.736L33.6076 25.64L33.7036 25.304C33.7676 25.24 33.7676 25.112 33.7036 24.92C33.4796 24.728 33.3676 24.584 33.3676 24.488C33.3676 24.072 33.5116 23.704 33.7996 23.384H33.8476C33.8476 23.384 33.7676 23.32 33.6076 23.192C33.4796 23.064 33.3996 23 33.3676 23L33.4636 22.328C33.4636 22.296 33.4956 22.248 33.5596 22.184C33.6236 22.12 33.6556 22.072 33.6556 22.04L33.5116 21.656C33.4156 21.4 33.3676 21.256 33.3676 21.224L33.5116 21.032V20.312L33.6556 19.736C33.6876 19.672 33.6876 19.608 33.6556 19.544C33.6556 19.48 33.6556 19.4 33.6556 19.304L33.6076 18.824C33.6076 18.792 33.6556 18.728 33.7516 18.632C33.8476 18.536 33.8956 18.472 33.8956 18.44C33.8956 18.44 33.8156 18.328 33.6556 18.104L33.7036 17.96C33.7036 17.928 33.7036 17.88 33.7036 17.816C33.7036 17.752 33.6876 17.656 33.6556 17.528C33.6556 17.528 33.6396 17.528 33.6076 17.528C33.6076 17.496 33.6076 17.464 33.6076 17.432C33.6076 17.272 33.6236 17.144 33.6556 17.048C33.7196 16.952 33.7516 16.888 33.7516 16.856L33.6556 16.616C33.5916 16.488 33.5596 16.424 33.5596 16.424L33.7036 16.136C33.7996 15.976 33.8476 15.864 33.8476 15.8L33.7036 15.08C33.6716 14.856 33.6236 14.696 33.5596 14.6C33.5276 14.504 33.5116 14.44 33.5116 14.408C33.5116 14.312 33.5916 14.216 33.7516 14.12L33.9916 13.976C34.1196 13.72 34.1836 13.528 34.1836 13.4C34.1836 12.984 34.1356 12.728 34.0396 12.632C33.8476 12.376 33.7516 12.248 33.7516 12.248L33.7036 11.912V11.288C34.2476 11.224 34.5196 11.032 34.5196 10.712C34.5196 10.52 34.4396 10.424 34.2796 10.424C34.2156 10.424 34.1196 10.456 33.9916 10.52L33.8956 10.28C33.8636 10.216 33.8316 10.168 33.7996 10.136C33.7676 10.072 33.7516 10.024 33.7516 9.992C33.7516 9.832 33.7356 9.624 33.7036 9.368C33.7036 9.08 33.6876 8.76 33.6556 8.408C33.6556 8.376 33.6236 8.328 33.5596 8.264C33.4956 8.2 33.4636 8.136 33.4636 8.072C33.4636 7.784 33.5596 7.64 33.7516 7.64L34.3276 7.736C34.4876 7.768 34.5996 7.8 34.6636 7.832C34.7596 7.864 34.8236 7.88 34.8556 7.88L35.0476 7.832H35.2876L35.5276 7.88C35.5916 7.88 35.6236 7.896 35.6236 7.928C35.6556 7.928 35.6876 7.928 35.7196 7.928L35.9596 7.832C36.0236 7.8 36.0876 7.784 36.1516 7.784L36.6796 7.832C36.8396 7.864 36.9516 7.88 37.0156 7.88C37.0796 7.88 37.1276 7.88 37.1596 7.88L37.5436 7.784C37.6716 7.752 37.7516 7.736 37.7836 7.736C37.8476 7.736 37.8956 7.736 37.9276 7.736C38.1516 7.736 38.2956 7.96 38.3596 8.408C38.4236 8.888 38.6316 9.128 38.9836 9.128C39.2076 9.128 39.3676 9.064 39.4636 8.936C39.4956 8.872 39.5276 8.808 39.5596 8.744C39.5916 8.68 39.6396 8.6 39.7036 8.504H40.0396C40.3596 8.088 40.6476 7.88 40.9036 7.88L41.1916 8.024C41.1916 8.024 41.2236 7.992 41.2876 7.928C41.7676 7.704 42.0876 7.592 42.2476 7.592C42.3436 7.592 42.4556 7.608 42.5836 7.64C42.7116 7.64 42.8396 7.656 42.9676 7.688C43.0956 7.816 43.1596 7.96 43.1596 8.12C43.1596 8.12 43.0796 8.232 42.9196 8.456C42.9516 8.584 42.9676 8.744 42.9676 8.936C42.9996 9.128 42.9996 9.352 42.9676 9.608C42.8716 9.8 42.7916 9.896 42.7276 9.896C42.7276 9.896 42.7436 9.912 42.7756 9.944C42.8076 9.976 42.8396 10.056 42.8716 10.184L43.0156 10.52C43.0156 10.648 42.9676 10.744 42.8716 10.808C42.7756 10.84 42.7276 10.904 42.7276 11C42.7276 11.032 42.7436 11.08 42.7756 11.144C42.8076 11.176 42.8396 11.224 42.8716 11.288L42.9676 11.528C42.9676 11.528 42.9516 11.56 42.9196 11.624C42.8876 11.656 42.8396 11.704 42.7756 11.768C42.9676 11.896 43.0636 12.152 43.0636 12.536C43.0636 12.792 42.9356 12.92 42.6796 12.92C42.6796 12.92 42.4076 12.856 41.8636 12.728C41.3516 12.6 40.9676 12.536 40.7116 12.536C40.8076 12.536 40.5356 12.648 39.8956 12.872H39.7996C39.5756 12.872 39.3356 12.936 39.0796 13.064C39.0476 13.16 38.9996 13.272 38.9356 13.4C38.8716 13.528 38.8076 13.672 38.7436 13.832C38.6796 13.864 38.5996 13.896 38.5036 13.928C38.4396 13.96 38.3596 14.008 38.2636 14.072C38.2636 14.072 38.2316 14.216 38.1676 14.504C37.8476 14.632 37.6876 14.776 37.6876 14.936C37.6876 15.064 37.7996 15.144 38.0236 15.176C38.0876 15.144 38.1516 15.208 38.2156 15.368L38.1196 15.896C38.2796 16.376 38.3756 16.616 38.4076 16.616C38.4076 16.616 38.3916 16.648 38.3596 16.712C38.3276 16.776 38.2796 16.824 38.2156 16.856C38.0236 16.92 37.9276 16.952 37.9276 16.952C37.9276 16.984 37.9276 17.064 37.9276 17.192C37.9596 17.288 37.9916 17.432 38.0236 17.624C37.9916 17.688 37.9756 17.8 37.9756 17.96C37.9756 18.088 37.9756 18.232 37.9756 18.392C37.9116 18.456 37.8796 18.504 37.8796 18.536C37.8796 18.568 37.9756 18.616 38.1676 18.68C38.3276 18.776 38.4076 18.84 38.4076 18.872C38.4076 18.904 38.3916 18.92 38.3596 18.92L37.9756 19.304C37.9436 19.4 37.9276 19.544 37.9276 19.736C37.9276 19.992 38.0236 20.216 38.2156 20.408L38.0236 20.84V20.936C38.0236 20.968 38.0236 21.016 38.0236 21.08C38.0236 21.144 38.0396 21.224 38.0716 21.32L37.7836 21.656C37.8796 21.752 37.9756 21.896 38.0716 22.088C38.1036 22.152 38.1196 22.248 38.1196 22.376C38.1516 22.472 38.1676 22.6 38.1676 22.76C38.1676 22.632 38.1196 22.712 38.0236 23C37.9916 23.096 37.9756 23.32 37.9756 23.672C37.9756 23.704 38.0236 23.768 38.1196 23.864C38.1516 23.928 38.1676 23.976 38.1676 24.008C38.1996 24.04 38.2156 24.072 38.2156 24.104C38.1836 24.104 38.1196 24.264 38.0236 24.584C38.0236 24.68 38.0396 24.744 38.0716 24.776V24.824C38.0716 24.952 38.0236 25.16 37.9276 25.448L37.9756 25.784V25.88C37.9756 25.912 37.9596 25.96 37.9276 26.024C37.9276 26.088 37.9116 26.168 37.8796 26.264C37.8796 26.296 37.7836 26.344 37.5916 26.408C37.5916 26.504 37.6396 26.728 37.7356 27.08C37.8316 27.336 37.8156 27.56 37.6876 27.752V27.896C37.7516 27.928 37.9276 27.944 38.2156 27.944L38.2636 28.088C38.2636 28.216 38.1996 28.392 38.0716 28.616C37.9436 28.904 37.8316 29.048 37.7356 29.048L37.5436 29C37.4796 28.968 37.3996 28.952 37.3036 28.952L37.1116 29.048C37.0156 29.08 36.9196 29.096 36.8236 29.096L35.2876 28.904L35.1436 28.952C35.1116 28.952 35.0796 28.968 35.0476 29C35.0476 29 35.0316 29 34.9996 29C34.9676 29 34.9356 28.984 34.9036 28.952C34.8716 28.92 34.8236 28.904 34.7596 28.904L34.5196 28.856C34.4236 28.856 34.3596 28.872 34.3276 28.904L34.1356 29C34.0716 29.032 33.8156 29.096 33.3676 29.192ZM34.8556 8.984C34.8556 8.888 34.8236 8.808 34.7596 8.744C34.7276 8.68 34.6636 8.696 34.5676 8.792C34.5676 8.856 34.6636 8.92 34.8556 8.984ZM37.1596 10.424C37.1916 10.392 37.1596 10.328 37.0636 10.232L36.9196 10.328C36.9516 10.36 36.9836 10.376 37.0156 10.376C37.0796 10.376 37.1276 10.392 37.1596 10.424ZM37.2076 11.192C37.2396 11.128 37.2236 11.064 37.1596 11C37.0956 10.936 37.0156 10.936 36.9196 11C36.9516 11.064 37.0476 11.128 37.2076 11.192ZM41.1916 11.672C41.2236 11.576 41.2076 11.496 41.1436 11.432C41.1116 11.4 41.0316 11.416 40.9036 11.48C40.9036 11.544 40.9996 11.608 41.1916 11.672ZM38.1196 13.304L38.1676 13.208L37.7356 12.968V13.256L38.1196 13.304ZM35.5756 19.016C35.6396 19.016 35.7036 18.936 35.7676 18.776L35.8636 18.536V18.2L35.5276 18.056C35.1436 18.056 34.9196 18.104 34.8556 18.2V18.248C34.8556 18.344 34.9676 18.44 35.1916 18.536L35.3836 18.776C35.4796 18.936 35.5436 19.016 35.5756 19.016ZM38.2156 24.104V24.152C38.2156 24.152 38.2156 24.136 38.2156 24.104ZM37.1116 24.776L37.0636 24.632C37.0316 24.664 37.0476 24.712 37.1116 24.776ZM34.1356 28.472C34.1676 28.472 34.2476 28.408 34.3756 28.28C34.4076 28.216 34.3916 28.152 34.3276 28.088C34.2956 28.024 34.2316 28.04 34.1356 28.136V28.472ZM35.0956 28.472L35.1916 28.328H34.9516L35.0956 28.472ZM49.0325 29.576C48.9685 29.576 48.8885 29.576 48.7925 29.576C48.6965 29.576 48.6005 29.56 48.5045 29.528L48.0245 29.432C47.9925 29.432 47.9765 29.432 47.9765 29.432C47.9765 29.464 47.9605 29.48 47.9285 29.48H47.8325C47.7685 29.48 47.6725 29.416 47.5445 29.288C47.4485 29.192 47.3205 29.144 47.1605 29.144L46.8245 29.192C46.7605 29.192 46.6965 29.144 46.6325 29.048C46.6005 29.016 46.5845 28.952 46.5845 28.856C46.5525 28.792 46.4885 28.728 46.3925 28.664C46.3285 28.6 46.2645 28.504 46.2005 28.376C46.2005 28.248 46.1205 28.056 45.9605 27.8L45.6245 27.752C45.5925 27.56 45.5285 27.32 45.4325 27.032C45.3685 26.744 45.2725 26.392 45.1445 25.976C45.3045 25.912 45.4325 25.768 45.5285 25.544L45.1925 25.304C45.2245 25.048 45.2405 24.872 45.2405 24.776C45.2405 24.648 45.2405 24.568 45.2405 24.536C45.1445 24.504 45.0165 24.312 44.8565 23.96L44.9045 23.768V23.672C44.9365 23.608 44.9685 23.528 45.0005 23.432C45.0325 23.336 45.0645 23.256 45.0965 23.192C45.1925 23 45.2405 22.84 45.2405 22.712C45.2085 22.744 45.1765 22.504 45.1445 21.992L44.8085 21.224C44.7765 20.936 44.7765 20.488 44.8085 19.88V19.784C44.8085 19.656 44.7925 19.48 44.7605 19.256C44.7605 19 44.7445 18.696 44.7125 18.344L44.4725 17.864C44.4725 17.704 44.5525 17.544 44.7125 17.384L44.4245 17L44.2805 15.032C44.2805 15.032 44.2805 15.016 44.2805 14.984V15.032C44.2805 15.032 44.2965 15.032 44.3285 15.032C44.3285 15.032 44.3285 15 44.3285 14.936C44.3605 14.84 44.3925 14.696 44.4245 14.504C44.4885 14.44 44.4885 14.2 44.4245 13.784L44.2805 13.4C44.2805 13.4 44.3925 13.256 44.6165 12.968L44.5685 11.096C44.6645 11.032 44.7445 10.952 44.8085 10.856C44.8085 10.824 44.7925 10.792 44.7605 10.76C44.7605 10.696 44.7605 10.648 44.7605 10.616C44.7605 10.264 44.9365 9.88 45.2885 9.464C45.3845 9.432 45.4965 9.384 45.6245 9.32C45.7845 9.224 45.9605 9.112 46.1525 8.984C46.1845 8.888 46.2325 8.792 46.2965 8.696C46.3925 8.6 46.5045 8.488 46.6325 8.36L47.1605 8.456C47.1605 8.456 47.2565 8.424 47.4485 8.36C47.6405 8.296 47.7365 8.264 47.7365 8.264C47.8645 8.232 47.9765 8.28 48.0725 8.408C48.1685 8.536 48.2645 8.6 48.3605 8.6C48.5205 8.6 48.7125 8.408 48.9365 8.024L49.0805 7.976L49.5125 8.456C49.9285 8.712 50.3765 8.824 50.8565 8.792L51.3845 8.648C51.4805 8.488 51.5285 8.328 51.5285 8.168C51.5285 7.784 51.4805 7.56 51.3845 7.496C51.2885 7.4 51.2565 7.336 51.2885 7.304L51.3845 7.064C51.3525 6.904 51.3045 6.664 51.2405 6.344C51.2405 6.344 51.2085 6.28 51.1445 6.152C51.0805 6.088 51.0485 6.024 51.0485 5.96L51.1925 5.528C51.2565 5.4 51.2885 5.304 51.2885 5.24C51.2885 5.176 51.2885 5.128 51.2885 5.096C51.2885 5.064 51.2725 5.032 51.2405 5C51.2405 4.968 51.2245 4.92 51.1925 4.856C51.0965 4.76 51.0485 4.696 51.0485 4.664C51.0485 4.504 51.1125 4.376 51.2405 4.28C51.4965 4.216 51.6245 4.152 51.6245 4.088C51.6245 3.928 51.5125 3.8 51.2885 3.704C51.1925 3.448 51.1605 3.176 51.1925 2.888C51.0005 2.728 50.9045 2.616 50.9045 2.552C50.9365 2.456 50.9525 2.344 50.9525 2.216C50.9525 2.056 50.9525 1.896 50.9525 1.736L50.6645 0.823999C50.6645 0.759998 50.7765 0.615998 51.0005 0.391999C51.1285 0.455998 51.2085 0.471998 51.2405 0.439999L51.4805 0.391999C51.5765 0.391999 51.8645 0.439999 52.3445 0.535997L52.5365 0.439999C52.5685 0.407999 52.6165 0.391999 52.6805 0.391999L52.8725 0.439999C52.9045 0.439999 52.9205 0.455998 52.9205 0.487998C52.9525 0.519998 52.9845 0.535997 53.0165 0.535997L53.4965 0.295998C53.7525 0.167997 53.9125 0.103997 53.9765 0.103997L54.2645 0.151999C54.3605 0.183999 54.4565 0.199999 54.5525 0.199999C54.6485 0.199999 54.7285 0.199999 54.7925 0.199999C55.0485 0.199999 55.2085 0.183999 55.2725 0.151999C55.3365 0.28 55.4165 0.424 55.5125 0.584C55.6085 0.743999 55.6885 0.903999 55.7525 1.064L55.6565 1.304C55.6245 1.368 55.5925 1.416 55.5605 1.448C55.5605 1.48 55.5605 1.512 55.5605 1.544V2.12C55.4965 2.184 55.4485 2.264 55.4165 2.36L55.3685 2.552L55.1285 2.888C55.3205 2.92 55.5445 3.112 55.8005 3.464C55.8005 3.464 55.7365 3.624 55.6085 3.944V4.28C55.5765 4.312 55.5285 4.36 55.4645 4.424C55.4325 4.456 55.3685 4.504 55.2725 4.568C55.2725 4.696 55.3045 4.792 55.3685 4.856L55.6565 5.096C55.8805 5.608 56.0245 6.024 56.0885 6.344C56.0565 6.312 56.0245 6.536 55.9925 7.016C55.9925 7.08 55.9285 7.176 55.8005 7.304V7.544C55.8645 7.704 55.9285 7.928 55.9925 8.216C56.0565 8.472 56.1205 8.776 56.1845 9.128C55.9605 9.256 55.8485 9.368 55.8485 9.464L55.9925 9.848C55.9925 9.88 55.9925 9.976 55.9925 10.136C56.0245 10.296 56.0405 10.504 56.0405 10.76C56.0405 10.856 56.0725 11 56.1365 11.192L56.2325 11.528C56.2325 11.56 56.2165 11.672 56.1845 11.864C56.1525 12.024 56.1045 12.232 56.0405 12.488C56.1045 12.744 56.2325 13 56.4245 13.256L56.3765 14.168C56.3765 14.456 56.3605 14.584 56.3285 14.552C56.3285 14.584 56.3285 14.616 56.3285 14.648C56.3605 14.68 56.3925 14.728 56.4245 14.792C56.3605 15.208 56.3125 15.752 56.2805 16.424C56.3445 16.552 56.4085 16.68 56.4725 16.808C56.5365 16.936 56.6005 17.08 56.6645 17.24L56.3765 17.912L56.4725 19.304C56.4725 19.4 56.5525 19.56 56.7125 19.784C56.6485 19.816 56.5205 19.928 56.3285 20.12L56.7605 21.176C56.7605 21.208 56.7125 21.352 56.6165 21.608L56.4725 22.088C56.4725 22.12 56.4725 22.184 56.4725 22.28C56.4725 22.344 56.4885 22.424 56.5205 22.52C56.5845 22.552 56.7285 22.552 56.9525 22.52C56.9845 22.616 56.9845 22.728 56.9525 22.856L56.8565 23.192C56.8885 23.288 56.9045 23.48 56.9045 23.768C56.9045 23.896 56.8885 24.008 56.8565 24.104C56.7925 24.296 56.7605 24.392 56.7605 24.392C56.7605 24.488 56.8245 24.552 56.9525 24.584C56.9845 24.616 57.0005 24.776 57.0005 25.064V25.448C57.0645 25.48 57.1125 25.576 57.1445 25.736C57.1445 25.864 57.0325 26.216 56.8085 26.792L57.0485 26.936L57.1925 27.656V27.944C57.1925 28.072 57.1765 28.2 57.1445 28.328C57.1445 28.456 57.1285 28.584 57.0965 28.712L56.4245 29C56.3925 29 56.3285 29 56.2325 29C56.1365 28.968 56.0085 28.952 55.8485 28.952H55.2725C55.1765 28.888 55.0325 28.84 54.8405 28.808L54.6485 28.856C54.5525 28.888 54.4725 28.904 54.4085 28.904C54.4085 28.904 54.2645 28.904 53.9765 28.904H53.4965C53.4325 28.968 53.3525 29.032 53.2565 29.096L52.8245 29.192C52.5685 29.192 52.4085 29.016 52.3445 28.664C52.3125 28.632 52.2485 28.616 52.1525 28.616C52.0885 28.616 52.0245 28.648 51.9605 28.712C51.7365 28.84 51.4645 28.968 51.1445 29.096C50.8565 29.224 50.5205 29.352 50.1365 29.48C50.0725 29.448 49.9285 29.432 49.7045 29.432C49.6405 29.464 49.5605 29.48 49.4645 29.48C49.4005 29.512 49.3045 29.544 49.1765 29.576H49.0325ZM54.4085 1.016L54.6005 0.919998L54.5045 0.776C54.4725 0.808 54.4565 0.839999 54.4565 0.871999C54.4565 0.903998 54.4405 0.951999 54.4085 1.016ZM52.6805 2.696C52.7445 2.696 52.8085 2.664 52.8725 2.6C52.9365 2.536 52.9205 2.472 52.8245 2.408C52.7285 2.44 52.6805 2.536 52.6805 2.696ZM53.4005 7.496L53.4485 7.352L53.2565 7.256C53.1925 7.32 53.1445 7.352 53.1125 7.352L53.2085 7.496H53.4005ZM48.5525 9.56L48.5045 9.272L48.2165 9.32V9.416L48.5525 9.56ZM50.4725 10.664C50.5685 10.568 50.6325 10.52 50.6645 10.52C50.5365 10.456 50.4405 10.424 50.3765 10.424C50.4085 10.456 50.4085 10.488 50.3765 10.52L50.4725 10.664ZM51.1925 25.448C51.2565 25.416 51.3365 25.384 51.4325 25.352C51.5285 25.32 51.6085 25.272 51.6725 25.208L52.4405 24.584V24.248L52.2965 23.672L52.1525 23.144C52.1525 23.144 52.1845 23.08 52.2485 22.952L52.2965 22.808C52.2965 22.744 52.2805 22.664 52.2485 22.568C52.2485 22.472 52.2485 22.376 52.2485 22.28C52.2485 22.056 52.2645 21.832 52.2965 21.608C52.3605 21.384 52.3925 21.128 52.3925 20.84V20.696C52.3605 20.632 52.3285 20.568 52.2965 20.504C52.2645 20.408 52.2165 20.296 52.1525 20.168C52.0885 19.912 52.0405 19.704 52.0085 19.544C51.9765 19.352 51.9445 19.192 51.9125 19.064C51.9125 18.936 51.9285 18.84 51.9605 18.776C51.9925 18.712 52.0245 18.648 52.0565 18.584C52.0885 18.52 52.1205 18.44 52.1525 18.344C52.1205 18.376 52.0885 18.296 52.0565 18.104V17.96C52.0565 17.8 52.0725 17.672 52.1045 17.576C52.1045 17.544 52.1525 17.512 52.2485 17.48C52.2805 17.48 52.2965 17.464 52.2965 17.432C52.2005 17.304 52.1365 17.224 52.1045 17.192H52.0565C52.0565 17.16 52.0725 17.16 52.1045 17.192H52.1525L52.1045 16.904C51.8485 16.648 51.7205 16.472 51.7205 16.376L51.7685 16.184C51.8005 16.12 51.8165 16.056 51.8165 15.992C51.8165 15.672 51.8005 15.512 51.7685 15.512C51.8645 15.448 51.9285 15.4 51.9605 15.368C52.0565 15.304 52.1045 15.272 52.1045 15.272C52.1045 15.208 52.0565 15.16 51.9605 15.128C51.8645 15.096 51.7845 15.016 51.7205 14.888C51.6885 14.824 51.6725 14.744 51.6725 14.648C51.6725 14.552 51.6565 14.424 51.6245 14.264L51.8165 13.16C51.8165 13.064 51.7845 12.952 51.7205 12.824C51.5605 12.536 51.4165 12.328 51.2885 12.2L50.8085 12.152C50.5205 12.12 50.3445 12.072 50.2805 12.008C50.1845 12.072 50.0725 12.136 49.9445 12.2C49.8165 12.232 49.6565 12.28 49.4645 12.344L49.1765 12.632C49.2725 12.76 49.3205 12.856 49.3205 12.92C49.3205 13.112 49.1605 13.208 48.8405 13.208C48.7445 13.208 48.6805 13.192 48.6485 13.16L48.5045 13.304C48.5045 13.496 48.6325 13.64 48.8885 13.736C49.1445 13.896 49.2725 14.04 49.2725 14.168C49.2085 14.328 49.2085 14.456 49.2725 14.552L49.3685 14.6L49.2725 14.696L49.3685 14.84L49.2245 15.8C49.2245 15.864 49.2085 15.912 49.1765 15.944L49.0805 16.136C49.1445 16.264 49.1925 16.408 49.2245 16.568C49.2885 16.728 49.3365 16.888 49.3685 17.048V17.24C49.3685 17.4 49.3845 17.528 49.4165 17.624L49.4645 18.392C49.4325 18.488 49.4165 18.664 49.4165 18.92C49.4805 18.984 49.5765 19.112 49.7045 19.304C49.7045 19.4 49.6405 19.512 49.5125 19.64C49.3845 19.8 49.3205 19.912 49.3205 19.976C49.3525 20.072 49.4005 20.184 49.4645 20.312C49.5285 20.44 49.5925 20.6 49.6565 20.792L49.8965 21.416C49.8965 21.544 49.8165 21.688 49.6565 21.848C49.8165 21.88 49.8645 22.024 49.8005 22.28L49.7045 22.808C49.7045 23.224 49.7205 23.384 49.7525 23.288C49.7205 23.416 49.6885 23.528 49.6565 23.624C49.6565 23.72 49.6565 23.8 49.6565 23.864L49.9445 24.488C49.9125 24.456 49.8805 24.632 49.8485 25.016L49.9925 25.304L50.6165 25.448H51.1925ZM51.7685 15.56C51.7685 15.528 51.7685 15.512 51.7685 15.512C51.7685 15.544 51.7685 15.56 51.7685 15.56ZM47.2085 18.296C47.2405 18.264 47.1925 18.2 47.0645 18.104L46.9685 18.2C47.0005 18.232 47.0325 18.248 47.0645 18.248C47.1285 18.248 47.1765 18.264 47.2085 18.296ZM47.3045 19.064C47.3365 18.968 47.3205 18.888 47.2565 18.824C47.2245 18.76 47.1445 18.792 47.0165 18.92C47.0805 19.016 47.1765 19.064 47.3045 19.064ZM55.1285 23.768C55.2885 23.768 55.4005 23.688 55.4645 23.528L55.2725 23.48C55.1445 23.608 55.0965 23.704 55.1285 23.768ZM49.2725 24.824C49.3045 24.76 49.2885 24.696 49.2245 24.632C49.1925 24.6 49.1125 24.616 48.9845 24.68C49.0485 24.776 49.1445 24.824 49.2725 24.824ZM52.9685 25.64L53.7365 25.592C53.9925 25.592 54.0885 25.448 54.0245 25.16L53.8805 24.776C53.6885 25 53.5285 25.112 53.4005 25.112L52.9205 24.872L52.4885 25.208C52.7445 25.272 52.8725 25.304 52.8725 25.304C52.8725 25.304 52.9045 25.416 52.9685 25.64Z" fill="#FEDC77"/>
</svg>
