<svg width="58" height="36" viewBox="0 0 58 36" fill="none" xmlns="http://www.w3.org/2000/svg">
<path d="M12.94 29.72L12.556 29.576C12.14 29.512 11.756 29.464 11.404 29.432C11.084 29.432 10.796 29.416 10.54 29.384L10.156 29.48L9.004 29.192L8.572 29.336L7.228 29.144L6.508 29.192C6.444 29.192 6.38 29.208 6.316 29.24L6.124 29.288L4.108 29L3.772 29.096C3.708 29.064 3.612 29.032 3.484 29C3.388 28.968 3.276 28.936 3.148 28.904L3.004 29C2.94 28.968 2.78 28.952 2.524 28.952L2.428 29H1.564C1.084 29 0.892 28.728 0.988 28.184L1.084 27.56C1.116 27.336 1.132 27.16 1.132 27.032C1.132 26.872 1.132 26.744 1.132 26.648C1.164 26.584 1.228 26.504 1.324 26.408C1.42 26.28 1.58 26.136 1.804 25.976V25.88L1.324 25.784L1.276 25.592C1.276 25.368 1.34 25.192 1.468 25.064C1.66 24.808 1.772 24.584 1.804 24.392C1.644 24.36 1.532 24.232 1.468 24.008L1.324 23.48C1.324 23.48 1.356 23.048 1.42 22.184L1.756 22.328C1.788 22.296 1.804 22.2 1.804 22.04V21.752C1.708 21.656 1.628 21.56 1.564 21.464L1.516 21.368C1.516 21.304 1.548 21.176 1.612 20.984C1.676 20.792 1.708 20.696 1.708 20.696C1.708 20.568 1.644 20.456 1.516 20.36C1.516 20.232 1.548 20.072 1.612 19.88C1.612 19.88 1.58 19.832 1.516 19.736C1.516 19.64 1.532 19.592 1.564 19.592C1.532 19.432 1.548 19.256 1.612 19.064C1.708 18.904 1.756 18.824 1.756 18.824L1.66 18.344C1.628 18.184 1.596 18.072 1.564 18.008C1.532 17.912 1.516 17.848 1.516 17.816C1.516 17.752 1.58 17.656 1.708 17.528C1.836 17.4 1.9 17.304 1.9 17.24C1.9 17.24 1.868 17.144 1.804 16.952C1.708 16.856 1.66 16.792 1.66 16.76L1.9 15.944C1.74 15.88 1.708 15.688 1.804 15.368L1.948 14.792C1.916 14.632 1.884 14.504 1.852 14.408C1.852 14.312 1.852 14.232 1.852 14.168L1.948 13.496L2.188 13.16C2.156 13.096 2.108 12.968 2.044 12.776L2.092 12.008C1.996 11.816 1.948 11.704 1.948 11.672L2.332 10.856C2.332 10.856 2.316 10.84 2.284 10.808C2.284 10.776 2.268 10.728 2.236 10.664C2.236 10.568 2.236 10.456 2.236 10.328C2.268 10.168 2.3 9.976 2.332 9.752L2.236 9.176C2.268 9.208 2.3 8.968 2.332 8.456L2.236 8.168C2.204 8.104 2.172 8.056 2.14 8.024C2.14 7.992 2.14 7.96 2.14 7.928C2.172 7.864 2.204 7.8 2.236 7.736C2.268 7.672 2.284 7.592 2.284 7.496L2.38 6.008L2.524 2.408C2.684 2.024 2.764 1.752 2.764 1.592L2.716 1.352C2.716 1.288 2.7 1.24 2.668 1.208C2.636 1.176 2.62 1.144 2.62 1.112L2.572 0.535997C2.572 0.471998 2.636 0.295999 2.764 0.00799847C2.892 0.0399981 3.036 0.0719976 3.196 0.103997C3.356 0.103997 3.516 0.135998 3.676 0.199999C3.772 0.296 3.916 0.391999 4.108 0.487998C4.14 0.487998 4.204 0.423998 4.3 0.295998C4.396 0.199999 4.476 0.151999 4.54 0.151999L4.828 0.344C5.02 0.471998 5.308 0.567998 5.692 0.631999C5.756 0.503999 5.82 0.407999 5.884 0.344L6.268 0.295998C6.396 0.263998 6.508 0.247998 6.604 0.247998L6.796 0.391999C6.86 0.455998 6.956 0.471998 7.084 0.439999L7.564 0.344C7.692 0.311998 7.788 0.295998 7.852 0.295998C7.916 0.295998 7.964 0.295998 7.996 0.295998L8.86 0.535997C8.924 0.503998 8.988 0.487998 9.052 0.487998C9.148 0.455998 9.26 0.423999 9.388 0.391999L9.82 0.487998C9.852 0.615998 9.948 0.679998 10.108 0.679998C10.14 0.679998 10.22 0.631998 10.348 0.535997C10.476 0.407999 10.556 0.375999 10.588 0.439999C10.588 0.439999 10.684 0.471998 10.876 0.535997C10.94 0.471998 11.02 0.423999 11.116 0.391999L11.452 0.487998C11.516 0.519998 11.564 0.551998 11.596 0.584C11.66 0.615999 11.708 0.631999 11.74 0.631999L11.98 0.584C11.98 0.647999 12.044 0.791999 12.172 1.016C12.236 0.919999 12.236 0.791999 12.172 0.631999L12.556 0.487998C12.62 0.519998 12.716 0.567998 12.844 0.631999C12.972 0.695998 13.116 0.759998 13.276 0.823999C13.276 0.887999 13.324 0.967999 13.42 1.064H13.564L13.852 0.727998C13.916 0.695998 13.996 0.679998 14.092 0.679998C14.22 0.679998 14.348 0.663999 14.476 0.631999L14.812 0.679998L14.716 2.504C14.556 2.632 14.476 2.776 14.476 2.936L14.524 3.32L14.428 5.624C14.428 5.848 14.252 5.96 13.9 5.96C13.804 5.864 13.708 5.8 13.612 5.768C13.484 5.736 13.308 5.72 13.084 5.72C12.86 5.688 12.604 5.688 12.316 5.72C12.252 5.72 12.172 5.72 12.076 5.72C11.98 5.688 11.852 5.656 11.692 5.624L11.26 5.576L10.492 5.672L9.676 5.624C9.612 5.624 9.548 5.608 9.484 5.576L9.292 5.528C9.036 5.496 8.828 5.48 8.668 5.48C8.54 5.48 8.46 5.48 8.428 5.48C8.3 5.384 8.172 5.336 8.044 5.336C7.98 5.336 7.868 5.4 7.708 5.528C7.548 5.656 7.436 5.72 7.372 5.72C7.372 5.816 7.356 5.88 7.324 5.912L7.372 6.152C7.404 6.216 7.42 6.296 7.42 6.392C7.42 6.456 7.436 6.552 7.468 6.68C7.148 6.808 6.972 7.272 6.94 8.072L7.132 8.12H7.468C7.5 8.152 7.516 8.232 7.516 8.36C7.516 8.488 7.452 8.616 7.324 8.744C7.164 8.904 7.084 8.984 7.084 8.984C7.212 9.272 7.292 9.576 7.324 9.896C7.324 9.96 7.26 10.104 7.132 10.328C7.004 10.552 6.94 10.744 6.94 10.904L6.844 10.76L6.7 10.856V11C6.764 11.064 6.892 11.096 7.084 11.096C7.084 11.16 7.084 11.24 7.084 11.336C7.116 11.4 7.148 11.48 7.18 11.576C7.34 11.832 7.484 11.96 7.612 11.96L7.948 11.816C7.98 11.848 8.044 11.912 8.14 12.008C8.268 12.072 8.348 12.104 8.38 12.104C8.348 12.072 8.476 11.976 8.764 11.816C9.052 11.848 9.26 11.832 9.388 11.768C9.612 11.992 9.772 12.104 9.868 12.104H10.06L10.396 11.96C10.428 11.96 10.476 11.944 10.54 11.912C10.604 11.88 10.668 11.848 10.732 11.816L11.02 11.72C11.116 11.72 11.228 11.784 11.356 11.912C11.516 12.072 11.612 12.152 11.644 12.152C11.74 12.088 11.884 12.04 12.076 12.008C12.076 12.008 12.076 12.04 12.076 12.104C12.108 12.136 12.124 12.2 12.124 12.296C12.124 12.424 12.108 12.616 12.076 12.872C12.076 13.096 12.06 13.384 12.028 13.736L11.932 13.928C11.964 14.024 11.98 14.248 11.98 14.6C11.948 14.664 11.916 14.776 11.884 14.936C11.852 15.096 11.836 15.208 11.836 15.272V15.368C11.836 15.432 11.868 15.592 11.932 15.848V16.04C11.932 16.264 11.868 16.456 11.74 16.616C11.42 16.936 11.228 17.096 11.164 17.096L10.732 16.952C10.668 16.952 10.588 16.968 10.492 17L10.204 17.048C10.14 16.984 10.06 16.936 9.964 16.904C9.9 16.84 9.804 16.792 9.676 16.76C9.612 16.792 9.532 16.824 9.436 16.856C9.372 16.856 9.276 16.872 9.148 16.904L8.62 16.76C8.3 16.664 8.092 16.616 7.996 16.616L7.516 16.712C7.452 16.712 7.372 16.6 7.276 16.376C7.404 16.344 7.484 16.264 7.516 16.136H7.564C7.628 16.136 7.724 16.136 7.852 16.136C7.98 16.136 8.108 16.152 8.236 16.184L8.284 15.992V15.896C8.284 15.8 8.22 15.688 8.092 15.56C8.06 15.56 7.996 15.56 7.9 15.56C7.836 15.528 7.74 15.496 7.612 15.464C7.548 15.528 7.516 15.656 7.516 15.848C7.42 15.816 7.324 15.896 7.228 16.088C7.164 16.024 7.052 16.072 6.892 16.232V16.568C6.828 16.632 6.764 16.744 6.7 16.904C6.476 17 6.364 17.128 6.364 17.288C6.364 17.288 6.396 17.32 6.46 17.384C6.492 17.416 6.508 17.464 6.508 17.528V17.72C6.508 17.816 6.508 17.912 6.508 18.008C6.508 18.104 6.492 18.232 6.46 18.392L6.604 18.584C6.54 18.776 6.3 19.176 5.884 19.784V19.88C5.884 20.008 5.932 20.12 6.028 20.216C6.092 20.024 6.268 19.816 6.556 19.592C6.684 19.752 6.748 19.912 6.748 20.072C6.748 20.104 6.556 20.296 6.172 20.648L6.364 20.984L6.556 20.936C6.684 20.936 6.748 21.032 6.748 21.224C6.684 21.288 6.604 21.416 6.508 21.608C6.444 21.736 6.412 21.864 6.412 21.992L6.556 22.136C6.556 22.168 6.46 22.376 6.268 22.76L6.412 23.144C6.412 23.304 6.3 23.4 6.076 23.432C6.108 23.464 6.188 23.48 6.316 23.48L6.364 23.624C6.268 23.72 6.204 23.816 6.172 23.912C6.236 24.104 6.348 24.216 6.508 24.248C6.668 24.248 6.796 24.264 6.892 24.296C7.148 24.264 7.404 24.248 7.66 24.248C7.916 24.248 8.188 24.248 8.476 24.248C8.508 24.376 8.588 24.44 8.716 24.44C8.78 24.44 8.924 24.296 9.148 24.008C9.34 24.008 9.468 24.184 9.532 24.536H9.676C9.676 24.44 9.692 24.36 9.724 24.296C9.948 24.2 10.284 24.168 10.732 24.2L11.308 24.44C11.308 24.472 11.436 24.488 11.692 24.488C11.82 24.488 11.9 24.504 11.932 24.536L12.556 24.392C12.652 24.392 12.732 24.36 12.796 24.296C12.828 24.264 12.94 24.248 13.132 24.248C13.388 24.312 13.516 24.504 13.516 24.824C13.516 24.952 13.468 25.288 13.372 25.832C13.372 25.832 13.34 25.864 13.276 25.928C13.244 25.992 13.228 26.056 13.228 26.12V27.32C13.228 27.32 13.132 27.352 12.94 27.416C13.164 27.864 13.276 28.232 13.276 28.52C13.276 28.68 13.18 28.84 12.988 29L13.132 29.624C13.004 29.688 12.94 29.72 12.94 29.72ZM13.18 2.936H13.228C13.42 2.936 13.58 2.824 13.708 2.6C13.612 2.472 13.532 2.408 13.468 2.408L12.892 2.744C12.988 2.872 13.084 2.936 13.18 2.936ZM12.316 3.944C12.316 3.912 12.268 3.848 12.172 3.752C12.172 3.752 12.14 3.784 12.076 3.848L12.316 3.944ZM4.876 4.616L5.116 4.088L4.876 3.992L4.684 3.848C4.492 3.976 4.396 4.152 4.396 4.376C4.588 4.504 4.748 4.584 4.876 4.616ZM3.676 8.264C3.676 8.2 3.66 8.136 3.628 8.072C3.628 8.008 3.612 7.944 3.58 7.88H3.244L3.196 8.072L3.388 8.216L3.676 8.264ZM1.9 11.72C1.9 11.656 1.916 11.64 1.948 11.672L1.9 11.72ZM4.492 12.776C4.652 12.52 4.62 12.328 4.396 12.2C4.364 12.232 4.316 12.328 4.252 12.488C4.252 12.584 4.332 12.68 4.492 12.776ZM3.34 13.304L3.388 12.584L3.244 12.44H2.908L2.86 12.584C2.86 12.584 2.908 12.68 3.004 12.872C3.068 12.904 3.068 13 3.004 13.16C3.1 13.16 3.212 13.208 3.34 13.304ZM3.964 14.552C3.964 14.488 3.964 14.408 3.964 14.312C3.964 14.216 3.98 14.12 4.012 14.024C3.98 14.024 3.916 14.072 3.82 14.168C3.82 14.264 3.868 14.392 3.964 14.552ZM9.724 14.456H9.772C9.836 14.456 9.996 14.424 10.252 14.36L10.012 14.12C9.948 14.024 9.836 14.056 9.676 14.216C9.676 14.344 9.692 14.424 9.724 14.456ZM5.068 19.4C5.1 19.368 5.068 19.304 4.972 19.208C4.908 19.208 4.86 19.224 4.828 19.256L5.068 19.4ZM4.924 20.936C4.988 20.936 5.116 20.904 5.308 20.84L5.164 20.456C5.036 20.488 4.972 20.552 4.972 20.648L4.924 20.936ZM3.004 21.944C3.004 21.88 3.004 21.8 3.004 21.704C3.004 21.608 3.02 21.528 3.052 21.464C3.02 21.432 2.956 21.464 2.86 21.56L3.004 21.944ZM3.052 23C3.084 22.936 3.068 22.872 3.004 22.808C2.94 22.744 2.86 22.744 2.764 22.808C2.796 22.872 2.892 22.936 3.052 23ZM2.572 25.64C2.668 25.512 2.684 25.384 2.62 25.256H2.428L2.332 25.544C2.396 25.608 2.476 25.64 2.572 25.64ZM9.724 27.656C9.724 27.592 9.692 27.528 9.628 27.464C9.596 27.432 9.532 27.448 9.436 27.512C9.436 27.608 9.532 27.656 9.724 27.656ZM9.868 28.712L10.732 28.568L10.588 28.232C10.524 28.072 10.396 27.992 10.204 27.992L9.772 28.136C9.772 28.232 9.772 28.328 9.772 28.424C9.804 28.52 9.836 28.616 9.868 28.712ZM19.4005 29.192L18.7765 29H18.5845C18.4885 29 18.3765 29 18.2485 29C18.1205 28.968 17.9765 28.936 17.8165 28.904L16.8085 28.04C16.5525 27.784 16.3605 27.48 16.2325 27.128C16.2005 27 16.1685 26.84 16.1365 26.648C16.1045 26.456 16.0565 26.232 15.9925 25.976L16.0405 25.736C16.0405 25.64 16.0245 25.56 15.9925 25.496C15.9285 25.304 15.8965 25.208 15.8965 25.208C15.9285 25.144 15.9445 25.048 15.9445 24.92C15.9445 24.76 15.9445 24.6 15.9445 24.44L15.6565 23.48V23.336C15.6565 23.272 15.6565 23.192 15.6565 23.096C15.6565 23 15.6725 22.904 15.7045 22.808L15.9445 22.232V21.896C16.0725 21.704 16.2005 21.464 16.3285 21.176C16.4565 20.856 16.5845 20.488 16.7125 20.072L17.0965 19.88C17.1285 19.816 17.1605 19.752 17.1925 19.688C17.2245 19.624 17.2725 19.56 17.3365 19.496L18.0085 18.824C18.0405 18.76 18.0725 18.696 18.1045 18.632C18.1365 18.536 18.1845 18.424 18.2485 18.296L19.9765 17.24C20.1365 17.144 20.2965 17.048 20.4565 16.952C20.6165 16.856 20.7765 16.744 20.9365 16.616C20.9365 16.616 21.0325 16.648 21.2245 16.712C21.2565 16.68 21.2885 16.648 21.3205 16.616C21.3525 16.552 21.4005 16.504 21.4645 16.472L21.9445 16.28C21.9445 16.12 22.0085 15.96 22.1365 15.8C22.2325 15.736 22.3445 15.64 22.4725 15.512C22.6325 15.384 22.8085 15.224 23.0005 15.032C23.0325 15 23.0325 14.84 23.0005 14.552C23.0645 14.616 23.0965 14.6 23.0965 14.504C23.0965 14.216 23.0805 14.104 23.0485 14.168C23.0165 14.04 22.9685 13.912 22.9045 13.784C22.8725 13.624 22.8405 13.464 22.8085 13.304C22.7765 13.272 22.7925 13.176 22.8565 13.016L22.9525 12.776C22.9525 12.776 22.8725 12.664 22.7125 12.44L22.2325 11.816C22.0725 11.656 21.8645 11.592 21.6085 11.624L21.3685 11.672C21.1765 11.736 21.0805 11.768 21.0805 11.768H20.6485L20.5525 11.864C20.5845 11.896 20.6165 11.928 20.6485 11.96C20.6805 11.992 20.7125 12.04 20.7445 12.104C20.7445 12.168 20.7285 12.216 20.6965 12.248V12.392C20.5685 12.424 20.4245 12.552 20.2645 12.776C20.2005 12.968 20.1685 13.144 20.1685 13.304C20.2325 13.432 20.3285 13.56 20.4565 13.688C20.4245 13.72 20.3765 13.736 20.3125 13.736C20.2485 13.992 20.2485 14.168 20.3125 14.264L20.4565 14.456V14.696C20.4565 14.728 20.4085 14.776 20.3125 14.84L19.7365 14.696C19.7045 14.568 19.6245 14.536 19.4965 14.6C19.4005 14.664 19.3205 14.648 19.2565 14.552H19.1605C19.0645 14.552 19.0005 14.52 18.9685 14.456C18.9365 14.36 18.8725 14.376 18.7765 14.504L18.4885 14.84C18.3285 14.84 18.2005 14.856 18.1045 14.888L17.8645 14.792C17.7685 14.728 17.7045 14.712 17.6725 14.744C17.6405 14.744 17.6085 14.744 17.5765 14.744L16.5685 15.032C16.5045 15.032 16.4245 15.032 16.3285 15.032C16.2325 15.032 16.1205 15.016 15.9925 14.984L15.7525 14.264C15.7525 14.232 15.7685 14.216 15.8005 14.216C15.8325 14.184 15.8485 14.152 15.8485 14.12L15.8965 13.976C15.8645 13.88 15.8485 13.768 15.8485 13.64C15.8485 13.48 15.8485 13.32 15.8485 13.16C15.9445 13.064 16.0085 12.968 16.0405 12.872C16.0725 12.776 16.0885 12.568 16.0885 12.248V11.96C16.0885 11.128 16.7925 10.088 18.2005 8.84C18.2325 8.744 18.3445 8.6 18.5365 8.408C18.5685 8.376 18.7765 8.28 19.1605 8.12C19.2245 8.056 19.2405 8.008 19.2085 7.976L19.2565 7.736C19.3845 7.768 19.5125 7.8 19.6405 7.832C19.8005 7.832 19.9445 7.832 20.0725 7.832L20.4085 7.688C20.4725 7.656 20.5365 7.624 20.6005 7.592C20.6645 7.56 20.7125 7.544 20.7445 7.544H21.0805C21.1125 7.512 21.2245 7.464 21.4165 7.4C21.6085 7.368 21.7685 7.352 21.8965 7.352C22.0565 7.32 22.2005 7.304 22.3285 7.304C22.4885 7.304 22.8245 7.352 23.3365 7.448C23.9125 7.544 24.2325 7.64 24.2965 7.736L24.2485 8.072L24.3925 8.264L24.6805 8.12C24.7765 8.12 24.8885 8.216 25.0165 8.408L25.4005 8.456C25.4645 8.456 25.5285 8.472 25.5925 8.504C25.6885 8.504 25.7525 8.504 25.7845 8.504C25.8165 8.536 25.8485 8.568 25.8805 8.6C25.9125 8.6 25.9445 8.632 25.9765 8.696V9.08L25.5925 9.272C25.6245 9.4 25.7525 9.48 25.9765 9.512C26.2325 9.544 26.3765 9.592 26.4085 9.656L26.8885 11.432C26.8885 11.528 26.9845 11.656 27.1765 11.816C27.2085 12.04 27.2245 12.296 27.2245 12.584C27.2245 12.872 27.2245 13.176 27.2245 13.496L27.3685 13.736C27.4005 13.768 27.4165 13.944 27.4165 14.264L27.3685 15.08C27.3365 15.368 27.3205 15.624 27.3205 15.848C27.3205 16.04 27.3205 16.2 27.3205 16.328L27.4165 16.472C27.4485 16.792 27.4645 17.048 27.4645 17.24C27.4965 17.4 27.5125 17.464 27.5125 17.432L27.3205 17.912C27.2885 18.04 27.2565 18.136 27.2245 18.2C27.2245 18.232 27.2245 18.264 27.2245 18.296C27.2245 18.392 27.2245 18.488 27.2245 18.584C27.2565 18.68 27.2885 18.776 27.3205 18.872C27.3845 18.936 27.4325 19.032 27.4645 19.16C27.5285 19.256 27.5765 19.368 27.6085 19.496L27.5605 20.12C27.5285 20.152 27.4965 20.216 27.4645 20.312C27.4325 20.376 27.4005 20.456 27.3685 20.552C27.3685 20.552 27.4325 20.984 27.5605 21.848L27.3685 22.52C27.4005 22.552 27.4485 22.664 27.5125 22.856C27.5765 23.016 27.6085 23.112 27.6085 23.144V23.384C27.6085 23.576 27.5925 23.72 27.5605 23.816C27.8485 23.848 27.9925 24.088 27.9925 24.536L27.8965 24.824C27.8325 25.016 27.8005 25.112 27.8005 25.112L27.9445 25.64C27.9765 25.768 27.9925 25.912 27.9925 26.072C28.0245 26.232 28.0405 26.44 28.0405 26.696V27.176C28.1365 27.304 28.2325 27.528 28.3285 27.848V27.896C28.3285 28.248 27.8965 28.456 27.0325 28.52L26.1205 28.376C26.0885 28.376 25.9925 28.376 25.8325 28.376C25.6725 28.376 25.4325 28.392 25.1125 28.424C25.0805 28.424 25.0325 28.456 24.9685 28.52C24.9045 28.584 24.8405 28.616 24.7765 28.616H24.3445C24.3445 28.616 24.1525 28.552 23.7685 28.424L23.8645 27.992C23.8645 27.8 23.7685 27.656 23.5765 27.56C23.5765 27.528 23.5925 27.4 23.6245 27.176L23.7205 26.84C23.4965 26.872 22.9205 27.352 21.9925 28.28C21.7685 28.504 21.6085 28.6 21.5125 28.568L21.3205 28.52C21.2245 28.616 21.1285 28.696 21.0325 28.76C20.8405 28.856 20.6645 28.904 20.5045 28.904C20.4725 28.936 20.4565 28.936 20.4565 28.904C20.4245 28.872 20.3925 28.856 20.3605 28.856C20.3285 28.888 20.1685 28.952 19.8805 29.048C19.6245 29.144 19.4645 29.192 19.4005 29.192ZM19.6405 8.504C19.6405 8.408 19.5765 8.344 19.4485 8.312C19.3845 8.376 19.3525 8.424 19.3525 8.456C19.3845 8.648 19.4805 8.664 19.6405 8.504ZM25.5925 10.952L25.7365 10.76C25.7685 10.696 25.7365 10.632 25.6405 10.568C25.5445 10.536 25.4325 10.536 25.3045 10.568C25.3365 10.664 25.4325 10.792 25.5925 10.952ZM18.7765 12.68L19.3525 12.632C19.6085 12.632 19.7365 12.52 19.7365 12.296L19.6405 12.056L19.0165 12.008C18.7605 12.008 18.6485 12.104 18.6805 12.296L18.7285 12.488C18.7605 12.552 18.7765 12.616 18.7765 12.68ZM23.1445 16.184C23.1765 16.216 23.2565 16.216 23.3845 16.184L23.3365 15.992C23.2085 16.024 23.1445 16.088 23.1445 16.184ZM19.9765 19.016L20.0245 18.776L19.7365 18.728L19.9765 19.016ZM21.1285 24.968H21.3685C21.4325 24.968 21.4965 24.936 21.5605 24.872C21.6245 24.808 21.6725 24.776 21.7045 24.776C21.7685 24.808 21.8645 24.856 21.9925 24.92C22.1205 24.92 22.2645 24.84 22.4245 24.68C22.4885 24.52 22.5845 24.328 22.7125 24.104C22.8725 24.04 23.0485 23.912 23.2405 23.72C23.2085 23.656 23.1925 23.528 23.1925 23.336C23.1925 23.176 23.1925 23 23.1925 22.808C23.2245 22.616 23.2565 22.408 23.2885 22.184C23.2565 22.024 23.2245 21.848 23.1925 21.656C23.1605 21.432 23.1285 21.176 23.0965 20.888C23.0965 20.696 23.1925 20.584 23.3845 20.552C23.2885 20.232 23.0805 19.784 22.7605 19.208H21.9925C21.8965 19.592 21.7525 19.928 21.5605 20.216L21.2245 20.456L21.0325 20.792L20.6965 20.984C20.6645 21.112 20.6005 21.256 20.5045 21.416C20.4405 21.576 20.3765 21.768 20.3125 21.992C20.3125 22.184 20.2005 22.504 19.9765 22.952L20.0245 23.144C19.8005 23.4 19.6885 23.56 19.6885 23.624C19.7525 23.592 19.8165 23.624 19.8805 23.72L20.1685 24.488C20.2325 24.52 20.2965 24.552 20.3605 24.584C20.4245 24.584 20.4885 24.616 20.5525 24.68C20.5845 24.712 20.6165 24.744 20.6485 24.776C20.6805 24.808 20.7125 24.856 20.7445 24.92L21.1285 24.968ZM26.0245 22.52C26.0885 22.52 26.1685 22.472 26.2645 22.376C26.3925 22.248 26.4565 22.152 26.4565 22.088L26.3605 21.896C26.3285 21.864 26.2805 21.848 26.2165 21.848C26.1525 21.848 26.0885 21.832 26.0245 21.8L25.6885 22.04C25.7205 22.072 25.7685 22.184 25.8325 22.376C25.8965 22.472 25.9605 22.52 26.0245 22.52ZM24.0565 23.864L24.3445 23.768C24.3125 23.736 24.2965 23.656 24.2965 23.528L24.0085 23.576C24.0085 23.736 24.0245 23.832 24.0565 23.864ZM21.5125 27.944C21.5765 27.688 21.5605 27.56 21.4645 27.56L21.3685 27.656C21.3365 27.688 21.3205 27.768 21.3205 27.896L21.5125 27.944ZM36.6242 29.72L36.2882 29.624C36.0962 29.528 35.9682 29.48 35.9042 29.48L35.5682 29.528H35.4242C35.4562 29.528 35.3922 29.512 35.2322 29.48C35.0722 29.48 34.7682 29.432 34.3202 29.336C34.1922 29.112 34.0642 29 33.9362 29L33.6962 29.048C33.6642 29.048 33.6322 29.048 33.6002 29.048C33.5682 29.08 33.5362 29.096 33.5042 29.096C33.3762 29.096 33.2322 29.016 33.0722 28.856C33.0082 28.792 32.9282 28.712 32.8322 28.616C32.7362 28.488 32.6082 28.36 32.4482 28.232C31.9362 28.104 31.6002 27.88 31.4402 27.56C31.4402 27.368 31.3922 27.256 31.2962 27.224C31.1682 27.192 31.1042 27.096 31.1042 26.936C31.1042 26.744 31.1682 26.456 31.2962 26.072L30.5762 25.784L30.3362 24.824C30.2722 24.664 30.1762 24.488 30.0482 24.296C29.9522 24.072 29.8242 23.832 29.6642 23.576V23.288C29.6642 23.096 29.6962 22.968 29.7602 22.904C29.7922 22.872 29.8882 22.856 30.0482 22.856H30.1922C30.2242 22.856 30.2402 22.872 30.2402 22.904C30.2402 22.904 30.2562 22.904 30.2882 22.904L30.5282 22.76C30.5602 22.728 30.6882 22.712 30.9122 22.712L31.1042 22.76C31.1362 22.76 31.1522 22.776 31.1522 22.808C31.1842 22.808 31.2162 22.808 31.2482 22.808L31.8242 22.616L31.9682 22.472C32.0962 22.408 32.2562 22.36 32.4482 22.328C32.6402 22.296 32.8962 22.264 33.2162 22.232L33.3602 22.28C33.3282 22.28 33.3122 22.392 33.3122 22.616C33.3122 22.776 33.4082 22.856 33.6002 22.856C33.6322 22.856 33.8082 22.664 34.1282 22.28C34.1922 22.472 34.2242 22.792 34.2242 23.24C34.2242 23.464 34.2882 23.624 34.4162 23.72C34.5122 23.88 34.5442 24.04 34.5122 24.2C34.5122 24.264 34.5442 24.296 34.6082 24.296C34.3522 24.296 34.2242 24.36 34.2242 24.488C34.2242 24.712 34.3362 24.824 34.5602 24.824C34.6242 24.824 34.7362 24.696 34.8962 24.44C34.9282 24.504 35.0242 24.68 35.1842 24.968C35.2802 25.064 35.6162 25.256 36.1922 25.544C36.4482 25.64 36.7842 25.688 37.2002 25.688C37.3282 25.688 37.4722 25.56 37.6322 25.304C37.8562 25.304 38.0642 25.144 38.2562 24.824C38.2242 24.856 38.1922 24.872 38.1602 24.872C38.1602 24.84 38.1442 24.824 38.1122 24.824C38.1122 24.792 38.1122 24.76 38.1122 24.728C38.1122 24.632 38.1282 24.536 38.1602 24.44C38.2242 24.312 38.2722 24.184 38.3042 24.056C38.2402 23.992 38.1602 23.896 38.0642 23.768C38.0002 23.608 37.9202 23.432 37.8242 23.24C37.9842 23.08 37.9522 22.904 37.7282 22.712L37.2482 22.376L37.3442 21.848C37.2482 21.688 36.8642 21.56 36.1922 21.464L36.0002 21.08C35.8402 20.92 35.6162 20.744 35.3282 20.552C35.2322 20.552 35.0882 20.504 34.8962 20.408C34.8642 20.376 34.8322 20.344 34.8002 20.312C34.7682 20.248 34.7202 20.2 34.6562 20.168C34.6242 20.136 34.5282 20.12 34.3682 20.12C34.2722 20.056 34.1282 19.912 33.9362 19.688L33.8882 19.304C33.7922 19.304 33.6162 19.272 33.3602 19.208C33.1042 19.112 32.9122 19 32.7842 18.872L32.4482 18.296C32.1602 18.04 31.8882 17.768 31.6322 17.48C31.2162 17.064 30.9922 16.728 30.9602 16.472L31.2482 16.136C31.2162 16.136 31.1362 16.136 31.0082 16.136C30.9122 16.136 30.8002 16.024 30.6722 15.8V15.464C30.6082 15.24 30.5442 15.112 30.4802 15.08C30.4482 15.016 30.4322 14.968 30.4322 14.936L30.4802 14.744V13.928C30.5122 13.96 30.5602 13.976 30.6242 13.976C30.7842 13.976 30.8642 13.88 30.8642 13.688C30.8642 13.464 30.7042 13.352 30.3842 13.352C30.7362 13.096 30.9122 12.856 30.9122 12.632C30.9122 12.408 30.7522 12.2 30.4322 12.008C30.4002 11.848 30.4482 11.704 30.5762 11.576L30.9602 11.384C30.9922 11.32 31.0242 11.256 31.0562 11.192C31.1202 11.096 31.2002 10.984 31.2962 10.856C31.2642 10.792 31.2322 10.712 31.2002 10.616C31.2002 10.52 31.2002 10.44 31.2002 10.376C31.2002 10.184 31.2322 10.04 31.2962 9.944C31.3282 9.912 31.3762 9.896 31.4402 9.896C31.5042 9.896 31.5842 9.88 31.6802 9.848L31.8722 9.464C32.3522 9.464 32.5122 9.288 32.3522 8.936H32.4002C32.4962 8.936 32.6082 8.792 32.7362 8.504C32.8002 8.504 32.9762 8.408 33.2642 8.216C33.3922 8.088 33.5682 8.024 33.7922 8.024H33.9362C33.9682 8.024 33.9842 8.04 33.9842 8.072C34.0162 8.072 34.0482 8.072 34.0802 8.072L34.2722 8.024C34.2722 7.96 34.3202 7.88 34.4162 7.784C34.6722 7.592 34.8642 7.496 34.9922 7.496L35.3762 7.592L35.5202 7.544H35.6642C36.1442 7.544 36.4962 7.656 36.7202 7.88L36.6722 8.12H36.7682C36.8002 8.12 36.8962 8.04 37.0562 7.88C37.1842 7.752 37.3122 7.688 37.4402 7.688C37.6322 7.688 37.7922 7.736 37.9202 7.832C38.0802 7.928 38.1762 7.976 38.2082 7.976L38.5922 7.88C38.7202 7.848 38.8002 7.832 38.8322 7.832C38.8962 7.832 38.9442 7.832 38.9762 7.832C39.0722 7.832 39.1682 7.848 39.2642 7.88L39.4562 7.976C39.4882 8.04 39.6002 8.168 39.7922 8.36H39.8402C40.0322 8.36 40.3362 8.456 40.7522 8.648C40.9762 8.808 41.1522 9.048 41.2802 9.368L41.7122 10.232C41.7122 10.488 41.7602 10.84 41.8563 11.288C41.9202 11.352 42.0002 11.448 42.0963 11.576C42.1922 11.672 42.3042 11.8 42.4323 11.96C42.4323 11.992 42.4162 12.056 42.3842 12.152C42.3842 12.216 42.3682 12.296 42.3362 12.392C42.4322 12.488 42.5122 12.648 42.5762 12.872C42.6083 12.968 42.6403 13.048 42.6722 13.112C42.7042 13.176 42.7362 13.24 42.7682 13.304V13.544L41.9042 13.88C41.4242 14.008 41.0082 14.104 40.6562 14.168C40.3362 14.232 40.0642 14.264 39.8402 14.264L39.6962 14.216C39.6642 14.216 39.6322 14.216 39.6002 14.216C39.6002 14.184 39.5842 14.168 39.5522 14.168C39.4882 14.168 39.4082 14.216 39.3122 14.312L39.1202 14.504C38.8322 14.6 38.6082 14.648 38.4482 14.648C38.3202 14.648 38.1762 14.504 38.0162 14.216C37.8882 13.992 37.8242 13.832 37.8242 13.736C37.8242 12.648 37.7922 12.136 37.7282 12.2C37.4082 12.008 37.1842 11.96 37.0562 12.056H37.0082L36.5762 11.864C36.4482 11.8 36.3362 11.768 36.2402 11.768C36.1762 11.736 36.1282 11.72 36.0962 11.72L35.8562 11.768C35.7602 11.8 35.6802 11.816 35.6162 11.816C35.5522 11.816 35.4882 11.816 35.4242 11.816L35.3282 12.248C35.2642 12.28 35.1362 12.392 34.9442 12.584L34.8002 13.208C34.9602 13.24 35.0722 13.352 35.1362 13.544C35.2002 13.832 35.2322 13.976 35.2322 13.976C35.2002 14.008 35.0082 14.056 34.6562 14.12C34.5922 14.12 34.5282 14.152 34.4642 14.216C34.4962 14.312 34.7202 14.392 35.1362 14.456C35.2322 14.552 35.2962 14.712 35.3282 14.936L35.8562 15.032C35.8562 15.16 35.9202 15.304 36.0482 15.464C36.0802 15.464 36.1602 15.496 36.2882 15.56C36.3522 15.688 36.4482 15.816 36.5762 15.944C36.7362 15.944 36.8802 15.992 37.0082 16.088C37.1682 16.248 37.2482 16.392 37.2482 16.52H37.1522C37.0562 16.52 36.9282 16.568 36.7682 16.664V16.856C36.8322 16.92 36.9122 16.984 37.0082 17.048C37.1362 17.08 37.2802 17.08 37.4402 17.048L37.5842 17H37.7282L37.9202 17.144C38.1122 17.176 38.2562 17.192 38.3522 17.192C38.4482 17.192 38.5122 17.192 38.5442 17.192C38.8002 17.256 38.9762 17.352 39.0722 17.48C39.1682 17.736 39.3282 17.992 39.5522 18.248L40.0322 18.392C40.1922 18.488 40.3042 18.632 40.3682 18.824C40.8482 19.24 41.0882 19.544 41.0882 19.736V19.832L41.6642 20.408C41.6642 20.472 41.6642 20.552 41.6642 20.648C41.6962 20.744 41.7282 20.856 41.7603 20.984C41.8243 21.016 41.8882 21.048 41.9522 21.08C42.0162 21.112 42.0802 21.16 42.1442 21.224C42.3362 21.448 42.4323 21.624 42.4323 21.752L42.3362 21.992C42.3042 22.056 42.2722 22.104 42.2402 22.136C42.2402 22.168 42.2402 22.2 42.2402 22.232C42.2402 22.328 42.3522 22.552 42.5762 22.904C42.5762 22.904 42.5442 22.984 42.4802 23.144L42.5762 23.576L42.6722 23.912L42.5283 24.392C42.5602 24.456 42.5762 24.616 42.5762 24.872C42.5443 24.904 42.5122 24.936 42.4802 24.968C42.4482 24.968 42.4162 25 42.3842 25.064L42.0002 26.264C42.0002 26.328 42.0002 26.424 42.0002 26.552C42.0002 26.648 41.9842 26.76 41.9522 26.888C41.8882 27.144 41.6323 27.272 41.1842 27.272L40.8482 28.088L40.1282 28.568C40.0322 28.664 39.8082 28.84 39.4562 29.096H39.0722L38.3042 29.432C37.3122 29.624 36.7522 29.72 36.6242 29.72ZM35.7602 8.648C35.7922 8.584 35.7762 8.52 35.7122 8.456C35.6802 8.424 35.6002 8.44 35.4722 8.504C35.5362 8.6 35.6322 8.648 35.7602 8.648ZM41.9042 13.16C41.9042 12.936 41.8882 12.824 41.8563 12.824L41.6162 12.776C41.5842 12.776 41.5522 12.776 41.5202 12.776C41.4882 12.744 41.4562 12.728 41.4242 12.728C41.3602 12.792 41.3282 12.904 41.3282 13.064L41.9042 13.16ZM31.6802 13.448C31.6802 13.32 31.6642 13.24 31.6322 13.208C31.5362 13.176 31.4562 13.192 31.3922 13.256C31.3922 13.32 31.4882 13.384 31.6802 13.448ZM34.8482 16.856C35.0082 16.792 35.0882 16.728 35.0882 16.664C35.0882 16.6 35.0082 16.536 34.8482 16.472V16.856ZM31.5842 24.632C31.5842 24.568 31.5522 24.472 31.4882 24.344L31.3442 24.392C31.1842 24.392 31.1362 24.312 31.2002 24.152L31.1042 24.344C31.1362 24.44 31.2002 24.536 31.2962 24.632H31.5842ZM40.5122 25.928C40.4802 25.928 40.6882 25.768 41.1362 25.448V25.256C40.9442 25.032 40.7682 24.92 40.6082 24.92H40.4642C40.4642 24.984 40.4482 25.064 40.4162 25.16C40.4162 25.224 40.4002 25.304 40.3682 25.4C40.2082 25.656 40.1282 25.784 40.1282 25.784C40.2242 25.88 40.3522 25.928 40.5122 25.928ZM35.5682 27.944L35.2802 27.608H35.0882L35.0402 27.752L35.5682 27.944ZM44.7471 35.672C44.6831 35.672 44.5231 35.624 44.2671 35.528L43.7871 35.384C43.7871 35.384 43.7711 35.384 43.7391 35.384C43.7071 35.416 43.6591 35.448 43.5951 35.48C43.4671 35.544 43.3231 35.56 43.1631 35.528C43.0671 35.528 42.8111 35.416 42.3951 35.192C42.4271 35.128 42.4591 35.032 42.4911 34.904C42.5231 34.808 42.5711 34.696 42.6351 34.568L42.7791 34.376V33.32C42.8431 33.16 42.9391 33.08 43.0671 33.08L43.2111 33.176H43.4031C43.3391 33.112 43.3071 32.984 43.3071 32.792L42.9231 32.6C42.8271 32.568 42.7791 32.296 42.7791 31.784C42.7791 31.016 42.9391 30.648 43.2591 30.68L43.7391 30.824H44.0271L44.3151 30.776C44.4751 30.776 44.6031 30.824 44.6991 30.92C44.7631 30.984 44.8271 31.016 44.8911 31.016C45.1151 31.016 45.3231 30.92 45.5151 30.728C45.7071 30.568 45.8671 30.424 45.9951 30.296C46.1231 30.2 46.2031 30.136 46.2351 30.104C46.2991 30.04 46.3791 29.992 46.4751 29.96C46.6031 29.96 46.7311 29.944 46.8591 29.912V29.528C46.8271 29.464 46.8111 29.384 46.8111 29.288C46.8111 29.224 46.7951 29.128 46.7631 29C46.7631 28.904 46.8111 28.792 46.9071 28.664C46.9711 28.696 47.0351 28.744 47.0991 28.808C47.1631 28.872 47.2431 28.936 47.3391 29C47.3711 29 47.4511 28.936 47.5791 28.808H47.5311C47.5311 28.776 47.5311 28.744 47.5311 28.712C47.5631 28.68 47.5791 28.648 47.5791 28.616C47.5791 28.52 47.5151 28.376 47.3871 28.184C47.3551 28.184 47.3071 28.264 47.2431 28.424H47.0031C47.0671 28.072 47.1311 27.832 47.1951 27.704V27.608L46.8591 27.464C46.7951 27.304 46.7471 27.096 46.7151 26.84L46.6671 26.312C46.6671 26.152 46.8111 25.96 47.0991 25.736C47.0671 25.608 47.0031 25.544 46.9071 25.544C46.8111 25.544 46.7311 25.576 46.6671 25.64C46.5711 25.544 46.5231 25.304 46.5231 24.92C46.5231 24.76 46.5071 24.664 46.4751 24.632C46.3791 24.408 46.3151 24.296 46.2831 24.296V24.344C46.2831 24.344 46.2831 24.328 46.2831 24.296L46.4271 23.912C46.5231 23.752 46.5711 23.64 46.5711 23.576C46.5711 23.48 46.4271 23.432 46.1391 23.432L46.1871 23.192C46.0591 22.872 45.9631 22.568 45.8991 22.28C45.8351 21.992 45.8191 21.72 45.8511 21.464L46.0911 21.08C46.0591 21.048 46.0751 20.936 46.1391 20.744L46.1871 20.456C46.1551 20.36 46.0271 20.312 45.8031 20.312L45.5151 19.016C45.6751 18.952 45.8191 18.856 45.9471 18.728C45.9471 18.664 45.8831 18.584 45.7551 18.488L45.4191 18.296C45.4191 18.264 45.4191 18.216 45.4191 18.152C45.4191 18.088 45.4351 17.992 45.4671 17.864C45.4991 17.8 45.5151 17.704 45.5151 17.576C45.5151 17.48 45.4991 17.352 45.4671 17.192C45.4351 17.032 45.3711 16.84 45.2751 16.616L45.0831 16.088L45.2271 15.56H45.2751C45.4671 15.56 45.6431 15.624 45.8031 15.752C45.8671 15.752 45.9151 15.688 45.9471 15.56C45.9471 15.4 45.8671 15.32 45.7071 15.32L45.5631 15.368C45.0511 15.336 44.7951 14.888 44.7951 14.024C44.7951 13.8 44.8271 13.656 44.8911 13.592C45.0511 13.432 45.1631 13.352 45.2271 13.352C45.1951 13.32 45.1311 13.272 45.0351 13.208C44.9711 13.112 44.8751 13 44.7471 12.872C44.6511 12.776 44.6031 12.648 44.6031 12.488C44.5711 12.296 44.5711 11.992 44.6031 11.576C44.5391 11.448 44.4911 11.368 44.4591 11.336C44.5231 11.208 44.5551 11.016 44.5551 10.76C44.6191 10.696 44.6351 10.616 44.6031 10.52C44.1551 9.88 43.9631 9.432 44.0271 9.176L44.0751 8.936C44.1391 8.808 44.1711 8.712 44.1711 8.648C43.8831 8.296 43.7391 8.008 43.7391 7.784C43.7391 7.72 43.7871 7.592 43.8831 7.4L44.2671 7.448C44.3311 7.448 44.3791 7.432 44.4111 7.4C44.4431 7.368 44.4911 7.352 44.5551 7.352C44.5551 7.352 44.6191 7.384 44.7471 7.448C44.8111 7.544 44.8591 7.592 44.8911 7.592L45.4671 7.448C45.5311 7.448 45.6431 7.528 45.8031 7.688L45.9951 7.544C46.1231 7.48 46.1871 7.448 46.1871 7.448C46.2191 7.448 46.2831 7.464 46.3791 7.496C46.4751 7.496 46.5391 7.512 46.5711 7.544L46.8111 7.448C46.9071 7.416 46.9871 7.4 47.0511 7.4L47.6751 7.64C47.8671 7.512 48.0591 7.432 48.2511 7.4L48.6831 7.448V7.496C48.6191 7.56 48.5871 7.736 48.5871 8.024L48.6351 8.6C48.6991 8.632 48.6351 8.744 48.4431 8.936C48.4431 8.936 48.4751 9.032 48.5391 9.224L48.7791 9.56V10.52C48.7791 10.52 48.8111 10.552 48.8751 10.616C48.9071 10.648 48.9231 10.712 48.9231 10.808L48.7791 11.288C48.7791 11.32 48.7791 11.352 48.7791 11.384C48.8111 11.416 48.8431 11.464 48.8751 11.528C48.7791 11.624 48.6991 11.672 48.6351 11.672L48.6831 11.864C48.7151 11.928 48.7311 12.008 48.7311 12.104V12.152C48.7311 12.184 48.7151 12.232 48.6831 12.296C48.6831 12.36 48.6671 12.44 48.6351 12.536L49.0191 12.68C49.0191 13 49.1311 13.32 49.3551 13.64V13.736C49.3551 14.088 49.1791 14.472 48.8271 14.888C48.8591 15.016 48.9711 15.08 49.1631 15.08C49.1631 15.368 49.1471 15.56 49.1151 15.656L49.1631 15.752C49.2911 15.752 49.3871 15.832 49.4511 15.992C49.5151 16.088 49.5151 16.232 49.4511 16.424C49.4511 16.584 49.4351 16.712 49.4031 16.808L49.6431 17.72C49.6111 17.752 49.5951 17.8 49.5951 17.864L49.1151 17.768C49.1151 17.8 49.0831 17.848 49.0191 17.912C49.0511 18.04 49.1151 18.104 49.2111 18.104C49.3071 18.072 49.4671 18.056 49.6911 18.056C49.6271 18.056 49.8191 17.944 50.2671 17.72V17C50.4271 17.096 50.5391 17.144 50.6031 17.144L50.8431 17.048L50.6511 16.76L50.7951 16.376C50.7951 16.312 50.7791 16.248 50.7471 16.184C50.7471 16.12 50.7311 16.024 50.6991 15.896C50.6351 15.704 50.6191 15.592 50.6511 15.56L50.9391 14.984C50.9711 14.856 50.9871 14.712 50.9871 14.552C50.9871 14.392 51.0031 14.2 51.0351 13.976L51.1311 13.88C51.1311 13.816 51.1311 13.72 51.1311 13.592C51.1311 13.432 51.1471 13.256 51.1791 13.064C51.2111 13.032 51.2751 13.016 51.3711 13.016C51.3711 13.112 51.4351 13.208 51.5631 13.304C51.7231 13.368 51.8991 13.16 52.0911 12.68C52.1871 12.488 52.2511 12.328 52.2831 12.2C52.3471 12.04 52.3951 11.912 52.4271 11.816L51.9951 11.528C52.0591 11.464 52.1071 11.432 52.1391 11.432L52.3311 11.48C52.3631 11.48 52.3791 11.496 52.3791 11.528C52.4111 11.56 52.4431 11.576 52.4751 11.576H52.5231C52.6511 11.576 52.7471 11.368 52.8111 10.952L52.5231 10.712C52.3951 10.744 52.3311 10.824 52.3311 10.952L51.7551 10.76C51.8511 10.44 51.8831 10.232 51.8511 10.136L51.8031 9.944C51.7711 9.88 51.7551 9.8 51.7551 9.704C51.7551 9.576 51.8191 9.464 51.9471 9.368C52.0751 9.272 52.1391 9.176 52.1391 9.08L52.0431 8.648C51.9471 8.424 51.9151 8.296 51.9471 8.264C52.0431 8.168 52.1871 7.976 52.3791 7.688H52.6191C52.6511 7.752 52.6831 7.832 52.7151 7.928C52.7471 8.024 52.7951 8.136 52.8591 8.264L53.0511 8.024C53.2431 7.928 53.4991 7.88 53.8191 7.88C53.8831 7.88 53.9791 7.944 54.1071 8.072C54.2351 8.2 54.3151 8.264 54.3471 8.264C54.4431 8.264 54.5391 8.136 54.6351 7.88L54.8751 7.928L55.4991 8.168C55.5951 8.2 55.6911 8.136 55.7871 7.976H55.9791C56.1071 8.104 56.2191 8.168 56.3151 8.168L56.9871 7.928C57.0831 8.056 57.1311 8.184 57.1311 8.312C57.0991 8.44 57.0511 8.632 56.9871 8.888C56.9231 9.112 56.8111 9.4 56.6511 9.752C56.5231 10.072 56.2991 10.296 55.9791 10.424C56.1711 10.616 56.2671 10.856 56.2671 11.144L55.8351 12.152C55.8351 12.184 55.8351 12.248 55.8351 12.344C55.8351 12.408 55.8191 12.488 55.7871 12.584C55.7231 12.648 55.6431 12.776 55.5471 12.968C55.5791 13.096 55.5951 13.272 55.5951 13.496C55.5951 13.688 55.5951 13.912 55.5951 14.168L55.1631 14.072C55.0671 14.072 55.0031 14.136 54.9711 14.264L55.0671 14.504C55.0991 14.568 55.1151 14.616 55.1151 14.648C55.1471 14.68 55.1631 14.712 55.1631 14.744C55.1951 14.872 55.2111 15 55.2111 15.128C55.2111 15.256 55.2111 15.4 55.2111 15.56L54.9711 16.088L54.8751 16.808C54.7791 17.096 54.6031 17.288 54.3471 17.384C54.4751 17.512 54.5391 17.64 54.5391 17.768C54.5391 17.832 54.5231 17.912 54.4911 18.008C54.4911 18.072 54.4751 18.152 54.4431 18.248C54.3471 18.344 54.2831 18.44 54.2511 18.536C54.2191 18.664 54.1871 18.824 54.1551 19.016C54.1231 19.208 54.0751 19.464 54.0111 19.784L53.7711 20.216C53.7391 20.344 53.7071 20.504 53.6751 20.696C53.6431 20.888 53.5951 21.128 53.5311 21.416C53.4671 21.448 53.3551 21.464 53.1951 21.464C53.1631 21.464 53.1471 21.528 53.1471 21.656C53.1471 21.784 53.2111 21.928 53.3391 22.088L53.1951 22.28C53.1951 22.344 53.1951 22.424 53.1951 22.52C53.1951 22.616 53.1791 22.744 53.1471 22.904C53.0831 22.936 52.9871 23.048 52.8591 23.24L52.9551 23.864L52.9071 24.104L52.6671 24.152C52.5711 24.152 52.5231 24.264 52.5231 24.488V24.968L52.1871 25.928V26.36L51.9951 26.888L51.8991 27.512L51.6111 27.8L51.4191 28.184C51.3871 28.152 51.3071 28.136 51.1791 28.136C51.1471 28.168 51.1151 28.2 51.0831 28.232C51.0511 28.232 51.0191 28.264 50.9871 28.328L51.2751 28.472C51.4671 28.568 51.5631 28.648 51.5631 28.712L51.4191 29.048C51.3871 29.176 51.3391 29.4 51.2751 29.72L51.3231 29.96C51.2591 30.184 51.1631 30.392 51.0351 30.584C50.9071 30.616 50.7471 30.728 50.5551 30.92C50.6511 31.144 50.6991 31.368 50.6991 31.592C50.6991 31.848 50.6031 32.072 50.4111 32.264L49.7391 32.936L49.5951 34.136C49.4351 34.264 49.2591 34.392 49.0671 34.52C48.8751 34.68 48.6511 34.824 48.3951 34.952L47.5791 35.144C47.5471 35.176 47.5151 35.224 47.4831 35.288C47.4511 35.352 47.4031 35.416 47.3391 35.48H47.0991C47.0031 35.48 46.9071 35.464 46.8111 35.432L45.7071 35.48C45.6431 35.48 45.5631 35.48 45.4671 35.48C45.3711 35.512 45.2591 35.544 45.1311 35.576L44.7471 35.672ZM55.4031 9.224C55.4031 9.192 55.3551 9.128 55.2591 9.032L55.1631 9.08C55.1951 9.112 55.2751 9.16 55.4031 9.224ZM46.7151 10.328L47.3391 9.8L47.1951 9.608L46.9551 9.656C46.9231 9.656 46.8751 9.608 46.8111 9.512C46.7151 9.416 46.6511 9.368 46.6191 9.368C46.5871 9.368 46.5071 9.4 46.3791 9.464L46.3311 9.56C46.3631 9.656 46.4111 9.768 46.4751 9.896C46.5391 10.024 46.6191 10.168 46.7151 10.328ZM55.4031 9.944C55.4351 9.88 55.4191 9.816 55.3551 9.752C55.3231 9.72 55.2431 9.736 55.1151 9.8C55.1791 9.896 55.2751 9.944 55.4031 9.944ZM48.4431 14.072C48.4431 14.072 48.5071 14.04 48.6351 13.976L48.5391 13.832C48.5391 13.864 48.5231 13.88 48.4911 13.88C48.4911 13.88 48.4911 13.896 48.4911 13.928L48.4431 14.072ZM46.5231 15.512C46.5871 15.544 46.6511 15.528 46.7151 15.464C46.7471 15.432 46.7311 15.352 46.6671 15.224C46.5711 15.256 46.5231 15.352 46.5231 15.512ZM48.6831 18.632C48.7151 18.536 48.6991 18.456 48.6351 18.392C48.6031 18.36 48.5231 18.376 48.3951 18.44C48.3951 18.504 48.4911 18.568 48.6831 18.632ZM51.4191 22.28L51.4671 21.992C51.4351 21.96 51.3711 21.944 51.2751 21.944L51.2271 22.232C51.2591 22.264 51.3231 22.28 51.4191 22.28ZM47.3871 25.112C47.4831 25.112 47.5791 25.064 47.6751 24.968C47.6431 24.936 47.6271 24.888 47.6271 24.824L47.1951 24.968C47.2591 25.064 47.3231 25.112 47.3871 25.112ZM47.9151 27.608L48.0591 27.272C47.9951 27.176 47.8991 27.096 47.7711 27.032C47.7071 27.16 47.6751 27.256 47.6751 27.32C47.6751 27.352 47.7551 27.448 47.9151 27.608ZM47.6271 33.8C47.6911 33.736 47.7711 33.656 47.8671 33.56C47.9631 33.496 48.0751 33.416 48.2031 33.32C48.2031 33.256 48.1711 33.192 48.1071 33.128H47.8671C47.8671 33.128 47.8031 33.096 47.6751 33.032C47.5791 32.936 47.5151 32.888 47.4831 32.888C47.4191 32.888 47.3551 32.92 47.2911 32.984C47.2591 32.984 47.2431 33 47.2431 33.032C47.3071 33.256 47.4351 33.512 47.6271 33.8Z" fill="#FEDC77"/>
</svg>
