<svg width="219" height="88" viewBox="0 0 219 88" fill="none" xmlns="http://www.w3.org/2000/svg">
<path d="M83.1667 13.1066L87.26 12.6466L84.8334 15.9999L87.2867 19.3133L83.1667 18.8799L81.52 22.6666L79.8334 18.8933L75.74 19.3533L78.1667 15.9999L75.7134 12.6866L79.8334 13.1199L81.48 9.33325L83.1667 13.1066Z" fill="#835148"/>
<path d="M112 7.66L118.14 6.97L114.5 12L118.18 16.97L112 16.32L109.53 22L107 16.34L100.86 17.03L104.5 12L100.82 7.03L107 7.68L109.47 2L112 7.66Z" fill="#835148"/>
<path d="M139.167 13.1066L143.26 12.6466L140.833 15.9999L143.287 19.3133L139.167 18.8799L137.52 22.6666L135.833 18.8933L131.74 19.3533L134.167 15.9999L131.713 12.6866L135.833 13.1199L137.48 9.33325L139.167 13.1066Z" fill="#835148"/>
<path d="M9.66671 53.1066L13.76 52.6466L11.3334 55.9999L13.7867 59.3133L9.66671 58.8799L8.02005 62.6666L6.33338 58.8933L2.24005 59.3533L4.66671 55.9999L2.21338 52.6866L6.33338 53.1199L7.98005 49.3333L9.66671 53.1066Z" fill="#835148"/>
<path d="M46.032 76.28C45.648 76.1947 45.3707 76.024 45.2 75.768C45.2 75.8107 45.136 75.8747 45.008 75.96C44.88 76.0027 44.752 76.024 44.624 76.024C44.5387 76.0667 44.4533 76.088 44.368 76.088L43.728 75.704L43.28 75.384C42.3413 75.6827 41.7867 75.832 41.616 75.832C41.488 75.832 41.2107 75.6187 40.784 75.192L40.912 74.808V74.168C40.8693 74.04 40.848 73.7413 40.848 73.272L40.912 72.312C40.8693 72.2693 40.848 72.1627 40.848 71.992C40.848 71.9067 40.848 71.8213 40.848 71.736C40.8907 71.608 40.9333 71.48 40.976 71.352C40.8907 70.6267 40.8267 70.0507 40.784 69.624C40.7413 69.1547 40.72 68.856 40.72 68.728L41.04 68.088C40.5707 67.7467 40.336 67.4907 40.336 67.32C40.336 67.192 40.5067 67 40.848 66.744C40.7627 66.744 40.6987 66.6587 40.656 66.488C40.6133 66.3173 40.5493 66.232 40.464 66.232C40.5067 66.104 40.528 65.8267 40.528 65.4L40.464 64.568L40.912 64.312C40.8267 64.0987 40.72 63.9493 40.592 63.864V63.416C40.336 62.904 40.208 62.6267 40.208 62.584C40.208 62.5413 40.272 62.4347 40.4 62.264C40.528 62.136 40.592 62.0293 40.592 61.944L40.528 61.688C40.4427 61.5173 40.4 61.4107 40.4 61.368L40.528 60.088C40.4427 60.0027 40.3787 59.896 40.336 59.768V59.192C40.336 59.192 40.336 59.1707 40.336 59.128C40.336 59.0853 40.3147 59.0427 40.272 59C40.1867 58.9147 40.1653 58.8507 40.208 58.808C40.208 58.4667 40.4 58.0187 40.784 57.464C40.7413 57.3787 40.5493 57.2933 40.208 57.208C39.9947 57.208 39.888 57.1013 39.888 56.888V56.696H39.696L39.76 57.016C39.76 57.016 39.76 57.0373 39.76 57.08C39.76 57.08 39.7387 57.1013 39.696 57.144C39.44 57.144 39.2907 57.2933 39.248 57.592C39.248 57.6773 39.184 57.784 39.056 57.912L39.12 58.232C39.0773 58.2747 39.0133 58.3813 38.928 58.552C39.056 58.808 39.056 59.0427 38.928 59.256C38.6293 59.768 38.4587 60.0027 38.416 59.96L38.352 59.896C38.352 59.896 38.3093 59.896 38.224 59.896C37.968 59.8107 37.84 60.1307 37.84 60.856V61.944C37.8827 62.0293 37.9253 62.136 37.968 62.264C38.0107 62.392 38.0533 62.5413 38.096 62.712L38.032 63.8H37.776C37.6907 63.544 37.6053 63.3947 37.52 63.352H37.328L37.2 63.416C37.5413 64.0133 37.712 64.376 37.712 64.504C37.6267 64.8453 37.4987 64.9947 37.328 64.952C37.2427 64.8667 37.136 64.8027 37.008 64.76C36.9227 64.6747 36.816 64.6107 36.688 64.568C36.56 64.568 36.496 64.5893 36.496 64.632C36.496 64.6747 36.624 64.8027 36.88 65.016C36.9227 65.3147 37.0933 65.5067 37.392 65.592L37.328 66.68L36.624 66.616C36.6667 66.9573 36.688 67.2347 36.688 67.448C36.688 67.6187 36.688 67.7253 36.688 67.768L36.624 67.96C36.624 68.0027 36.6027 68.0453 36.56 68.088C36.5173 68.088 36.496 68.1093 36.496 68.152L36.624 68.728C36.6667 68.8987 36.688 69.048 36.688 69.176C36.688 69.2613 36.688 69.3253 36.688 69.368C36.6453 69.4107 36.5813 69.496 36.496 69.624C36.4533 69.7093 36.3893 69.8587 36.304 70.072L36.048 70.84C35.92 71.1387 35.7067 71.3733 35.408 71.544C35.408 71.8 35.472 72.0347 35.6 72.248C35.728 72.4613 35.7707 72.696 35.728 72.952C35.6853 73.0373 35.6213 73.1867 35.536 73.4C35.4507 73.5707 35.3653 73.784 35.28 74.04C35.2373 74.0827 35.2373 74.3387 35.28 74.808C35.152 75.064 34.9387 75.1707 34.64 75.128L34.192 74.936C34.0213 74.8507 33.872 74.808 33.744 74.808L33.296 74.936L32.72 75.064C32.6773 75.0213 32.592 74.9787 32.464 74.936C32.3787 74.8933 32.272 74.872 32.144 74.872H31.504C31.4613 74.872 31.376 74.8507 31.248 74.808C31.1627 74.7653 31.0347 74.7227 30.864 74.68L30.224 74.552C30.1813 74.552 30.0747 74.5947 29.904 74.68C29.7333 74.808 29.6267 74.8507 29.584 74.808C29.456 74.808 29.328 74.616 29.2 74.232C29.072 74.1467 29.008 74.04 29.008 73.912L29.2 73.272V73.08C29.2 72.8667 29.136 72.696 29.008 72.568L29.264 72.44H29.328V72.568C29.4133 72.4827 29.4773 72.3547 29.52 72.184H29.264C29.0933 72.184 29.008 71.9707 29.008 71.544V70.776C29.008 70.264 28.9653 70.0507 28.88 70.136C29.264 69.9653 29.4773 69.816 29.52 69.688C29.52 69.56 29.2853 69.3253 28.816 68.984L28.944 68.664C28.944 68.664 28.9013 68.5787 28.816 68.408C28.7733 68.1093 28.688 67.8747 28.56 67.704C28.6453 66.9787 28.7093 66.3813 28.752 65.912C28.7947 65.4 28.816 65.0587 28.816 64.888L28.56 63.864C28.56 63.7787 28.6453 63.6507 28.816 63.48L29.072 63.224C29.0293 63.2667 28.9227 63.0533 28.752 62.584C28.8373 62.4987 28.8373 62.3493 28.752 62.136C28.7093 62.0507 28.6453 61.9653 28.56 61.88C28.4747 61.752 28.3893 61.6027 28.304 61.432C28.3467 61.3467 28.368 61.1973 28.368 60.984L28.304 60.792C28.304 60.7493 28.2827 60.728 28.24 60.728C28.1973 60.6853 28.176 60.6427 28.176 60.6L28.24 59.256C28.24 59.2133 28.24 59.128 28.24 59C28.24 58.872 28.2187 58.7227 28.176 58.552L28.304 58.168C28.7307 57.912 28.944 57.656 28.944 57.4C28.944 57.144 28.624 56.7387 27.984 56.184C27.9413 55.9707 27.92 55.736 27.92 55.48C27.92 55.224 27.92 54.9253 27.92 54.584V54.072C27.92 53.7733 27.8773 53.5813 27.792 53.496C27.8773 53.3253 27.92 53.1333 27.92 52.92C27.792 52.7067 27.664 52.4293 27.536 52.088C27.5787 51.96 27.6 51.7893 27.6 51.576C27.6 51.3627 27.6 51.1067 27.6 50.808C27.5573 50.5093 27.5147 50.3387 27.472 50.296C27.5573 50.168 27.6213 50.0187 27.664 49.848C27.7493 49.6773 27.8347 49.4853 27.92 49.272C28.304 49.0587 28.5387 48.824 28.624 48.568V48.376C28.624 48.12 28.56 47.928 28.432 47.8C28.2187 47.9707 28.0693 48.3547 27.984 48.952H27.92C27.8773 48.952 27.8347 48.9733 27.792 49.016C27.792 49.016 27.7707 49.016 27.728 49.016C27.6427 49.016 27.536 48.9093 27.408 48.696C27.5787 48.1413 27.664 47.7787 27.664 47.608C27.664 47.5227 27.6 47.416 27.472 47.288L27.536 46.392C27.408 46.1787 27.28 45.8373 27.152 45.368L27.216 43.832C27.216 43.7467 27.1947 43.64 27.152 43.512L27.088 43.256L26.96 41.144C26.96 40.9733 27.024 40.7387 27.152 40.44C27.1947 40.3973 27.2587 40.3333 27.344 40.248C27.4293 40.1627 27.5573 40.0773 27.728 39.992C27.6853 39.9067 27.4933 39.8427 27.152 39.8L26.96 39.672C26.9173 39.2027 26.7893 38.5627 26.576 37.752C26.7467 37.5813 26.9173 37.5173 27.088 37.56C27.088 37.5173 27.1307 37.4533 27.216 37.368C26.96 37.1547 26.768 36.8347 26.64 36.408L26.704 35.512C26.7893 35.5547 26.896 35.6187 27.024 35.704C27.1947 35.7467 27.3653 35.8107 27.536 35.896C27.5787 35.8533 27.6427 35.832 27.728 35.832C27.8133 35.832 27.92 35.8107 28.048 35.768L28.56 36.024C28.6453 35.9813 28.752 35.9387 28.88 35.896C29.0507 35.8533 29.2213 35.8107 29.392 35.768L30.032 35.96H30.16C30.3733 35.96 30.5653 35.896 30.736 35.768C30.8213 35.8533 30.9067 35.9387 30.992 36.024C31.0773 36.1093 31.184 36.1947 31.312 36.28C31.3973 36.28 31.5467 36.1733 31.76 35.96L31.952 36.024C31.952 36.024 31.952 36.1733 31.952 36.472C31.9093 36.6427 31.9733 36.7493 32.144 36.792C32.3147 36.792 32.4213 36.728 32.464 36.6C32.5067 36.5147 32.5067 36.408 32.464 36.28C32.4213 36.1093 32.4 36.024 32.4 36.024L32.72 36.088L33.168 36.28H33.616L33.744 36.536L33.552 38.904C33.3387 39.032 33.104 39.2667 32.848 39.608C32.848 39.608 32.9547 39.7787 33.168 40.12C33.3387 40.4187 33.424 40.5893 33.424 40.632C33.3813 40.888 33.2107 41.016 32.912 41.016C32.8267 41.016 32.72 41.016 32.592 41.016C32.464 41.016 32.336 40.9947 32.208 40.952C32.1653 40.9947 32.144 41.1013 32.144 41.272C32.3573 41.4853 32.528 41.6133 32.656 41.656C32.8267 41.656 32.9973 41.5707 33.168 41.4L33.488 41.848C33.6587 42.104 33.744 42.232 33.744 42.232L33.552 42.68C33.5093 42.8507 33.5093 43.1067 33.552 43.448C33.552 43.5333 33.5307 43.5973 33.488 43.64C33.2747 43.64 33.168 43.768 33.168 44.024C33.168 44.28 33.2107 44.4933 33.296 44.664C33.0827 44.8347 32.976 44.984 32.976 45.112C32.976 45.368 33.0613 45.432 33.232 45.304H33.488L33.744 46.136C33.6587 46.3067 33.5733 46.456 33.488 46.584C33.4027 46.6693 33.3173 46.7547 33.232 46.84L33.104 48.248C33.488 48.4613 33.6587 48.696 33.616 48.952C33.616 48.9947 33.5733 49.0587 33.488 49.144C33.36 49.272 33.296 49.3787 33.296 49.464L33.424 49.912C33.4667 50.04 33.5093 50.1467 33.552 50.232C33.5947 50.3173 33.616 50.3813 33.616 50.424L33.872 50.616C33.872 50.7013 33.8507 50.808 33.808 50.936C33.808 51.064 33.808 51.2347 33.808 51.448L33.68 53.24V53.304C33.68 53.5173 33.744 53.944 33.872 54.584L33.68 54.84C33.6373 54.8827 33.616 54.9467 33.616 55.032H33.68C33.7227 55.032 33.7653 55.0533 33.808 55.096C34.064 55.096 34.4053 54.7547 34.832 54.072C34.7893 54.0293 34.8107 53.9013 34.896 53.688C34.9813 53.432 35.1093 53.3253 35.28 53.368C35.28 53.2827 35.216 53.2187 35.088 53.176C35.0453 53.0907 35.024 52.8773 35.024 52.536L35.6 50.552C35.6427 50.424 35.664 50.1253 35.664 49.656L35.856 49.464V48.824C35.8987 48.7813 35.92 48.696 35.92 48.568L36.176 48.248C36.176 48.0773 36.176 47.8853 36.176 47.672C36.2187 47.416 36.2613 47.1387 36.304 46.84C36.3893 46.3707 36.56 46.136 36.816 46.136C37.072 46.2213 37.264 46.3067 37.392 46.392L37.52 46.328C37.52 46.1573 37.456 46.0507 37.328 46.008C37.1573 46.008 37.0293 45.9653 36.944 45.88C36.9013 45.7947 36.8587 45.7093 36.816 45.624C36.816 45.496 36.7947 45.3467 36.752 45.176L37.2 44.856C37.2853 44.6 37.328 44.408 37.328 44.28L37.456 43.768L37.328 43.192C37.2427 42.8507 37.2213 42.6587 37.264 42.616C37.264 42.4453 37.3493 42.2747 37.52 42.104L37.392 41.528C37.392 41.4427 37.6267 41.2293 38.096 40.888C37.84 40.4187 37.712 40.2053 37.712 40.248L37.84 39.544C38.096 39.3307 38.224 39.0533 38.224 38.712V38.264C38.2667 38.2213 38.3093 38.1787 38.352 38.136C38.3947 38.0933 38.4373 38.0293 38.48 37.944L38.608 37.176C38.6507 36.7493 38.864 36.536 39.248 36.536C39.2907 36.5787 39.44 36.664 39.696 36.792C39.952 36.92 40.1013 36.984 40.144 36.984C40.272 36.984 40.4213 36.856 40.592 36.6L40.784 36.664C40.8267 36.7067 40.8693 36.7493 40.912 36.792C40.9547 36.8347 41.0187 36.8773 41.104 36.92C41.1467 36.8773 41.296 36.856 41.552 36.856C41.68 37.1547 41.808 37.304 41.936 37.304C42.192 37.304 42.3413 37.2827 42.384 37.24C42.4267 37.1973 42.4053 37.176 42.32 37.176H42.448L42.512 37.24C42.64 37.368 42.7467 37.304 42.832 37.048C43.0453 37.1333 43.1947 37.24 43.28 37.368L43.408 38.456C43.4507 38.4133 43.5787 38.008 43.792 37.24C43.8347 37.1973 43.8987 37.176 43.984 37.176C44.0267 37.176 44.3253 37.3467 44.88 37.688C44.88 37.688 44.8587 37.7307 44.816 37.816C44.7733 37.9013 44.7093 38.008 44.624 38.136C44.6667 38.2213 44.688 38.456 44.688 38.84H44.56C44.6027 38.8827 44.624 38.968 44.624 39.096L44.56 39.288V39.992L44.816 40.248V40.888L44.944 41.016C44.9867 41.0587 45.008 41.144 45.008 41.272C44.9227 41.3573 44.8587 41.5707 44.816 41.912C44.688 42.296 44.6027 42.5093 44.56 42.552L44.816 43.128C44.816 43.1707 44.816 43.256 44.816 43.384C44.816 43.4693 44.7947 43.6187 44.752 43.832L44.88 44.024C44.9227 44.1093 44.944 44.1947 44.944 44.28C44.9013 44.3227 44.8587 44.3653 44.816 44.408C44.7733 44.4507 44.7093 44.5147 44.624 44.6V45.368C44.752 45.5387 44.88 45.7947 45.008 46.136L44.752 47.672L44.944 47.928C45.0293 48.0987 45.0507 48.312 45.008 48.568C45.0507 48.7813 45.0933 48.888 45.136 48.888L44.688 49.72C44.688 49.72 44.7093 49.7627 44.752 49.848C44.8373 49.8907 44.9227 49.9973 45.008 50.168L44.88 50.744C44.752 50.616 44.624 50.5307 44.496 50.488C44.3253 52.1947 44.2613 53.0907 44.304 53.176C44.944 53.8587 45.264 54.3067 45.264 54.52L44.816 55.224C44.816 55.224 44.688 55.2667 44.432 55.352V55.544C44.3893 55.5867 44.4107 55.608 44.496 55.608C44.5387 55.5653 44.624 55.544 44.752 55.544L45.392 55.8C45.392 56.0133 45.2427 56.2053 44.944 56.376C44.9867 56.4613 45.1573 56.5467 45.456 56.632C45.6693 56.632 45.8187 56.5893 45.904 56.504V56.376C45.904 56.2053 45.84 56.0347 45.712 55.864C46.2667 55.736 46.5653 55.5227 46.608 55.224C46.608 55.0533 46.5653 54.968 46.48 54.968L46.096 54.84L46.608 54.648C46.9067 54.4347 46.9493 54.1147 46.736 53.688L46.928 51.896C47.0133 51.8107 47.0987 51.704 47.184 51.576C47.2693 51.4053 47.3547 51.2347 47.44 51.064L47.504 49.848V49.144L47.888 48.184C47.9733 48.056 48.1013 48.0133 48.272 48.056C48.3147 47.8 48.2933 47.5867 48.208 47.416L48.016 46.968C48.144 46.84 48.2293 46.6907 48.272 46.52V45.752C48.272 45.4107 48.3573 45.048 48.528 44.664L48.848 44.216C48.7627 44.088 48.6987 43.8747 48.656 43.576C48.7413 43.0213 48.8053 42.6587 48.848 42.488C49.0187 42.3173 49.1893 42.0827 49.36 41.784L49.296 41.208L49.168 40.696C49.4667 40.056 49.7013 39.3947 49.872 38.712V38.584C49.872 38.456 49.808 38.264 49.68 38.008L49.808 37.816C50.064 37.6027 50.32 37.5387 50.576 37.624C50.576 37.624 50.704 37.6667 50.96 37.752C51.1307 37.8373 51.2373 37.88 51.28 37.88H51.344C51.5147 37.88 51.6853 37.7947 51.856 37.624C51.984 37.752 52.112 37.8373 52.24 37.88C52.24 37.88 52.3253 37.88 52.496 37.88L52.816 37.816C52.8587 37.816 52.9653 37.8587 53.136 37.944C53.1787 37.944 53.2853 37.9013 53.456 37.816L53.712 37.752C53.84 37.88 54.0533 38.008 54.352 38.136L55.504 38.008C55.5467 38.0507 55.5893 38.072 55.632 38.072C55.7173 38.072 55.7813 38.0933 55.824 38.136H55.952C56.0373 38.136 56.1227 38.136 56.208 38.136C56.336 38.136 56.464 38.1147 56.592 38.072C56.72 38.1147 56.784 38.136 56.784 38.136V38.456C56.784 38.4987 56.7413 38.5627 56.656 38.648L56.272 39.928C56.1867 40.1413 56.08 40.2693 55.952 40.312C55.9947 40.3973 56.016 40.568 56.016 40.824L55.824 41.272C55.952 41.5707 55.9733 41.8267 55.888 42.04L55.44 42.552C55.3973 42.5947 55.3973 42.6373 55.44 42.68C55.3973 42.8507 55.248 43 54.992 43.128C55.0773 43.1707 55.1413 43.2987 55.184 43.512L54.736 44.472C54.7787 44.5147 54.928 44.536 55.184 44.536C55.1413 44.7067 55.1627 44.856 55.248 44.984L54.608 45.624C54.6507 45.9653 54.6933 46.1573 54.736 46.2L54.352 46.776C54.352 46.8613 54.352 46.968 54.352 47.096C54.352 47.1813 54.3307 47.3093 54.288 47.48C54.2453 47.5227 54.1813 47.5653 54.096 47.608C54.0533 47.6507 53.9893 47.7147 53.904 47.8L54.224 48.248H53.776C53.4347 48.3333 53.328 48.3973 53.456 48.44C53.4133 48.44 53.3493 48.376 53.264 48.248C53.008 48.4187 52.8587 48.5893 52.816 48.76C52.816 48.8453 52.8587 48.9093 52.944 48.952C52.9867 48.9093 53.328 48.8667 53.968 48.824C54.0533 49.08 54.096 49.2293 54.096 49.272C53.9253 49.4427 53.8187 49.592 53.776 49.72C53.6053 50.0187 53.52 50.4027 53.52 50.872L53.136 51.448C53.1787 51.4907 53.2 51.576 53.2 51.704C53.2 51.7893 53.2213 51.9173 53.264 52.088C53.0933 52.1307 52.944 52.1307 52.816 52.088L52.496 51.96C52.4533 51.96 52.3893 52.0027 52.304 52.088C52.048 52.1307 51.8773 52.3013 51.792 52.6L52.24 53.496C52.5813 53.1547 52.8373 52.856 53.008 52.6C52.8373 53.5387 52.7733 54.0507 52.816 54.136L51.728 56.824C51.5573 56.8667 51.344 56.8667 51.088 56.824C51.0453 56.8667 51.024 56.9733 51.024 57.144C51.024 57.144 51.088 57.1867 51.216 57.272L51.408 57.208H51.536C51.6213 57.464 51.664 57.6347 51.664 57.72C51.6213 57.7627 51.536 57.912 51.408 58.168C51.3227 58.424 51.28 58.5733 51.28 58.616C51.28 58.744 51.344 58.9787 51.472 59.32V59.64C51.3867 59.7253 51.2373 59.8107 51.024 59.896C50.768 60.0667 50.64 60.2587 50.64 60.472C50.64 60.6 50.768 60.7707 51.024 60.984C51.024 61.0693 50.96 61.2187 50.832 61.432C50.704 61.6027 50.64 61.88 50.64 62.264C50.5547 62.648 50.4267 62.9893 50.256 63.288C50.0853 63.3307 49.8933 63.5013 49.68 63.8V63.928C49.68 64.0133 49.68 64.12 49.68 64.248C49.68 64.376 49.7013 64.5253 49.744 64.696C49.488 64.7387 49.36 64.824 49.36 64.952C49.36 65.0373 49.4027 65.1227 49.488 65.208C49.5733 65.3787 49.616 65.4853 49.616 65.528C49.5307 65.6133 49.4453 65.7627 49.36 65.976C49.36 66.1467 49.3387 66.3813 49.296 66.68C49.296 66.9787 49.2747 67.2987 49.232 67.64C48.7627 67.8533 48.5707 68.1307 48.656 68.472L48.72 68.92C48.72 69.0053 48.72 69.0907 48.72 69.176C48.7627 69.2613 48.784 69.3253 48.784 69.368C48.784 69.5813 48.7627 69.7307 48.72 69.816L48.144 70.52C47.8453 70.9893 47.696 71.3307 47.696 71.544C47.824 71.6293 47.9093 71.7787 47.952 71.992L47.76 73.656C47.504 73.912 47.2693 74.232 47.056 74.616L47.184 75.064V75.128C47.184 75.3413 47.0987 75.64 46.928 76.024C46.544 76.1947 46.2453 76.28 46.032 76.28ZM32.016 36.024H31.952C31.9947 36.024 32.016 36.024 32.016 36.024ZM28.752 38.2C28.7947 38.1573 28.9013 38.0933 29.072 38.008C29.0293 37.9653 28.9227 37.9653 28.752 38.008V38.2ZM29.52 38.712C29.6907 38.7973 29.8187 38.7547 29.904 38.584C29.8187 38.4987 29.7547 38.456 29.712 38.456C29.584 38.456 29.52 38.5413 29.52 38.712ZM53.072 39.8C53.328 39.544 53.456 39.352 53.456 39.224V39.16C53.456 38.776 53.2 38.5627 52.688 38.52C52.56 38.4773 52.4533 38.4987 52.368 38.584L52.304 38.776C52.304 38.904 52.432 39.0747 52.688 39.288C52.944 39.544 53.072 39.7147 53.072 39.8ZM40.272 40.504C40.3147 40.4613 40.4213 40.3973 40.592 40.312C40.592 40.2267 40.4853 40.2267 40.272 40.312V40.504ZM41.04 41.016C41.168 41.0587 41.296 40.9947 41.424 40.824C41.3813 40.7813 41.3173 40.76 41.232 40.76C41.104 40.76 41.04 40.8453 41.04 41.016ZM51.856 41.208C51.8987 41.08 51.8773 40.9733 51.792 40.888C51.7493 40.8027 51.664 40.824 51.536 40.952C51.536 41.0373 51.6427 41.1227 51.856 41.208ZM39.76 43.192C39.8027 43.1493 39.76 43.064 39.632 42.936C39.5893 42.936 39.5253 42.9787 39.44 43.064L39.632 43.128C39.6747 43.128 39.696 43.1493 39.696 43.192C39.7387 43.192 39.76 43.192 39.76 43.192ZM39.76 44.216C39.8027 44.1307 39.7813 44.0453 39.696 43.96C39.6107 43.8747 39.5253 43.8747 39.44 43.96C39.44 44.0453 39.5467 44.1307 39.76 44.216ZM41.36 44.28V44.024C41.3173 43.9387 41.2533 43.9387 41.168 44.024L41.36 44.28ZM28.688 45.944C28.8587 45.7307 28.944 45.5387 28.944 45.368C28.9013 45.2827 28.7307 45.1333 28.432 44.92L27.856 45.624C27.9413 45.6667 28.048 45.7093 28.176 45.752C28.3467 45.7947 28.5173 45.8587 28.688 45.944ZM27.472 50.36C27.472 50.2747 27.472 50.2533 27.472 50.296V50.36ZM38.864 54.392C38.992 54.4347 39.12 54.3707 39.248 54.2C39.2053 54.1573 39.1413 54.136 39.056 54.136C38.928 54.136 38.864 54.2213 38.864 54.392ZM36.688 55.416C36.7733 55.3307 36.816 55.2667 36.816 55.224C36.816 55.096 36.7307 55.032 36.56 55.032C36.4747 55.16 36.5173 55.288 36.688 55.416ZM41.36 55.416C41.488 55.4587 41.616 55.3947 41.744 55.224C41.7013 55.1813 41.6373 55.16 41.552 55.16C41.424 55.16 41.36 55.2453 41.36 55.416ZM31.952 57.656C32.08 57.6987 32.2293 57.6347 32.4 57.464C32.3573 57.4213 32.272 57.4 32.144 57.4C32.016 57.4 31.952 57.4853 31.952 57.656ZM45.328 58.168C45.3707 58.168 45.328 58.0827 45.2 57.912C45.1573 57.912 45.0933 57.9547 45.008 58.04L45.328 58.168ZM29.84 58.68C29.8827 58.6373 29.904 58.5733 29.904 58.488C29.904 58.36 29.8187 58.296 29.648 58.296C29.6053 58.424 29.6693 58.552 29.84 58.68ZM34.448 58.68C34.576 58.7227 34.7253 58.6587 34.896 58.488C34.8533 58.4453 34.768 58.424 34.64 58.424C34.512 58.424 34.448 58.5093 34.448 58.68ZM45.328 59.192C45.3707 59.1067 45.3493 59.0213 45.264 58.936C45.1787 58.8507 45.072 58.8507 44.944 58.936C44.9867 59.0213 45.1147 59.1067 45.328 59.192ZM46.928 59.256V59C46.8853 58.9147 46.8213 58.9147 46.736 59L46.928 59.256ZM30.8 62.008C30.8427 61.9227 31.0347 61.7093 31.376 61.368C31.376 61.368 31.4187 61.24 31.504 60.984L32.144 60.344C31.8027 60.0027 31.632 59.8107 31.632 59.768C31.632 59.4693 31.5893 59.2773 31.504 59.192L31.12 59.128V59.64L31.312 60.216C31.312 60.344 31.1627 60.4293 30.864 60.472V60.792C30.9067 60.792 30.928 60.8347 30.928 60.92C30.928 61.0053 30.8213 61.3253 30.608 61.88L30.8 62.008ZM46.736 64.632C46.736 64.504 46.7147 64.4187 46.672 64.376C46.6293 64.3333 46.5227 64.3547 46.352 64.44C46.352 64.568 46.48 64.632 46.736 64.632ZM44.176 65.528C44.2613 65.5707 44.3893 65.5067 44.56 65.336C44.4747 65.2507 44.368 65.2293 44.24 65.272C44.1547 65.3573 44.1333 65.4427 44.176 65.528ZM33.36 66.488C33.4027 66.488 33.4453 66.4667 33.488 66.424L33.616 66.36C33.616 66.3173 33.5733 66.2533 33.488 66.168L33.36 66.488ZM46.544 70.456C46.8427 70.456 46.992 70.264 46.992 69.88C46.992 69.5813 46.864 69.368 46.608 69.24V68.856C46.48 68.6427 46.5227 68.4293 46.736 68.216L47.44 67.96L47.376 67.768H46.928L46.736 67.64C46.6507 67.5973 46.5227 67.576 46.352 67.576L46.224 67.768C46.1387 67.8533 46.096 67.896 46.096 67.896L45.84 67.768C45.712 67.6827 45.6267 67.6613 45.584 67.704C45.5413 67.7893 45.52 67.9387 45.52 68.152C45.52 68.7067 45.6053 69.0693 45.776 69.24L46.096 69.304C46.096 69.304 46.1387 69.3893 46.224 69.56C46.2667 69.6027 46.2667 69.6453 46.224 69.688C46.1813 69.816 46.1813 69.9653 46.224 70.136C46.3093 70.3493 46.416 70.456 46.544 70.456ZM30.672 68.344C30.8 68.3867 30.9067 68.3653 30.992 68.28C31.0347 68.2373 31.0133 68.1307 30.928 67.96C30.8427 67.96 30.7573 68.088 30.672 68.344ZM33.488 72.568C33.488 72.44 33.4667 72.3547 33.424 72.312C33.3387 72.2267 33.232 72.2267 33.104 72.312C33.104 72.3973 33.232 72.4827 33.488 72.568ZM45.392 72.696C45.4347 72.6107 45.4133 72.5253 45.328 72.44C45.2853 72.3973 45.1787 72.4187 45.008 72.504C45.008 72.632 45.136 72.696 45.392 72.696ZM42.832 73.592C42.9173 73.6347 43.0453 73.5707 43.216 73.4C43.1733 73.3573 43.1093 73.336 43.024 73.336C42.896 73.336 42.832 73.4213 42.832 73.592ZM58.5705 43.832C58.3998 43.7893 58.1865 43.6613 57.9305 43.448C57.8025 43.32 57.7385 43.1707 57.7385 43C57.6958 42.744 57.7172 42.488 57.8025 42.232L58.1225 41.848C58.1652 41.8053 58.1652 41.6987 58.1225 41.528C58.1225 41.3573 58.1012 41.2507 58.0585 41.208C57.8878 41.1227 57.7812 40.9947 57.7385 40.824C57.6958 40.7387 57.6745 40.4827 57.6745 40.056L57.8025 39.608C57.8452 39.48 57.8665 39.3733 57.8665 39.288C57.8665 39.16 57.8665 39.0747 57.8665 39.032L57.9305 37.368C58.0158 37.112 58.1865 36.984 58.4425 36.984L58.6345 37.048C58.6772 37.0907 58.7412 37.112 58.8265 37.112L59.2105 36.92H59.9785C60.0638 36.92 60.1705 37.0053 60.2985 37.176C60.3838 37.304 60.4478 37.4107 60.4905 37.496C60.5758 37.5387 60.6398 37.5813 60.6825 37.624C60.7678 37.496 60.9385 37.3893 61.1945 37.304L61.3225 36.664C61.4932 36.7067 61.7065 36.8347 61.9625 37.048C62.0478 37.0907 62.2825 37.112 62.6665 37.112C62.7092 37.112 62.7945 37.048 62.9225 36.92C63.0505 36.792 63.1572 36.728 63.2425 36.728L63.8825 36.792C63.9678 36.9627 64.0532 37.176 64.1385 37.432C64.2238 37.6453 64.3092 37.8587 64.3945 38.072C64.3945 38.1573 64.3518 38.2427 64.2665 38.328C64.3518 38.3707 64.3518 38.6267 64.2665 39.096L64.0745 39.352C64.0745 39.5227 64.0105 39.7147 63.8825 39.928L63.6265 39.8C63.4985 39.8 63.3918 39.928 63.3065 40.184C63.4345 40.3547 63.5198 40.44 63.5625 40.44L63.8825 40.312C64.0105 40.312 64.1172 40.4187 64.2025 40.632V41.528L64.3945 42.872V42.936C64.3945 43.2773 64.1812 43.4693 63.7545 43.512L63.4345 43.32C63.3492 43.3627 63.2425 43.4053 63.1145 43.448C63.0292 43.4907 62.9438 43.5333 62.8585 43.576L62.4105 43.448C62.2825 43.4053 62.1545 43.384 62.0265 43.384C61.5998 43.384 61.1732 43.4053 60.7465 43.448C60.3198 43.4907 59.9358 43.5547 59.5945 43.64C59.4238 43.768 59.2105 43.832 58.9545 43.832H58.5705ZM62.5385 37.816C62.5812 37.7733 62.6665 37.752 62.7945 37.752L62.7305 37.496C62.5598 37.5387 62.4958 37.6453 62.5385 37.816ZM59.5945 39.224H59.3385L59.5945 39.544V39.224ZM62.5385 75.64C62.4532 75.64 62.3678 75.5973 62.2825 75.512C62.1972 75.4267 62.1332 75.384 62.0905 75.384L60.8105 75.256C60.7678 75.256 60.6612 75.2987 60.4905 75.384C60.3625 75.4267 60.2345 75.448 60.1065 75.448L59.5305 75.384C59.3598 75.3413 59.2318 75.32 59.1465 75.32C59.0612 75.32 58.9972 75.32 58.9545 75.32C58.9118 75.3627 58.8265 75.4053 58.6985 75.448C58.6132 75.4907 58.5065 75.5333 58.3785 75.576L58.0585 75.448V74.296L58.3145 73.912C58.3572 73.784 58.3785 73.5067 58.3785 73.08C58.5492 73.0373 58.5918 72.9093 58.5065 72.696L58.3145 72.312C58.3145 71.928 58.4425 71.672 58.6985 71.544C58.9545 71.416 59.0825 71.3307 59.0825 71.288C59.0825 71.2027 59.0612 71.1173 59.0185 71.032C59.0185 70.904 58.9972 70.7547 58.9545 70.584C58.7838 70.456 58.6345 70.264 58.5065 70.008C58.4638 69.88 58.3998 69.688 58.3145 69.432C58.1865 68.536 58.1225 67.8747 58.1225 67.448C58.2505 67.2773 58.2718 66.7867 58.1865 65.976L58.3785 65.784C58.3785 65.784 58.3785 65.528 58.3785 65.016C58.4638 64.9307 58.5278 64.8027 58.5705 64.632L58.0585 64.376V63.864C58.0585 63.6507 58.0372 63.4373 57.9945 63.224C57.9945 62.968 57.9732 62.712 57.9305 62.456L57.8025 61.496C57.9732 61.4533 58.0798 61.0267 58.1225 60.216L58.5705 60.28L58.6345 60.216V59.768C58.5065 59.5547 58.3145 59.4907 58.0585 59.576C58.0585 59.32 58.0158 58.8933 57.9305 58.296C57.8878 57.6987 57.8665 57.4 57.8665 57.4C57.8665 57.3573 57.9092 57.208 57.9945 56.952L58.1225 56.696V55.224C58.1225 54.9253 58.0585 54.712 57.9305 54.584V54.328C57.9305 54.072 57.9732 53.8587 58.0585 53.688C58.2718 53.688 58.3998 53.6027 58.4425 53.432C58.4852 53.2613 58.3785 53.1333 58.1225 53.048C58.1652 53.0053 58.1865 52.92 58.1865 52.792C58.1865 52.664 58.1225 52.5147 57.9945 52.344V50.68L58.2505 48.568L58.1225 47.928L57.9305 47.352V46.904H58.8265C59.0398 47.2453 59.2532 47.416 59.4665 47.416L59.9785 47.16C60.3198 47.032 60.4905 46.968 60.4905 46.968C60.5332 46.968 60.6398 47.032 60.8105 47.16C60.9812 47.3307 61.0878 47.416 61.1305 47.416L61.7065 47.224C61.6638 47.3093 61.6425 47.3947 61.6425 47.48C61.6425 47.5227 61.6425 47.544 61.6425 47.544V47.608C61.6425 47.6507 61.8132 47.672 62.1545 47.672C62.3678 47.672 62.5172 47.6293 62.6025 47.544C62.6878 47.4587 62.7518 47.416 62.7945 47.416C62.8372 47.4587 62.9438 47.48 63.1145 47.48H63.3065C63.3918 47.3947 63.4558 47.2667 63.4985 47.096L64.2025 46.776C64.4158 46.776 64.5438 46.904 64.5865 47.16C64.5865 47.3307 64.5652 47.5653 64.5225 47.864C64.4798 48.1627 64.4158 48.5467 64.3305 49.016C63.7758 49.016 63.4985 49.1013 63.4985 49.272C63.4985 49.272 63.6692 49.4427 64.0105 49.784C64.3092 50.0827 64.4585 50.36 64.4585 50.616V51.064C64.3305 51.3627 64.2452 51.512 64.2025 51.512L64.5225 52.536C64.2238 52.792 64.0745 52.9413 64.0745 52.984L64.2665 53.496C64.3092 53.5387 64.3305 53.624 64.3305 53.752C64.3305 53.8373 64.2878 54.008 64.2025 54.264C64.2452 54.3067 64.2665 54.4133 64.2665 54.584L64.2025 54.648L64.2665 55.032C64.3945 55.16 64.4798 55.288 64.5225 55.416L64.3945 56.184L63.8825 56.312C63.9252 56.4827 64.0105 56.504 64.1385 56.376C64.3945 56.5467 64.5225 56.76 64.5225 57.016L64.3945 57.592C64.2665 57.8907 64.2025 58.0827 64.2025 58.168C64.2878 58.2107 64.3518 58.2747 64.3945 58.36C64.4798 58.4453 64.5652 58.5307 64.6505 58.616C64.6505 58.7867 64.5652 58.936 64.3945 59.064C64.1385 59.32 63.9892 59.512 63.9465 59.64C64.2452 59.8533 64.4158 60.152 64.4585 60.536C64.5012 60.664 64.5012 60.9413 64.4585 61.368L64.5225 61.688C64.5652 61.816 64.5865 61.9227 64.5865 62.008V62.584C64.5865 62.8827 64.5865 63.1813 64.5865 63.48C64.6292 63.7787 64.6718 64.0987 64.7145 64.44C64.7145 64.6533 64.6718 64.888 64.5865 65.144C64.6292 65.2293 64.6505 65.3573 64.6505 65.528C64.6505 65.784 64.5652 65.9973 64.3945 66.168C64.1812 66.4667 64.0745 66.6373 64.0745 66.68C64.0745 66.808 64.1385 66.936 64.2665 67.064C64.2665 67.064 64.2025 67.1707 64.0745 67.384C63.9038 67.5547 63.8185 67.6827 63.8185 67.768C63.9038 67.8533 63.9678 67.896 64.0105 67.896C64.0532 67.896 64.1385 67.832 64.2665 67.704C64.3945 67.704 64.5012 67.7467 64.5865 67.832L64.6505 71.672L64.5865 72.376L64.5225 72.696L64.3305 73.016C64.2025 73.144 64.1385 73.2293 64.1385 73.272C64.2238 73.4427 64.3092 73.5707 64.3945 73.656C64.5652 73.9547 64.6505 74.2747 64.6505 74.616C64.6505 74.7867 64.5865 75.0427 64.4585 75.384H64.1385L63.4985 75.128C63.3278 75.128 63.0078 75.2987 62.5385 75.64ZM61.1305 49.016V48.696C61.0878 48.6533 61.0025 48.632 60.8745 48.632L60.7465 48.824L60.8105 49.016H61.1305ZM61.9625 54.072C62.1332 54.072 62.3678 53.9867 62.6665 53.816L62.9865 53.432C62.9865 53.56 63.0292 53.6667 63.1145 53.752C63.3278 53.6667 63.4345 53.5387 63.4345 53.368C63.4345 53.112 63.3278 52.984 63.1145 52.984L62.7945 53.048C62.6238 52.6213 62.4318 52.408 62.2185 52.408C62.1332 52.536 62.0265 52.6427 61.8985 52.728C61.7278 53.0267 61.6212 53.3253 61.5785 53.624C61.5785 53.9227 61.7065 54.072 61.9625 54.072ZM60.8105 59.064C60.8958 59.064 60.9812 59.0213 61.0665 58.936C61.0665 58.8933 61.0238 58.8293 60.9385 58.744C60.9385 58.872 60.8958 58.9787 60.8105 59.064ZM61.9625 60.856C62.1758 60.7707 62.3038 60.6427 62.3465 60.472L62.0265 60.216C61.8558 60.344 61.8345 60.5573 61.9625 60.856ZM58.3785 61.176C58.4638 61.176 58.5492 61.1333 58.6345 61.048C58.7198 60.9627 58.6985 60.8773 58.5705 60.792C58.4425 60.792 58.3785 60.92 58.3785 61.176ZM61.5785 65.08C61.6212 64.9947 61.5998 64.9093 61.5145 64.824C61.4718 64.7813 61.3652 64.8027 61.1945 64.888C61.2798 65.016 61.4078 65.08 61.5785 65.08ZM61.3865 73.464C61.5572 73.464 61.7278 73.3787 61.8985 73.208C61.8985 72.9947 61.7492 72.888 61.4505 72.888C61.4078 72.9307 61.3438 73.1013 61.2585 73.4C61.3012 73.4427 61.3438 73.464 61.3865 73.464ZM70.4815 75.128L69.6495 74.872C69.5215 74.7867 69.4575 74.7013 69.4575 74.616C69.5428 74.488 69.5428 74.0613 69.4575 73.336C69.5002 73.2933 69.5215 73.2293 69.5215 73.144L69.8415 72.888C69.8415 72.76 69.8202 72.6533 69.7775 72.568L69.7135 72.312C69.7562 72.312 69.8415 72.2053 69.9695 71.992C70.0122 71.8213 70.0975 71.736 70.2255 71.736C70.4815 71.5227 70.6095 71.3307 70.6095 71.16C70.6095 70.648 70.3748 70.456 69.9055 70.584L69.6495 70.648C69.6922 70.5627 69.7135 70.4773 69.7135 70.392C69.7135 70.3067 69.7348 70.2 69.7775 70.072L69.4575 69.56C69.4575 69.5173 69.4575 69.4533 69.4575 69.368C69.4575 69.2827 69.4788 69.1547 69.5215 68.984L69.4575 68.728C69.4575 68.6853 69.4362 68.664 69.3935 68.664C69.3508 68.6213 69.3295 68.5787 69.3295 68.536L69.5215 67.896C69.6495 67.5547 69.7135 67.3627 69.7135 67.32L69.5215 66.936C69.5215 66.7227 69.5002 66.4453 69.4575 66.104C69.4575 65.72 69.4362 65.3147 69.3935 64.888L69.1375 64.184V63.992C69.1375 63.864 69.1588 63.6933 69.2015 63.48C69.2868 63.2667 69.3295 63.0107 69.3295 62.712V62.648C69.3295 62.5627 69.3082 62.4773 69.2655 62.392C69.2655 62.264 69.2442 62.1147 69.2015 61.944L69.3935 61.624C69.3935 61.5813 69.3722 61.5387 69.3295 61.496L69.2015 61.048C69.1162 60.8347 69.1375 60.6213 69.2655 60.408L69.5215 59.96L69.3295 59.704V59.256C69.3295 59.0853 69.3082 58.9147 69.2655 58.744C69.2655 58.5307 69.2655 58.3173 69.2655 58.104L69.0095 57.144C69.0522 57.016 69.0735 56.8667 69.0735 56.696C69.0735 56.4827 69.0948 56.2693 69.1375 56.056L69.4575 55.672C69.1588 55.5013 68.9668 55.2027 68.8815 54.776C68.8815 54.6053 68.9882 54.4133 69.2015 54.2C69.4148 54.072 69.5215 53.944 69.5215 53.816C69.5215 53.688 69.4575 53.496 69.3295 53.24L69.5855 53.048C69.5002 53.0053 69.3935 52.9413 69.2655 52.856C69.1375 52.7707 68.9882 52.6853 68.8175 52.6L69.3295 52.024C69.0735 51.896 68.9455 51.448 68.9455 50.68L68.4335 47.736V46.136C68.4335 45.9227 68.4122 45.816 68.3695 45.816L68.2415 45.368C68.2415 45.112 68.2842 44.856 68.3695 44.6C68.3695 44.5147 68.4335 44.4507 68.5615 44.408C68.6468 44.3227 68.6895 44.2587 68.6895 44.216C68.6895 44.216 68.6468 44.1307 68.5615 43.96C68.4335 43.832 68.3695 43.7467 68.3695 43.704C68.4122 43.6187 68.4335 43.4267 68.4335 43.128L68.8815 43.192C68.9242 43.064 68.9455 42.808 68.9455 42.424L68.4975 42.232C68.5402 42.1893 68.5615 42.04 68.5615 41.784L68.2415 38.968L68.4335 38.456L68.1775 38.136L67.9855 37.432C67.9855 37.1333 68.1562 36.7493 68.4975 36.28H68.8175C68.9882 36.5787 69.1375 36.728 69.2655 36.728C69.3508 36.728 69.4788 36.6427 69.6495 36.472C69.8202 36.3013 69.9482 36.216 70.0335 36.216L70.5455 36.472C70.8442 36.6427 71.0148 36.728 71.0575 36.728C71.1002 36.6853 71.1428 36.6427 71.1855 36.6C71.2282 36.5573 71.2922 36.5147 71.3775 36.472L71.6335 36.536C71.7188 36.5787 71.8042 36.6 71.8895 36.6C71.9748 36.6 72.2095 36.5573 72.5935 36.472C72.9775 36.344 73.2122 36.2587 73.2975 36.216C73.7668 36.216 74.0655 36.2373 74.1935 36.28C74.3642 36.3227 74.5988 36.6853 74.8975 37.368L74.6415 38.328C74.7268 38.5413 74.7908 38.8187 74.8335 39.16C74.8335 39.2453 74.8335 39.352 74.8335 39.48C74.8335 39.5653 74.8122 39.6933 74.7695 39.864L74.6415 40.44C74.6415 40.4827 74.6628 40.5467 74.7055 40.632C74.7482 40.6747 74.7908 40.7813 74.8335 40.952L74.9615 41.464C74.9615 41.5067 74.9615 41.5707 74.9615 41.656C74.9615 41.6987 74.9402 41.8053 74.8975 41.976C74.8975 42.104 74.8122 42.232 74.6415 42.36L75.0895 43.32C75.0895 43.3627 75.0255 43.5547 74.8975 43.896C75.0255 44.1947 75.0895 44.536 75.0895 44.92C75.0895 44.92 75.0468 45.048 74.9615 45.304C74.8762 45.5173 74.8548 45.6453 74.8975 45.688L75.2175 46.584C75.3028 47.1387 75.3668 47.5227 75.4095 47.736C75.4095 47.736 75.3455 47.8427 75.2175 48.056C75.0895 48.2267 75.0255 48.3547 75.0255 48.44C74.9402 48.44 74.7695 48.4827 74.5135 48.568C74.8548 48.9947 75.1748 49.5707 75.4735 50.296L75.2175 50.936C75.0468 51.32 74.9615 51.6187 74.9615 51.832C75.0468 51.9173 75.1535 52.1093 75.2815 52.408L75.3455 52.92C75.4735 53.048 75.5588 53.176 75.6015 53.304C75.6015 53.304 75.5375 53.4107 75.4095 53.624L75.0895 54.072C75.0468 54.1573 75.0255 54.2853 75.0255 54.456L75.5375 54.968L75.2815 55.352C75.3242 55.3093 75.3668 55.416 75.4095 55.672L75.3455 56.248L75.5375 56.76L75.2815 57.976L75.8575 58.936C75.8575 59.0213 75.7935 59.256 75.6655 59.64L75.4095 60.28C75.4095 60.3653 75.5375 60.9627 75.7935 62.072C75.6228 61.944 75.4308 61.88 75.2175 61.88C74.9188 61.88 74.7695 62.008 74.7695 62.264C74.7695 62.5627 74.9402 62.712 75.2815 62.712C75.3242 62.712 75.4095 62.776 75.5375 62.904L75.7295 63.032C75.6868 63.3307 75.6868 63.608 75.7295 63.864L75.9215 64.376C75.9215 64.376 75.8788 64.504 75.7935 64.76L75.6655 65.144C75.8362 65.3147 75.9428 65.5067 75.9855 65.72V66.104C75.9428 66.1467 75.8148 66.168 75.6015 66.168L75.6655 66.552V67C75.4948 66.9147 75.3455 66.936 75.2175 67.064V67.256L75.7295 67.192C75.8148 67.6187 75.8788 67.9173 75.9215 68.088L75.7935 68.472C75.7082 68.728 75.6655 68.856 75.6655 68.856C75.6655 68.984 75.7508 69.112 75.9215 69.24L76.2415 69.432C76.1135 69.6027 76.0922 69.88 76.1775 70.264C76.1775 70.3067 76.1348 70.3707 76.0495 70.456C75.9642 70.5413 75.9215 70.6267 75.9215 70.712L76.2415 72.632L76.3055 74.616C76.3055 74.872 76.1775 75 75.9215 75L75.6655 74.872C75.5802 74.8293 75.5162 74.808 75.4735 74.808C75.4308 74.7653 75.3882 74.744 75.3455 74.744C75.2602 74.7013 75.1535 74.68 75.0255 74.68C74.8975 74.68 74.7908 74.68 74.7055 74.68C74.2362 74.68 73.8522 74.7013 73.5535 74.744C73.2548 74.744 73.0628 74.7227 72.9775 74.68L72.5935 74.616C72.5082 74.6587 72.4015 74.7227 72.2735 74.808C72.1882 74.8507 72.0602 74.9147 71.8895 75H70.9295C70.8868 75.0427 70.8228 75.064 70.7375 75.064C70.6522 75.064 70.5668 75.0853 70.4815 75.128ZM70.6735 38.84C70.7162 38.7973 70.7588 38.776 70.8015 38.776C70.8442 38.776 70.8868 38.7547 70.9295 38.712C70.9295 38.6693 70.8868 38.6053 70.8015 38.52L70.6735 38.84ZM73.8735 49.912C73.9162 49.8693 73.8735 49.8053 73.7455 49.72C73.6602 49.72 73.5962 49.7413 73.5535 49.784C73.6388 49.8693 73.7455 49.912 73.8735 49.912ZM74.0015 50.936C74.0442 50.8507 74.0228 50.7653 73.9375 50.68C73.8948 50.6373 73.7882 50.6587 73.6175 50.744C73.7028 50.872 73.8308 50.936 74.0015 50.936ZM69.8415 57.144C69.9268 57.144 70.0122 57.1013 70.0975 57.016C70.1828 56.9307 70.1615 56.8453 70.0335 56.76C69.9055 56.76 69.8415 56.888 69.8415 57.144ZM73.1695 61.624H73.3615C73.6175 61.624 73.8095 61.4747 73.9375 61.176C74.1508 60.7493 74.2575 60.5787 74.2575 60.664C74.1722 60.28 73.8522 60.1733 73.2975 60.344C73.0842 60.4293 72.9135 60.5573 72.7855 60.728C72.7002 60.856 72.6575 61.0053 72.6575 61.176C72.6575 61.4747 72.8282 61.624 73.1695 61.624ZM71.4415 73.848C71.4842 73.7627 71.4628 73.6773 71.3775 73.592C71.3348 73.5067 71.2282 73.5493 71.0575 73.72C71.1428 73.848 71.2708 73.8907 71.4415 73.848ZM85.2725 75.768C85.1872 75.768 85.0805 75.768 84.9525 75.768C84.8245 75.768 84.6965 75.7467 84.5685 75.704L83.9285 75.576C83.8858 75.576 83.8645 75.576 83.8645 75.576C83.8645 75.6187 83.8432 75.64 83.8005 75.64H83.6725C83.5872 75.64 83.4592 75.5547 83.2885 75.384C83.1605 75.256 82.9898 75.192 82.7765 75.192L82.3285 75.256C82.2432 75.256 82.1578 75.192 82.0725 75.064C82.0298 75.0213 82.0085 74.936 82.0085 74.808C81.9658 74.7227 81.8805 74.6373 81.7525 74.552C81.6672 74.4667 81.5818 74.3387 81.4965 74.168C81.4965 73.9973 81.3898 73.7413 81.1765 73.4L80.7285 73.336C80.6858 73.08 80.6005 72.76 80.4725 72.376C80.3872 71.992 80.2592 71.5227 80.0885 70.968C80.3018 70.8827 80.4725 70.6907 80.6005 70.392L80.1525 70.072C80.1952 69.7307 80.2165 69.496 80.2165 69.368C80.2165 69.1973 80.2165 69.0907 80.2165 69.048C80.0885 69.0053 79.9178 68.7493 79.7045 68.28L79.7685 68.024V67.896C79.8112 67.8107 79.8538 67.704 79.8965 67.576C79.9392 67.448 79.9818 67.3413 80.0245 67.256C80.1525 67 80.2165 66.7867 80.2165 66.616C80.1738 66.6587 80.1312 66.3387 80.0885 65.656L79.6405 64.632C79.5978 64.248 79.5978 63.6507 79.6405 62.84V62.712C79.6405 62.5413 79.6192 62.3067 79.5765 62.008C79.5765 61.6667 79.5552 61.2613 79.5125 60.792L79.1925 60.152C79.1925 59.9387 79.2992 59.7253 79.5125 59.512L79.1285 59L78.9365 56.376C78.9365 56.376 78.9365 56.3547 78.9365 56.312V56.376C78.9365 56.376 78.9578 56.376 79.0005 56.376C79.0005 56.376 79.0005 56.3333 79.0005 56.248C79.0432 56.12 79.0858 55.928 79.1285 55.672C79.2138 55.5867 79.2138 55.2667 79.1285 54.712L78.9365 54.2C78.9365 54.2 79.0858 54.008 79.3845 53.624L79.3205 51.128C79.4485 51.0427 79.5552 50.936 79.6405 50.808C79.6405 50.7653 79.6192 50.7227 79.5765 50.68C79.5765 50.5947 79.5765 50.5307 79.5765 50.488C79.5765 50.0187 79.8112 49.5067 80.2805 48.952C80.4085 48.9093 80.5578 48.8453 80.7285 48.76C80.9418 48.632 81.1765 48.4827 81.4325 48.312C81.4752 48.184 81.5392 48.056 81.6245 47.928C81.7525 47.8 81.9018 47.6507 82.0725 47.48L82.7765 47.608C82.7765 47.608 82.9045 47.5653 83.1605 47.48C83.4165 47.3947 83.5445 47.352 83.5445 47.352C83.7152 47.3093 83.8645 47.3733 83.9925 47.544C84.1205 47.7147 84.2485 47.8 84.3765 47.8C84.5898 47.8 84.8458 47.544 85.1445 47.032L85.3365 46.968L85.9125 47.608C86.4672 47.9493 87.0645 48.0987 87.7045 48.056L88.4085 47.864C88.5365 47.6507 88.6005 47.4373 88.6005 47.224C88.6005 46.712 88.5365 46.4133 88.4085 46.328C88.2805 46.2 88.2378 46.1147 88.2805 46.072L88.4085 45.752C88.3658 45.5387 88.3018 45.2187 88.2165 44.792C88.2165 44.792 88.1738 44.7067 88.0885 44.536C88.0032 44.4507 87.9605 44.3653 87.9605 44.28L88.1525 43.704C88.2378 43.5333 88.2805 43.4053 88.2805 43.32C88.2805 43.2347 88.2805 43.1707 88.2805 43.128C88.2805 43.0853 88.2592 43.0427 88.2165 43C88.2165 42.9573 88.1952 42.8933 88.1525 42.808C88.0245 42.68 87.9605 42.5947 87.9605 42.552C87.9605 42.3387 88.0458 42.168 88.2165 42.04C88.5578 41.9547 88.7285 41.8693 88.7285 41.784C88.7285 41.5707 88.5792 41.4 88.2805 41.272C88.1525 40.9307 88.1098 40.568 88.1525 40.184C87.8965 39.9707 87.7685 39.8213 87.7685 39.736C87.8112 39.608 87.8325 39.4587 87.8325 39.288C87.8325 39.0747 87.8325 38.8613 87.8325 38.648L87.4485 37.432C87.4485 37.3467 87.5978 37.1547 87.8965 36.856C88.0672 36.9413 88.1738 36.9627 88.2165 36.92L88.5365 36.856C88.6645 36.856 89.0485 36.92 89.6885 37.048L89.9445 36.92C89.9872 36.8773 90.0512 36.856 90.1365 36.856L90.3925 36.92C90.4352 36.92 90.4565 36.9413 90.4565 36.984C90.4992 37.0267 90.5418 37.048 90.5845 37.048L91.2245 36.728C91.5658 36.5573 91.7792 36.472 91.8645 36.472L92.2485 36.536C92.3765 36.5787 92.5045 36.6 92.6325 36.6C92.7605 36.6 92.8672 36.6 92.9525 36.6C93.2938 36.6 93.5072 36.5787 93.5925 36.536C93.6778 36.7067 93.7845 36.8987 93.9125 37.112C94.0405 37.3253 94.1472 37.5387 94.2325 37.752L94.1045 38.072C94.0618 38.1573 94.0192 38.2213 93.9765 38.264C93.9765 38.3067 93.9765 38.3493 93.9765 38.392V39.16C93.8912 39.2453 93.8272 39.352 93.7845 39.48L93.7205 39.736L93.4005 40.184C93.6565 40.2267 93.9552 40.4827 94.2965 40.952C94.2965 40.952 94.2112 41.1653 94.0405 41.592V42.04C93.9978 42.0827 93.9338 42.1467 93.8485 42.232C93.8058 42.2747 93.7205 42.3387 93.5925 42.424C93.5925 42.5947 93.6352 42.7227 93.7205 42.808L94.1045 43.128C94.4032 43.8107 94.5952 44.3653 94.6805 44.792C94.6378 44.7493 94.5952 45.048 94.5525 45.688C94.5525 45.7733 94.4672 45.9013 94.2965 46.072V46.392C94.3818 46.6053 94.4672 46.904 94.5525 47.288C94.6378 47.6293 94.7232 48.0347 94.8085 48.504C94.5098 48.6747 94.3605 48.824 94.3605 48.952L94.5525 49.464C94.5525 49.5067 94.5525 49.6347 94.5525 49.848C94.5952 50.0613 94.6165 50.3387 94.6165 50.68C94.6165 50.808 94.6592 51 94.7445 51.256L94.8725 51.704C94.8725 51.7467 94.8512 51.896 94.8085 52.152C94.7658 52.3653 94.7018 52.6427 94.6165 52.984C94.7018 53.3253 94.8725 53.6667 95.1285 54.008L95.0645 55.224C95.0645 55.608 95.0432 55.7787 95.0005 55.736C95.0005 55.7787 95.0005 55.8213 95.0005 55.864C95.0432 55.9067 95.0858 55.9707 95.1285 56.056C95.0432 56.6107 94.9792 57.336 94.9365 58.232C95.0218 58.4027 95.1072 58.5733 95.1925 58.744C95.2778 58.9147 95.3632 59.1067 95.4485 59.32L95.0645 60.216L95.1925 62.072C95.1925 62.2 95.2992 62.4133 95.5125 62.712C95.4272 62.7547 95.2565 62.904 95.0005 63.16L95.5765 64.568C95.5765 64.6107 95.5125 64.8027 95.3845 65.144L95.1925 65.784C95.1925 65.8267 95.1925 65.912 95.1925 66.04C95.1925 66.1253 95.2138 66.232 95.2565 66.36C95.3418 66.4027 95.5338 66.4027 95.8325 66.36C95.8752 66.488 95.8752 66.6373 95.8325 66.808L95.7045 67.256C95.7472 67.384 95.7685 67.64 95.7685 68.024C95.7685 68.1947 95.7472 68.344 95.7045 68.472C95.6192 68.728 95.5765 68.856 95.5765 68.856C95.5765 68.984 95.6618 69.0693 95.8325 69.112C95.8752 69.1547 95.8965 69.368 95.8965 69.752V70.264C95.9818 70.3067 96.0458 70.4347 96.0885 70.648C96.0885 70.8187 95.9392 71.288 95.6405 72.056L95.9605 72.248L96.1525 73.208V73.592C96.1525 73.7627 96.1312 73.9333 96.0885 74.104C96.0885 74.2747 96.0672 74.4453 96.0245 74.616L95.1285 75C95.0858 75 95.0005 75 94.8725 75C94.7445 74.9573 94.5738 74.936 94.3605 74.936H93.5925C93.4645 74.8507 93.2725 74.7867 93.0165 74.744L92.7605 74.808C92.6325 74.8507 92.5258 74.872 92.4405 74.872C92.4405 74.872 92.2485 74.872 91.8645 74.872H91.2245C91.1392 74.9573 91.0325 75.0427 90.9045 75.128L90.3285 75.256C89.9872 75.256 89.7738 75.0213 89.6885 74.552C89.6458 74.5093 89.5605 74.488 89.4325 74.488C89.3472 74.488 89.2618 74.5307 89.1765 74.616C88.8778 74.7867 88.5152 74.9573 88.0885 75.128C87.7045 75.2987 87.2565 75.4693 86.7445 75.64C86.6592 75.5973 86.4672 75.576 86.1685 75.576C86.0832 75.6187 85.9765 75.64 85.8485 75.64C85.7632 75.6827 85.6352 75.7253 85.4645 75.768H85.2725ZM92.4405 37.688L92.6965 37.56L92.5685 37.368C92.5258 37.4107 92.5045 37.4533 92.5045 37.496C92.5045 37.5387 92.4832 37.6027 92.4405 37.688ZM90.1365 39.928C90.2218 39.928 90.3072 39.8853 90.3925 39.8C90.4778 39.7147 90.4565 39.6293 90.3285 39.544C90.2005 39.5867 90.1365 39.7147 90.1365 39.928ZM91.0965 46.328L91.1605 46.136L90.9045 46.008C90.8192 46.0933 90.7552 46.136 90.7125 46.136L90.8405 46.328H91.0965ZM84.6325 49.08L84.5685 48.696L84.1845 48.76V48.888L84.6325 49.08ZM87.1925 50.552C87.3205 50.424 87.4058 50.36 87.4485 50.36C87.2778 50.2747 87.1498 50.232 87.0645 50.232C87.1072 50.2747 87.1072 50.3173 87.0645 50.36L87.1925 50.552ZM88.1525 70.264C88.2378 70.2213 88.3445 70.1787 88.4725 70.136C88.6005 70.0933 88.7072 70.0293 88.7925 69.944L89.8165 69.112V68.664L89.6245 67.896L89.4325 67.192C89.4325 67.192 89.4752 67.1067 89.5605 66.936L89.6245 66.744C89.6245 66.6587 89.6032 66.552 89.5605 66.424C89.5605 66.296 89.5605 66.168 89.5605 66.04C89.5605 65.7413 89.5818 65.4427 89.6245 65.144C89.7098 64.8453 89.7525 64.504 89.7525 64.12V63.928C89.7098 63.8427 89.6672 63.7573 89.6245 63.672C89.5818 63.544 89.5178 63.3947 89.4325 63.224C89.3472 62.8827 89.2832 62.6053 89.2405 62.392C89.1978 62.136 89.1552 61.9227 89.1125 61.752C89.1125 61.5813 89.1338 61.4533 89.1765 61.368C89.2192 61.2827 89.2618 61.1973 89.3045 61.112C89.3472 61.0267 89.3898 60.92 89.4325 60.792C89.3898 60.8347 89.3472 60.728 89.3045 60.472V60.28C89.3045 60.0667 89.3258 59.896 89.3685 59.768C89.3685 59.7253 89.4325 59.6827 89.5605 59.64C89.6032 59.64 89.6245 59.6187 89.6245 59.576C89.4965 59.4053 89.4112 59.2987 89.3685 59.256H89.3045C89.3045 59.2133 89.3258 59.2133 89.3685 59.256H89.4325L89.3685 58.872C89.0272 58.5307 88.8565 58.296 88.8565 58.168L88.9205 57.912C88.9632 57.8267 88.9845 57.7413 88.9845 57.656C88.9845 57.2293 88.9632 57.016 88.9205 57.016C89.0485 56.9307 89.1338 56.8667 89.1765 56.824C89.3045 56.7387 89.3685 56.696 89.3685 56.696C89.3685 56.6107 89.3045 56.5467 89.1765 56.504C89.0485 56.4613 88.9418 56.3547 88.8565 56.184C88.8138 56.0987 88.7925 55.992 88.7925 55.864C88.7925 55.736 88.7712 55.5653 88.7285 55.352L88.9845 53.88C88.9845 53.752 88.9418 53.6027 88.8565 53.432C88.6432 53.048 88.4512 52.7707 88.2805 52.6L87.6405 52.536C87.2565 52.4933 87.0218 52.4293 86.9365 52.344C86.8085 52.4293 86.6592 52.5147 86.4885 52.6C86.3178 52.6427 86.1045 52.7067 85.8485 52.792L85.4645 53.176C85.5925 53.3467 85.6565 53.4747 85.6565 53.56C85.6565 53.816 85.4432 53.944 85.0165 53.944C84.8885 53.944 84.8032 53.9227 84.7605 53.88L84.5685 54.072C84.5685 54.328 84.7392 54.52 85.0805 54.648C85.4218 54.8613 85.5925 55.0533 85.5925 55.224C85.5072 55.4373 85.5072 55.608 85.5925 55.736L85.7205 55.8L85.5925 55.928L85.7205 56.12L85.5285 57.4C85.5285 57.4853 85.5072 57.5493 85.4645 57.592L85.3365 57.848C85.4218 58.0187 85.4858 58.2107 85.5285 58.424C85.6138 58.6373 85.6778 58.8507 85.7205 59.064V59.32C85.7205 59.5333 85.7418 59.704 85.7845 59.832L85.8485 60.856C85.8058 60.984 85.7845 61.2187 85.7845 61.56C85.8698 61.6453 85.9978 61.816 86.1685 62.072C86.1685 62.2 86.0832 62.3493 85.9125 62.52C85.7418 62.7333 85.6565 62.8827 85.6565 62.968C85.6992 63.096 85.7632 63.2453 85.8485 63.416C85.9338 63.5867 86.0192 63.8 86.1045 64.056L86.4245 64.888C86.4245 65.0587 86.3178 65.2507 86.1045 65.464C86.3178 65.5067 86.3818 65.6987 86.2965 66.04L86.1685 66.744C86.1685 67.2987 86.1898 67.512 86.2325 67.384C86.1898 67.5547 86.1472 67.704 86.1045 67.832C86.1045 67.96 86.1045 68.0667 86.1045 68.152L86.4885 68.984C86.4458 68.9413 86.4032 69.176 86.3605 69.688L86.5525 70.072L87.3845 70.264H88.1525ZM88.9205 57.08C88.9205 57.0373 88.9205 57.016 88.9205 57.016C88.9205 57.0587 88.9205 57.08 88.9205 57.08ZM82.8405 60.728C82.8832 60.6853 82.8192 60.6 82.6485 60.472L82.5205 60.6C82.5632 60.6427 82.6058 60.664 82.6485 60.664C82.7338 60.664 82.7978 60.6853 82.8405 60.728ZM82.9685 61.752C83.0112 61.624 82.9898 61.5173 82.9045 61.432C82.8618 61.3467 82.7552 61.3893 82.5845 61.56C82.6698 61.688 82.7978 61.752 82.9685 61.752ZM93.4005 68.024C93.6138 68.024 93.7632 67.9173 93.8485 67.704L93.5925 67.64C93.4218 67.8107 93.3578 67.9387 93.4005 68.024ZM85.5925 69.432C85.6352 69.3467 85.6138 69.2613 85.5285 69.176C85.4858 69.1333 85.3792 69.1547 85.2085 69.24C85.2938 69.368 85.4218 69.432 85.5925 69.432ZM90.5205 70.52L91.5445 70.456C91.8858 70.456 92.0138 70.264 91.9285 69.88L91.7365 69.368C91.4805 69.6667 91.2672 69.816 91.0965 69.816L90.4565 69.496L89.8805 69.944C90.2218 70.0293 90.3925 70.072 90.3925 70.072C90.3925 70.072 90.4352 70.2213 90.5205 70.52ZM129.857 76.28C129.473 76.1947 129.196 76.024 129.025 75.768C129.025 75.8107 128.961 75.8747 128.833 75.96C128.705 76.0027 128.577 76.024 128.449 76.024C128.364 76.0667 128.278 76.088 128.193 76.088L127.553 75.704L127.105 75.384C126.166 75.6827 125.612 75.832 125.441 75.832C125.313 75.832 125.036 75.6187 124.609 75.192L124.737 74.808V74.168C124.694 74.04 124.673 73.7413 124.673 73.272L124.737 72.312C124.694 72.2693 124.673 72.1627 124.673 71.992C124.673 71.9067 124.673 71.8213 124.673 71.736C124.716 71.608 124.758 71.48 124.801 71.352C124.716 70.6267 124.652 70.0507 124.609 69.624C124.566 69.1547 124.545 68.856 124.545 68.728L124.865 68.088C124.396 67.7467 124.161 67.4907 124.161 67.32C124.161 67.192 124.332 67 124.673 66.744C124.588 66.744 124.524 66.6587 124.481 66.488C124.438 66.3173 124.374 66.232 124.289 66.232C124.332 66.104 124.353 65.8267 124.353 65.4L124.289 64.568L124.737 64.312C124.652 64.0987 124.545 63.9493 124.417 63.864V63.416C124.161 62.904 124.033 62.6267 124.033 62.584C124.033 62.5413 124.097 62.4347 124.225 62.264C124.353 62.136 124.417 62.0293 124.417 61.944L124.353 61.688C124.268 61.5173 124.225 61.4107 124.225 61.368L124.353 60.088C124.268 60.0027 124.204 59.896 124.161 59.768V59.192C124.161 59.192 124.161 59.1707 124.161 59.128C124.161 59.0853 124.14 59.0427 124.097 59C124.012 58.9147 123.99 58.8507 124.033 58.808C124.033 58.4667 124.225 58.0187 124.609 57.464C124.566 57.3787 124.374 57.2933 124.033 57.208C123.82 57.208 123.713 57.1013 123.713 56.888V56.696H123.521L123.585 57.016C123.585 57.016 123.585 57.0373 123.585 57.08C123.585 57.08 123.564 57.1013 123.521 57.144C123.265 57.144 123.116 57.2933 123.073 57.592C123.073 57.6773 123.009 57.784 122.881 57.912L122.945 58.232C122.902 58.2747 122.838 58.3813 122.753 58.552C122.881 58.808 122.881 59.0427 122.753 59.256C122.454 59.768 122.284 60.0027 122.241 59.96L122.177 59.896C122.177 59.896 122.134 59.896 122.049 59.896C121.793 59.8107 121.665 60.1307 121.665 60.856V61.944C121.708 62.0293 121.75 62.136 121.793 62.264C121.836 62.392 121.878 62.5413 121.921 62.712L121.857 63.8H121.601C121.516 63.544 121.43 63.3947 121.345 63.352H121.153L121.025 63.416C121.366 64.0133 121.537 64.376 121.537 64.504C121.452 64.8453 121.324 64.9947 121.153 64.952C121.068 64.8667 120.961 64.8027 120.833 64.76C120.748 64.6747 120.641 64.6107 120.513 64.568C120.385 64.568 120.321 64.5893 120.321 64.632C120.321 64.6747 120.449 64.8027 120.705 65.016C120.748 65.3147 120.918 65.5067 121.217 65.592L121.153 66.68L120.449 66.616C120.492 66.9573 120.513 67.2347 120.513 67.448C120.513 67.6187 120.513 67.7253 120.513 67.768L120.449 67.96C120.449 68.0027 120.428 68.0453 120.385 68.088C120.342 68.088 120.321 68.1093 120.321 68.152L120.449 68.728C120.492 68.8987 120.513 69.048 120.513 69.176C120.513 69.2613 120.513 69.3253 120.513 69.368C120.47 69.4107 120.406 69.496 120.321 69.624C120.278 69.7093 120.214 69.8587 120.129 70.072L119.873 70.84C119.745 71.1387 119.532 71.3733 119.233 71.544C119.233 71.8 119.297 72.0347 119.425 72.248C119.553 72.4613 119.596 72.696 119.553 72.952C119.51 73.0373 119.446 73.1867 119.361 73.4C119.276 73.5707 119.19 73.784 119.105 74.04C119.062 74.0827 119.062 74.3387 119.105 74.808C118.977 75.064 118.764 75.1707 118.465 75.128L118.017 74.936C117.846 74.8507 117.697 74.808 117.569 74.808L117.121 74.936L116.545 75.064C116.502 75.0213 116.417 74.9787 116.289 74.936C116.204 74.8933 116.097 74.872 115.969 74.872H115.329C115.286 74.872 115.201 74.8507 115.073 74.808C114.988 74.7653 114.86 74.7227 114.689 74.68L114.049 74.552C114.006 74.552 113.9 74.5947 113.729 74.68C113.558 74.808 113.452 74.8507 113.409 74.808C113.281 74.808 113.153 74.616 113.025 74.232C112.897 74.1467 112.833 74.04 112.833 73.912L113.025 73.272V73.08C113.025 72.8667 112.961 72.696 112.833 72.568L113.089 72.44H113.153V72.568C113.238 72.4827 113.302 72.3547 113.345 72.184H113.089C112.918 72.184 112.833 71.9707 112.833 71.544V70.776C112.833 70.264 112.79 70.0507 112.705 70.136C113.089 69.9653 113.302 69.816 113.345 69.688C113.345 69.56 113.11 69.3253 112.641 68.984L112.769 68.664C112.769 68.664 112.726 68.5787 112.641 68.408C112.598 68.1093 112.513 67.8747 112.385 67.704C112.47 66.9787 112.534 66.3813 112.577 65.912C112.62 65.4 112.641 65.0587 112.641 64.888L112.385 63.864C112.385 63.7787 112.47 63.6507 112.641 63.48L112.897 63.224C112.854 63.2667 112.748 63.0533 112.577 62.584C112.662 62.4987 112.662 62.3493 112.577 62.136C112.534 62.0507 112.47 61.9653 112.385 61.88C112.3 61.752 112.214 61.6027 112.129 61.432C112.172 61.3467 112.193 61.1973 112.193 60.984L112.129 60.792C112.129 60.7493 112.108 60.728 112.065 60.728C112.022 60.6853 112.001 60.6427 112.001 60.6L112.065 59.256C112.065 59.2133 112.065 59.128 112.065 59C112.065 58.872 112.044 58.7227 112.001 58.552L112.129 58.168C112.556 57.912 112.769 57.656 112.769 57.4C112.769 57.144 112.449 56.7387 111.809 56.184C111.766 55.9707 111.745 55.736 111.745 55.48C111.745 55.224 111.745 54.9253 111.745 54.584V54.072C111.745 53.7733 111.702 53.5813 111.617 53.496C111.702 53.3253 111.745 53.1333 111.745 52.92C111.617 52.7067 111.489 52.4293 111.361 52.088C111.404 51.96 111.425 51.7893 111.425 51.576C111.425 51.3627 111.425 51.1067 111.425 50.808C111.382 50.5093 111.34 50.3387 111.297 50.296C111.382 50.168 111.446 50.0187 111.489 49.848C111.574 49.6773 111.66 49.4853 111.745 49.272C112.129 49.0587 112.364 48.824 112.449 48.568V48.376C112.449 48.12 112.385 47.928 112.257 47.8C112.044 47.9707 111.894 48.3547 111.809 48.952H111.745C111.702 48.952 111.66 48.9733 111.617 49.016C111.617 49.016 111.596 49.016 111.553 49.016C111.468 49.016 111.361 48.9093 111.233 48.696C111.404 48.1413 111.489 47.7787 111.489 47.608C111.489 47.5227 111.425 47.416 111.297 47.288L111.361 46.392C111.233 46.1787 111.105 45.8373 110.977 45.368L111.041 43.832C111.041 43.7467 111.02 43.64 110.977 43.512L110.913 43.256L110.785 41.144C110.785 40.9733 110.849 40.7387 110.977 40.44C111.02 40.3973 111.084 40.3333 111.169 40.248C111.254 40.1627 111.382 40.0773 111.553 39.992C111.51 39.9067 111.318 39.8427 110.977 39.8L110.785 39.672C110.742 39.2027 110.614 38.5627 110.401 37.752C110.572 37.5813 110.742 37.5173 110.913 37.56C110.913 37.5173 110.956 37.4533 111.041 37.368C110.785 37.1547 110.593 36.8347 110.465 36.408L110.529 35.512C110.614 35.5547 110.721 35.6187 110.849 35.704C111.02 35.7467 111.19 35.8107 111.361 35.896C111.404 35.8533 111.468 35.832 111.553 35.832C111.638 35.832 111.745 35.8107 111.873 35.768L112.385 36.024C112.47 35.9813 112.577 35.9387 112.705 35.896C112.876 35.8533 113.046 35.8107 113.217 35.768L113.857 35.96H113.985C114.198 35.96 114.39 35.896 114.561 35.768C114.646 35.8533 114.732 35.9387 114.817 36.024C114.902 36.1093 115.009 36.1947 115.137 36.28C115.222 36.28 115.372 36.1733 115.585 35.96L115.777 36.024C115.777 36.024 115.777 36.1733 115.777 36.472C115.734 36.6427 115.798 36.7493 115.969 36.792C116.14 36.792 116.246 36.728 116.289 36.6C116.332 36.5147 116.332 36.408 116.289 36.28C116.246 36.1093 116.225 36.024 116.225 36.024L116.545 36.088L116.993 36.28H117.441L117.569 36.536L117.377 38.904C117.164 39.032 116.929 39.2667 116.673 39.608C116.673 39.608 116.78 39.7787 116.993 40.12C117.164 40.4187 117.249 40.5893 117.249 40.632C117.206 40.888 117.036 41.016 116.737 41.016C116.652 41.016 116.545 41.016 116.417 41.016C116.289 41.016 116.161 40.9947 116.033 40.952C115.99 40.9947 115.969 41.1013 115.969 41.272C116.182 41.4853 116.353 41.6133 116.481 41.656C116.652 41.656 116.822 41.5707 116.993 41.4L117.313 41.848C117.484 42.104 117.569 42.232 117.569 42.232L117.377 42.68C117.334 42.8507 117.334 43.1067 117.377 43.448C117.377 43.5333 117.356 43.5973 117.313 43.64C117.1 43.64 116.993 43.768 116.993 44.024C116.993 44.28 117.036 44.4933 117.121 44.664C116.908 44.8347 116.801 44.984 116.801 45.112C116.801 45.368 116.886 45.432 117.057 45.304H117.313L117.569 46.136C117.484 46.3067 117.398 46.456 117.313 46.584C117.228 46.6693 117.142 46.7547 117.057 46.84L116.929 48.248C117.313 48.4613 117.484 48.696 117.441 48.952C117.441 48.9947 117.398 49.0587 117.313 49.144C117.185 49.272 117.121 49.3787 117.121 49.464L117.249 49.912C117.292 50.04 117.334 50.1467 117.377 50.232C117.42 50.3173 117.441 50.3813 117.441 50.424L117.697 50.616C117.697 50.7013 117.676 50.808 117.633 50.936C117.633 51.064 117.633 51.2347 117.633 51.448L117.505 53.24V53.304C117.505 53.5173 117.569 53.944 117.697 54.584L117.505 54.84C117.462 54.8827 117.441 54.9467 117.441 55.032H117.505C117.548 55.032 117.59 55.0533 117.633 55.096C117.889 55.096 118.23 54.7547 118.657 54.072C118.614 54.0293 118.636 53.9013 118.721 53.688C118.806 53.432 118.934 53.3253 119.105 53.368C119.105 53.2827 119.041 53.2187 118.913 53.176C118.87 53.0907 118.849 52.8773 118.849 52.536L119.425 50.552C119.468 50.424 119.489 50.1253 119.489 49.656L119.681 49.464V48.824C119.724 48.7813 119.745 48.696 119.745 48.568L120.001 48.248C120.001 48.0773 120.001 47.8853 120.001 47.672C120.044 47.416 120.086 47.1387 120.129 46.84C120.214 46.3707 120.385 46.136 120.641 46.136C120.897 46.2213 121.089 46.3067 121.217 46.392L121.345 46.328C121.345 46.1573 121.281 46.0507 121.153 46.008C120.982 46.008 120.854 45.9653 120.769 45.88C120.726 45.7947 120.684 45.7093 120.641 45.624C120.641 45.496 120.62 45.3467 120.577 45.176L121.025 44.856C121.11 44.6 121.153 44.408 121.153 44.28L121.281 43.768L121.153 43.192C121.068 42.8507 121.046 42.6587 121.089 42.616C121.089 42.4453 121.174 42.2747 121.345 42.104L121.217 41.528C121.217 41.4427 121.452 41.2293 121.921 40.888C121.665 40.4187 121.537 40.2053 121.537 40.248L121.665 39.544C121.921 39.3307 122.049 39.0533 122.049 38.712V38.264C122.092 38.2213 122.134 38.1787 122.177 38.136C122.22 38.0933 122.262 38.0293 122.305 37.944L122.433 37.176C122.476 36.7493 122.689 36.536 123.073 36.536C123.116 36.5787 123.265 36.664 123.521 36.792C123.777 36.92 123.926 36.984 123.969 36.984C124.097 36.984 124.246 36.856 124.417 36.6L124.609 36.664C124.652 36.7067 124.694 36.7493 124.737 36.792C124.78 36.8347 124.844 36.8773 124.929 36.92C124.972 36.8773 125.121 36.856 125.377 36.856C125.505 37.1547 125.633 37.304 125.761 37.304C126.017 37.304 126.166 37.2827 126.209 37.24C126.252 37.1973 126.23 37.176 126.145 37.176H126.273L126.337 37.24C126.465 37.368 126.572 37.304 126.657 37.048C126.87 37.1333 127.02 37.24 127.105 37.368L127.233 38.456C127.276 38.4133 127.404 38.008 127.617 37.24C127.66 37.1973 127.724 37.176 127.809 37.176C127.852 37.176 128.15 37.3467 128.705 37.688C128.705 37.688 128.684 37.7307 128.641 37.816C128.598 37.9013 128.534 38.008 128.449 38.136C128.492 38.2213 128.513 38.456 128.513 38.84H128.385C128.428 38.8827 128.449 38.968 128.449 39.096L128.385 39.288V39.992L128.641 40.248V40.888L128.769 41.016C128.812 41.0587 128.833 41.144 128.833 41.272C128.748 41.3573 128.684 41.5707 128.641 41.912C128.513 42.296 128.428 42.5093 128.385 42.552L128.641 43.128C128.641 43.1707 128.641 43.256 128.641 43.384C128.641 43.4693 128.62 43.6187 128.577 43.832L128.705 44.024C128.748 44.1093 128.769 44.1947 128.769 44.28C128.726 44.3227 128.684 44.3653 128.641 44.408C128.598 44.4507 128.534 44.5147 128.449 44.6V45.368C128.577 45.5387 128.705 45.7947 128.833 46.136L128.577 47.672L128.769 47.928C128.854 48.0987 128.876 48.312 128.833 48.568C128.876 48.7813 128.918 48.888 128.961 48.888L128.513 49.72C128.513 49.72 128.534 49.7627 128.577 49.848C128.662 49.8907 128.748 49.9973 128.833 50.168L128.705 50.744C128.577 50.616 128.449 50.5307 128.321 50.488C128.15 52.1947 128.086 53.0907 128.129 53.176C128.769 53.8587 129.089 54.3067 129.089 54.52L128.641 55.224C128.641 55.224 128.513 55.2667 128.257 55.352V55.544C128.214 55.5867 128.236 55.608 128.321 55.608C128.364 55.5653 128.449 55.544 128.577 55.544L129.217 55.8C129.217 56.0133 129.068 56.2053 128.769 56.376C128.812 56.4613 128.982 56.5467 129.281 56.632C129.494 56.632 129.644 56.5893 129.729 56.504V56.376C129.729 56.2053 129.665 56.0347 129.537 55.864C130.092 55.736 130.39 55.5227 130.433 55.224C130.433 55.0533 130.39 54.968 130.305 54.968L129.921 54.84L130.433 54.648C130.732 54.4347 130.774 54.1147 130.561 53.688L130.753 51.896C130.838 51.8107 130.924 51.704 131.009 51.576C131.094 51.4053 131.18 51.2347 131.265 51.064L131.329 49.848V49.144L131.713 48.184C131.798 48.056 131.926 48.0133 132.097 48.056C132.14 47.8 132.118 47.5867 132.033 47.416L131.841 46.968C131.969 46.84 132.054 46.6907 132.097 46.52V45.752C132.097 45.4107 132.182 45.048 132.353 44.664L132.673 44.216C132.588 44.088 132.524 43.8747 132.481 43.576C132.566 43.0213 132.63 42.6587 132.673 42.488C132.844 42.3173 133.014 42.0827 133.185 41.784L133.121 41.208L132.993 40.696C133.292 40.056 133.526 39.3947 133.697 38.712V38.584C133.697 38.456 133.633 38.264 133.505 38.008L133.633 37.816C133.889 37.6027 134.145 37.5387 134.401 37.624C134.401 37.624 134.529 37.6667 134.785 37.752C134.956 37.8373 135.062 37.88 135.105 37.88H135.169C135.34 37.88 135.51 37.7947 135.681 37.624C135.809 37.752 135.937 37.8373 136.065 37.88C136.065 37.88 136.15 37.88 136.321 37.88L136.641 37.816C136.684 37.816 136.79 37.8587 136.961 37.944C137.004 37.944 137.11 37.9013 137.281 37.816L137.537 37.752C137.665 37.88 137.878 38.008 138.177 38.136L139.329 38.008C139.372 38.0507 139.414 38.072 139.457 38.072C139.542 38.072 139.606 38.0933 139.649 38.136H139.777C139.862 38.136 139.948 38.136 140.033 38.136C140.161 38.136 140.289 38.1147 140.417 38.072C140.545 38.1147 140.609 38.136 140.609 38.136V38.456C140.609 38.4987 140.566 38.5627 140.481 38.648L140.097 39.928C140.012 40.1413 139.905 40.2693 139.777 40.312C139.82 40.3973 139.841 40.568 139.841 40.824L139.649 41.272C139.777 41.5707 139.798 41.8267 139.713 42.04L139.265 42.552C139.222 42.5947 139.222 42.6373 139.265 42.68C139.222 42.8507 139.073 43 138.817 43.128C138.902 43.1707 138.966 43.2987 139.009 43.512L138.561 44.472C138.604 44.5147 138.753 44.536 139.009 44.536C138.966 44.7067 138.988 44.856 139.073 44.984L138.433 45.624C138.476 45.9653 138.518 46.1573 138.561 46.2L138.177 46.776C138.177 46.8613 138.177 46.968 138.177 47.096C138.177 47.1813 138.156 47.3093 138.113 47.48C138.07 47.5227 138.006 47.5653 137.921 47.608C137.878 47.6507 137.814 47.7147 137.729 47.8L138.049 48.248H137.601C137.26 48.3333 137.153 48.3973 137.281 48.44C137.238 48.44 137.174 48.376 137.089 48.248C136.833 48.4187 136.684 48.5893 136.641 48.76C136.641 48.8453 136.684 48.9093 136.769 48.952C136.812 48.9093 137.153 48.8667 137.793 48.824C137.878 49.08 137.921 49.2293 137.921 49.272C137.75 49.4427 137.644 49.592 137.601 49.72C137.43 50.0187 137.345 50.4027 137.345 50.872L136.961 51.448C137.004 51.4907 137.025 51.576 137.025 51.704C137.025 51.7893 137.046 51.9173 137.089 52.088C136.918 52.1307 136.769 52.1307 136.641 52.088L136.321 51.96C136.278 51.96 136.214 52.0027 136.129 52.088C135.873 52.1307 135.702 52.3013 135.617 52.6L136.065 53.496C136.406 53.1547 136.662 52.856 136.833 52.6C136.662 53.5387 136.598 54.0507 136.641 54.136L135.553 56.824C135.382 56.8667 135.169 56.8667 134.913 56.824C134.87 56.8667 134.849 56.9733 134.849 57.144C134.849 57.144 134.913 57.1867 135.041 57.272L135.233 57.208H135.361C135.446 57.464 135.489 57.6347 135.489 57.72C135.446 57.7627 135.361 57.912 135.233 58.168C135.148 58.424 135.105 58.5733 135.105 58.616C135.105 58.744 135.169 58.9787 135.297 59.32V59.64C135.212 59.7253 135.062 59.8107 134.849 59.896C134.593 60.0667 134.465 60.2587 134.465 60.472C134.465 60.6 134.593 60.7707 134.849 60.984C134.849 61.0693 134.785 61.2187 134.657 61.432C134.529 61.6027 134.465 61.88 134.465 62.264C134.38 62.648 134.252 62.9893 134.081 63.288C133.91 63.3307 133.718 63.5013 133.505 63.8V63.928C133.505 64.0133 133.505 64.12 133.505 64.248C133.505 64.376 133.526 64.5253 133.569 64.696C133.313 64.7387 133.185 64.824 133.185 64.952C133.185 65.0373 133.228 65.1227 133.313 65.208C133.398 65.3787 133.441 65.4853 133.441 65.528C133.356 65.6133 133.27 65.7627 133.185 65.976C133.185 66.1467 133.164 66.3813 133.121 66.68C133.121 66.9787 133.1 67.2987 133.057 67.64C132.588 67.8533 132.396 68.1307 132.481 68.472L132.545 68.92C132.545 69.0053 132.545 69.0907 132.545 69.176C132.588 69.2613 132.609 69.3253 132.609 69.368C132.609 69.5813 132.588 69.7307 132.545 69.816L131.969 70.52C131.67 70.9893 131.521 71.3307 131.521 71.544C131.649 71.6293 131.734 71.7787 131.777 71.992L131.585 73.656C131.329 73.912 131.094 74.232 130.881 74.616L131.009 75.064V75.128C131.009 75.3413 130.924 75.64 130.753 76.024C130.369 76.1947 130.07 76.28 129.857 76.28ZM115.841 36.024H115.777C115.82 36.024 115.841 36.024 115.841 36.024ZM112.577 38.2C112.62 38.1573 112.726 38.0933 112.897 38.008C112.854 37.9653 112.748 37.9653 112.577 38.008V38.2ZM113.345 38.712C113.516 38.7973 113.644 38.7547 113.729 38.584C113.644 38.4987 113.58 38.456 113.537 38.456C113.409 38.456 113.345 38.5413 113.345 38.712ZM136.897 39.8C137.153 39.544 137.281 39.352 137.281 39.224V39.16C137.281 38.776 137.025 38.5627 136.513 38.52C136.385 38.4773 136.278 38.4987 136.193 38.584L136.129 38.776C136.129 38.904 136.257 39.0747 136.513 39.288C136.769 39.544 136.897 39.7147 136.897 39.8ZM124.097 40.504C124.14 40.4613 124.246 40.3973 124.417 40.312C124.417 40.2267 124.31 40.2267 124.097 40.312V40.504ZM124.865 41.016C124.993 41.0587 125.121 40.9947 125.249 40.824C125.206 40.7813 125.142 40.76 125.057 40.76C124.929 40.76 124.865 40.8453 124.865 41.016ZM135.681 41.208C135.724 41.08 135.702 40.9733 135.617 40.888C135.574 40.8027 135.489 40.824 135.361 40.952C135.361 41.0373 135.468 41.1227 135.681 41.208ZM123.585 43.192C123.628 43.1493 123.585 43.064 123.457 42.936C123.414 42.936 123.35 42.9787 123.265 43.064L123.457 43.128C123.5 43.128 123.521 43.1493 123.521 43.192C123.564 43.192 123.585 43.192 123.585 43.192ZM123.585 44.216C123.628 44.1307 123.606 44.0453 123.521 43.96C123.436 43.8747 123.35 43.8747 123.265 43.96C123.265 44.0453 123.372 44.1307 123.585 44.216ZM125.185 44.28V44.024C125.142 43.9387 125.078 43.9387 124.993 44.024L125.185 44.28ZM112.513 45.944C112.684 45.7307 112.769 45.5387 112.769 45.368C112.726 45.2827 112.556 45.1333 112.257 44.92L111.681 45.624C111.766 45.6667 111.873 45.7093 112.001 45.752C112.172 45.7947 112.342 45.8587 112.513 45.944ZM111.297 50.36C111.297 50.2747 111.297 50.2533 111.297 50.296V50.36ZM122.689 54.392C122.817 54.4347 122.945 54.3707 123.073 54.2C123.03 54.1573 122.966 54.136 122.881 54.136C122.753 54.136 122.689 54.2213 122.689 54.392ZM120.513 55.416C120.598 55.3307 120.641 55.2667 120.641 55.224C120.641 55.096 120.556 55.032 120.385 55.032C120.3 55.16 120.342 55.288 120.513 55.416ZM125.185 55.416C125.313 55.4587 125.441 55.3947 125.569 55.224C125.526 55.1813 125.462 55.16 125.377 55.16C125.249 55.16 125.185 55.2453 125.185 55.416ZM115.777 57.656C115.905 57.6987 116.054 57.6347 116.225 57.464C116.182 57.4213 116.097 57.4 115.969 57.4C115.841 57.4 115.777 57.4853 115.777 57.656ZM129.153 58.168C129.196 58.168 129.153 58.0827 129.025 57.912C128.982 57.912 128.918 57.9547 128.833 58.04L129.153 58.168ZM113.665 58.68C113.708 58.6373 113.729 58.5733 113.729 58.488C113.729 58.36 113.644 58.296 113.473 58.296C113.43 58.424 113.494 58.552 113.665 58.68ZM118.273 58.68C118.401 58.7227 118.55 58.6587 118.721 58.488C118.678 58.4453 118.593 58.424 118.465 58.424C118.337 58.424 118.273 58.5093 118.273 58.68ZM129.153 59.192C129.196 59.1067 129.174 59.0213 129.089 58.936C129.004 58.8507 128.897 58.8507 128.769 58.936C128.812 59.0213 128.94 59.1067 129.153 59.192ZM130.753 59.256V59C130.71 58.9147 130.646 58.9147 130.561 59L130.753 59.256ZM114.625 62.008C114.668 61.9227 114.86 61.7093 115.201 61.368C115.201 61.368 115.244 61.24 115.329 60.984L115.969 60.344C115.628 60.0027 115.457 59.8107 115.457 59.768C115.457 59.4693 115.414 59.2773 115.329 59.192L114.945 59.128V59.64L115.137 60.216C115.137 60.344 114.988 60.4293 114.689 60.472V60.792C114.732 60.792 114.753 60.8347 114.753 60.92C114.753 61.0053 114.646 61.3253 114.433 61.88L114.625 62.008ZM130.561 64.632C130.561 64.504 130.54 64.4187 130.497 64.376C130.454 64.3333 130.348 64.3547 130.177 64.44C130.177 64.568 130.305 64.632 130.561 64.632ZM128.001 65.528C128.086 65.5707 128.214 65.5067 128.385 65.336C128.3 65.2507 128.193 65.2293 128.065 65.272C127.98 65.3573 127.958 65.4427 128.001 65.528ZM117.185 66.488C117.228 66.488 117.27 66.4667 117.313 66.424L117.441 66.36C117.441 66.3173 117.398 66.2533 117.313 66.168L117.185 66.488ZM130.369 70.456C130.668 70.456 130.817 70.264 130.817 69.88C130.817 69.5813 130.689 69.368 130.433 69.24V68.856C130.305 68.6427 130.348 68.4293 130.561 68.216L131.265 67.96L131.201 67.768H130.753L130.561 67.64C130.476 67.5973 130.348 67.576 130.177 67.576L130.049 67.768C129.964 67.8533 129.921 67.896 129.921 67.896L129.665 67.768C129.537 67.6827 129.452 67.6613 129.409 67.704C129.366 67.7893 129.345 67.9387 129.345 68.152C129.345 68.7067 129.43 69.0693 129.601 69.24L129.921 69.304C129.921 69.304 129.964 69.3893 130.049 69.56C130.092 69.6027 130.092 69.6453 130.049 69.688C130.006 69.816 130.006 69.9653 130.049 70.136C130.134 70.3493 130.241 70.456 130.369 70.456ZM114.497 68.344C114.625 68.3867 114.732 68.3653 114.817 68.28C114.86 68.2373 114.838 68.1307 114.753 67.96C114.668 67.96 114.582 68.088 114.497 68.344ZM117.313 72.568C117.313 72.44 117.292 72.3547 117.249 72.312C117.164 72.2267 117.057 72.2267 116.929 72.312C116.929 72.3973 117.057 72.4827 117.313 72.568ZM129.217 72.696C129.26 72.6107 129.238 72.5253 129.153 72.44C129.11 72.3973 129.004 72.4187 128.833 72.504C128.833 72.632 128.961 72.696 129.217 72.696ZM126.657 73.592C126.742 73.6347 126.87 73.5707 127.041 73.4C126.998 73.3573 126.934 73.336 126.849 73.336C126.721 73.336 126.657 73.4213 126.657 73.592ZM147.283 75.832C147.198 75.832 147.177 75.832 147.219 75.832C147.177 75.832 147.091 75.7893 146.963 75.704L146.643 75.576C146.558 75.6187 146.451 75.64 146.323 75.64C146.238 75.64 146.131 75.6613 146.003 75.704L145.107 75.192C144.979 74.8933 144.809 74.744 144.595 74.744C144.553 74.7013 144.51 74.7013 144.467 74.744C144.425 74.7867 144.339 74.808 144.211 74.808C144.211 74.808 143.998 74.6373 143.571 74.296L143.059 74.104C142.931 73.976 142.782 73.8267 142.611 73.656C142.483 73.4853 142.313 73.2933 142.099 73.08L141.587 72.696V72.568C141.587 72.3973 141.481 72.1413 141.267 71.8C141.054 71.5867 140.883 71.416 140.755 71.288C140.67 71.1173 140.606 71.0107 140.563 70.968V70.2C140.777 70.328 140.905 70.3067 140.947 70.136C141.033 70.008 140.947 69.88 140.691 69.752C140.521 69.624 140.435 69.5173 140.435 69.432V68.664C140.435 68.536 140.435 68.408 140.435 68.28C140.435 68.152 140.414 68.024 140.371 67.896C140.329 67.6827 140.286 67.4907 140.243 67.32C140.243 67.1067 140.265 66.9147 140.307 66.744L140.435 66.104C140.393 65.848 140.371 65.592 140.371 65.336C140.371 65.0373 140.371 64.7387 140.371 64.44C140.371 64.2693 140.435 64.056 140.563 63.8L140.755 63.288C140.713 62.9467 140.67 62.584 140.627 62.2C140.585 61.7733 140.542 61.3467 140.499 60.92C140.499 60.792 140.67 60.3867 141.011 59.704C141.097 59.6613 141.182 59.6187 141.267 59.576C141.353 59.5333 141.438 59.4693 141.523 59.384C141.523 59.3413 141.331 59.192 140.947 58.936L140.755 57.592C140.755 57.3787 140.841 57.2507 141.011 57.208C141.139 57.1227 141.182 56.9733 141.139 56.76L141.971 56.184C141.929 56.0133 141.779 55.9067 141.523 55.864C141.481 55.864 141.331 55.9067 141.075 55.992C140.947 55.9067 140.883 55.8213 140.883 55.736C140.883 55.48 141.011 55.2667 141.267 55.096C141.523 54.8827 141.651 54.7547 141.651 54.712L141.331 53.624C141.331 53.624 141.502 53.3253 141.843 52.728C142.142 52.6853 142.291 52.6 142.291 52.472C142.291 52.3867 142.227 52.28 142.099 52.152C141.929 52.024 141.843 51.9173 141.843 51.832C141.843 51.7893 141.886 51.7253 141.971 51.64C142.099 51.384 142.227 50.9147 142.355 50.232L142.739 49.848L142.931 49.208C143.187 49.1227 143.486 48.9947 143.827 48.824L144.659 47.8C145.086 47.2453 145.449 46.9893 145.747 47.032L145.939 47.096C145.939 47.0533 146.11 46.9893 146.451 46.904C147.475 46.5627 148.051 46.4133 148.179 46.456L148.499 46.52C148.755 46.3493 148.947 46.2 149.075 46.072L149.395 46.136C149.481 46.136 149.545 46.1573 149.587 46.2C149.63 46.2427 149.673 46.264 149.715 46.264L150.227 46.2L150.803 46.712C150.803 46.712 150.931 46.6693 151.187 46.584L151.507 46.456C151.678 46.5413 151.87 46.6267 152.083 46.712C152.297 46.7973 152.51 46.8827 152.723 46.968C152.937 46.8827 153.235 46.8827 153.619 46.968L153.555 47.288V47.352C153.555 47.608 153.79 47.736 154.259 47.736H154.771C154.771 47.736 155.049 48.248 155.603 49.272L155.987 49.144C156.158 49.144 156.265 49.208 156.307 49.336L157.011 51.768C156.969 51.8533 156.947 52.0027 156.947 52.216C156.947 52.3867 156.947 52.5787 156.947 52.792L157.139 53.24C157.225 53.496 157.267 53.624 157.267 53.624L157.139 53.816C157.097 53.8587 157.075 53.9227 157.075 54.008V54.968C157.033 55.0107 156.99 55.096 156.947 55.224C156.905 55.3093 156.862 55.4373 156.819 55.608C156.563 55.6507 156.435 55.736 156.435 55.864C156.435 55.992 156.627 56.2267 157.011 56.568C157.353 56.9093 157.523 57.1227 157.523 57.208C157.523 57.2933 157.417 57.336 157.203 57.336L157.011 58.232C156.969 58.2747 156.905 58.4027 156.819 58.616C156.819 58.872 156.947 59.4267 157.203 60.28C157.033 60.3653 156.905 60.472 156.819 60.6C156.819 60.6 156.819 60.7707 156.819 61.112L156.883 61.752C156.883 61.7947 156.883 61.88 156.883 62.008C156.883 62.0933 156.862 62.2213 156.819 62.392L156.755 63.032H156.435C156.094 63.032 155.817 62.8613 155.603 62.52C155.433 62.2213 155.283 62.072 155.155 62.072C155.113 62.072 154.985 62.2 154.771 62.456C154.515 62.712 154.345 62.84 154.259 62.84L153.555 62.776C153.342 62.7333 153.171 62.7333 153.043 62.776C152.915 62.776 152.83 62.776 152.787 62.776L151.443 62.2C151.145 62.456 150.803 62.584 150.419 62.584C149.95 62.584 149.545 62.4347 149.203 62.136C149.118 62.2213 149.075 62.2853 149.075 62.328H148.115C148.073 62.328 148.051 62.328 148.051 62.328C148.051 62.2853 148.03 62.264 147.987 62.264H147.731C147.347 62.264 147.027 62.4987 146.771 62.968V63.224C146.729 63.3093 146.665 63.4373 146.579 63.608C146.537 63.736 146.473 63.8853 146.387 64.056C146.387 64.0987 146.43 64.1627 146.515 64.248L146.643 64.504V64.632C146.643 64.6747 146.643 64.76 146.643 64.888C146.643 64.9733 146.622 65.1013 146.579 65.272C146.622 65.4 146.643 65.6133 146.643 65.912C146.643 66.0827 146.537 66.232 146.323 66.36L146.195 68.472C146.451 68.6853 146.558 69.048 146.515 69.56H147.283C147.539 69.56 147.731 69.6453 147.859 69.816C147.987 69.9867 148.073 70.072 148.115 70.072L148.563 69.88L149.011 70.2C149.139 70.2 149.225 70.136 149.267 70.008L149.651 69.112V68.152L149.715 67.192C149.758 67.064 149.779 66.9573 149.779 66.872C149.822 66.744 149.843 66.6587 149.843 66.616L149.779 66.424C149.865 66.2533 149.907 66.1253 149.907 66.04C149.907 65.912 149.907 65.8267 149.907 65.784L149.779 65.208C149.95 64.7813 150.163 64.568 150.419 64.568C150.761 64.7387 151.23 64.888 151.827 65.016L152.147 64.888C152.275 64.8453 152.382 64.824 152.467 64.824C152.553 64.824 152.702 64.9947 152.915 65.336C153.385 65.1653 153.619 65.08 153.619 65.08L154.131 65.4H154.259C154.771 65.4 155.262 65.1867 155.731 64.76L156.819 65.784C156.606 66.168 156.371 66.6587 156.115 67.256C156.073 67.4693 156.009 67.7253 155.923 68.024C155.881 68.3227 155.795 68.6427 155.667 68.984C155.369 69.112 155.219 69.2827 155.219 69.496C155.219 69.5813 155.283 69.7307 155.411 69.944C155.539 70.2 155.603 70.3707 155.603 70.456L155.475 70.648C155.561 70.8613 155.539 71.0533 155.411 71.224L155.219 71.544C155.262 71.5867 155.283 71.672 155.283 71.8C155.283 72.184 155.006 72.504 154.451 72.76L154.323 72.888C154.366 72.9307 154.387 72.9947 154.387 73.08C154.387 73.3787 154.217 73.5707 153.875 73.656C153.406 73.784 153.129 73.8907 153.043 73.976C152.958 74.104 152.83 74.2533 152.659 74.424C152.489 74.5947 152.297 74.7867 152.083 75C151.23 75.5547 150.633 75.7893 150.291 75.704L149.523 75.512C149.31 75.512 149.097 75.576 148.883 75.704C148.67 75.832 148.499 75.8747 148.371 75.832L148.115 75.768H147.795C147.625 75.768 147.497 75.768 147.411 75.768C147.326 75.8107 147.262 75.832 147.219 75.832C147.262 75.832 147.283 75.832 147.283 75.832ZM148.563 48.888L148.691 48.632L148.499 48.504C148.499 48.632 148.521 48.76 148.563 48.888ZM153.043 51.064C153.257 51.064 153.385 50.936 153.427 50.68L153.363 49.848H153.235C153.107 49.848 153.043 49.7413 153.043 49.528C152.958 49.3147 152.851 49.208 152.723 49.208C152.553 49.1227 152.425 49.1867 152.339 49.4C152.297 49.4427 152.275 49.5067 152.275 49.592C152.318 49.6773 152.339 49.7627 152.339 49.848L152.403 50.296L152.211 50.488L153.043 51.064ZM147.411 51.896C147.753 51.768 147.753 51.6187 147.411 51.448C147.326 51.5333 147.326 51.6827 147.411 51.896ZM155.731 51.832L155.603 51.576L155.411 51.704L155.731 51.832ZM147.219 57.656L147.859 57.464L148.755 57.208C149.054 57.208 149.374 57.1867 149.715 57.144C150.057 57.0587 150.441 56.9733 150.867 56.888L151.059 56.12C151.102 56.0773 151.209 56.0133 151.379 55.928C151.209 55.7573 151.059 55.5867 150.931 55.416C150.846 55.2453 150.825 55.0747 150.867 54.904L150.931 54.456V54.072C150.931 53.688 150.761 53.368 150.419 53.112C150.462 52.984 150.483 52.8133 150.483 52.6C150.483 52.2587 150.099 52.0667 149.331 52.024C149.203 52.024 148.969 52.152 148.627 52.408L147.603 53.112C147.774 53.24 147.795 53.4107 147.667 53.624C147.625 53.7947 147.475 53.88 147.219 53.88V54.072C147.347 53.9867 147.475 54.0507 147.603 54.264C147.689 54.4347 147.71 54.5413 147.667 54.584L147.539 56.504C147.539 56.632 147.539 56.7387 147.539 56.824C147.582 56.9093 147.603 56.952 147.603 56.952C147.603 57.08 147.539 57.144 147.411 57.144C147.283 57.0587 147.177 56.952 147.091 56.824L146.899 56.952L146.835 57.336L147.219 57.656ZM151.699 53.752C151.785 53.88 151.913 53.88 152.083 53.752C151.955 53.368 151.827 53.368 151.699 53.752ZM147.603 56.888C147.603 56.9733 147.603 56.9947 147.603 56.952C147.603 56.952 147.603 56.9307 147.603 56.888ZM141.971 61.944C142.099 61.8587 142.27 61.624 142.483 61.24L142.419 61.048H142.291C142.078 61.048 141.801 61.1547 141.459 61.368C141.587 61.5813 141.758 61.7733 141.971 61.944ZM154.259 61.496C154.302 61.368 154.281 61.2613 154.195 61.176C154.153 61.1333 154.046 61.1547 153.875 61.24C153.875 61.3253 154.003 61.4107 154.259 61.496ZM143.187 70.072L143.699 69.816L143.635 69.56L143.315 69.496L143.187 69.624V69.56L143.123 69.304L142.931 69.24L142.803 69.944L143.187 70.072ZM148.051 71.096C148.094 71.0107 148.073 70.9253 147.987 70.84C147.902 70.7547 147.817 70.7547 147.731 70.84C147.731 70.9253 147.838 71.0107 148.051 71.096ZM168.449 75.96L168.001 75.832C167.745 75.704 167.574 75.64 167.489 75.64L167.041 75.704H166.849C166.892 75.704 166.806 75.6827 166.593 75.64C166.38 75.64 165.974 75.576 165.377 75.448C165.206 75.1493 165.036 75 164.865 75L164.545 75.064C164.502 75.064 164.46 75.064 164.417 75.064C164.374 75.1067 164.332 75.128 164.289 75.128C164.118 75.128 163.926 75.0213 163.713 74.808C163.628 74.7227 163.521 74.616 163.393 74.488C163.265 74.3173 163.094 74.1467 162.881 73.976C162.198 73.8053 161.75 73.5067 161.537 73.08C161.537 72.824 161.473 72.6747 161.345 72.632C161.174 72.5893 161.089 72.4613 161.089 72.248C161.089 71.992 161.174 71.608 161.345 71.096L160.385 70.712L160.065 69.432C159.98 69.2187 159.852 68.984 159.681 68.728C159.553 68.4293 159.382 68.1093 159.169 67.768V67.384C159.169 67.128 159.212 66.9573 159.297 66.872C159.34 66.8293 159.468 66.808 159.681 66.808H159.873C159.916 66.808 159.937 66.8293 159.937 66.872C159.937 66.872 159.958 66.872 160.001 66.872L160.321 66.68C160.364 66.6373 160.534 66.616 160.833 66.616L161.089 66.68C161.132 66.68 161.153 66.7013 161.153 66.744C161.196 66.744 161.238 66.744 161.281 66.744L162.049 66.488L162.241 66.296C162.412 66.2107 162.625 66.1467 162.881 66.104C163.137 66.0613 163.478 66.0187 163.905 65.976L164.097 66.04C164.054 66.04 164.033 66.1893 164.033 66.488C164.033 66.7013 164.161 66.808 164.417 66.808C164.46 66.808 164.694 66.552 165.121 66.04C165.206 66.296 165.249 66.7227 165.249 67.32C165.249 67.6187 165.334 67.832 165.505 67.96C165.633 68.1733 165.676 68.3867 165.633 68.6C165.633 68.6853 165.676 68.728 165.761 68.728C165.42 68.728 165.249 68.8133 165.249 68.984C165.249 69.2827 165.398 69.432 165.697 69.432C165.782 69.432 165.932 69.2613 166.145 68.92C166.188 69.0053 166.316 69.24 166.529 69.624C166.657 69.752 167.105 70.008 167.873 70.392C168.214 70.52 168.662 70.584 169.217 70.584C169.388 70.584 169.58 70.4133 169.793 70.072C170.092 70.072 170.369 69.8587 170.625 69.432C170.582 69.4747 170.54 69.496 170.497 69.496C170.497 69.4533 170.476 69.432 170.433 69.432C170.433 69.3893 170.433 69.3467 170.433 69.304C170.433 69.176 170.454 69.048 170.497 68.92C170.582 68.7493 170.646 68.5787 170.689 68.408C170.604 68.3227 170.497 68.1947 170.369 68.024C170.284 67.8107 170.177 67.576 170.049 67.32C170.262 67.1067 170.22 66.872 169.921 66.616L169.281 66.168L169.409 65.464C169.281 65.2507 168.769 65.08 167.873 64.952L167.617 64.44C167.404 64.2267 167.105 63.992 166.721 63.736C166.593 63.736 166.401 63.672 166.145 63.544C166.102 63.5013 166.06 63.4587 166.017 63.416C165.974 63.3307 165.91 63.2667 165.825 63.224C165.782 63.1813 165.654 63.16 165.441 63.16C165.313 63.0747 165.121 62.8827 164.865 62.584L164.801 62.072C164.673 62.072 164.438 62.0293 164.097 61.944C163.756 61.816 163.5 61.6667 163.329 61.496L162.881 60.728C162.497 60.3867 162.134 60.024 161.793 59.64C161.238 59.0853 160.94 58.6373 160.897 58.296L161.281 57.848C161.238 57.848 161.132 57.848 160.961 57.848C160.833 57.848 160.684 57.6987 160.513 57.4V56.952C160.428 56.6533 160.342 56.4827 160.257 56.44C160.214 56.3547 160.193 56.2907 160.193 56.248L160.257 55.992V54.904C160.3 54.9467 160.364 54.968 160.449 54.968C160.662 54.968 160.769 54.84 160.769 54.584C160.769 54.2853 160.556 54.136 160.129 54.136C160.598 53.7947 160.833 53.4747 160.833 53.176C160.833 52.8773 160.62 52.6 160.193 52.344C160.15 52.1307 160.214 51.9387 160.385 51.768L160.897 51.512C160.94 51.4267 160.982 51.3413 161.025 51.256C161.11 51.128 161.217 50.9787 161.345 50.808C161.302 50.7227 161.26 50.616 161.217 50.488C161.217 50.36 161.217 50.2533 161.217 50.168C161.217 49.912 161.26 49.72 161.345 49.592C161.388 49.5493 161.452 49.528 161.537 49.528C161.622 49.528 161.729 49.5067 161.857 49.464L162.113 48.952C162.753 48.952 162.966 48.7173 162.753 48.248H162.817C162.945 48.248 163.094 48.056 163.265 47.672C163.35 47.672 163.585 47.544 163.969 47.288C164.14 47.1173 164.374 47.032 164.673 47.032H164.865C164.908 47.032 164.929 47.0533 164.929 47.096C164.972 47.096 165.014 47.096 165.057 47.096L165.313 47.032C165.313 46.9467 165.377 46.84 165.505 46.712C165.846 46.456 166.102 46.328 166.273 46.328L166.785 46.456L166.977 46.392H167.169C167.809 46.392 168.278 46.5413 168.577 46.84L168.513 47.16H168.641C168.684 47.16 168.812 47.0533 169.025 46.84C169.196 46.6693 169.366 46.584 169.537 46.584C169.793 46.584 170.006 46.648 170.177 46.776C170.39 46.904 170.518 46.968 170.561 46.968L171.073 46.84C171.244 46.7973 171.35 46.776 171.393 46.776C171.478 46.776 171.542 46.776 171.585 46.776C171.713 46.776 171.841 46.7973 171.969 46.84L172.225 46.968C172.268 47.0533 172.417 47.224 172.673 47.48H172.737C172.993 47.48 173.398 47.608 173.953 47.864C174.252 48.0773 174.486 48.3973 174.657 48.824L175.233 49.976C175.233 50.3173 175.297 50.7867 175.425 51.384C175.51 51.4693 175.617 51.5973 175.745 51.768C175.873 51.896 176.022 52.0667 176.193 52.28C176.193 52.3227 176.172 52.408 176.129 52.536C176.129 52.6213 176.108 52.728 176.065 52.856C176.193 52.984 176.3 53.1973 176.385 53.496C176.428 53.624 176.47 53.7307 176.513 53.816C176.556 53.9013 176.598 53.9867 176.641 54.072V54.392L175.489 54.84C174.849 55.0107 174.294 55.1387 173.825 55.224C173.398 55.3093 173.036 55.352 172.737 55.352L172.545 55.288C172.502 55.288 172.46 55.288 172.417 55.288C172.417 55.2453 172.396 55.224 172.353 55.224C172.268 55.224 172.161 55.288 172.033 55.416L171.777 55.672C171.393 55.8 171.094 55.864 170.881 55.864C170.71 55.864 170.518 55.672 170.305 55.288C170.134 54.9893 170.049 54.776 170.049 54.648C170.049 53.1973 170.006 52.5147 169.921 52.6C169.494 52.344 169.196 52.28 169.025 52.408H168.961L168.385 52.152C168.214 52.0667 168.065 52.024 167.937 52.024C167.852 51.9813 167.788 51.96 167.745 51.96L167.425 52.024C167.297 52.0667 167.19 52.088 167.105 52.088C167.02 52.088 166.934 52.088 166.849 52.088L166.721 52.664C166.636 52.7067 166.465 52.856 166.209 53.112L166.017 53.944C166.23 53.9867 166.38 54.136 166.465 54.392C166.55 54.776 166.593 54.968 166.593 54.968C166.55 55.0107 166.294 55.0747 165.825 55.16C165.74 55.16 165.654 55.2027 165.569 55.288C165.612 55.416 165.91 55.5227 166.465 55.608C166.593 55.736 166.678 55.9493 166.721 56.248L167.425 56.376C167.425 56.5467 167.51 56.7387 167.681 56.952C167.724 56.952 167.83 56.9947 168.001 57.08C168.086 57.2507 168.214 57.4213 168.385 57.592C168.598 57.592 168.79 57.656 168.961 57.784C169.174 57.9973 169.281 58.1893 169.281 58.36H169.153C169.025 58.36 168.854 58.424 168.641 58.552V58.808C168.726 58.8933 168.833 58.9787 168.961 59.064C169.132 59.1067 169.324 59.1067 169.537 59.064L169.729 59H169.921L170.177 59.192C170.433 59.2347 170.625 59.256 170.753 59.256C170.881 59.256 170.966 59.256 171.009 59.256C171.35 59.3413 171.585 59.4693 171.713 59.64C171.841 59.9813 172.054 60.3227 172.353 60.664L172.993 60.856C173.206 60.984 173.356 61.176 173.441 61.432C174.081 61.9867 174.401 62.392 174.401 62.648V62.776L175.169 63.544C175.169 63.6293 175.169 63.736 175.169 63.864C175.212 63.992 175.254 64.1413 175.297 64.312C175.382 64.3547 175.468 64.3973 175.553 64.44C175.638 64.4827 175.724 64.5467 175.809 64.632C176.065 64.9307 176.193 65.1653 176.193 65.336L176.065 65.656C176.022 65.7413 175.98 65.8053 175.937 65.848C175.937 65.8907 175.937 65.9333 175.937 65.976C175.937 66.104 176.086 66.4027 176.385 66.872C176.385 66.872 176.342 66.9787 176.257 67.192L176.385 67.768L176.513 68.216L176.321 68.856C176.364 68.9413 176.385 69.1547 176.385 69.496C176.342 69.5387 176.3 69.5813 176.257 69.624C176.214 69.624 176.172 69.6667 176.129 69.752L175.617 71.352C175.617 71.4373 175.617 71.5653 175.617 71.736C175.617 71.864 175.596 72.0133 175.553 72.184C175.468 72.5253 175.126 72.696 174.529 72.696L174.081 73.784L173.121 74.424C172.993 74.552 172.694 74.7867 172.225 75.128H171.713L170.689 75.576C169.366 75.832 168.62 75.96 168.449 75.96ZM167.297 47.864C167.34 47.7787 167.318 47.6933 167.233 47.608C167.19 47.5653 167.084 47.5867 166.913 47.672C166.998 47.8 167.126 47.864 167.297 47.864ZM175.489 53.88C175.489 53.5813 175.468 53.432 175.425 53.432L175.105 53.368C175.062 53.368 175.02 53.368 174.977 53.368C174.934 53.3253 174.892 53.304 174.849 53.304C174.764 53.3893 174.721 53.5387 174.721 53.752L175.489 53.88ZM161.857 54.264C161.857 54.0933 161.836 53.9867 161.793 53.944C161.665 53.9013 161.558 53.9227 161.473 54.008C161.473 54.0933 161.601 54.1787 161.857 54.264ZM166.081 58.808C166.294 58.7227 166.401 58.6373 166.401 58.552C166.401 58.4667 166.294 58.3813 166.081 58.296V58.808ZM161.729 69.176C161.729 69.0907 161.686 68.9627 161.601 68.792L161.409 68.856C161.196 68.856 161.132 68.7493 161.217 68.536L161.089 68.792C161.132 68.92 161.217 69.048 161.345 69.176H161.729ZM173.633 70.904C173.59 70.904 173.868 70.6907 174.465 70.264V70.008C174.209 69.7093 173.974 69.56 173.761 69.56H173.569C173.569 69.6453 173.548 69.752 173.505 69.88C173.505 69.9653 173.484 70.072 173.441 70.2C173.228 70.5413 173.121 70.712 173.121 70.712C173.249 70.84 173.42 70.904 173.633 70.904ZM167.041 73.592L166.657 73.144H166.401L166.337 73.336L167.041 73.592ZM188.623 75.96L187.535 75.896C187.194 75.8533 186.917 75.832 186.703 75.832C186.533 75.832 186.426 75.832 186.383 75.832C185.743 75.832 185.359 75.8107 185.231 75.768L184.143 75.192C184.058 75.1493 183.951 75.1067 183.823 75.064C183.695 75.0213 183.546 74.9787 183.375 74.936C183.119 74.808 182.991 74.5947 182.991 74.296C182.906 74.2533 182.821 74.232 182.735 74.232C182.65 74.1893 182.565 74.168 182.479 74.168C182.479 73.784 182.394 73.528 182.223 73.4L181.775 73.208C181.69 73.1227 181.583 72.888 181.455 72.504L181.199 71.864V71.672C181.199 71.5867 181.178 71.48 181.135 71.352C181.135 71.1813 181.114 71.0107 181.071 70.84C181.071 70.4987 181.071 70.2 181.071 69.944C181.114 69.688 181.157 69.4747 181.199 69.304C181.029 69.2187 180.901 69.0907 180.815 68.92C180.773 68.8347 180.794 68.664 180.879 68.408L180.943 67.832C180.986 67.6187 181.007 67.4267 181.007 67.256C181.007 67.0853 181.029 66.9147 181.071 66.744C181.071 66.5307 181.135 66.2747 181.263 65.976C181.434 65.6773 181.519 65.4853 181.519 65.4C181.519 65.3573 181.477 65.2933 181.391 65.208C181.306 65.1227 181.263 65.08 181.263 65.08C181.263 64.9947 181.242 64.9307 181.199 64.888C181.199 64.8453 181.199 64.8027 181.199 64.76C181.199 64.504 181.263 64.248 181.391 63.992C181.221 63.6933 181.135 63.3307 181.135 62.904C181.135 62.5627 181.242 62.2427 181.455 61.944C181.327 61.7733 181.221 61.6027 181.135 61.432V59.768C181.135 59.768 181.093 59.6827 181.007 59.512C180.922 59.4267 180.879 59.3413 180.879 59.256C180.879 59.128 181.114 58.6587 181.583 57.848C181.242 57.6347 181.071 57.5067 181.071 57.464L181.391 56.312C181.391 56.2267 181.37 56.0987 181.327 55.928C181.327 55.7573 181.327 55.5653 181.327 55.352L181.263 54.328C181.221 53.8587 181.221 53.4747 181.263 53.176C181.306 52.8773 181.306 52.6427 181.263 52.472C181.135 52.2587 180.986 52.152 180.815 52.152V51.832L181.391 51.576C181.391 51.4907 181.37 51.4267 181.327 51.384H180.239V51.576C180.239 51.7467 180.325 51.896 180.495 52.024C180.666 52.152 180.751 52.2587 180.751 52.344L179.983 52.28C179.813 52.2373 179.663 52.216 179.535 52.216C179.45 52.216 179.386 52.216 179.343 52.216L178.959 52.344C178.703 52.4293 178.575 52.472 178.575 52.472C178.405 52.472 178.149 52.3867 177.807 52.216C177.765 52.1307 177.765 52.0027 177.807 51.832L177.935 51.448C177.893 51.32 177.871 51.192 177.871 51.064C177.871 50.936 177.871 50.8293 177.871 50.744C177.957 50.488 178.106 50.3387 178.319 50.296C178.149 50.1253 178.042 49.9547 177.999 49.784C177.999 49.5707 177.999 49.3573 177.999 49.144L177.935 48.824C178.021 48.44 178.042 48.2053 177.999 48.12L177.807 47.8C177.722 47.6293 177.679 47.5227 177.679 47.48L177.935 46.904C177.978 46.8613 178.042 46.84 178.127 46.84C178.213 46.84 178.319 46.8187 178.447 46.776C178.575 46.7333 178.661 46.648 178.703 46.52H178.831L179.471 46.712L180.303 46.968C180.346 47.0107 180.389 47.0747 180.431 47.16C180.474 47.2453 180.517 47.352 180.559 47.48C180.73 47.352 180.901 47.1813 181.071 46.968C181.242 46.7547 181.413 46.4987 181.583 46.2C181.839 46.0293 181.861 45.9013 181.647 45.816C181.519 45.7307 181.455 45.6027 181.455 45.432L181.519 43.384C181.306 42.616 181.199 42.0827 181.199 41.784L181.391 41.272L181.519 40.76C181.519 40.632 181.455 40.5253 181.327 40.44C181.199 40.3547 181.135 40.184 181.135 39.928L181.263 39.288C181.349 39.2453 181.434 39.1813 181.519 39.096C181.605 39.0107 181.733 38.904 181.903 38.776C182.159 38.52 182.309 38.392 182.351 38.392L182.927 38.648C183.098 38.6907 183.226 38.7547 183.311 38.84C183.397 38.9253 183.461 38.968 183.503 38.968L183.695 38.904H185.103C185.402 38.904 185.637 38.9253 185.807 38.968C186.021 38.968 186.191 38.968 186.319 38.968L186.767 38.84C187.023 38.7547 187.151 38.712 187.151 38.712C187.45 38.712 187.599 38.9253 187.599 39.352C187.599 39.48 187.578 39.6507 187.535 39.864C187.535 40.0347 187.514 40.248 187.471 40.504L187.215 40.44C187.045 40.44 186.831 40.5253 186.575 40.696C186.191 40.9093 186.042 41.1867 186.127 41.528C186.213 41.6133 186.255 41.656 186.255 41.656C186.298 41.656 186.383 41.592 186.511 41.464C186.682 41.3787 186.789 41.336 186.831 41.336C187.045 41.336 187.258 41.5067 187.471 41.848C187.642 42.1467 187.727 42.3387 187.727 42.424C187.727 42.5093 187.685 42.616 187.599 42.744C187.557 42.8293 187.514 42.8933 187.471 42.936C187.429 43.6613 187.386 44.1733 187.343 44.472C187.343 44.7707 187.343 44.8347 187.343 44.664C187.045 44.7067 186.895 44.8347 186.895 45.048C186.895 45.2613 187.023 45.4107 187.279 45.496V45.88C187.279 46.136 187.386 46.584 187.599 47.224C187.642 47.3093 187.791 47.4373 188.047 47.608H188.239V47.16C188.282 46.9893 188.41 46.904 188.623 46.904C189.477 46.776 189.839 46.712 189.711 46.712L190.031 46.776C190.159 46.8187 190.287 46.84 190.415 46.84L191.055 47.288C191.013 47.4587 190.991 47.6293 190.991 47.8C190.991 47.928 190.991 48.0987 190.991 48.312C191.333 48.6533 191.503 48.8027 191.503 48.76C191.503 48.888 191.418 49.0373 191.247 49.208C191.29 49.2507 191.333 49.2933 191.375 49.336C191.29 49.3787 191.226 49.5493 191.183 49.848L191.247 50.04C191.29 50.1253 191.311 50.2107 191.311 50.296C191.311 50.6373 191.29 50.9787 191.247 51.32C191.247 51.6187 191.226 51.896 191.183 52.152C191.098 52.408 190.97 52.536 190.799 52.536H190.735H190.799C190.799 52.4933 190.607 52.408 190.223 52.28C190.053 52.2373 189.711 52.216 189.199 52.216C188.986 52.216 188.559 52.28 187.919 52.408L187.663 52.6C187.493 52.6853 187.407 52.728 187.407 52.728L187.343 53.304C187.301 53.7307 187.237 53.944 187.151 53.944C187.407 54.5413 187.535 55.096 187.535 55.608C187.493 55.608 187.386 55.864 187.215 56.376C187.258 56.2907 187.279 56.5253 187.279 57.08L187.151 57.4C187.066 57.656 187.023 57.784 187.023 57.784L187.215 58.552C187.301 58.7653 187.343 58.9573 187.343 59.128C187.343 59.256 187.343 59.3413 187.343 59.384C187.343 59.384 187.258 59.4907 187.087 59.704C187.045 59.704 187.023 59.8107 187.023 60.024C187.023 60.28 187.13 60.4507 187.343 60.536V62.648C187.343 62.6907 187.301 62.7547 187.215 62.84C187.13 63.0107 187.087 63.1173 187.087 63.16C187.045 63.4587 187.045 63.7147 187.087 63.928C187.173 64.2693 187.237 64.4187 187.279 64.376C187.151 64.504 187.045 64.632 186.959 64.76C187.045 64.8453 187.151 65.144 187.279 65.656C186.767 65.9547 186.511 66.2107 186.511 66.424C186.511 66.3387 186.682 66.5947 187.023 67.192C187.023 67.192 187.066 67.5333 187.151 68.216L187.279 68.408C187.279 68.5787 187.279 68.7707 187.279 68.984C187.279 69.1547 187.301 69.368 187.343 69.624C187.343 69.624 187.599 69.7947 188.111 70.136C188.111 70.3067 188.218 70.456 188.431 70.584H188.559C188.645 70.584 188.794 70.4987 189.007 70.328C189.178 70.1573 189.327 70.072 189.455 70.072C189.455 70.072 189.541 70.1147 189.711 70.2C189.797 70.2853 189.861 70.328 189.903 70.328C189.989 70.328 190.117 70.2853 190.287 70.2C190.373 70.1147 190.458 70.0507 190.543 70.008C190.629 69.9227 190.735 69.8373 190.863 69.752L191.119 69.944V72.632C191.119 72.6747 191.098 72.7173 191.055 72.76C190.97 72.8453 190.927 72.9093 190.927 72.952V73.592C190.842 73.6773 190.757 73.7413 190.671 73.784C190.714 74.0827 190.799 74.3173 190.927 74.488C191.055 74.616 191.119 74.808 191.119 75.064C191.119 75.4907 190.885 75.704 190.415 75.704H190.223C190.181 75.704 190.138 75.6827 190.095 75.64C190.095 75.64 190.074 75.64 190.031 75.64L189.327 75.832C189.114 75.8747 188.943 75.896 188.815 75.896C188.73 75.9387 188.666 75.96 188.623 75.96ZM183.439 48.76C183.695 48.76 183.823 48.632 183.823 48.376L183.695 47.992H183.375C183.247 48.12 183.141 48.2267 183.055 48.312C183.013 48.3973 182.97 48.4613 182.927 48.504C182.97 48.5467 182.991 48.6107 182.991 48.696H183.247C183.29 48.696 183.311 48.7173 183.311 48.76C183.354 48.76 183.397 48.76 183.439 48.76ZM189.711 48.632L189.967 48.504L189.647 48.312C189.605 48.3547 189.562 48.376 189.519 48.376L189.711 48.632ZM191.375 49.336V49.464C191.375 49.4213 191.375 49.3787 191.375 49.336ZM184.719 50.232C184.762 50.1893 184.719 50.104 184.591 49.976L184.399 50.104C184.442 50.1467 184.485 50.168 184.527 50.168C184.613 50.168 184.677 50.1893 184.719 50.232ZM184.783 51.256C184.826 51.1707 184.805 51.0853 184.719 51C184.634 50.9147 184.527 50.9147 184.399 51C184.442 51.0853 184.57 51.1707 184.783 51.256ZM187.535 55.608V55.672V55.608ZM185.679 62.136L185.807 62.072C185.85 62.0293 185.893 62.008 185.935 62.008L185.807 61.816C185.765 61.8587 185.743 61.9013 185.743 61.944C185.743 61.9867 185.722 62.0507 185.679 62.136ZM183.183 64.184C183.269 64.2267 183.354 64.2053 183.439 64.12C183.525 64.0347 183.503 63.928 183.375 63.8C183.247 63.8427 183.183 63.9707 183.183 64.184ZM182.671 72.248L182.991 72.568C183.077 72.568 183.226 72.5467 183.439 72.504L183.759 72.12L183.311 71.736C183.269 71.7787 183.055 71.864 182.671 71.992V72.248ZM181.007 74.04C180.922 74.04 180.815 73.976 180.687 73.848C180.73 73.8053 180.794 73.784 180.879 73.784C181.007 73.784 181.05 73.8693 181.007 74.04Z" fill="#835148"/>
<path d="M212.667 53.1066L216.76 52.6466L214.333 55.9999L216.787 59.3133L212.667 58.8799L211.02 62.6666L209.333 58.8933L205.24 59.3533L207.667 55.9999L205.213 52.6866L209.333 53.1199L210.98 49.3333L212.667 53.1066Z" fill="#835148"/>
</svg>
