<svg width="109" height="40" viewBox="0 0 109 40" fill="none" xmlns="http://www.w3.org/2000/svg">
<path d="M1.96 32.12C1.90667 32.12 1.81333 32.08 1.68 32L1.6 30.8C1.57333 30.64 1.56 30.5067 1.56 30.4C1.58667 30.2933 1.6 30.2267 1.6 30.2L1.56 29.96C1.53333 29.9067 1.50667 29.8667 1.48 29.84C1.48 29.8133 1.48 29.7867 1.48 29.76V29.56C1.48 29.08 1.57333 28.8 1.76 28.72C1.76 28.6933 1.69333 28.64 1.56 28.56C1.58667 28.4533 1.58667 28.3067 1.56 28.12C1.53333 28.04 1.49333 27.92 1.44 27.76L1.52 27.52C1.54667 27.44 1.56 27.3733 1.56 27.32C1.56 27.0533 1.54667 26.9067 1.52 26.88C1.49333 26.7733 1.48 26.6667 1.48 26.56C1.48 26.4533 1.48 26.3333 1.48 26.2L1.52 25.56C1.46667 25.2667 1.41333 24.9733 1.36 24.68C1.30667 24.36 1.25333 24.04 1.2 23.72C1.2 23.5067 1.24 23.3067 1.32 23.12L1.56 23.28C1.61333 23.2267 1.64 23.1467 1.64 23.04C1.64 22.8267 1.56 22.72 1.4 22.72C1.34667 22.72 1.30667 22.7333 1.28 22.76C1.25333 22.76 1.21333 22.72 1.16 22.64V22.2C1.16 21.9867 1.16 21.8 1.16 21.64C1.18667 21.4533 1.21333 21.3067 1.24 21.2C1.29333 20.9867 1.29333 20.84 1.24 20.76L1.12 20.56C1.12 20.48 1.12 20.4 1.12 20.32C1.12 20.24 1.13333 20.16 1.16 20.08C1.16 20.0533 1.18667 19.9867 1.24 19.88L1.32 19.68L1.12 19.48L1.08 19.16V18.72C0.973333 18.56 0.906667 18.4133 0.88 18.28C0.906667 18.28 0.96 18.1733 1.04 17.96C1.06667 17.88 1.08 17.8 1.08 17.72C1.08 17.64 1.08 17.5733 1.08 17.52C1.05333 17.2 1.04 17.0267 1.04 17L1.24 16.76C1.02667 16.5467 0.92 16.2933 0.92 16V15.6L0.88 15.56C0.96 15.56 0.96 15.44 0.88 15.2L0.84 15.08C1.08 14.84 1.22667 14.5733 1.28 14.28H1.16C0.973333 14.28 0.88 14.2267 0.88 14.12C0.88 14.04 0.906667 13.9733 0.96 13.92L0.88 13.44C0.906667 13.3867 0.933333 13.32 0.96 13.24C1.01333 13.1333 1.04 13.0667 1.04 13.04L0.72 12.16C0.72 11.92 0.826667 11.72 1.04 11.56C1.04 11.5067 1 11.4667 0.92 11.44L0.68 11.36V11.2C0.733333 11.0933 0.773333 10.9733 0.8 10.84C0.853333 10.7067 0.893333 10.5733 0.92 10.44L0.64 10.08L0.52 8C0.68 7.92 0.88 7.84 1.12 7.76C1.14667 7.76 1.17333 7.77333 1.2 7.8C1.22667 7.8 1.26667 7.81333 1.32 7.84C1.4 7.92 1.45333 7.96 1.48 7.96L2.08 7.64C2.08 7.66667 2.10667 7.70667 2.16 7.76V8.32L2.12 8.4L2.52 8.36L2.6 8C2.68 8.02667 2.73333 8.05333 2.76 8.08C2.81333 8.08 2.84 8.08 2.84 8.08C2.89333 8.08 2.94667 8.05333 3 8C3 7.84 3.01333 7.74667 3.04 7.72C3.06667 7.74667 3.13333 7.76 3.24 7.76L3.48 7.72C3.56 7.69333 3.64 7.68 3.72 7.68C3.8 7.68 3.85333 7.69333 3.88 7.72C3.96 7.77333 4.01333 7.78667 4.04 7.76C4.09333 7.76 4.16 7.76 4.24 7.76C4.32 7.76 4.4 7.74667 4.48 7.72C4.50667 7.69333 4.53333 7.66667 4.56 7.64C4.58667 7.61333 4.62667 7.58667 4.68 7.56C4.84 7.56 4.92 7.64 4.92 7.8C4.92 7.90667 4.89333 7.98667 4.84 8.04L4.64 8.16C4.69333 8.21333 4.74667 8.29333 4.8 8.4C4.85333 8.48 4.90667 8.56 4.96 8.64C4.90667 8.69333 4.84 8.94667 4.76 9.4L4.84 10.04C4.81333 10.0667 4.77333 10.1467 4.72 10.28C4.64 10.3867 4.6 10.4667 4.6 10.52L4.68 10.8C4.76 10.88 4.81333 10.9467 4.84 11L5.08 12C5.08 12.08 5.02667 12.16 4.92 12.24C4.94667 12.32 4.96 12.4 4.96 12.48C4.98667 12.56 5 12.64 5 12.72C5.02667 13.1733 5.04 13.56 5.04 13.88C5.06667 14.1733 5.06667 14.3867 5.04 14.52L5 14.72C4.97333 14.7733 4.94667 14.8133 4.92 14.84C4.92 14.8667 4.92 14.8933 4.92 14.92C4.92 14.9467 4.96 14.9867 5.04 15.04C5.12 15.12 5.16 15.24 5.16 15.4L5.12 15.76L5.04 16.12L5.16 16.44V17C5.16 17.4 5.17333 17.64 5.2 17.72L5.32 18.24C5.32 18.3733 5.30667 18.52 5.28 18.68C5.28 18.84 5.26667 18.9867 5.24 19.12C5.24 19.12 5.17333 19.2133 5.04 19.4L5.48 19.8V20.2L5.16 20.36L5.32 20.52C5.29333 20.6 5.28 20.76 5.28 21C5.36 21.0533 5.42667 21.16 5.48 21.32C5.48 21.32 5.41333 21.4267 5.28 21.64C5.12 21.8267 5.04 21.9467 5.04 22L5.24 22.48C5.24 22.5067 5.30667 22.5467 5.44 22.6L5.32 23.16C5.37333 23.1867 5.45333 23.28 5.56 23.44C5.4 23.52 5.25333 23.56 5.12 23.56C5.09333 23.5333 4.98667 23.52 4.8 23.52C4.66667 23.52 4.54667 23.6533 4.44 23.92C4.44 24.16 4.49333 24.28 4.6 24.28C4.70667 24.2533 4.8 24.1733 4.88 24.04L5.12 23.72C5.17333 23.7467 5.29333 23.7867 5.48 23.84L5.44 24.08C5.52 24.16 5.57333 24.24 5.6 24.32C5.57333 24.5067 5.56 24.7467 5.56 25.04C5.56 25.3333 5.56 25.7067 5.56 26.16L5.44 26.44C5.54667 26.52 5.6 26.64 5.6 26.8C5.6 27.0933 5.52 27.28 5.36 27.36L5.56 27.48C5.58667 27.5067 5.62667 27.56 5.68 27.64C5.73333 27.6933 5.78667 27.76 5.84 27.84C5.89333 27.8667 5.84 27.96 5.68 28.12L5.72 28.36H5.96C6.01333 28.2 6.06667 27.9867 6.12 27.72C6.25333 27.7467 6.37333 27.7333 6.48 27.68H6.64C6.72 27.8933 6.8 27.9867 6.88 27.96C6.88 27.96 6.97333 27.8933 7.16 27.76C7.29333 27.6267 7.38667 27.56 7.44 27.56C7.6 27.56 7.69333 27.64 7.72 27.8C7.77333 28.04 7.8 28.16 7.8 28.16H7.88C7.90667 28.1333 7.96 27.9867 8.04 27.72C8.04 27.6933 8.08 27.68 8.16 27.68C8.21333 27.6267 8.26667 27.68 8.32 27.84L8.48 28.08C8.66667 27.8933 8.73333 27.7467 8.68 27.64L9.04 27.56C9.14667 27.5867 9.25333 27.6133 9.36 27.64C9.49333 27.6667 9.62667 27.6933 9.76 27.72L10.08 27.56L10.24 27.6L10.36 27.64C10.5733 27.5867 10.6933 27.52 10.72 27.44C10.7733 27.36 10.8667 27.32 11 27.32C11.1333 27.2667 11.24 27.2933 11.32 27.4C11.3467 27.4533 11.3733 27.5333 11.4 27.64C11.4267 27.7467 11.4667 27.8667 11.52 28L11.36 28.32L11.56 28.8L11.52 29.08C11.4933 29.1867 11.48 29.2667 11.48 29.32C11.48 29.3733 11.48 29.4267 11.48 29.48L11.52 29.84C11.52 29.8933 11.48 30 11.4 30.16C11.3467 30.32 11.32 30.4 11.32 30.4C11.32 30.4 11.36 30.4667 11.44 30.6C11.52 30.7067 11.56 30.7733 11.56 30.8C11.5333 30.9067 11.52 31.0267 11.52 31.16C11.52 31.2667 11.52 31.4 11.52 31.56L10.96 31.6C10.9333 31.6267 10.88 31.6533 10.8 31.68C10.7467 31.7067 10.68 31.7333 10.6 31.76C10.36 31.6533 10.1067 31.5867 9.84 31.56C9.81333 31.56 9.74667 31.5867 9.64 31.64C9.56 31.72 9.50667 31.76 9.48 31.76L9 31.64L8.16 31.76C8.13333 31.76 8.10667 31.76 8.08 31.76C8.08 31.7333 8.06667 31.72 8.04 31.72L7.88 31.68L7.52 31.88L7.28 31.76C7.2 31.7067 7.13333 31.68 7.08 31.68C7.02667 31.68 6.98667 31.68 6.96 31.68L6.6 31.8C6.49333 31.8267 6.41333 31.8667 6.36 31.92C6.30667 31.9467 6.26667 31.96 6.24 31.96L5.72 31.92C5.53333 31.8933 5.4 31.88 5.32 31.88C5.24 31.88 5.18667 31.88 5.16 31.88L5.04 31.92C5.01333 31.92 4.98667 31.9333 4.96 31.96C4.96 31.96 4.94667 31.96 4.92 31.96L4.68 31.88C4.65333 31.88 4.61333 31.88 4.56 31.88C4.50667 31.88 4.45333 31.8933 4.4 31.92L4.12 32C4.06667 31.9467 4 31.9067 3.92 31.88L3.6 32C3.54667 32 3.50667 31.9867 3.48 31.96C3.45333 31.9333 3.4 31.92 3.32 31.92L2.52 32.12C2.44 32.12 2.33333 32.0533 2.2 31.92C2.14667 32.0267 2.06667 32.0933 1.96 32.12ZM3.96 8.76C4.01333 8.76 4.06667 8.73333 4.12 8.68V8.52C4.09333 8.49333 4.04 8.48 3.96 8.48V8.76ZM1.04 9C1.17333 8.86666 1.24 8.77333 1.24 8.72L1.16 8.56H0.96C0.96 8.61333 0.96 8.68 0.96 8.76C0.986667 8.81333 1.01333 8.89333 1.04 9ZM4.96 8.68V8.64C4.93333 8.66667 4.93333 8.68 4.96 8.68ZM1.24 9.84V9.68H1.16L1.2 9.84H1.24ZM2.76 10.44V10.32C2.76 10.2667 2.74667 10.2133 2.72 10.16C2.72 10.08 2.70667 10 2.68 9.92C2.57333 10.0267 2.52 10.1333 2.52 10.24C2.52 10.32 2.56 10.3867 2.64 10.44H2.76ZM3.36 12.48C3.78667 12.4533 4 12.2133 4 11.76C4 11.4667 3.90667 11.36 3.72 11.44C3.69333 11.5467 3.61333 11.68 3.48 11.84L3.16 11.96L3.12 12.2V12.28C3.12 12.4133 3.2 12.48 3.36 12.48ZM1.92 13.84C1.92 13.7867 1.89333 13.7333 1.84 13.68C1.81333 13.6267 1.76 13.64 1.68 13.72C1.68 13.8 1.76 13.84 1.92 13.84ZM1.84 17.12C1.92 17.1467 2 17.0933 2.08 16.96C2.05333 16.9333 2.01333 16.92 1.96 16.92C1.88 16.92 1.84 16.9867 1.84 17.12ZM1 17.04C1 17.04 1.01333 17.0267 1.04 17L1 17.04ZM4.36 17.8C4.49333 17.72 4.57333 17.64 4.6 17.56C4.49333 17.48 4.41333 17.44 4.36 17.44C4.30667 17.44 4.21333 17.5467 4.08 17.76L4.36 17.8ZM0.88 18.24V18.28C0.88 18.28 0.88 18.2667 0.88 18.24ZM2.16 19.08C2.29333 18.9467 2.37333 18.84 2.4 18.76C2.26667 18.7867 2.12 18.88 1.96 19.04H2.08C2.10667 19.04 2.12 19.0533 2.12 19.08C2.12 19.08 2.13333 19.08 2.16 19.08ZM3.52 28.8C3.54667 28.7733 3.57333 28.76 3.6 28.76C3.62667 28.76 3.65333 28.7467 3.68 28.72C3.68 28.6933 3.65333 28.6533 3.6 28.6L3.52 28.8ZM6.64 29.44L6.84 29.4V29.36H6.64V29.44ZM8.28 29.8C8.33333 29.7467 8.32 29.6667 8.24 29.56C8.02667 29.6933 8.04 29.7733 8.28 29.8ZM4.84 30.84C4.94667 30.68 5.05333 30.5467 5.16 30.44V30C5 29.84 4.84 29.7867 4.68 29.84L4.32 30C4.24 30.0267 4.2 30.1733 4.2 30.44L4.64 30.4H4.68C4.73333 30.4 4.76 30.4667 4.76 30.6C4.76 30.76 4.77333 30.84 4.8 30.84H4.84ZM2.04 30.16C2.12 30.1867 2.18667 30.16 2.24 30.08C2.29333 30.0267 2.26667 29.9733 2.16 29.92C2.08 29.9467 2.04 30.0267 2.04 30.16ZM10.56 30.88C10.64 30.88 10.72 30.8133 10.8 30.68C10.72 30.6267 10.6533 30.6267 10.6 30.68C10.5733 30.7067 10.56 30.7733 10.56 30.88ZM16.9272 32.52C16.8739 32.52 16.8605 32.52 16.8872 32.52C16.8605 32.52 16.8072 32.4933 16.7272 32.44L16.5272 32.36C16.4739 32.3867 16.4072 32.4 16.3272 32.4C16.2739 32.4 16.2072 32.4133 16.1272 32.44L15.5672 32.12C15.4872 31.9333 15.3805 31.84 15.2472 31.84C15.2205 31.8133 15.1939 31.8133 15.1672 31.84C15.1405 31.8667 15.0872 31.88 15.0072 31.88C15.0072 31.88 14.8739 31.7733 14.6072 31.56L14.2872 31.44C14.2072 31.36 14.1139 31.2667 14.0072 31.16C13.9272 31.0533 13.8205 30.9333 13.6872 30.8L13.3672 30.56V30.48C13.3672 30.3733 13.3005 30.2133 13.1672 30C13.0339 29.8667 12.9272 29.76 12.8472 29.68C12.7939 29.5733 12.7539 29.5067 12.7272 29.48V29C12.8605 29.08 12.9405 29.0667 12.9672 28.96C13.0205 28.88 12.9672 28.8 12.8072 28.72C12.7005 28.64 12.6472 28.5733 12.6472 28.52V28.04C12.6472 27.96 12.6472 27.88 12.6472 27.8C12.6472 27.72 12.6339 27.64 12.6072 27.56C12.5805 27.4267 12.5539 27.3067 12.5272 27.2C12.5272 27.0667 12.5405 26.9467 12.5672 26.84L12.6472 26.44C12.6205 26.28 12.6072 26.12 12.6072 25.96C12.6072 25.7733 12.6072 25.5867 12.6072 25.4C12.6072 25.2933 12.6472 25.16 12.7272 25L12.8472 24.68C12.8205 24.4667 12.7939 24.24 12.7672 24C12.7405 23.7333 12.7139 23.4667 12.6872 23.2C12.6872 23.12 12.7939 22.8667 13.0072 22.44C13.0605 22.4133 13.1139 22.3867 13.1672 22.36C13.2205 22.3333 13.2739 22.2933 13.3272 22.24C13.3272 22.2133 13.2072 22.12 12.9672 21.96L12.8472 21.12C12.8472 20.9867 12.9005 20.9067 13.0072 20.88C13.0872 20.8267 13.1139 20.7333 13.0872 20.6L13.6072 20.24C13.5805 20.1333 13.4872 20.0667 13.3272 20.04C13.3005 20.04 13.2072 20.0667 13.0472 20.12C12.9672 20.0667 12.9272 20.0133 12.9272 19.96C12.9272 19.8 13.0072 19.6667 13.1672 19.56C13.3272 19.4267 13.4072 19.3467 13.4072 19.32L13.2072 18.64C13.2072 18.64 13.3139 18.4533 13.5272 18.08C13.7139 18.0533 13.8072 18 13.8072 17.92C13.8072 17.8667 13.7672 17.8 13.6872 17.72C13.5805 17.64 13.5272 17.5733 13.5272 17.52C13.5272 17.4933 13.5539 17.4533 13.6072 17.4C13.6872 17.24 13.7672 16.9467 13.8472 16.52L14.0872 16.28L14.2072 15.88C14.3672 15.8267 14.5539 15.7467 14.7672 15.64L15.2872 15C15.5539 14.6533 15.7805 14.4933 15.9672 14.52L16.0872 14.56C16.0872 14.5333 16.1939 14.4933 16.4072 14.44C17.0472 14.2267 17.4072 14.1333 17.4872 14.16L17.6872 14.2C17.8472 14.0933 17.9672 14 18.0472 13.92L18.2472 13.96C18.3005 13.96 18.3405 13.9733 18.3672 14C18.3939 14.0267 18.4205 14.04 18.4472 14.04L18.7672 14L19.1272 14.32C19.1272 14.32 19.2072 14.2933 19.3672 14.24L19.5672 14.16C19.6739 14.2133 19.7939 14.2667 19.9272 14.32C20.0605 14.3733 20.1939 14.4267 20.3272 14.48C20.4605 14.4267 20.6472 14.4267 20.8872 14.48L20.8472 14.68V14.72C20.8472 14.88 20.9939 14.96 21.2872 14.96H21.6072C21.6072 14.96 21.7805 15.28 22.1272 15.92L22.3672 15.84C22.4739 15.84 22.5405 15.88 22.5672 15.96L23.0072 17.48C22.9805 17.5333 22.9672 17.6267 22.9672 17.76C22.9672 17.8667 22.9672 17.9867 22.9672 18.12L23.0872 18.4C23.1405 18.56 23.1672 18.64 23.1672 18.64L23.0872 18.76C23.0605 18.7867 23.0472 18.8267 23.0472 18.88V19.48C23.0205 19.5067 22.9939 19.56 22.9672 19.64C22.9405 19.6933 22.9139 19.7733 22.8872 19.88C22.7272 19.9067 22.6472 19.96 22.6472 20.04C22.6472 20.12 22.7672 20.2667 23.0072 20.48C23.2205 20.6933 23.3272 20.8267 23.3272 20.88C23.3272 20.9333 23.2605 20.96 23.1272 20.96L23.0072 21.52C22.9805 21.5467 22.9405 21.6267 22.8872 21.76C22.8872 21.92 22.9672 22.2667 23.1272 22.8C23.0205 22.8533 22.9405 22.92 22.8872 23C22.8872 23 22.8872 23.1067 22.8872 23.32L22.9272 23.72C22.9272 23.7467 22.9272 23.8 22.9272 23.88C22.9272 23.9333 22.9139 24.0133 22.8872 24.12L22.8472 24.52H22.6472C22.4339 24.52 22.2605 24.4133 22.1272 24.2C22.0205 24.0133 21.9272 23.92 21.8472 23.92C21.8205 23.92 21.7405 24 21.6072 24.16C21.4472 24.32 21.3405 24.4 21.2872 24.4L20.8472 24.36C20.7139 24.3333 20.6072 24.3333 20.5272 24.36C20.4472 24.36 20.3939 24.36 20.3672 24.36L19.5272 24C19.3405 24.16 19.1272 24.24 18.8872 24.24C18.5939 24.24 18.3405 24.1467 18.1272 23.96C18.0739 24.0133 18.0472 24.0533 18.0472 24.08H17.4472C17.4205 24.08 17.4072 24.08 17.4072 24.08C17.4072 24.0533 17.3939 24.04 17.3672 24.04H17.2072C16.9672 24.04 16.7672 24.1867 16.6072 24.48V24.64C16.5805 24.6933 16.5405 24.7733 16.4872 24.88C16.4605 24.96 16.4205 25.0533 16.3672 25.16C16.3672 25.1867 16.3939 25.2267 16.4472 25.28L16.5272 25.44V25.52C16.5272 25.5467 16.5272 25.6 16.5272 25.68C16.5272 25.7333 16.5139 25.8133 16.4872 25.92C16.5139 26 16.5272 26.1333 16.5272 26.32C16.5272 26.4267 16.4605 26.52 16.3272 26.6L16.2472 27.92C16.4072 28.0533 16.4739 28.28 16.4472 28.6H16.9272C17.0872 28.6 17.2072 28.6533 17.2872 28.76C17.3672 28.8667 17.4205 28.92 17.4472 28.92L17.7272 28.8L18.0072 29C18.0872 29 18.1405 28.96 18.1672 28.88L18.4072 28.32V27.72L18.4472 27.12C18.4739 27.04 18.4872 26.9733 18.4872 26.92C18.5139 26.84 18.5272 26.7867 18.5272 26.76L18.4872 26.64C18.5405 26.5333 18.5672 26.4533 18.5672 26.4C18.5672 26.32 18.5672 26.2667 18.5672 26.24L18.4872 25.88C18.5939 25.6133 18.7272 25.48 18.8872 25.48C19.1005 25.5867 19.3939 25.68 19.7672 25.76L19.9672 25.68C20.0472 25.6533 20.1139 25.64 20.1672 25.64C20.2205 25.64 20.3139 25.7467 20.4472 25.96C20.7405 25.8533 20.8872 25.8 20.8872 25.8L21.2072 26H21.2872C21.6072 26 21.9139 25.8667 22.2072 25.6L22.8872 26.24C22.7539 26.48 22.6072 26.7867 22.4472 27.16C22.4205 27.2933 22.3805 27.4533 22.3272 27.64C22.3005 27.8267 22.2472 28.0267 22.1672 28.24C21.9805 28.32 21.8872 28.4267 21.8872 28.56C21.8872 28.6133 21.9272 28.7067 22.0072 28.84C22.0872 29 22.1272 29.1067 22.1272 29.16L22.0472 29.28C22.1005 29.4133 22.0872 29.5333 22.0072 29.64L21.8872 29.84C21.9139 29.8667 21.9272 29.92 21.9272 30C21.9272 30.24 21.7539 30.44 21.4072 30.6L21.3272 30.68C21.3539 30.7067 21.3672 30.7467 21.3672 30.8C21.3672 30.9867 21.2605 31.1067 21.0472 31.16C20.7539 31.24 20.5805 31.3067 20.5272 31.36C20.4739 31.44 20.3939 31.5333 20.2872 31.64C20.1805 31.7467 20.0605 31.8667 19.9272 32C19.3939 32.3467 19.0205 32.4933 18.8072 32.44L18.3272 32.32C18.1939 32.32 18.0605 32.36 17.9272 32.44C17.7939 32.52 17.6872 32.5467 17.6072 32.52L17.4472 32.48H17.2472C17.1405 32.48 17.0605 32.48 17.0072 32.48C16.9539 32.5067 16.9139 32.52 16.8872 32.52C16.9139 32.52 16.9272 32.52 16.9272 32.52ZM17.7272 15.68L17.8072 15.52L17.6872 15.44C17.6872 15.52 17.7005 15.6 17.7272 15.68ZM20.5272 17.04C20.6605 17.04 20.7405 16.96 20.7672 16.8L20.7272 16.28H20.6472C20.5672 16.28 20.5272 16.2133 20.5272 16.08C20.4739 15.9467 20.4072 15.88 20.3272 15.88C20.2205 15.8267 20.1405 15.8667 20.0872 16C20.0605 16.0267 20.0472 16.0667 20.0472 16.12C20.0739 16.1733 20.0872 16.2267 20.0872 16.28L20.1272 16.56L20.0072 16.68L20.5272 17.04ZM17.0072 17.56C17.2205 17.48 17.2205 17.3867 17.0072 17.28C16.9539 17.3333 16.9539 17.4267 17.0072 17.56ZM22.2072 17.52L22.1272 17.36L22.0072 17.44L22.2072 17.52ZM16.8872 21.16L17.2872 21.04L17.8472 20.88C18.0339 20.88 18.2339 20.8667 18.4472 20.84C18.6605 20.7867 18.9005 20.7333 19.1672 20.68L19.2872 20.2C19.3139 20.1733 19.3805 20.1333 19.4872 20.08C19.3805 19.9733 19.2872 19.8667 19.2072 19.76C19.1539 19.6533 19.1405 19.5467 19.1672 19.44L19.2072 19.16V18.92C19.2072 18.68 19.1005 18.48 18.8872 18.32C18.9139 18.24 18.9272 18.1333 18.9272 18C18.9272 17.7867 18.6872 17.6667 18.2072 17.64C18.1272 17.64 17.9805 17.72 17.7672 17.88L17.1272 18.32C17.2339 18.4 17.2472 18.5067 17.1672 18.64C17.1405 18.7467 17.0472 18.8 16.8872 18.8V18.92C16.9672 18.8667 17.0472 18.9067 17.1272 19.04C17.1805 19.1467 17.1939 19.2133 17.1672 19.24L17.0872 20.44C17.0872 20.52 17.0872 20.5867 17.0872 20.64C17.1139 20.6933 17.1272 20.72 17.1272 20.72C17.1272 20.8 17.0872 20.84 17.0072 20.84C16.9272 20.7867 16.8605 20.72 16.8072 20.64L16.6872 20.72L16.6472 20.96L16.8872 21.16ZM19.6872 18.72C19.7405 18.8 19.8205 18.8 19.9272 18.72C19.8472 18.48 19.7672 18.48 19.6872 18.72ZM17.1272 20.68C17.1272 20.7333 17.1272 20.7467 17.1272 20.72C17.1272 20.72 17.1272 20.7067 17.1272 20.68ZM13.6072 23.84C13.6872 23.7867 13.7939 23.64 13.9272 23.4L13.8872 23.28H13.8072C13.6739 23.28 13.5005 23.3467 13.2872 23.48C13.3672 23.6133 13.4739 23.7333 13.6072 23.84ZM21.2872 23.56C21.3139 23.48 21.3005 23.4133 21.2472 23.36C21.2205 23.3333 21.1539 23.3467 21.0472 23.4C21.0472 23.4533 21.1272 23.5067 21.2872 23.56ZM14.3672 28.92L14.6872 28.76L14.6472 28.6L14.4472 28.56L14.3672 28.64V28.6L14.3272 28.44L14.2072 28.4L14.1272 28.84L14.3672 28.92ZM17.4072 29.56C17.4339 29.5067 17.4205 29.4533 17.3672 29.4C17.3139 29.3467 17.2605 29.3467 17.2072 29.4C17.2072 29.4533 17.2739 29.5067 17.4072 29.56ZM28.5556 32.24L27.9956 32.08C27.9423 32.08 27.8756 32.0933 27.7956 32.12L27.5556 32.16C27.529 32.16 27.4623 32.1333 27.3556 32.08L27.1956 32C27.169 32 27.1556 32.0133 27.1556 32.04H27.0756C26.9156 32.0133 26.8223 31.9467 26.7956 31.84V31.4C26.7956 31.2933 26.7556 31.12 26.6756 30.88L26.9556 30.68C26.9023 30.52 26.8756 30.4 26.8756 30.32C26.7156 30.0533 26.6223 29.96 26.5956 30.04C26.649 29.8533 26.7423 29.7467 26.8756 29.72C27.009 29.6667 27.0756 29.5333 27.0756 29.32V29.12L26.7156 29.36C26.5556 29.2533 26.489 28.9067 26.5156 28.32C26.5423 28.0533 26.5423 27.84 26.5156 27.68L26.3156 27.28C26.3156 27.2 26.3156 27.1067 26.3156 27C26.3156 26.8667 26.3023 26.72 26.2756 26.56C26.3023 26.5333 26.3423 26.4667 26.3956 26.36C26.529 26.12 26.569 25.9733 26.5156 25.92L26.0756 24.52C26.0756 24.36 26.1156 24.2667 26.1956 24.24C26.3823 24.1067 26.489 24.0133 26.5156 23.96H26.1956C26.009 23.9067 25.9023 23.7467 25.8756 23.48C25.849 23.3733 25.8356 23.28 25.8356 23.2C25.8356 23.12 25.8356 23.0267 25.8356 22.92L25.7156 22.36L25.5556 22.04C25.5556 21.9333 25.5556 21.7067 25.5556 21.36C25.5556 20.9867 25.5423 20.4933 25.5156 19.88L25.4356 19.76C25.4623 19.7067 25.4756 19.5867 25.4756 19.4L25.1556 19.24C25.209 18.9467 25.249 18.68 25.2756 18.44C25.3023 18.1733 25.329 17.9067 25.3556 17.64C25.3023 17.6133 25.249 17.4267 25.1956 17.08C25.1423 16.7867 25.1156 16.64 25.1156 16.64L24.9156 16.68V16.52C24.9956 16.4667 25.0623 16.3733 25.1156 16.24C25.1156 16.1867 25.049 15.92 24.9156 15.44C24.889 15.36 24.8356 15.32 24.7556 15.32L24.7956 15.16C24.849 15.0533 24.8623 14.9867 24.8356 14.96C24.7023 14.88 24.6223 14.7867 24.5956 14.68C24.5156 14.3867 24.489 14.2 24.5156 14.12C24.5156 13.8533 24.5956 13.72 24.7556 13.72L25.3156 14H25.5156L25.7956 14.04C25.849 14.04 25.9156 14.04 25.9956 14.04C26.0756 14.04 26.169 14.0533 26.2756 14.08L26.5956 14.2C26.6223 14.2 26.7156 14.16 26.8756 14.08C27.0356 14 27.1423 13.96 27.1956 13.96L27.5556 14.08C27.769 14.16 27.889 14.2 27.9156 14.2L28.5156 14.16C28.5423 14.2133 28.529 14.3067 28.4756 14.44L28.3956 14.6C28.3956 14.6267 28.3956 14.68 28.3956 14.76C28.4223 14.8133 28.449 14.88 28.4756 14.96C28.5023 15.0667 28.5156 15.16 28.5156 15.24C28.5156 15.2933 28.5156 15.3467 28.5156 15.4C28.5156 15.56 28.4756 15.68 28.3956 15.76L28.6356 17.04C28.5823 17.0667 28.4356 17.08 28.1956 17.08C28.0356 17.1867 27.9556 17.3067 27.9556 17.44C27.9556 17.6 28.0623 17.76 28.2756 17.92C28.329 17.9733 28.369 18 28.3956 18L28.5156 17.92C28.5423 17.8933 28.5823 17.88 28.6356 17.88C28.689 17.9333 28.7156 18 28.7156 18.08L28.6356 18.36C28.7156 18.44 28.769 18.56 28.7956 18.72L28.7556 18.96C28.729 19.04 28.7156 19.12 28.7156 19.2L28.9156 19.4C28.9156 19.4533 28.889 19.5067 28.8356 19.56H28.7156C28.5823 19.56 28.4356 19.6 28.2756 19.68C28.2756 19.7333 28.2756 19.7867 28.2756 19.84C28.3023 19.8933 28.329 19.9467 28.3556 20L28.5156 20.04C28.5423 20.04 28.5823 20.0133 28.6356 19.96H28.7956C28.7956 20.0667 28.7823 20.1467 28.7556 20.2L28.6756 20.36L28.8756 21L29.0756 21.4C29.1556 21.5067 29.1956 21.6 29.1956 21.68C29.1956 21.7067 29.169 21.7467 29.1156 21.8C29.0356 21.8267 28.9956 21.8667 28.9956 21.92L29.1556 22.24C29.209 22.2933 29.2623 22.4133 29.3156 22.6L29.5156 22.28C29.5156 22.2267 29.5556 22.16 29.6356 22.08C29.9023 22.0533 30.0356 21.9733 30.0356 21.84C30.009 21.84 29.9956 21.8267 29.9956 21.8V21.6C30.049 21.4933 30.1023 21.3867 30.1556 21.28C30.2356 21.1733 30.3023 21.0667 30.3556 20.96L30.2756 20.6L30.1956 20.28L30.5156 19.92V19.36L30.7156 18.76C30.7156 18.76 30.689 18.7333 30.6356 18.68C30.6356 18.44 30.7156 18.1067 30.8756 17.68L30.9156 17.44L31.1556 17.16V16.08C31.289 16 31.3556 15.9333 31.3556 15.88V14.96C31.3823 14.5333 31.529 14.32 31.7956 14.32C32.2223 14.32 32.4356 14.44 32.4356 14.68L32.5556 14.72C32.5823 14.64 32.689 14.5333 32.8756 14.4C32.8756 14.4 32.9823 14.4667 33.1956 14.6C33.409 14.7333 33.5156 14.8 33.5156 14.8C33.5956 14.8267 33.7023 14.8 33.8356 14.72C33.9423 14.6667 33.9956 14.64 33.9956 14.64L34.1956 14.68C34.2756 14.68 34.3556 14.6667 34.4356 14.64L34.6356 14.6C34.689 14.6 34.7556 14.6133 34.8356 14.64L34.9956 14.72C35.049 14.72 35.089 14.7067 35.1156 14.68L35.2356 14.64C35.4223 14.64 35.5023 14.8133 35.4756 15.16C35.449 15.1867 35.409 15.24 35.3556 15.32C35.3023 15.4 35.249 15.4933 35.1956 15.6L34.9156 16.48C34.8356 16.5067 34.7823 16.5733 34.7556 16.68V17.16C34.649 17.2133 34.5556 17.28 34.4756 17.36L34.5556 17.52C34.5823 17.5733 34.5956 17.6267 34.5956 17.68L34.6356 18.24C34.609 18.4 34.5156 18.48 34.3556 18.48C34.3023 18.48 34.2356 18.4267 34.1556 18.32C33.969 18.4267 33.8756 18.5467 33.8756 18.68C33.8756 18.7867 33.9956 18.9467 34.2356 19.16C34.1023 19.3733 34.049 19.48 34.0756 19.48C33.9156 19.48 33.8356 19.52 33.8356 19.6C33.8356 19.68 33.9156 19.7867 34.0756 19.92L33.9156 20.44C33.8623 20.44 33.809 20.48 33.7556 20.56L33.4756 21.04L33.7156 21.84C33.7156 21.9733 33.689 22.0933 33.6356 22.2C33.5556 22.3867 33.4223 22.4933 33.2356 22.52C33.0756 22.5467 32.9556 22.6 32.8756 22.68C32.8756 22.68 32.849 22.7733 32.7956 22.96C32.769 23.04 32.729 23.08 32.6756 23.08H32.4356C32.4356 23.16 32.4623 23.2 32.5156 23.2C32.5156 23.1733 32.5556 23.16 32.6356 23.16C32.7423 23.16 32.7956 23.2 32.7956 23.28L32.7556 23.44C32.729 23.4933 32.7156 23.56 32.7156 23.64C32.7156 23.7467 32.7823 23.84 32.9156 23.92L32.8756 24.04L32.7556 24.16C32.7556 24.4267 32.6623 24.7467 32.4756 25.12C32.4756 25.1733 32.4623 25.24 32.4356 25.32C32.4356 25.4 32.4223 25.4933 32.3956 25.6C32.3156 25.68 32.2356 25.8 32.1556 25.96C32.209 26.0933 32.209 26.3067 32.1556 26.6C32.129 26.6267 32.1023 26.6533 32.0756 26.68C32.049 26.68 32.0223 26.7067 31.9956 26.76C31.8356 26.7067 31.7156 26.68 31.6356 26.68C31.4756 26.68 31.3956 26.72 31.3956 26.8C31.3956 26.9067 31.5556 27.0267 31.8756 27.16L31.8356 27.36C31.8356 27.4667 31.7556 27.5467 31.5956 27.6C31.3823 27.6533 31.2623 27.7467 31.2356 27.88C31.3156 27.88 31.409 27.92 31.5156 28C31.6756 28.2133 31.7423 28.4 31.7156 28.56L31.4756 28.88C31.4756 29.0133 31.4623 29.12 31.4356 29.2C31.3556 29.2267 31.249 29.3467 31.1156 29.56C31.0623 29.6667 31.009 29.76 30.9556 29.84C30.929 29.8933 30.889 29.9467 30.8356 30C30.7823 29.8933 30.7156 29.8133 30.6356 29.76C30.449 29.76 30.3556 29.84 30.3556 30L30.4356 30.4L30.7156 30.08C30.9023 30.1067 30.9956 30.2 30.9956 30.36C30.9956 30.5733 31.009 30.72 31.0356 30.8C30.9556 30.8267 30.849 30.88 30.7156 30.96C30.609 31.0133 30.489 31.0933 30.3556 31.2V31.28C30.4623 31.28 30.569 31.36 30.6756 31.52C30.7556 31.6533 30.7823 31.7733 30.7556 31.88C30.729 31.9333 30.609 32.0267 30.3956 32.16C30.129 32.2133 29.849 32.24 29.5556 32.24C29.2623 32.2667 28.929 32.2667 28.5556 32.24ZM27.6756 15C27.6756 14.9467 27.649 14.8933 27.5956 14.84C27.569 14.8133 27.5156 14.8267 27.4356 14.88C27.4356 14.96 27.5156 15 27.6756 15ZM34.5156 15.44L34.6756 15.36C34.6756 15.3067 34.6623 15.2667 34.6356 15.24C34.609 15.2667 34.569 15.3333 34.5156 15.44ZM25.9956 16.4C26.0223 16.3467 26.009 16.2933 25.9556 16.24C25.9023 16.1867 25.849 16.1867 25.7956 16.24C25.7956 16.2933 25.8623 16.3467 25.9956 16.4ZM32.8756 16.6C32.9556 16.6267 33.0223 16.6133 33.0756 16.56C33.1023 16.5333 33.089 16.4667 33.0356 16.36C32.9823 16.3867 32.929 16.4667 32.8756 16.6ZM31.3956 20.68C31.369 20.6533 31.3556 20.5733 31.3556 20.44L31.1156 20.48L31.1556 20.68H31.3956ZM27.1156 22.44C27.2756 22.44 27.3956 22.3867 27.4756 22.28C27.5556 22.12 27.6356 22.04 27.7156 22.04C27.769 22.04 27.849 22.0933 27.9556 22.2C28.0623 22.3067 28.129 22.36 28.1556 22.36C28.2623 22.3867 28.3556 22.3333 28.4356 22.2C28.409 22.0667 28.329 21.9467 28.1956 21.84L27.7156 21.68C27.6623 21.68 27.529 21.76 27.3156 21.92L27.1956 21.84C27.169 21.8133 27.129 21.8 27.0756 21.8C26.9956 21.8 26.9423 21.8133 26.9156 21.84C26.9156 21.92 26.889 22.0133 26.8356 22.12V22.16C26.8356 22.32 26.929 22.4133 27.1156 22.44ZM31.7956 24.48C31.8223 24.4267 31.809 24.3733 31.7556 24.32C31.7023 24.2667 31.649 24.2667 31.5956 24.32C31.5956 24.3733 31.6623 24.4267 31.7956 24.48ZM28.4756 24.48V24.44L28.2756 24.4V24.48H28.4756ZM28.5156 24.88L28.7156 24.84L28.6756 24.68C28.569 24.7067 28.5156 24.7733 28.5156 24.88ZM27.3556 25.84L27.2756 25.68C27.249 25.68 27.209 25.7067 27.1556 25.76H27.2356L27.3556 25.84ZM29.9156 28.6C30.209 28.52 30.409 28.48 30.5156 28.48V28.28L30.1956 28.2L29.9156 28.44V28.6ZM27.8756 31.56C27.769 31.3733 27.6756 31.28 27.5956 31.28L27.4756 31.4C27.5023 31.5067 27.6356 31.56 27.8756 31.56ZM39.9538 32.52C39.9004 32.52 39.8871 32.52 39.9138 32.52C39.8871 32.52 39.8338 32.4933 39.7538 32.44L39.5538 32.36C39.5004 32.3867 39.4338 32.4 39.3538 32.4C39.3004 32.4 39.2338 32.4133 39.1538 32.44L38.5938 32.12C38.5138 31.9333 38.4071 31.84 38.2738 31.84C38.2471 31.8133 38.2204 31.8133 38.1938 31.84C38.1671 31.8667 38.1138 31.88 38.0338 31.88C38.0338 31.88 37.9004 31.7733 37.6338 31.56L37.3138 31.44C37.2338 31.36 37.1404 31.2667 37.0338 31.16C36.9538 31.0533 36.8471 30.9333 36.7138 30.8L36.3938 30.56V30.48C36.3938 30.3733 36.3271 30.2133 36.1938 30C36.0604 29.8667 35.9538 29.76 35.8738 29.68C35.8204 29.5733 35.7804 29.5067 35.7538 29.48V29C35.8871 29.08 35.9671 29.0667 35.9938 28.96C36.0471 28.88 35.9938 28.8 35.8338 28.72C35.7271 28.64 35.6738 28.5733 35.6738 28.52V28.04C35.6738 27.96 35.6738 27.88 35.6738 27.8C35.6738 27.72 35.6604 27.64 35.6338 27.56C35.6071 27.4267 35.5804 27.3067 35.5538 27.2C35.5538 27.0667 35.5671 26.9467 35.5938 26.84L35.6738 26.44C35.6471 26.28 35.6338 26.12 35.6338 25.96C35.6338 25.7733 35.6338 25.5867 35.6338 25.4C35.6338 25.2933 35.6738 25.16 35.7538 25L35.8738 24.68C35.8471 24.4667 35.8204 24.24 35.7938 24C35.7671 23.7333 35.7404 23.4667 35.7138 23.2C35.7138 23.12 35.8204 22.8667 36.0338 22.44C36.0871 22.4133 36.1404 22.3867 36.1938 22.36C36.2471 22.3333 36.3004 22.2933 36.3538 22.24C36.3538 22.2133 36.2338 22.12 35.9938 21.96L35.8738 21.12C35.8738 20.9867 35.9271 20.9067 36.0338 20.88C36.1138 20.8267 36.1404 20.7333 36.1138 20.6L36.6338 20.24C36.6071 20.1333 36.5138 20.0667 36.3538 20.04C36.3271 20.04 36.2338 20.0667 36.0738 20.12C35.9938 20.0667 35.9538 20.0133 35.9538 19.96C35.9538 19.8 36.0338 19.6667 36.1938 19.56C36.3538 19.4267 36.4338 19.3467 36.4338 19.32L36.2338 18.64C36.2338 18.64 36.3404 18.4533 36.5538 18.08C36.7404 18.0533 36.8338 18 36.8338 17.92C36.8338 17.8667 36.7938 17.8 36.7138 17.72C36.6071 17.64 36.5538 17.5733 36.5538 17.52C36.5538 17.4933 36.5804 17.4533 36.6338 17.4C36.7138 17.24 36.7938 16.9467 36.8738 16.52L37.1138 16.28L37.2338 15.88C37.3938 15.8267 37.5804 15.7467 37.7938 15.64L38.3138 15C38.5804 14.6533 38.8071 14.4933 38.9938 14.52L39.1138 14.56C39.1138 14.5333 39.2204 14.4933 39.4338 14.44C40.0738 14.2267 40.4338 14.1333 40.5138 14.16L40.7138 14.2C40.8738 14.0933 40.9938 14 41.0738 13.92L41.2738 13.96C41.3271 13.96 41.3671 13.9733 41.3938 14C41.4204 14.0267 41.4471 14.04 41.4738 14.04L41.7938 14L42.1538 14.32C42.1538 14.32 42.2338 14.2933 42.3938 14.24L42.5938 14.16C42.7004 14.2133 42.8204 14.2667 42.9538 14.32C43.0871 14.3733 43.2204 14.4267 43.3538 14.48C43.4871 14.4267 43.6738 14.4267 43.9138 14.48L43.8738 14.68V14.72C43.8738 14.88 44.0204 14.96 44.3138 14.96H44.6338C44.6338 14.96 44.8071 15.28 45.1538 15.92L45.3938 15.84C45.5004 15.84 45.5671 15.88 45.5938 15.96L46.0338 17.48C46.0071 17.5333 45.9938 17.6267 45.9938 17.76C45.9938 17.8667 45.9938 17.9867 45.9938 18.12L46.1138 18.4C46.1671 18.56 46.1938 18.64 46.1938 18.64L46.1138 18.76C46.0871 18.7867 46.0738 18.8267 46.0738 18.88V19.48C46.0471 19.5067 46.0204 19.56 45.9938 19.64C45.9671 19.6933 45.9404 19.7733 45.9138 19.88C45.7538 19.9067 45.6738 19.96 45.6738 20.04C45.6738 20.12 45.7938 20.2667 46.0338 20.48C46.2471 20.6933 46.3538 20.8267 46.3538 20.88C46.3538 20.9333 46.2871 20.96 46.1538 20.96L46.0338 21.52C46.0071 21.5467 45.9671 21.6267 45.9138 21.76C45.9138 21.92 45.9938 22.2667 46.1538 22.8C46.0471 22.8533 45.9671 22.92 45.9138 23C45.9138 23 45.9138 23.1067 45.9138 23.32L45.9538 23.72C45.9538 23.7467 45.9538 23.8 45.9538 23.88C45.9538 23.9333 45.9404 24.0133 45.9138 24.12L45.8738 24.52H45.6738C45.4604 24.52 45.2871 24.4133 45.1538 24.2C45.0471 24.0133 44.9538 23.92 44.8738 23.92C44.8471 23.92 44.7671 24 44.6338 24.16C44.4738 24.32 44.3671 24.4 44.3138 24.4L43.8738 24.36C43.7404 24.3333 43.6338 24.3333 43.5538 24.36C43.4738 24.36 43.4204 24.36 43.3938 24.36L42.5538 24C42.3671 24.16 42.1538 24.24 41.9138 24.24C41.6204 24.24 41.3671 24.1467 41.1538 23.96C41.1004 24.0133 41.0738 24.0533 41.0738 24.08H40.4738C40.4471 24.08 40.4338 24.08 40.4338 24.08C40.4338 24.0533 40.4204 24.04 40.3938 24.04H40.2338C39.9938 24.04 39.7938 24.1867 39.6338 24.48V24.64C39.6071 24.6933 39.5671 24.7733 39.5138 24.88C39.4871 24.96 39.4471 25.0533 39.3938 25.16C39.3938 25.1867 39.4204 25.2267 39.4738 25.28L39.5538 25.44V25.52C39.5538 25.5467 39.5538 25.6 39.5538 25.68C39.5538 25.7333 39.5404 25.8133 39.5138 25.92C39.5404 26 39.5538 26.1333 39.5538 26.32C39.5538 26.4267 39.4871 26.52 39.3538 26.6L39.2738 27.92C39.4338 28.0533 39.5004 28.28 39.4738 28.6H39.9538C40.1138 28.6 40.2338 28.6533 40.3138 28.76C40.3938 28.8667 40.4471 28.92 40.4738 28.92L40.7538 28.8L41.0338 29C41.1138 29 41.1671 28.96 41.1938 28.88L41.4338 28.32V27.72L41.4738 27.12C41.5004 27.04 41.5138 26.9733 41.5138 26.92C41.5404 26.84 41.5538 26.7867 41.5538 26.76L41.5138 26.64C41.5671 26.5333 41.5938 26.4533 41.5938 26.4C41.5938 26.32 41.5938 26.2667 41.5938 26.24L41.5138 25.88C41.6204 25.6133 41.7538 25.48 41.9138 25.48C42.1271 25.5867 42.4204 25.68 42.7938 25.76L42.9938 25.68C43.0738 25.6533 43.1404 25.64 43.1938 25.64C43.2471 25.64 43.3404 25.7467 43.4738 25.96C43.7671 25.8533 43.9138 25.8 43.9138 25.8L44.2338 26H44.3138C44.6338 26 44.9404 25.8667 45.2338 25.6L45.9138 26.24C45.7804 26.48 45.6338 26.7867 45.4738 27.16C45.4471 27.2933 45.4071 27.4533 45.3538 27.64C45.3271 27.8267 45.2738 28.0267 45.1938 28.24C45.0071 28.32 44.9138 28.4267 44.9138 28.56C44.9138 28.6133 44.9538 28.7067 45.0338 28.84C45.1138 29 45.1538 29.1067 45.1538 29.16L45.0738 29.28C45.1271 29.4133 45.1138 29.5333 45.0338 29.64L44.9138 29.84C44.9404 29.8667 44.9538 29.92 44.9538 30C44.9538 30.24 44.7804 30.44 44.4338 30.6L44.3538 30.68C44.3804 30.7067 44.3938 30.7467 44.3938 30.8C44.3938 30.9867 44.2871 31.1067 44.0738 31.16C43.7804 31.24 43.6071 31.3067 43.5538 31.36C43.5004 31.44 43.4204 31.5333 43.3138 31.64C43.2071 31.7467 43.0871 31.8667 42.9538 32C42.4204 32.3467 42.0471 32.4933 41.8338 32.44L41.3538 32.32C41.2204 32.32 41.0871 32.36 40.9538 32.44C40.8204 32.52 40.7138 32.5467 40.6338 32.52L40.4738 32.48H40.2738C40.1671 32.48 40.0871 32.48 40.0338 32.48C39.9804 32.5067 39.9404 32.52 39.9138 32.52C39.9404 32.52 39.9538 32.52 39.9538 32.52ZM40.7538 15.68L40.8338 15.52L40.7138 15.44C40.7138 15.52 40.7271 15.6 40.7538 15.68ZM43.5538 17.04C43.6871 17.04 43.7671 16.96 43.7938 16.8L43.7538 16.28H43.6738C43.5938 16.28 43.5538 16.2133 43.5538 16.08C43.5004 15.9467 43.4338 15.88 43.3538 15.88C43.2471 15.8267 43.1671 15.8667 43.1138 16C43.0871 16.0267 43.0738 16.0667 43.0738 16.12C43.1004 16.1733 43.1138 16.2267 43.1138 16.28L43.1538 16.56L43.0338 16.68L43.5538 17.04ZM40.0338 17.56C40.2471 17.48 40.2471 17.3867 40.0338 17.28C39.9804 17.3333 39.9804 17.4267 40.0338 17.56ZM45.2338 17.52L45.1538 17.36L45.0338 17.44L45.2338 17.52ZM39.9138 21.16L40.3138 21.04L40.8738 20.88C41.0604 20.88 41.2604 20.8667 41.4738 20.84C41.6871 20.7867 41.9271 20.7333 42.1938 20.68L42.3138 20.2C42.3404 20.1733 42.4071 20.1333 42.5138 20.08C42.4071 19.9733 42.3138 19.8667 42.2338 19.76C42.1804 19.6533 42.1671 19.5467 42.1938 19.44L42.2338 19.16V18.92C42.2338 18.68 42.1271 18.48 41.9138 18.32C41.9404 18.24 41.9538 18.1333 41.9538 18C41.9538 17.7867 41.7138 17.6667 41.2338 17.64C41.1538 17.64 41.0071 17.72 40.7938 17.88L40.1538 18.32C40.2604 18.4 40.2738 18.5067 40.1938 18.64C40.1671 18.7467 40.0738 18.8 39.9138 18.8V18.92C39.9938 18.8667 40.0738 18.9067 40.1538 19.04C40.2071 19.1467 40.2204 19.2133 40.1938 19.24L40.1138 20.44C40.1138 20.52 40.1138 20.5867 40.1138 20.64C40.1404 20.6933 40.1538 20.72 40.1538 20.72C40.1538 20.8 40.1138 20.84 40.0338 20.84C39.9538 20.7867 39.8871 20.72 39.8338 20.64L39.7138 20.72L39.6738 20.96L39.9138 21.16ZM42.7138 18.72C42.7671 18.8 42.8471 18.8 42.9538 18.72C42.8738 18.48 42.7938 18.48 42.7138 18.72ZM40.1538 20.68C40.1538 20.7333 40.1538 20.7467 40.1538 20.72C40.1538 20.72 40.1538 20.7067 40.1538 20.68ZM36.6338 23.84C36.7138 23.7867 36.8204 23.64 36.9538 23.4L36.9138 23.28H36.8338C36.7004 23.28 36.5271 23.3467 36.3138 23.48C36.3938 23.6133 36.5004 23.7333 36.6338 23.84ZM44.3138 23.56C44.3404 23.48 44.3271 23.4133 44.2738 23.36C44.2471 23.3333 44.1804 23.3467 44.0738 23.4C44.0738 23.4533 44.1538 23.5067 44.3138 23.56ZM37.3938 28.92L37.7138 28.76L37.6738 28.6L37.4738 28.56L37.3938 28.64V28.6L37.3538 28.44L37.2338 28.4L37.1538 28.84L37.3938 28.92ZM40.4338 29.56C40.4604 29.5067 40.4471 29.4533 40.3938 29.4C40.3404 29.3467 40.2871 29.3467 40.2338 29.4C40.2338 29.4533 40.3004 29.5067 40.4338 29.56ZM49.3822 32.08L48.8622 31.92C48.7822 31.8667 48.7422 31.8133 48.7422 31.76C48.7955 31.68 48.7955 31.4133 48.7422 30.96C48.7689 30.9333 48.7822 30.8933 48.7822 30.84L48.9822 30.68C48.9822 30.6 48.9689 30.5333 48.9422 30.48L48.9022 30.32C48.9289 30.32 48.9822 30.2533 49.0622 30.12C49.0889 30.0133 49.1422 29.96 49.2222 29.96C49.3822 29.8267 49.4622 29.7067 49.4622 29.6C49.4622 29.28 49.3155 29.16 49.0222 29.24L48.8622 29.28C48.8889 29.2267 48.9022 29.1733 48.9022 29.12C48.9022 29.0667 48.9155 29 48.9422 28.92L48.7422 28.6C48.7422 28.5733 48.7422 28.5333 48.7422 28.48C48.7422 28.4267 48.7555 28.3467 48.7822 28.24L48.7422 28.08C48.7422 28.0533 48.7289 28.04 48.7022 28.04C48.6755 28.0133 48.6622 27.9867 48.6622 27.96L48.7822 27.56C48.8622 27.3467 48.9022 27.2267 48.9022 27.2L48.7822 26.96C48.7822 26.8267 48.7689 26.6533 48.7422 26.44C48.7422 26.2 48.7289 25.9467 48.7022 25.68L48.5422 25.24V25.12C48.5422 25.04 48.5555 24.9333 48.5822 24.8C48.6355 24.6667 48.6622 24.5067 48.6622 24.32V24.28C48.6622 24.2267 48.6489 24.1733 48.6222 24.12C48.6222 24.04 48.6089 23.9467 48.5822 23.84L48.7022 23.64C48.7022 23.6133 48.6889 23.5867 48.6622 23.56L48.5822 23.28C48.5289 23.1467 48.5422 23.0133 48.6222 22.88L48.7822 22.6L48.6622 22.44V22.16C48.6622 22.0533 48.6489 21.9467 48.6222 21.84C48.6222 21.7067 48.6222 21.5733 48.6222 21.44L48.4622 20.84C48.4889 20.76 48.5022 20.6667 48.5022 20.56C48.5022 20.4267 48.5155 20.2933 48.5422 20.16L48.7422 19.92C48.5555 19.8133 48.4355 19.6267 48.3822 19.36C48.3822 19.2533 48.4489 19.1333 48.5822 19C48.7155 18.92 48.7822 18.84 48.7822 18.76C48.7822 18.68 48.7422 18.56 48.6622 18.4L48.8222 18.28C48.7689 18.2533 48.7022 18.2133 48.6222 18.16C48.5422 18.1067 48.4489 18.0533 48.3422 18L48.6622 17.64C48.5022 17.56 48.4222 17.28 48.4222 16.8L48.1022 14.96V13.96C48.1022 13.8267 48.0889 13.76 48.0622 13.76L47.9822 13.48C47.9822 13.32 48.0089 13.16 48.0622 13C48.0622 12.9467 48.1022 12.9067 48.1822 12.88C48.2355 12.8267 48.2622 12.7867 48.2622 12.76C48.2622 12.76 48.2355 12.7067 48.1822 12.6C48.1022 12.52 48.0622 12.4667 48.0622 12.44C48.0889 12.3867 48.1022 12.2667 48.1022 12.08L48.3822 12.12C48.4089 12.04 48.4222 11.88 48.4222 11.64L48.1422 11.52C48.1689 11.4933 48.1822 11.4 48.1822 11.24L47.9822 9.48L48.1022 9.16L47.9422 8.96L47.8222 8.52C47.8222 8.33333 47.9289 8.09333 48.1422 7.8H48.3422C48.4489 7.98667 48.5422 8.08 48.6222 8.08C48.6755 8.08 48.7555 8.02666 48.8622 7.92C48.9689 7.81333 49.0489 7.76 49.1022 7.76L49.4222 7.92C49.6089 8.02666 49.7155 8.08 49.7422 8.08C49.7689 8.05333 49.7955 8.02667 49.8222 8C49.8489 7.97333 49.8889 7.94667 49.9422 7.92L50.1022 7.96C50.1555 7.98667 50.2089 8 50.2622 8C50.3155 8 50.4622 7.97333 50.7022 7.92C50.9422 7.84 51.0889 7.78667 51.1422 7.76C51.4355 7.76 51.6222 7.77333 51.7022 7.8C51.8089 7.82667 51.9555 8.05333 52.1422 8.48L51.9822 9.08C52.0355 9.21333 52.0755 9.38667 52.1022 9.6C52.1022 9.65333 52.1022 9.72 52.1022 9.8C52.1022 9.85333 52.0889 9.93333 52.0622 10.04L51.9822 10.4C51.9822 10.4267 51.9955 10.4667 52.0222 10.52C52.0489 10.5467 52.0755 10.6133 52.1022 10.72L52.1822 11.04C52.1822 11.0667 52.1822 11.1067 52.1822 11.16C52.1822 11.1867 52.1689 11.2533 52.1422 11.36C52.1422 11.44 52.0889 11.52 51.9822 11.6L52.2622 12.2C52.2622 12.2267 52.2222 12.3467 52.1422 12.56C52.2222 12.7467 52.2622 12.96 52.2622 13.2C52.2622 13.2 52.2355 13.28 52.1822 13.44C52.1289 13.5733 52.1155 13.6533 52.1422 13.68L52.3422 14.24C52.3955 14.5867 52.4355 14.8267 52.4622 14.96C52.4622 14.96 52.4222 15.0267 52.3422 15.16C52.2622 15.2667 52.2222 15.3467 52.2222 15.4C52.1689 15.4 52.0622 15.4267 51.9022 15.48C52.1155 15.7467 52.3155 16.1067 52.5022 16.56L52.3422 16.96C52.2355 17.2 52.1822 17.3867 52.1822 17.52C52.2355 17.5733 52.3022 17.6933 52.3822 17.88L52.4222 18.2C52.5022 18.28 52.5555 18.36 52.5822 18.44C52.5822 18.44 52.5422 18.5067 52.4622 18.64L52.2622 18.92C52.2355 18.9733 52.2222 19.0533 52.2222 19.16L52.5422 19.48L52.3822 19.72C52.4089 19.6933 52.4355 19.76 52.4622 19.92L52.4222 20.28L52.5422 20.6L52.3822 21.36L52.7422 21.96C52.7422 22.0133 52.7022 22.16 52.6222 22.4L52.4622 22.8C52.4622 22.8533 52.5422 23.2267 52.7022 23.92C52.5955 23.84 52.4755 23.8 52.3422 23.8C52.1555 23.8 52.0622 23.88 52.0622 24.04C52.0622 24.2267 52.1689 24.32 52.3822 24.32C52.4089 24.32 52.4622 24.36 52.5422 24.44L52.6622 24.52C52.6355 24.7067 52.6355 24.88 52.6622 25.04L52.7822 25.36C52.7822 25.36 52.7555 25.44 52.7022 25.6L52.6222 25.84C52.7289 25.9467 52.7955 26.0667 52.8222 26.2V26.44C52.7955 26.4667 52.7155 26.48 52.5822 26.48L52.6222 26.72V27C52.5155 26.9467 52.4222 26.96 52.3422 27.04V27.16L52.6622 27.12C52.7155 27.3867 52.7555 27.5733 52.7822 27.68L52.7022 27.92C52.6489 28.08 52.6222 28.16 52.6222 28.16C52.6222 28.24 52.6755 28.32 52.7822 28.4L52.9822 28.52C52.9022 28.6267 52.8889 28.8 52.9422 29.04C52.9422 29.0667 52.9155 29.1067 52.8622 29.16C52.8089 29.2133 52.7822 29.2667 52.7822 29.32L52.9822 30.52L53.0222 31.76C53.0222 31.92 52.9422 32 52.7822 32L52.6222 31.92C52.5689 31.8933 52.5289 31.88 52.5022 31.88C52.4755 31.8533 52.4489 31.84 52.4222 31.84C52.3689 31.8133 52.3022 31.8 52.2222 31.8C52.1422 31.8 52.0755 31.8 52.0222 31.8C51.7289 31.8 51.4889 31.8133 51.3022 31.84C51.1155 31.84 50.9955 31.8267 50.9422 31.8L50.7022 31.76C50.6489 31.7867 50.5822 31.8267 50.5022 31.88C50.4489 31.9067 50.3689 31.9467 50.2622 32H49.6622C49.6355 32.0267 49.5955 32.04 49.5422 32.04C49.4889 32.04 49.4355 32.0533 49.3822 32.08ZM49.5022 9.4C49.5289 9.37333 49.5555 9.36 49.5822 9.36C49.6089 9.36 49.6355 9.34667 49.6622 9.32C49.6622 9.29333 49.6355 9.25333 49.5822 9.2L49.5022 9.4ZM51.5022 16.32C51.5289 16.2933 51.5022 16.2533 51.4222 16.2C51.3689 16.2 51.3289 16.2133 51.3022 16.24C51.3555 16.2933 51.4222 16.32 51.5022 16.32ZM51.5822 16.96C51.6089 16.9067 51.5955 16.8533 51.5422 16.8C51.5155 16.7733 51.4489 16.7867 51.3422 16.84C51.3955 16.92 51.4755 16.96 51.5822 16.96ZM48.9822 20.84C49.0355 20.84 49.0889 20.8133 49.1422 20.76C49.1955 20.7067 49.1822 20.6533 49.1022 20.6C49.0222 20.6 48.9822 20.68 48.9822 20.84ZM51.0622 23.64H51.1822C51.3422 23.64 51.4622 23.5467 51.5422 23.36C51.6755 23.0933 51.7422 22.9867 51.7422 23.04C51.6889 22.8 51.4889 22.7333 51.1422 22.84C51.0089 22.8933 50.9022 22.9733 50.8222 23.08C50.7689 23.16 50.7422 23.2533 50.7422 23.36C50.7422 23.5467 50.8489 23.64 51.0622 23.64ZM49.9822 31.28C50.0089 31.2267 49.9955 31.1733 49.9422 31.12C49.9155 31.0667 49.8489 31.0933 49.7422 31.2C49.7955 31.28 49.8755 31.3067 49.9822 31.28ZM63.4634 32.08L62.9434 31.92C62.8634 31.8667 62.8234 31.8133 62.8234 31.76C62.8768 31.68 62.8768 31.4133 62.8234 30.96C62.8501 30.9333 62.8634 30.8933 62.8634 30.84L63.0634 30.68C63.0634 30.6 63.0501 30.5333 63.0234 30.48L62.9834 30.32C63.0101 30.32 63.0634 30.2533 63.1434 30.12C63.1701 30.0133 63.2234 29.96 63.3034 29.96C63.4634 29.8267 63.5434 29.7067 63.5434 29.6C63.5434 29.28 63.3968 29.16 63.1034 29.24L62.9434 29.28C62.9701 29.2267 62.9834 29.1733 62.9834 29.12C62.9834 29.0667 62.9968 29 63.0234 28.92L62.8234 28.6C62.8234 28.5733 62.8234 28.5333 62.8234 28.48C62.8234 28.4267 62.8368 28.3467 62.8634 28.24L62.8234 28.08C62.8234 28.0533 62.8101 28.04 62.7834 28.04C62.7568 28.0133 62.7434 27.9867 62.7434 27.96L62.8634 27.56C62.9434 27.3467 62.9834 27.2267 62.9834 27.2L62.8634 26.96C62.8634 26.8267 62.8501 26.6533 62.8234 26.44C62.8234 26.2 62.8101 25.9467 62.7834 25.68L62.6234 25.24V25.12C62.6234 25.04 62.6368 24.9333 62.6634 24.8C62.7168 24.6667 62.7434 24.5067 62.7434 24.32V24.28C62.7434 24.2267 62.7301 24.1733 62.7034 24.12C62.7034 24.04 62.6901 23.9467 62.6634 23.84L62.7834 23.64C62.7834 23.6133 62.7701 23.5867 62.7434 23.56L62.6634 23.28C62.6101 23.1467 62.6234 23.0133 62.7034 22.88L62.8634 22.6L62.7434 22.44V22.16C62.7434 22.0533 62.7301 21.9467 62.7034 21.84C62.7034 21.7067 62.7034 21.5733 62.7034 21.44L62.5434 20.84C62.5701 20.76 62.5834 20.6667 62.5834 20.56C62.5834 20.4267 62.5968 20.2933 62.6234 20.16L62.8234 19.92C62.6368 19.8133 62.5168 19.6267 62.4634 19.36C62.4634 19.2533 62.5301 19.1333 62.6634 19C62.7968 18.92 62.8634 18.84 62.8634 18.76C62.8634 18.68 62.8234 18.56 62.7434 18.4L62.9034 18.28C62.8501 18.2533 62.7834 18.2133 62.7034 18.16C62.6234 18.1067 62.5301 18.0533 62.4234 18L62.7434 17.64C62.5834 17.56 62.5034 17.28 62.5034 16.8L62.1834 14.96V13.96C62.1834 13.8267 62.1701 13.76 62.1434 13.76L62.0634 13.48C62.0634 13.32 62.0901 13.16 62.1434 13C62.1434 12.9467 62.1834 12.9067 62.2634 12.88C62.3168 12.8267 62.3434 12.7867 62.3434 12.76C62.3434 12.76 62.3168 12.7067 62.2634 12.6C62.1834 12.52 62.1434 12.4667 62.1434 12.44C62.1701 12.3867 62.1834 12.2667 62.1834 12.08L62.4634 12.12C62.4901 12.04 62.5034 11.88 62.5034 11.64L62.2234 11.52C62.2501 11.4933 62.2634 11.4 62.2634 11.24L62.0634 9.48L62.1834 9.16L62.0234 8.96L61.9034 8.52C61.9034 8.33333 62.0101 8.09333 62.2234 7.8H62.4234C62.5301 7.98667 62.6234 8.08 62.7034 8.08C62.7568 8.08 62.8368 8.02666 62.9434 7.92C63.0501 7.81333 63.1301 7.76 63.1834 7.76L63.5034 7.92C63.6901 8.02666 63.7968 8.08 63.8234 8.08C63.8501 8.05333 63.8768 8.02667 63.9034 8C63.9301 7.97333 63.9701 7.94667 64.0234 7.92L64.1834 7.96C64.2368 7.98667 64.2901 8 64.3434 8C64.3968 8 64.5434 7.97333 64.7834 7.92C65.0234 7.84 65.1701 7.78667 65.2234 7.76C65.5168 7.76 65.7034 7.77333 65.7834 7.8C65.8901 7.82667 66.0368 8.05333 66.2234 8.48L66.0634 9.08C66.1168 9.21333 66.1568 9.38667 66.1834 9.6C66.1834 9.65333 66.1834 9.72 66.1834 9.8C66.1834 9.85333 66.1701 9.93333 66.1434 10.04L66.0634 10.4C66.0634 10.4267 66.0768 10.4667 66.1034 10.52C66.1301 10.5467 66.1568 10.6133 66.1834 10.72L66.2634 11.04C66.2634 11.0667 66.2634 11.1067 66.2634 11.16C66.2634 11.1867 66.2501 11.2533 66.2234 11.36C66.2234 11.44 66.1701 11.52 66.0634 11.6L66.3434 12.2C66.3434 12.2267 66.3034 12.3467 66.2234 12.56C66.3034 12.7467 66.3434 12.96 66.3434 13.2C66.3434 13.2 66.3168 13.28 66.2634 13.44C66.2101 13.5733 66.1968 13.6533 66.2234 13.68L66.4234 14.24C66.4768 14.5867 66.5168 14.8267 66.5434 14.96C66.5434 14.96 66.5034 15.0267 66.4234 15.16C66.3434 15.2667 66.3034 15.3467 66.3034 15.4C66.2501 15.4 66.1434 15.4267 65.9834 15.48C66.1968 15.7467 66.3968 16.1067 66.5834 16.56L66.4234 16.96C66.3168 17.2 66.2634 17.3867 66.2634 17.52C66.3168 17.5733 66.3834 17.6933 66.4634 17.88L66.5034 18.2C66.5834 18.28 66.6368 18.36 66.6634 18.44C66.6634 18.44 66.6234 18.5067 66.5434 18.64L66.3434 18.92C66.3168 18.9733 66.3034 19.0533 66.3034 19.16L66.6234 19.48L66.4634 19.72C66.4901 19.6933 66.5168 19.76 66.5434 19.92L66.5034 20.28L66.6234 20.6L66.4634 21.36L66.8234 21.96C66.8234 22.0133 66.7834 22.16 66.7034 22.4L66.5434 22.8C66.5434 22.8533 66.6234 23.2267 66.7834 23.92C66.6768 23.84 66.5568 23.8 66.4234 23.8C66.2368 23.8 66.1434 23.88 66.1434 24.04C66.1434 24.2267 66.2501 24.32 66.4634 24.32C66.4901 24.32 66.5434 24.36 66.6234 24.44L66.7434 24.52C66.7168 24.7067 66.7168 24.88 66.7434 25.04L66.8634 25.36C66.8634 25.36 66.8368 25.44 66.7834 25.6L66.7034 25.84C66.8101 25.9467 66.8768 26.0667 66.9034 26.2V26.44C66.8768 26.4667 66.7968 26.48 66.6634 26.48L66.7034 26.72V27C66.5968 26.9467 66.5034 26.96 66.4234 27.04V27.16L66.7434 27.12C66.7968 27.3867 66.8368 27.5733 66.8634 27.68L66.7834 27.92C66.7301 28.08 66.7034 28.16 66.7034 28.16C66.7034 28.24 66.7568 28.32 66.8634 28.4L67.0634 28.52C66.9834 28.6267 66.9701 28.8 67.0234 29.04C67.0234 29.0667 66.9968 29.1067 66.9434 29.16C66.8901 29.2133 66.8634 29.2667 66.8634 29.32L67.0634 30.52L67.1034 31.76C67.1034 31.92 67.0234 32 66.8634 32L66.7034 31.92C66.6501 31.8933 66.6101 31.88 66.5834 31.88C66.5568 31.8533 66.5301 31.84 66.5034 31.84C66.4501 31.8133 66.3834 31.8 66.3034 31.8C66.2234 31.8 66.1568 31.8 66.1034 31.8C65.8101 31.8 65.5701 31.8133 65.3834 31.84C65.1968 31.84 65.0768 31.8267 65.0234 31.8L64.7834 31.76C64.7301 31.7867 64.6634 31.8267 64.5834 31.88C64.5301 31.9067 64.4501 31.9467 64.3434 32H63.7434C63.7168 32.0267 63.6768 32.04 63.6234 32.04C63.5701 32.04 63.5168 32.0533 63.4634 32.08ZM63.5834 9.4C63.6101 9.37333 63.6368 9.36 63.6634 9.36C63.6901 9.36 63.7168 9.34667 63.7434 9.32C63.7434 9.29333 63.7168 9.25333 63.6634 9.2L63.5834 9.4ZM65.5834 16.32C65.6101 16.2933 65.5834 16.2533 65.5034 16.2C65.4501 16.2 65.4101 16.2133 65.3834 16.24C65.4368 16.2933 65.5034 16.32 65.5834 16.32ZM65.6634 16.96C65.6901 16.9067 65.6768 16.8533 65.6234 16.8C65.5968 16.7733 65.5301 16.7867 65.4234 16.84C65.4768 16.92 65.5568 16.96 65.6634 16.96ZM63.0634 20.84C63.1168 20.84 63.1701 20.8133 63.2234 20.76C63.2768 20.7067 63.2634 20.6533 63.1834 20.6C63.1034 20.6 63.0634 20.68 63.0634 20.84ZM65.1434 23.64H65.2634C65.4234 23.64 65.5434 23.5467 65.6234 23.36C65.7568 23.0933 65.8234 22.9867 65.8234 23.04C65.7701 22.8 65.5701 22.7333 65.2234 22.84C65.0901 22.8933 64.9834 22.9733 64.9034 23.08C64.8501 23.16 64.8234 23.2533 64.8234 23.36C64.8234 23.5467 64.9301 23.64 65.1434 23.64ZM64.0634 31.28C64.0901 31.2267 64.0768 31.1733 64.0234 31.12C63.9968 31.0667 63.9301 31.0933 63.8234 31.2C63.8768 31.28 63.9568 31.3067 64.0634 31.28ZM73.5078 32.84C73.4811 32.7867 73.4411 32.7333 73.3878 32.68C73.3345 32.6533 73.2811 32.6133 73.2278 32.56C73.0678 32.4533 72.8945 32.3733 72.7078 32.32C72.6811 32.3467 72.6011 32.3867 72.4678 32.44L72.1878 32.32C72.0278 32.24 71.9211 32.2 71.8678 32.2L71.5078 32.28C71.4278 32.28 71.2411 32.16 70.9478 31.92C70.8145 31.7867 70.6945 31.6667 70.5878 31.56C70.5078 31.4533 70.4545 31.36 70.4278 31.28C70.4278 31.2533 70.4011 31.24 70.3478 31.24L70.1878 31.28C70.1345 31.28 70.0811 31.24 70.0278 31.16C70.0011 31.1067 69.9745 31.04 69.9478 30.96C69.9211 30.8533 69.8811 30.7467 69.8278 30.64C69.8011 30.5867 69.6811 30.4933 69.4678 30.36C69.4411 30.36 69.4011 30.28 69.3478 30.12C69.2411 30.0933 69.1878 30.04 69.1878 29.96L69.3078 29.76C69.3611 29.68 69.3878 29.5867 69.3878 29.48C69.3878 29.3467 69.3345 29.2267 69.2278 29.12C69.0945 28.9333 69.0278 28.7867 69.0278 28.68C69.0811 28.6267 69.1211 28.56 69.1478 28.48C69.1745 28.3733 69.2145 28.2667 69.2678 28.16C69.2678 28.16 69.2145 28.0667 69.1078 27.88C68.9211 27.5867 68.8411 27.3467 68.8678 27.16C68.8678 27.1333 68.9745 27.0133 69.1878 26.8L68.9478 26.6C68.9478 26.5733 68.9345 26.5467 68.9078 26.52V26.12C68.9078 26.0667 68.9078 26.0133 68.9078 25.96C68.9078 25.9067 68.9211 25.84 68.9478 25.76L69.1478 25.52C69.0945 25.36 69.0945 25.2133 69.1478 25.08C69.1745 25.0533 69.2011 25.0267 69.2278 25C69.2545 24.9733 69.2811 24.9467 69.3078 24.92C69.2811 24.8933 69.2145 24.88 69.1078 24.88L69.0278 24.24V24.12C69.0278 23.8 69.1078 23.6667 69.2678 23.72L69.5478 23.76L69.6278 23.72C69.6011 23.6133 69.4945 23.5333 69.3078 23.48C69.1745 23.4267 69.1078 23.3733 69.1078 23.32L69.2678 22.32C69.3211 22.32 69.3611 22.2667 69.3878 22.16L69.3078 21.88C69.2545 21.64 69.2145 21.5067 69.1878 21.48C69.2411 21.4267 69.3078 21.3733 69.3878 21.32C69.4678 21.2667 69.5345 21.1867 69.5878 21.08C69.5878 21.0533 69.5078 20.9067 69.3478 20.64C69.2678 20.5067 69.2278 20.3467 69.2278 20.16C69.2811 20.1067 69.3211 20.0267 69.3478 19.92C69.4011 19.8133 69.4545 19.6933 69.5078 19.56C69.5078 19.3733 69.5078 19.1733 69.5078 18.96C69.5345 18.72 69.5611 18.4533 69.5878 18.16C69.6678 18.08 69.7211 18 69.7478 17.92C69.8278 17.44 69.8545 17.1067 69.8278 16.92C69.9345 16.9467 70.0278 16.92 70.1078 16.84L70.1478 16.52C70.3078 16.4667 70.3878 16.3733 70.3878 16.24C70.4411 16 70.4678 15.88 70.4678 15.88C70.8945 15.3733 71.1611 15.12 71.2678 15.12H71.3078V15.16H71.3878C71.4411 15.16 71.4811 15.1067 71.5078 15L71.9478 14.84C72.3745 15.1867 72.5878 15.2933 72.5878 15.16V14.92C72.5878 14.8667 72.5745 14.8133 72.5478 14.76C72.5478 14.7067 72.5478 14.6667 72.5478 14.64V14.48C72.8678 14.24 73.0545 14.12 73.1078 14.12L73.3478 14.2L73.7878 14.12C74.0011 14.4133 74.1611 14.56 74.2678 14.56C74.3478 14.56 74.4411 14.5067 74.5478 14.4C74.6811 14.24 74.7611 14.16 74.7878 14.16L75.1078 13.92C75.1078 14.0267 75.1611 14.1333 75.2678 14.24L75.5478 14.04C75.5745 14.1467 75.6811 14.2667 75.8678 14.4L76.0278 14.36H76.1878L76.3478 14.24C76.4011 14.2667 76.4811 14.2933 76.5878 14.32C76.6945 14.3467 76.8011 14.3733 76.9078 14.4C76.9878 14.6667 77.2145 14.8267 77.5878 14.88L77.6678 15.04C77.6945 15.0133 77.7745 15 77.9078 15C77.9878 15 78.0278 15.0267 78.0278 15.08L78.3478 15.76C78.4011 15.7067 78.4545 15.68 78.5078 15.68C78.6411 15.68 78.7211 15.76 78.7478 15.92L78.8678 16.44L79.1478 16.6C79.2011 16.6533 79.2411 16.84 79.2678 17.16C79.2945 17.2133 79.3211 17.28 79.3478 17.36C79.3745 17.4133 79.4011 17.4933 79.4278 17.6C79.4011 17.68 79.3878 17.88 79.3878 18.2L79.5878 18.44C79.7211 18.5467 79.7745 18.6667 79.7478 18.8L79.7078 19.04C79.6811 19.0667 79.6278 19.0933 79.5478 19.12C79.4945 19.1467 79.4411 19.1867 79.3878 19.24C79.3078 19.32 79.2145 19.3467 79.1078 19.32C79.0811 19.3467 79.0678 19.4 79.0678 19.48C79.2278 19.64 79.3878 19.7467 79.5478 19.8L79.4678 20.16C79.4678 20.16 79.4145 20.1867 79.3078 20.24C79.2278 20.32 79.1611 20.36 79.1078 20.36C78.9745 20.4933 78.9078 20.6133 78.9078 20.72C78.9078 20.88 79.0811 21.0133 79.4278 21.12L79.5078 21.4C79.4811 21.4267 79.4411 21.5333 79.3878 21.72V21.88C79.3878 21.96 79.3878 22.0533 79.3878 22.16C79.3878 22.24 79.4011 22.3467 79.4278 22.48L79.1078 22.64C79.1345 22.6667 79.1611 22.72 79.1878 22.8C79.2145 22.88 79.2545 22.9733 79.3078 23.08C79.4145 23.2133 79.4678 23.3067 79.4678 23.36L79.3878 23.96C79.3345 23.9067 79.2545 23.88 79.1478 23.88H79.0278L78.9478 24.04C78.9478 24.04 79.0145 24.1333 79.1478 24.32C79.2811 24.5067 79.3478 24.6133 79.3478 24.64C79.3478 24.7733 79.2945 24.8533 79.1878 24.88C79.0545 24.9333 78.9878 25.0133 78.9878 25.12C78.9878 25.0933 79.0278 25.1733 79.1078 25.36C79.1611 25.3867 79.1611 25.4667 79.1078 25.6C79.1078 25.6 79.0811 25.6267 79.0278 25.68C79.0811 26.0267 79.1211 26.32 79.1478 26.56C79.1745 26.7733 79.1878 26.9067 79.1878 26.96C79.1611 27.04 79.1345 27.1467 79.1078 27.28C79.0811 27.3867 79.0411 27.5067 78.9878 27.64L79.0678 27.96L79.0278 29.28L78.5478 30.08L78.3878 30.68C78.3345 30.7333 78.2811 30.76 78.2278 30.76C78.2011 30.7333 78.1611 30.72 78.1078 30.72C78.0545 30.72 77.9611 30.7733 77.8278 30.88V31.28C77.2145 31.8667 76.8678 32.1467 76.7878 32.12L76.6278 32.08C76.6545 32.08 76.3078 32.2 75.5878 32.44C75.5611 32.4667 75.5345 32.4933 75.5078 32.52C75.4811 32.5733 75.4411 32.64 75.3878 32.72H75.2678L74.9878 32.64C74.9078 32.64 74.6411 32.6933 74.1878 32.8L73.8278 32.68C73.8278 32.68 73.7211 32.7333 73.5078 32.84ZM71.8678 16.48C71.8945 16.48 71.8678 16.4267 71.7878 16.32L71.6678 16.4C71.6945 16.4267 71.7211 16.44 71.7478 16.44C71.8011 16.44 71.8411 16.4533 71.8678 16.48ZM76.5878 16.8L76.7478 16.68C76.7211 16.5733 76.6545 16.5333 76.5478 16.56L76.5878 16.8ZM71.8678 17.12C71.8945 17.0667 71.8811 17.0133 71.8278 16.96C71.7745 16.9067 71.7211 16.9067 71.6678 16.96C71.6678 17.0133 71.7345 17.0667 71.8678 17.12ZM73.9478 29.24C73.9745 29.2133 74.1211 29.1333 74.3878 29C74.6011 28.92 74.6945 28.88 74.6678 28.88H74.6278C74.6545 28.88 74.6678 28.88 74.6678 28.88L74.9078 28.96C74.9611 28.96 75.0278 28.9067 75.1078 28.8C74.9745 28.6133 74.9078 28.4667 74.9078 28.36L74.9878 28C75.0411 27.9467 75.0811 27.92 75.1078 27.92L75.1878 28C75.1611 28.08 75.1611 28.1733 75.1878 28.28L75.3478 28.16V27.92L75.0678 27.36C75.1745 27.3067 75.2811 27.2267 75.3878 27.12C75.2545 26.8 75.2011 26.5467 75.2278 26.36L75.2678 26.08C75.2945 25.9733 75.3078 25.8933 75.3078 25.84C75.3078 25.76 75.3078 25.7067 75.3078 25.68C75.3611 25.6267 75.4411 25.5867 75.5478 25.56C75.7611 25.5067 75.8678 25.36 75.8678 25.12C75.8678 25.0667 75.8278 25.04 75.7478 25.04C75.6945 25.04 75.6278 24.9867 75.5478 24.88C75.5211 24.8533 75.4678 24.84 75.3878 24.84C75.2545 24.6267 75.1878 24.4667 75.1878 24.36C75.2411 23.9867 75.2811 23.8267 75.3078 23.88C75.3878 23.88 75.4278 23.6667 75.4278 23.24C75.4811 22.84 75.4811 22.5733 75.4278 22.44C75.3745 22.2267 75.3345 22.12 75.3078 22.12V22.16C75.3078 22.1333 75.3078 22.12 75.3078 22.12C75.3345 22.0133 75.3611 21.88 75.3878 21.72C75.4145 21.5333 75.4411 21.3333 75.4678 21.12C75.4945 21.0933 75.5211 21.0667 75.5478 21.04C75.6011 21.0133 75.6411 20.9867 75.6678 20.96C75.7478 20.88 75.7878 20.8133 75.7878 20.76L75.6678 20.6C75.5611 20.4933 75.5078 20.3333 75.5078 20.12C75.5878 20.04 75.6411 19.9467 75.6678 19.84L75.7078 19.28C75.7611 19.2267 75.8011 19.1467 75.8278 19.04C75.8278 19.0133 75.8278 18.9733 75.8278 18.92C75.8278 18.8667 75.8011 18.8133 75.7478 18.76L75.6278 18.56C75.6545 18.16 75.6811 17.9733 75.7078 18L75.5478 17.96C75.4945 17.9333 75.4411 17.92 75.3878 17.92C75.3611 17.92 75.3478 17.9067 75.3478 17.88C75.2411 17.7467 75.1611 17.7067 75.1078 17.76L74.8278 17.84C74.6945 17.84 74.5478 17.7333 74.3878 17.52H74.2278L74.1478 17.8C74.0945 17.96 74.0145 18.0267 73.9078 18L73.5878 18.08C73.7478 18.1067 73.8278 18.1867 73.8278 18.32L73.5878 19.12C73.6145 19.0933 73.6411 19.2133 73.6678 19.48V19.6C73.6678 19.8667 73.6145 20.2133 73.5078 20.64C73.4278 20.72 73.3745 20.8 73.3478 20.88V21.24C73.3478 21.32 73.3478 21.4 73.3478 21.48C73.3745 21.56 73.3745 21.6533 73.3478 21.76C73.3478 21.8133 73.3345 21.8667 73.3078 21.92C73.3078 21.9733 73.3078 22.0267 73.3078 22.08C73.3078 22.24 73.3478 22.36 73.4278 22.44C73.5078 22.7333 73.5345 23.04 73.5078 23.36C73.4545 23.4133 73.4011 23.4933 73.3478 23.6C73.2945 23.68 73.2411 23.7733 73.1878 23.88L73.3878 24.36C73.3878 24.4133 73.3745 24.4533 73.3478 24.48C73.1878 24.48 73.0811 24.4933 73.0278 24.52C73.1878 24.7867 73.2678 24.9467 73.2678 25L73.1478 25.52C73.1211 25.5467 73.0945 25.5733 73.0678 25.6C73.0411 25.6267 73.0145 25.6667 72.9878 25.72V25.76L73.1078 26.24C73.1078 26.4267 72.9745 26.48 72.7078 26.4V26.56C72.8411 26.6133 72.9878 26.7333 73.1478 26.92C73.1211 27.1067 73.1078 27.3333 73.1078 27.6C73.1078 27.84 73.1078 28.1067 73.1078 28.4C73.1611 28.48 73.2545 28.6533 73.3878 28.92C73.4411 28.92 73.5478 28.9467 73.7078 29C73.6811 29.08 73.6811 29.16 73.7078 29.24H73.9478ZM71.3878 20.92L71.7078 20.8C71.7878 20.6667 71.8278 20.52 71.8278 20.36C71.8811 20.3067 71.8545 20.24 71.7478 20.16L71.5078 20.36H71.4278C71.3478 20.2 71.2545 20.12 71.1478 20.12C71.0411 20.12 70.9878 20.2 70.9878 20.36C70.9878 20.52 71.0145 20.6267 71.0678 20.68L71.3878 20.92ZM77.1878 23.8L77.3078 23.72C77.3078 23.6667 77.2945 23.6267 77.2678 23.6L77.1878 23.8ZM70.8278 25.64L70.7878 25.2C70.7345 25.2533 70.6811 25.3467 70.6278 25.48C70.6278 25.5333 70.6945 25.5867 70.8278 25.64ZM77.4678 28.92C77.5745 28.9733 77.6411 28.96 77.6678 28.88C77.6411 28.8533 77.6145 28.8267 77.5878 28.8C77.5878 28.7733 77.5611 28.7467 77.5078 28.72L77.4678 28.92ZM78.3878 29.4C78.4678 29.2933 78.4811 29.2133 78.4278 29.16L78.1478 29.2C78.1745 29.2267 78.1745 29.2933 78.1478 29.4H78.3878ZM71.0278 31.4C71.1078 31.4 71.1878 31.36 71.2678 31.28V31L71.0278 30.88C70.8945 30.88 70.8278 30.9733 70.8278 31.16C70.8011 31.32 70.8678 31.4 71.0278 31.4ZM86.4619 32.6L86.1819 32.52C86.0219 32.44 85.9152 32.4 85.8619 32.4L85.5819 32.44H85.4619C85.4885 32.44 85.4352 32.4267 85.3019 32.4C85.1685 32.4 84.9152 32.36 84.5419 32.28C84.4352 32.0933 84.3285 32 84.2219 32L84.0219 32.04C83.9952 32.04 83.9685 32.04 83.9419 32.04C83.9152 32.0667 83.8885 32.08 83.8619 32.08C83.7552 32.08 83.6352 32.0133 83.5019 31.88C83.4485 31.8267 83.3819 31.76 83.3019 31.68C83.2219 31.5733 83.1152 31.4667 82.9819 31.36C82.5552 31.2533 82.2752 31.0667 82.1419 30.8C82.1419 30.64 82.1019 30.5467 82.0219 30.52C81.9152 30.4933 81.8619 30.4133 81.8619 30.28C81.8619 30.12 81.9152 29.88 82.0219 29.56L81.4219 29.32L81.2219 28.52C81.1685 28.3867 81.0885 28.24 80.9819 28.08C80.9019 27.8933 80.7952 27.6933 80.6619 27.48V27.24C80.6619 27.08 80.6885 26.9733 80.7419 26.92C80.7685 26.8933 80.8485 26.88 80.9819 26.88H81.1019C81.1285 26.88 81.1419 26.8933 81.1419 26.92C81.1419 26.92 81.1552 26.92 81.1819 26.92L81.3819 26.8C81.4085 26.7733 81.5152 26.76 81.7019 26.76L81.8619 26.8C81.8885 26.8 81.9019 26.8133 81.9019 26.84C81.9285 26.84 81.9552 26.84 81.9819 26.84L82.4619 26.68L82.5819 26.56C82.6885 26.5067 82.8219 26.4667 82.9819 26.44C83.1419 26.4133 83.3552 26.3867 83.6219 26.36L83.7419 26.4C83.7152 26.4 83.7019 26.4933 83.7019 26.68C83.7019 26.8133 83.7819 26.88 83.9419 26.88C83.9685 26.88 84.1152 26.72 84.3819 26.4C84.4352 26.56 84.4619 26.8267 84.4619 27.2C84.4619 27.3867 84.5152 27.52 84.6219 27.6C84.7019 27.7333 84.7285 27.8667 84.7019 28C84.7019 28.0533 84.7285 28.08 84.7819 28.08C84.5685 28.08 84.4619 28.1333 84.4619 28.24C84.4619 28.4267 84.5552 28.52 84.7419 28.52C84.7952 28.52 84.8885 28.4133 85.0219 28.2C85.0485 28.2533 85.1285 28.4 85.2619 28.64C85.3419 28.72 85.6219 28.88 86.1019 29.12C86.3152 29.2 86.5952 29.24 86.9419 29.24C87.0485 29.24 87.1685 29.1333 87.3019 28.92C87.4885 28.92 87.6619 28.7867 87.8219 28.52C87.7952 28.5467 87.7685 28.56 87.7419 28.56C87.7419 28.5333 87.7285 28.52 87.7019 28.52C87.7019 28.4933 87.7019 28.4667 87.7019 28.44C87.7019 28.36 87.7152 28.28 87.7419 28.2C87.7952 28.0933 87.8352 27.9867 87.8619 27.88C87.8085 27.8267 87.7419 27.7467 87.6619 27.64C87.6085 27.5067 87.5419 27.36 87.4619 27.2C87.5952 27.0667 87.5685 26.92 87.3819 26.76L86.9819 26.48L87.0619 26.04C86.9819 25.9067 86.6619 25.8 86.1019 25.72L85.9419 25.4C85.8085 25.2667 85.6219 25.12 85.3819 24.96C85.3019 24.96 85.1819 24.92 85.0219 24.84C84.9952 24.8133 84.9685 24.7867 84.9419 24.76C84.9152 24.7067 84.8752 24.6667 84.8219 24.64C84.7952 24.6133 84.7152 24.6 84.5819 24.6C84.5019 24.5467 84.3819 24.4267 84.2219 24.24L84.1819 23.92C84.1019 23.92 83.9552 23.8933 83.7419 23.84C83.5285 23.76 83.3685 23.6667 83.2619 23.56L82.9819 23.08C82.7419 22.8667 82.5152 22.64 82.3019 22.4C81.9552 22.0533 81.7685 21.7733 81.7419 21.56L81.9819 21.28C81.9552 21.28 81.8885 21.28 81.7819 21.28C81.7019 21.28 81.6085 21.1867 81.5019 21V20.72C81.4485 20.5333 81.3952 20.4267 81.3419 20.4C81.3152 20.3467 81.3019 20.3067 81.3019 20.28L81.3419 20.12V19.44C81.3685 19.4667 81.4085 19.48 81.4619 19.48C81.5952 19.48 81.6619 19.4 81.6619 19.24C81.6619 19.0533 81.5285 18.96 81.2619 18.96C81.5552 18.7467 81.7019 18.5467 81.7019 18.36C81.7019 18.1733 81.5685 18 81.3019 17.84C81.2752 17.7067 81.3152 17.5867 81.4219 17.48L81.7419 17.32C81.7685 17.2667 81.7952 17.2133 81.8219 17.16C81.8752 17.08 81.9419 16.9867 82.0219 16.88C81.9952 16.8267 81.9685 16.76 81.9419 16.68C81.9419 16.6 81.9419 16.5333 81.9419 16.48C81.9419 16.32 81.9685 16.2 82.0219 16.12C82.0485 16.0933 82.0885 16.08 82.1419 16.08C82.1952 16.08 82.2619 16.0667 82.3419 16.04L82.5019 15.72C82.9019 15.72 83.0352 15.5733 82.9019 15.28H82.9419C83.0219 15.28 83.1152 15.16 83.2219 14.92C83.2752 14.92 83.4219 14.84 83.6619 14.68C83.7685 14.5733 83.9152 14.52 84.1019 14.52H84.2219C84.2485 14.52 84.2619 14.5333 84.2619 14.56C84.2885 14.56 84.3152 14.56 84.3419 14.56L84.5019 14.52C84.5019 14.4667 84.5419 14.4 84.6219 14.32C84.8352 14.16 84.9952 14.08 85.1019 14.08L85.4219 14.16L85.5419 14.12H85.6619C86.0619 14.12 86.3552 14.2133 86.5419 14.4L86.5019 14.6H86.5819C86.6085 14.6 86.6885 14.5333 86.8219 14.4C86.9285 14.2933 87.0352 14.24 87.1419 14.24C87.3019 14.24 87.4352 14.28 87.5419 14.36C87.6752 14.44 87.7552 14.48 87.7819 14.48L88.1019 14.4C88.2085 14.3733 88.2752 14.36 88.3019 14.36C88.3552 14.36 88.3952 14.36 88.4219 14.36C88.5019 14.36 88.5819 14.3733 88.6619 14.4L88.8219 14.48C88.8485 14.5333 88.9419 14.64 89.1019 14.8H89.1419C89.3019 14.8 89.5552 14.88 89.9019 15.04C90.0885 15.1733 90.2352 15.3733 90.3419 15.64L90.7019 16.36C90.7019 16.5733 90.7419 16.8667 90.8219 17.24C90.8752 17.2933 90.9419 17.3733 91.0219 17.48C91.1019 17.56 91.1952 17.6667 91.3019 17.8C91.3019 17.8267 91.2885 17.88 91.2619 17.96C91.2619 18.0133 91.2485 18.08 91.2219 18.16C91.3019 18.24 91.3685 18.3733 91.4219 18.56C91.4485 18.64 91.4752 18.7067 91.5019 18.76C91.5285 18.8133 91.5552 18.8667 91.5819 18.92V19.12L90.8619 19.4C90.4619 19.5067 90.1152 19.5867 89.8219 19.64C89.5552 19.6933 89.3285 19.72 89.1419 19.72L89.0219 19.68C88.9952 19.68 88.9685 19.68 88.9419 19.68C88.9419 19.6533 88.9285 19.64 88.9019 19.64C88.8485 19.64 88.7819 19.68 88.7019 19.76L88.5419 19.92C88.3019 20 88.1152 20.04 87.9819 20.04C87.8752 20.04 87.7552 19.92 87.6219 19.68C87.5152 19.4933 87.4619 19.36 87.4619 19.28C87.4619 18.3733 87.4352 17.9467 87.3819 18C87.1152 17.84 86.9285 17.8 86.8219 17.88H86.7819L86.4219 17.72C86.3152 17.6667 86.2219 17.64 86.1419 17.64C86.0885 17.6133 86.0485 17.6 86.0219 17.6L85.8219 17.64C85.7419 17.6667 85.6752 17.68 85.6219 17.68C85.5685 17.68 85.5152 17.68 85.4619 17.68L85.3819 18.04C85.3285 18.0667 85.2219 18.16 85.0619 18.32L84.9419 18.84C85.0752 18.8667 85.1685 18.96 85.2219 19.12C85.2752 19.36 85.3019 19.48 85.3019 19.48C85.2752 19.5067 85.1152 19.5467 84.8219 19.6C84.7685 19.6 84.7152 19.6267 84.6619 19.68C84.6885 19.76 84.8752 19.8267 85.2219 19.88C85.3019 19.96 85.3552 20.0933 85.3819 20.28L85.8219 20.36C85.8219 20.4667 85.8752 20.5867 85.9819 20.72C86.0085 20.72 86.0752 20.7467 86.1819 20.8C86.2352 20.9067 86.3152 21.0133 86.4219 21.12C86.5552 21.12 86.6752 21.16 86.7819 21.24C86.9152 21.3733 86.9819 21.4933 86.9819 21.6H86.9019C86.8219 21.6 86.7152 21.64 86.5819 21.72V21.88C86.6352 21.9333 86.7019 21.9867 86.7819 22.04C86.8885 22.0667 87.0085 22.0667 87.1419 22.04L87.2619 22H87.3819L87.5419 22.12C87.7019 22.1467 87.8219 22.16 87.9019 22.16C87.9819 22.16 88.0352 22.16 88.0619 22.16C88.2752 22.2133 88.4219 22.2933 88.5019 22.4C88.5819 22.6133 88.7152 22.8267 88.9019 23.04L89.3019 23.16C89.4352 23.24 89.5285 23.36 89.5819 23.52C89.9819 23.8667 90.1819 24.12 90.1819 24.28V24.36L90.6619 24.84C90.6619 24.8933 90.6619 24.96 90.6619 25.04C90.6885 25.12 90.7152 25.2133 90.7419 25.32C90.7952 25.3467 90.8485 25.3733 90.9019 25.4C90.9552 25.4267 91.0085 25.4667 91.0619 25.52C91.2219 25.7067 91.3019 25.8533 91.3019 25.96L91.2219 26.16C91.1952 26.2133 91.1685 26.2533 91.1419 26.28C91.1419 26.3067 91.1419 26.3333 91.1419 26.36C91.1419 26.44 91.2352 26.6267 91.4219 26.92C91.4219 26.92 91.3952 26.9867 91.3419 27.12L91.4219 27.48L91.5019 27.76L91.3819 28.16C91.4085 28.2133 91.4219 28.3467 91.4219 28.56C91.3952 28.5867 91.3685 28.6133 91.3419 28.64C91.3152 28.64 91.2885 28.6667 91.2619 28.72L90.9419 29.72C90.9419 29.7733 90.9419 29.8533 90.9419 29.96C90.9419 30.04 90.9285 30.1333 90.9019 30.24C90.8485 30.4533 90.6352 30.56 90.2619 30.56L89.9819 31.24L89.3819 31.64C89.3019 31.72 89.1152 31.8667 88.8219 32.08H88.5019L87.8619 32.36C87.0352 32.52 86.5685 32.6 86.4619 32.6ZM85.7419 15.04C85.7685 14.9867 85.7552 14.9333 85.7019 14.88C85.6752 14.8533 85.6085 14.8667 85.5019 14.92C85.5552 15 85.6352 15.04 85.7419 15.04ZM90.8619 18.8C90.8619 18.6133 90.8485 18.52 90.8219 18.52L90.6219 18.48C90.5952 18.48 90.5685 18.48 90.5419 18.48C90.5152 18.4533 90.4885 18.44 90.4619 18.44C90.4085 18.4933 90.3819 18.5867 90.3819 18.72L90.8619 18.8ZM82.3419 19.04C82.3419 18.9333 82.3285 18.8667 82.3019 18.84C82.2219 18.8133 82.1552 18.8267 82.1019 18.88C82.1019 18.9333 82.1819 18.9867 82.3419 19.04ZM84.9819 21.88C85.1152 21.8267 85.1819 21.7733 85.1819 21.72C85.1819 21.6667 85.1152 21.6133 84.9819 21.56V21.88ZM82.2619 28.36C82.2619 28.3067 82.2352 28.2267 82.1819 28.12L82.0619 28.16C81.9285 28.16 81.8885 28.0933 81.9419 27.96L81.8619 28.12C81.8885 28.2 81.9419 28.28 82.0219 28.36H82.2619ZM89.7019 29.44C89.6752 29.44 89.8485 29.3067 90.2219 29.04V28.88C90.0619 28.6933 89.9152 28.6 89.7819 28.6H89.6619C89.6619 28.6533 89.6485 28.72 89.6219 28.8C89.6219 28.8533 89.6085 28.92 89.5819 29C89.4485 29.2133 89.3819 29.32 89.3819 29.32C89.4619 29.4 89.5685 29.44 89.7019 29.44ZM85.5819 31.12L85.3419 30.84H85.1819L85.1419 30.96L85.5819 31.12ZM99.0709 32.6L98.3909 32.56C98.1776 32.5333 98.0043 32.52 97.8709 32.52C97.7643 32.52 97.6976 32.52 97.6709 32.52C97.2709 32.52 97.0309 32.5067 96.9509 32.48L96.2709 32.12C96.2176 32.0933 96.1509 32.0667 96.0709 32.04C95.9909 32.0133 95.8976 31.9867 95.7909 31.96C95.6309 31.88 95.5509 31.7467 95.5509 31.56C95.4976 31.5333 95.4443 31.52 95.3909 31.52C95.3376 31.4933 95.2843 31.48 95.2309 31.48C95.2309 31.24 95.1776 31.08 95.0709 31L94.7909 30.88C94.7376 30.8267 94.6709 30.68 94.5909 30.44L94.4309 30.04V29.92C94.4309 29.8667 94.4176 29.8 94.3909 29.72C94.3909 29.6133 94.3776 29.5067 94.3509 29.4C94.3509 29.1867 94.3509 29 94.3509 28.84C94.3776 28.68 94.4043 28.5467 94.4309 28.44C94.3243 28.3867 94.2443 28.3067 94.1909 28.2C94.1643 28.1467 94.1776 28.04 94.2309 27.88L94.2709 27.52C94.2976 27.3867 94.3109 27.2667 94.3109 27.16C94.3109 27.0533 94.3243 26.9467 94.3509 26.84C94.3509 26.7067 94.3909 26.5467 94.4709 26.36C94.5776 26.1733 94.6309 26.0533 94.6309 26C94.6309 25.9733 94.6043 25.9333 94.5509 25.88C94.4976 25.8267 94.4709 25.8 94.4709 25.8C94.4709 25.7467 94.4576 25.7067 94.4309 25.68C94.4309 25.6533 94.4309 25.6267 94.4309 25.6C94.4309 25.44 94.4709 25.28 94.5509 25.12C94.4443 24.9333 94.3909 24.7067 94.3909 24.44C94.3909 24.2267 94.4576 24.0267 94.5909 23.84C94.5109 23.7333 94.4443 23.6267 94.3909 23.52V22.48C94.3909 22.48 94.3643 22.4267 94.3109 22.32C94.2576 22.2667 94.2309 22.2133 94.2309 22.16C94.2309 22.08 94.3776 21.7867 94.6709 21.28C94.4576 21.1467 94.3509 21.0667 94.3509 21.04L94.5509 20.32C94.5509 20.2667 94.5376 20.1867 94.5109 20.08C94.5109 19.9733 94.5109 19.8533 94.5109 19.72L94.4709 19.08C94.4443 18.7867 94.4443 18.5467 94.4709 18.36C94.4976 18.1733 94.4976 18.0267 94.4709 17.92C94.3909 17.7867 94.2976 17.72 94.1909 17.72V17.52L94.5509 17.36C94.5509 17.3067 94.5376 17.2667 94.5109 17.24H93.8309V17.36C93.8309 17.4667 93.8843 17.56 93.9909 17.64C94.0976 17.72 94.1509 17.7867 94.1509 17.84L93.6709 17.8C93.5643 17.7733 93.4709 17.76 93.3909 17.76C93.3376 17.76 93.2976 17.76 93.2709 17.76L93.0309 17.84C92.8709 17.8933 92.7909 17.92 92.7909 17.92C92.6843 17.92 92.5243 17.8667 92.3109 17.76C92.2843 17.7067 92.2843 17.6267 92.3109 17.52L92.3909 17.28C92.3643 17.2 92.3509 17.12 92.3509 17.04C92.3509 16.96 92.3509 16.8933 92.3509 16.84C92.4043 16.68 92.4976 16.5867 92.6309 16.56C92.5243 16.4533 92.4576 16.3467 92.4309 16.24C92.4309 16.1067 92.4309 15.9733 92.4309 15.84L92.3909 15.64C92.4443 15.4 92.4576 15.2533 92.4309 15.2L92.3109 15C92.2576 14.8933 92.2309 14.8267 92.2309 14.8L92.3909 14.44C92.4176 14.4133 92.4576 14.4 92.5109 14.4C92.5643 14.4 92.6309 14.3867 92.7109 14.36C92.7909 14.3333 92.8443 14.28 92.8709 14.2H92.9509L93.3509 14.32L93.8709 14.48C93.8976 14.5067 93.9243 14.5467 93.9509 14.6C93.9776 14.6533 94.0043 14.72 94.0309 14.8C94.1376 14.72 94.2443 14.6133 94.3509 14.48C94.4576 14.3467 94.5643 14.1867 94.6709 14C94.8309 13.8933 94.8443 13.8133 94.7109 13.76C94.6309 13.7067 94.5909 13.6267 94.5909 13.52L94.6309 12.24C94.4976 11.76 94.4309 11.4267 94.4309 11.24L94.5509 10.92L94.6309 10.6C94.6309 10.52 94.5909 10.4533 94.5109 10.4C94.4309 10.3467 94.3909 10.24 94.3909 10.08L94.4709 9.68C94.5243 9.65333 94.5776 9.61333 94.6309 9.56C94.6843 9.50667 94.7643 9.44 94.8709 9.36C95.0309 9.2 95.1243 9.12 95.1509 9.12L95.5109 9.28C95.6176 9.30667 95.6976 9.34667 95.7509 9.4C95.8043 9.45333 95.8443 9.48 95.8709 9.48L95.9909 9.44H96.8709C97.0576 9.44 97.2043 9.45333 97.3109 9.48C97.4443 9.48 97.5509 9.48 97.6309 9.48L97.9109 9.4C98.0709 9.34667 98.1509 9.32 98.1509 9.32C98.3376 9.32 98.4309 9.45333 98.4309 9.72C98.4309 9.8 98.4176 9.90667 98.3909 10.04C98.3909 10.1467 98.3776 10.28 98.3509 10.44L98.1909 10.4C98.0843 10.4 97.9509 10.4533 97.7909 10.56C97.5509 10.6933 97.4576 10.8667 97.5109 11.08C97.5643 11.1333 97.5909 11.16 97.5909 11.16C97.6176 11.16 97.6709 11.12 97.7509 11.04C97.8576 10.9867 97.9243 10.96 97.9509 10.96C98.0843 10.96 98.2176 11.0667 98.3509 11.28C98.4576 11.4667 98.5109 11.5867 98.5109 11.64C98.5109 11.6933 98.4843 11.76 98.4309 11.84C98.4043 11.8933 98.3776 11.9333 98.3509 11.96C98.3243 12.4133 98.2976 12.7333 98.2709 12.92C98.2709 13.1067 98.2709 13.1467 98.2709 13.04C98.0843 13.0667 97.9909 13.1467 97.9909 13.28C97.9909 13.4133 98.0709 13.5067 98.2309 13.56V13.8C98.2309 13.96 98.2976 14.24 98.4309 14.64C98.4576 14.6933 98.5509 14.7733 98.7109 14.88H98.8309V14.6C98.8576 14.4933 98.9376 14.44 99.0709 14.44C99.6043 14.36 99.8309 14.32 99.7509 14.32L99.9509 14.36C100.031 14.3867 100.111 14.4 100.191 14.4L100.591 14.68C100.564 14.7867 100.551 14.8933 100.551 15C100.551 15.08 100.551 15.1867 100.551 15.32C100.764 15.5333 100.871 15.6267 100.871 15.6C100.871 15.68 100.818 15.7733 100.711 15.88C100.738 15.9067 100.764 15.9333 100.791 15.96C100.738 15.9867 100.698 16.0933 100.671 16.28L100.711 16.4C100.738 16.4533 100.751 16.5067 100.751 16.56C100.751 16.7733 100.738 16.9867 100.711 17.2C100.711 17.3867 100.698 17.56 100.671 17.72C100.618 17.88 100.538 17.96 100.431 17.96H100.391H100.431C100.431 17.9333 100.311 17.88 100.071 17.8C99.9643 17.7733 99.7509 17.76 99.4309 17.76C99.2976 17.76 99.0309 17.8 98.6309 17.88L98.4709 18C98.3643 18.0533 98.3109 18.08 98.3109 18.08L98.2709 18.44C98.2443 18.7067 98.2043 18.84 98.1509 18.84C98.3109 19.2133 98.3909 19.56 98.3909 19.88C98.3643 19.88 98.2976 20.04 98.1909 20.36C98.2176 20.3067 98.2309 20.4533 98.2309 20.8L98.1509 21C98.0976 21.16 98.0709 21.24 98.0709 21.24L98.1909 21.72C98.2443 21.8533 98.2709 21.9733 98.2709 22.08C98.2709 22.16 98.2709 22.2133 98.2709 22.24C98.2709 22.24 98.2176 22.3067 98.1109 22.44C98.0843 22.44 98.0709 22.5067 98.0709 22.64C98.0709 22.8 98.1376 22.9067 98.2709 22.96V24.28C98.2709 24.3067 98.2443 24.3467 98.1909 24.4C98.1376 24.5067 98.1109 24.5733 98.1109 24.6C98.0843 24.7867 98.0843 24.9467 98.1109 25.08C98.1643 25.2933 98.2043 25.3867 98.2309 25.36C98.1509 25.44 98.0843 25.52 98.0309 25.6C98.0843 25.6533 98.1509 25.84 98.2309 26.16C97.9109 26.3467 97.7509 26.5067 97.7509 26.64C97.7509 26.5867 97.8576 26.7467 98.0709 27.12C98.0709 27.12 98.0976 27.3333 98.1509 27.76L98.2309 27.88C98.2309 27.9867 98.2309 28.1067 98.2309 28.24C98.2309 28.3467 98.2443 28.48 98.2709 28.64C98.2709 28.64 98.4309 28.7467 98.7509 28.96C98.7509 29.0667 98.8176 29.16 98.9509 29.24H99.0309C99.0843 29.24 99.1776 29.1867 99.3109 29.08C99.4176 28.9733 99.5109 28.92 99.5909 28.92C99.5909 28.92 99.6443 28.9467 99.7509 29C99.8043 29.0533 99.8443 29.08 99.8709 29.08C99.9243 29.08 100.004 29.0533 100.111 29C100.164 28.9467 100.218 28.9067 100.271 28.88C100.324 28.8267 100.391 28.7733 100.471 28.72L100.631 28.84V30.52C100.631 30.5467 100.618 30.5733 100.591 30.6C100.538 30.6533 100.511 30.6933 100.511 30.72V31.12C100.458 31.1733 100.404 31.2133 100.351 31.24C100.378 31.4267 100.431 31.5733 100.511 31.68C100.591 31.76 100.631 31.88 100.631 32.04C100.631 32.3067 100.484 32.44 100.191 32.44H100.071C100.044 32.44 100.018 32.4267 99.9909 32.4C99.9909 32.4 99.9776 32.4 99.9509 32.4L99.5109 32.52C99.3776 32.5467 99.2709 32.56 99.1909 32.56C99.1376 32.5867 99.0976 32.6 99.0709 32.6ZM95.8309 15.6C95.9909 15.6 96.0709 15.52 96.0709 15.36L95.9909 15.12H95.7909C95.7109 15.2 95.6443 15.2667 95.5909 15.32C95.5643 15.3733 95.5376 15.4133 95.5109 15.44C95.5376 15.4667 95.5509 15.5067 95.5509 15.56H95.7109C95.7376 15.56 95.7509 15.5733 95.7509 15.6C95.7776 15.6 95.8043 15.6 95.8309 15.6ZM99.7509 15.52L99.9109 15.44L99.7109 15.32C99.6843 15.3467 99.6576 15.36 99.6309 15.36L99.7509 15.52ZM100.791 15.96V16.04C100.791 16.0133 100.791 15.9867 100.791 15.96ZM96.6309 16.52C96.6576 16.4933 96.6309 16.44 96.5509 16.36L96.4309 16.44C96.4576 16.4667 96.4843 16.48 96.5109 16.48C96.5643 16.48 96.6043 16.4933 96.6309 16.52ZM96.6709 17.16C96.6976 17.1067 96.6843 17.0533 96.6309 17C96.5776 16.9467 96.5109 16.9467 96.4309 17C96.4576 17.0533 96.5376 17.1067 96.6709 17.16ZM98.3909 19.88V19.92V19.88ZM97.2309 23.96L97.3109 23.92C97.3376 23.8933 97.3643 23.88 97.3909 23.88L97.3109 23.76C97.2843 23.7867 97.2709 23.8133 97.2709 23.84C97.2709 23.8667 97.2576 23.9067 97.2309 23.96ZM95.6709 25.24C95.7243 25.2667 95.7776 25.2533 95.8309 25.2C95.8843 25.1467 95.8709 25.08 95.7909 25C95.7109 25.0267 95.6709 25.1067 95.6709 25.24ZM95.3509 30.28L95.5509 30.48C95.6043 30.48 95.6976 30.4667 95.8309 30.44L96.0309 30.2L95.7509 29.96C95.7243 29.9867 95.5909 30.04 95.3509 30.12V30.28ZM94.3109 31.4C94.2576 31.4 94.1909 31.36 94.1109 31.28C94.1376 31.2533 94.1776 31.24 94.2309 31.24C94.3109 31.24 94.3376 31.2933 94.3109 31.4ZM104.257 25.52C104.071 25.52 103.964 25.4267 103.937 25.24C103.911 25.0267 103.884 24.84 103.857 24.68C103.857 24.4933 103.857 24.3467 103.857 24.24L103.897 23.96C103.924 23.8533 103.937 23.7733 103.937 23.72C103.937 23.64 103.937 23.5867 103.937 23.56L104.137 23.44C103.977 22.9867 103.897 22.76 103.897 22.76C103.897 22.3867 103.924 22.1733 103.977 22.12C103.897 22.0933 103.831 22.0133 103.777 21.88C103.777 21.88 103.844 21.8133 103.977 21.68C104.084 21.5733 104.137 21.5067 104.137 21.48L104.057 21.12C104.031 21.0133 104.004 20.9333 103.977 20.88C103.977 20.8 103.964 20.7333 103.937 20.68C103.777 20.5467 103.711 20.4133 103.737 20.28L103.817 19.92C103.791 19.8933 103.777 19.8667 103.777 19.84C103.777 19.8133 103.764 19.7867 103.737 19.76C103.711 19.68 103.724 19.6133 103.777 19.56V19.52C103.831 19.28 103.844 19.1467 103.817 19.12L103.657 18.76C103.631 18.7333 103.617 18.64 103.617 18.48L103.497 18.24C103.417 18.1067 103.391 17.9867 103.417 17.88C103.417 17.9333 103.484 17.8533 103.617 17.64C103.724 17.4533 103.804 17.36 103.857 17.36C103.804 17.0667 103.644 16.72 103.377 16.32C103.431 16.1333 103.471 15.96 103.497 15.8C103.524 15.6133 103.537 15.4533 103.537 15.32C103.537 15.2133 103.577 15.04 103.657 14.8L103.777 14.44C103.777 14.36 103.711 14.28 103.577 14.2C103.604 14.12 103.617 13.96 103.617 13.72C103.564 13.5067 103.524 13.3467 103.497 13.24C103.471 13.1333 103.457 13.1067 103.457 13.16C103.457 13.0533 103.497 12.8267 103.577 12.48C103.711 12.5333 103.804 12.5333 103.857 12.48L103.737 11.88C103.657 11.8533 103.551 11.7333 103.417 11.52L103.497 10.84C103.497 10.76 103.484 10.68 103.457 10.6L103.417 10.36C103.417 10.0933 103.431 9.97333 103.457 10L103.097 9.56C103.017 9.4 102.977 9.24 102.977 9.08C102.977 9.05333 103.124 8.77333 103.417 8.24H103.657C103.684 8.24 103.724 8.24 103.777 8.24C103.831 8.24 103.884 8.25333 103.937 8.28L104.177 8.36C104.231 8.36 104.297 8.25333 104.377 8.04H104.577C104.604 8.04 104.711 8.09333 104.897 8.2C105.031 8.30667 105.124 8.36 105.177 8.36C105.257 8.36 105.311 8.34667 105.337 8.32L105.457 8.28C105.484 8.28 105.511 8.29333 105.537 8.32C105.564 8.32 105.604 8.33333 105.657 8.36C105.817 8.41333 105.897 8.44 105.897 8.44L106.097 8.36C106.151 8.33333 106.217 8.32 106.297 8.32H106.417C106.444 8.34667 106.484 8.45333 106.537 8.64C106.591 8.69333 106.644 8.72 106.697 8.72L106.977 8.6L106.697 8.2C106.831 8.06667 106.951 8 107.057 8C107.217 8 107.337 8.12 107.417 8.36H107.537C107.564 8.30666 107.657 8.22667 107.817 8.12C107.951 8.2 108.017 8.28 108.017 8.36C108.017 8.44 107.977 8.56 107.897 8.72C107.897 8.77333 107.844 8.85333 107.737 8.96C107.631 9.06667 107.577 9.13333 107.577 9.16C107.577 9.21333 107.604 9.26667 107.657 9.32C107.711 9.37333 107.737 9.41333 107.737 9.44L107.697 9.68C107.671 9.76 107.657 9.82667 107.657 9.88C107.657 9.93333 107.657 9.98667 107.657 10.04C107.551 10.1467 107.497 10.2533 107.497 10.36L107.577 10.52C107.631 10.68 107.657 10.76 107.657 10.76C107.657 10.8667 107.591 10.9467 107.457 11C107.457 11.1867 107.524 11.3733 107.657 11.56L107.817 11.84C107.817 11.9467 107.724 12.1333 107.537 12.4C107.591 12.56 107.617 12.7333 107.617 12.92C107.617 13.16 107.577 13.52 107.497 14L107.377 14.8V17.04C107.137 17.5467 107.017 17.8933 107.017 18.08C107.017 18.32 107.084 18.48 107.217 18.56C107.324 18.64 107.377 18.76 107.377 18.92C107.377 18.9733 107.297 19.12 107.137 19.36V19.68L107.017 20.2C107.017 20.36 107.004 20.4533 106.977 20.48C107.004 20.56 107.017 20.84 107.017 21.32V22.76L106.817 24.4C106.791 24.4267 106.817 24.5333 106.897 24.72L106.977 25C106.977 25.0533 106.791 25.2267 106.417 25.52C106.177 25.52 105.991 25.4533 105.857 25.32C105.724 25.1867 105.591 25.12 105.457 25.12C105.457 25.12 105.351 25.1867 105.137 25.32C104.924 25.4533 104.817 25.52 104.817 25.52C104.764 25.52 104.711 25.4933 104.657 25.44C104.551 25.3867 104.497 25.36 104.497 25.36C104.471 25.36 104.431 25.3867 104.377 25.44C104.324 25.4933 104.284 25.52 104.257 25.52ZM104.817 9.8C104.844 9.77333 104.857 9.72 104.857 9.64C104.857 9.58667 104.844 9.54666 104.817 9.52H104.537V9.8H104.817ZM104.817 10.2C104.897 10.2 104.951 10.1867 104.977 10.16V10.08C104.977 10.0533 104.964 10.0267 104.937 10C104.804 10.0533 104.764 10.12 104.817 10.2ZM105.777 13.44C105.751 13.3333 105.737 13.24 105.737 13.16C105.737 13.08 105.737 13 105.737 12.92C105.631 13.0267 105.577 13.12 105.577 13.2C105.577 13.2267 105.644 13.3067 105.777 13.44ZM106.817 13.76C106.817 13.7067 106.791 13.6533 106.737 13.6C106.711 13.5467 106.657 13.56 106.577 13.64C106.577 13.72 106.657 13.76 106.817 13.76ZM104.377 16.16C104.457 16.16 104.537 16.08 104.617 15.92L104.537 15.8C104.351 15.8267 104.231 15.8933 104.177 16C104.257 16.1067 104.324 16.16 104.377 16.16ZM105.577 21.88H105.457L105.577 22.08V21.88ZM105.857 24.04C105.884 24.0133 105.897 23.9733 105.897 23.92C105.897 23.84 105.844 23.8133 105.737 23.84C105.684 23.8933 105.724 23.96 105.857 24.04ZM103.497 32.2C103.444 32.2 103.391 32.1733 103.337 32.12L103.137 31.44C103.137 31.3867 103.204 31.2533 103.337 31.04L103.417 30.56C103.471 30.3467 103.591 30.2 103.777 30.12C103.751 30.04 103.697 30 103.617 30L103.457 30.04C103.271 29.7733 103.177 29.5467 103.177 29.36C103.177 29.2267 103.257 29.1067 103.417 29L103.337 27.92V27.88C103.337 27.7733 103.417 27.6667 103.577 27.56C103.631 27.5067 103.697 27.48 103.777 27.48L104.097 27.56L104.337 27.68C104.391 27.68 104.444 27.6667 104.497 27.64L104.697 27.6C104.751 27.6 104.791 27.6133 104.817 27.64C104.871 27.6933 104.924 27.72 104.977 27.72L105.137 27.64C105.164 27.6133 105.217 27.6 105.297 27.6L105.457 27.64C105.564 27.6933 105.631 27.72 105.657 27.72L105.937 27.64C106.017 27.6133 106.097 27.6 106.177 27.6L106.337 27.64C106.444 27.6933 106.511 27.72 106.537 27.72C106.537 27.72 106.591 27.6933 106.697 27.64C106.751 27.5867 106.804 27.56 106.857 27.56L107.137 27.6C107.324 27.6267 107.457 27.6667 107.537 27.72C107.511 27.8 107.497 27.9733 107.497 28.24C107.497 28.48 107.484 28.8133 107.457 29.24L107.377 30.08C107.324 30.1067 107.257 30.1467 107.177 30.2C107.124 30.2533 107.057 30.3067 106.977 30.36C107.031 30.3867 107.084 30.4267 107.137 30.48C107.217 30.5333 107.297 30.5867 107.377 30.64C107.457 30.72 107.511 31.0267 107.537 31.56C107.537 31.6133 107.537 31.68 107.537 31.76C107.537 31.84 107.524 31.9067 107.497 31.96C107.497 31.9867 107.417 32.0667 107.257 32.2L107.097 31.96C107.044 32.0933 106.977 32.16 106.897 32.16L106.737 32.12C106.684 32.0933 106.617 32.08 106.537 32.08L106.297 32.16C106.217 32.1867 106.137 32.2 106.057 32.2L105.737 32.12C105.657 32.0667 105.591 31.9467 105.537 31.76C105.484 31.52 105.457 31.4 105.457 31.4C105.377 31.4267 105.324 31.56 105.297 31.8L105.137 31.92C105.057 31.8133 104.991 31.76 104.937 31.76C104.911 31.76 104.831 31.8267 104.697 31.96C104.511 32.0933 104.417 32.16 104.417 32.16C104.417 32.16 104.364 32.1333 104.257 32.08C104.151 32 104.071 31.96 104.017 31.96C103.964 31.96 103.871 32 103.737 32.08L103.497 32.2ZM105.977 28.76C106.137 28.76 106.217 28.6533 106.217 28.44C106.217 28.2533 106.151 28.16 106.017 28.16C105.884 28.16 105.764 28.1867 105.657 28.24C105.737 28.5867 105.844 28.76 105.977 28.76ZM105.017 30.08C105.071 30.1067 105.124 30.0933 105.177 30.04C105.177 29.96 105.097 29.92 104.937 29.92C104.937 29.9733 104.964 30.0267 105.017 30.08ZM106.017 30.76C106.124 30.6533 106.177 30.5733 106.177 30.52C106.177 30.4667 106.111 30.3733 105.977 30.24C106.004 30.3467 106.017 30.44 106.017 30.52C106.017 30.6 106.017 30.68 106.017 30.76Z" fill="#835148"/>
</svg>
