<svg width="25" height="24" viewBox="0 0 25 24" fill="none" xmlns="http://www.w3.org/2000/svg">
<g clip-path="url(#clip0_2413_1326)">
<path d="M14.4943 1.704C14.745 1.84602 14.9 2.11192 14.9 2.4001V21.6001C14.9 21.8883 14.745 22.1542 14.4942 22.2963C14.2433 22.4383 13.9356 22.4343 13.6884 22.286L5.87842 17.6001H2.9C1.57531 17.6001 0.5 16.5265 0.5 15.2001V8.79592C0.5 7.46886 1.57599 6.39696 2.9 6.39696H5.87854L13.6886 1.71398C13.9358 1.56579 14.2435 1.56197 14.4943 1.704Z" fill="#FEDC77"/>
<path d="M22.6656 6.63093L22.0996 6.06543L20.9688 7.19716L21.531 7.75917L21.5345 7.76287C21.5403 7.7689 21.5513 7.78085 21.567 7.79874C21.5982 7.83453 21.6479 7.89391 21.7102 7.97681C21.8347 8.14271 22.0084 8.40185 22.1846 8.75397C22.5356 9.45559 22.9001 10.533 22.9001 11.9937C22.9001 13.4543 22.5356 14.5317 22.1846 15.2334C22.0084 15.5855 21.8347 15.8446 21.7102 16.0105C21.6479 16.0934 21.5982 16.1527 21.567 16.1886C21.5513 16.2065 21.5403 16.2185 21.5345 16.2244L21.5311 16.2281L20.9688 16.7902L22.0996 17.9218L22.6656 17.3564L22.1001 16.7905C22.6655 17.3564 22.6652 17.3567 22.6656 17.3564L22.6668 17.3553L22.6681 17.3538L22.6712 17.3508L22.6792 17.3426L22.7016 17.3191C22.7193 17.3002 22.7427 17.2746 22.7707 17.2426C22.8268 17.1785 22.9022 17.0879 22.9899 16.971C23.1654 16.737 23.3916 16.3966 23.6155 15.9493C24.0644 15.0519 24.5001 13.7309 24.5001 11.9937C24.5001 10.2564 24.0644 8.9354 23.6155 8.03805C23.3916 7.59069 23.1654 7.25023 22.9899 7.01641C22.9022 6.89943 22.8268 6.8089 22.7707 6.74474C22.7427 6.71266 22.7193 6.68714 22.7016 6.6682L22.6792 6.64466L22.6712 6.63657L22.6681 6.63345L22.6668 6.6321C22.6665 6.63181 22.6655 6.63093 22.1001 7.19679L22.6656 6.63093Z" fill="#FEDC77"/>
</g>
<defs>
<clipPath id="clip0_2413_1326">
<rect width="24" height="24" fill="white" transform="translate(0.5)"/>
</clipPath>
</defs>
</svg>
