<svg width="90" height="31" viewBox="0 0 90 31" fill="none" xmlns="http://www.w3.org/2000/svg">
<path d="M14.332 30.288L13.228 30.24C13.164 30.24 13.084 30.224 12.988 30.192C12.924 30.192 12.828 30.176 12.7 30.144L12.268 30.048C12.108 30.08 11.916 30.096 11.692 30.096C11.5 30.096 11.292 30.112 11.068 30.144C10.94 30.144 10.78 30.016 10.588 29.76L10.396 29.52C10.364 29.456 10.348 29.36 10.348 29.232C10.348 29.104 10.332 28.976 10.3 28.848L10.06 28.08V27.552L9.868 27.36C9.772 27.264 9.724 27.152 9.724 27.024C9.756 26.96 9.788 26.88 9.82 26.784C9.852 26.688 9.9 26.576 9.964 26.448L9.628 26.256C9.596 26.16 9.58 26.032 9.58 25.872C9.58 25.648 9.644 25.456 9.772 25.296C9.676 25.232 9.564 25.104 9.436 24.912L9.196 24.72C9.228 24.656 9.244 24.544 9.244 24.384C9.244 24.128 9.068 23.776 8.716 23.328C8.716 23.264 8.732 23.136 8.764 22.944C8.796 22.752 8.812 22.608 8.812 22.512C8.588 22.48 8.412 22.176 8.284 21.6C8.188 21.28 8.092 20.88 7.996 20.4L8.14 19.824C7.756 19.376 7.564 19.04 7.564 18.816C7.564 18.72 7.66 18.464 7.852 18.048C7.82 17.952 7.74 17.888 7.612 17.856L7.516 17.664C7.484 17.632 7.436 17.6 7.372 17.568C7.34 17.536 7.292 17.488 7.228 17.424C7.228 17.104 7.1 16.944 6.844 16.944C6.62 16.912 6.444 16.928 6.316 16.992L6.028 17.184V17.424C6.252 17.648 6.364 17.744 6.364 17.712C6.364 17.744 6.332 17.792 6.268 17.856V18.192C6.204 18.256 6.156 18.32 6.124 18.384C6.092 18.416 6.06 18.448 6.028 18.48C6.188 18.64 6.268 18.8 6.268 18.96L6.076 19.44V19.92C5.916 20.016 5.836 20.112 5.836 20.208C5.836 20.24 5.868 20.288 5.932 20.352L6.028 20.544C5.996 20.672 5.964 20.864 5.932 21.12C5.9 21.344 5.868 21.616 5.836 21.936C5.9 22.064 5.948 22.208 5.98 22.368C6.012 22.496 6.044 22.656 6.076 22.848L5.932 23.184V24.336L5.836 24.528C5.836 24.592 5.82 24.688 5.788 24.816C5.788 24.944 5.772 25.088 5.74 25.248C5.644 25.44 5.548 25.68 5.452 25.968C5.452 26 5.5 26.064 5.596 26.16C5.628 26.224 5.644 26.272 5.644 26.304C5.676 26.336 5.692 26.368 5.692 26.4L5.596 28.368C5.564 28.432 5.548 28.496 5.548 28.56C5.548 28.592 5.548 28.608 5.548 28.608C5.58 29.376 5.596 29.76 5.596 29.76C5.564 29.856 5.468 29.904 5.308 29.904L4.828 29.76L4.444 29.808C4.316 29.84 4.22 29.856 4.156 29.856C4.124 29.856 4.092 29.856 4.06 29.856H3.868C3.676 29.856 3.516 29.824 3.388 29.76L3.004 29.616C2.972 29.616 2.924 29.664 2.86 29.76H2.524C2.428 29.76 2.348 29.776 2.284 29.808C2.252 29.808 2.22 29.808 2.188 29.808L1.276 29.76C1.02 29.76 0.892 29.632 0.892 29.376C0.892 29.248 0.908 29.104 0.94 28.944C1.004 28.752 1.052 28.544 1.084 28.32C1.084 28.096 1.084 27.856 1.084 27.6C1.084 27.344 1.068 27.088 1.036 26.832L1.468 26.4C1.372 26.304 1.308 26.208 1.276 26.112C1.212 25.984 1.18 25.84 1.18 25.68C1.18 25.264 1.308 24.928 1.564 24.672C1.308 24.416 1.18 24.224 1.18 24.096C1.244 23.84 1.324 23.68 1.42 23.616C1.516 23.584 1.596 23.456 1.66 23.232C1.628 23.168 1.58 23.072 1.516 22.944C1.516 22.72 1.564 22.4 1.66 21.984C1.596 21.888 1.564 21.648 1.564 21.264C1.564 21.136 1.564 21.008 1.564 20.88C1.564 20.72 1.58 20.56 1.612 20.4C1.58 20.368 1.564 20.32 1.564 20.256C1.564 20.192 1.548 20.112 1.516 20.016L1.756 18.336C1.756 18.176 1.756 18.016 1.756 17.856C1.756 17.664 1.74 17.456 1.708 17.232L1.852 17.04C1.82 16.88 1.804 16.704 1.804 16.512C1.804 16.32 1.804 16.096 1.804 15.84C1.804 15.68 1.852 15.584 1.948 15.552L2.236 15.456C2.204 15.424 2.172 15.376 2.14 15.312C2.108 15.216 2.076 15.104 2.044 14.976C2.044 14.912 2.028 14.832 1.996 14.736C1.996 14.64 1.98 14.528 1.948 14.4L1.756 14.016L2.14 12.72L2.092 11.904C2.06 11.68 2.044 11.52 2.044 11.424C2.044 11.296 2.044 11.216 2.044 11.184L2.332 9.84C2.396 9.776 2.316 9.648 2.092 9.456C2.252 9.264 2.332 8.976 2.332 8.592L2.284 7.872C2.316 7.808 2.348 7.76 2.38 7.728C2.412 7.664 2.444 7.6 2.476 7.536L2.62 6.912L2.668 6.192L2.476 5.472L2.764 3.936C2.764 3.744 2.748 3.632 2.716 3.6C2.556 3.28 2.476 2.912 2.476 2.496C2.476 2.24 2.492 2.016 2.524 1.824C2.588 1.6 2.636 1.424 2.668 1.296C2.7 1.168 2.828 1.104 3.052 1.104C3.212 1.104 3.34 1.152 3.436 1.248C3.468 1.376 3.548 1.44 3.676 1.44L4.012 1.152C4.396 1.312 4.636 1.392 4.732 1.392L5.212 1.296C5.276 1.296 5.356 1.312 5.452 1.344L5.884 1.296C6.012 1.264 6.092 1.248 6.124 1.248C6.188 1.248 6.236 1.248 6.268 1.248C6.716 1.248 7.02 1.376 7.18 1.632C7.18 1.984 7.34 2.48 7.66 3.12C7.596 3.152 7.516 3.184 7.42 3.216C7.324 3.248 7.228 3.296 7.132 3.36C7.1 3.424 7.148 3.536 7.276 3.696C7.436 3.856 7.58 3.968 7.708 4.032C7.612 4.128 7.548 4.24 7.516 4.368C7.548 4.304 7.74 4.672 8.092 5.472C8.124 5.472 8.156 5.744 8.188 6.288L8.092 6.816L8.476 7.104L8.764 8.208V8.736L9.052 9.072C9.02 9.104 9.02 9.2 9.052 9.36L9.292 9.792C9.26 9.888 9.244 9.984 9.244 10.08C9.244 10.176 9.244 10.256 9.244 10.32C9.244 10.544 9.26 10.688 9.292 10.752L9.34 11.04L9.58 11.424V11.52C9.58 11.712 9.644 11.936 9.772 12.192C9.708 12.384 9.66 12.576 9.628 12.768C9.628 12.96 9.644 13.152 9.676 13.344L10.06 13.776C10.092 13.872 10.124 14 10.156 14.16C10.188 14.288 10.236 14.432 10.3 14.592C10.396 14.688 10.492 14.848 10.588 15.072C10.652 15.264 10.732 15.408 10.828 15.504C10.796 15.536 10.78 15.632 10.78 15.792C10.78 15.888 10.78 16.016 10.78 16.176C10.812 16.336 10.844 16.528 10.876 16.752C10.972 17.552 11.132 18.048 11.356 18.24C11.388 18.272 11.404 18.336 11.404 18.432C11.404 18.56 11.324 18.864 11.164 19.344C10.972 19.76 10.876 20.032 10.876 20.16C10.876 20.224 10.908 20.256 10.972 20.256H11.02C11.308 20.16 11.532 19.696 11.692 18.864C11.852 18 11.932 17.568 11.932 17.568C11.964 17.472 11.98 17.296 11.98 17.04C11.98 16.816 11.964 16.56 11.932 16.272C11.9 15.984 11.852 15.664 11.788 15.312L11.644 15.072L11.884 14.736C11.884 14.736 11.852 14.672 11.788 14.544C11.692 14.448 11.644 14.368 11.644 14.304C11.676 14.208 11.692 14.096 11.692 13.968C11.724 13.808 11.724 13.648 11.692 13.488L11.644 13.056C11.644 12.96 11.628 12.896 11.596 12.864C11.596 12.8 11.596 12.752 11.596 12.72C11.66 12.368 12.012 12.032 12.652 11.712C12.684 11.68 12.572 11.568 12.316 11.376L11.884 11.04V10.176L12.124 9.84C12.092 9.808 12.012 9.696 11.884 9.504L11.98 9.312C12.012 9.248 12.028 9.184 12.028 9.12C12.06 8.928 12.06 8.624 12.028 8.208L11.932 7.536C11.932 7.376 12.028 7.184 12.22 6.96C12.348 6.736 12.46 6.624 12.556 6.624C12.492 6.56 12.412 6.528 12.316 6.528C12.188 6.336 12.172 6.096 12.268 5.808C12.076 5.552 11.996 5.376 12.028 5.28L12.268 4.848C12.236 4.656 12.22 4.448 12.22 4.224C12.22 4 12.22 3.776 12.22 3.552L12.268 1.968C12.268 1.584 12.412 1.424 12.7 1.488C12.7 1.488 12.828 1.568 13.084 1.728C13.34 1.888 13.468 1.968 13.468 1.968C13.532 1.968 13.676 1.92 13.9 1.824L14.284 1.68C14.316 1.68 14.444 1.744 14.668 1.872C14.828 2 14.94 2.064 15.004 2.064C15.068 2.064 15.244 2.016 15.532 1.92L15.964 1.776C16.06 1.776 16.124 1.792 16.156 1.824C16.22 1.888 16.252 1.92 16.252 1.92L16.444 1.824C16.508 1.792 16.572 1.776 16.636 1.776C16.732 1.776 16.86 1.904 17.02 2.16L16.78 2.448C16.78 2.48 16.796 2.528 16.828 2.592C16.86 2.624 16.892 2.672 16.924 2.736L17.02 3.024C17.02 3.056 16.972 3.12 16.876 3.216C16.748 3.344 16.684 3.44 16.684 3.504L16.732 3.888C16.764 3.984 16.78 4.064 16.78 4.128C16.78 4.192 16.78 4.24 16.78 4.272C16.78 4.336 16.764 4.432 16.732 4.56C16.7 4.656 16.668 4.784 16.636 4.944L16.54 5.376C16.572 5.44 16.604 5.52 16.636 5.616C16.668 5.68 16.7 5.744 16.732 5.808C16.732 5.84 16.668 5.92 16.54 6.048C16.508 6.144 16.492 6.288 16.492 6.48C16.46 6.672 16.316 6.816 16.06 6.912C16.06 6.944 16.124 6.976 16.252 7.008C16.316 7.04 16.364 7.072 16.396 7.104C16.428 7.136 16.46 7.168 16.492 7.2C16.492 7.232 16.444 7.28 16.348 7.344L16.156 7.488C16.316 7.648 16.46 7.856 16.588 8.112C16.652 8.336 16.652 8.576 16.588 8.832C16.62 8.864 16.636 8.928 16.636 9.024L16.396 9.696C16.332 9.92 16.268 10.08 16.204 10.176C16.14 10.272 16.108 10.336 16.108 10.368C16.108 10.464 16.236 10.64 16.492 10.896L16.396 11.376C16.236 11.44 16.028 11.488 15.772 11.52L15.436 11.808L15.292 12.288C15.324 12.32 15.34 12.384 15.34 12.48C15.34 12.48 15.388 12.512 15.484 12.576C15.548 12.576 15.644 12.512 15.772 12.384C15.932 12.288 16.028 12.24 16.06 12.24L16.204 12.336C16.236 12.496 16.268 12.688 16.3 12.912C16.332 13.104 16.364 13.312 16.396 13.536C16.332 14.112 16.284 14.528 16.252 14.784C16.22 14.816 16.188 14.88 16.156 14.976C16.124 15.072 16.076 15.2 16.012 15.36L16.108 15.936C16.012 15.968 15.964 16.128 15.964 16.416V16.992C15.932 17.024 15.916 17.072 15.916 17.136C15.916 17.168 15.9 17.216 15.868 17.28L15.484 17.472C15.516 17.504 15.564 17.552 15.628 17.616C15.692 17.648 15.756 17.696 15.82 17.76C15.788 17.856 15.788 18 15.82 18.192C15.82 18.224 15.868 18.272 15.964 18.336C16.06 18.368 16.108 18.432 16.108 18.528C16.108 18.592 15.996 18.72 15.772 18.912C15.804 19.104 15.804 19.264 15.772 19.392C15.676 19.584 15.628 19.664 15.628 19.632C15.66 19.952 15.708 20.064 15.772 19.968C15.708 20.064 15.596 20.16 15.436 20.256L15.34 20.688C15.34 20.688 15.42 20.816 15.58 21.072C15.708 21.296 15.772 21.44 15.772 21.504C15.772 21.568 15.724 21.664 15.628 21.792C15.532 21.888 15.468 21.952 15.436 21.984L15.58 22.56C15.676 22.944 15.708 23.152 15.676 23.184C15.676 23.664 15.532 23.904 15.244 23.904L15.1 23.808C15.068 23.808 15.052 23.856 15.052 23.952C15.052 24.112 15.084 24.256 15.148 24.384C15.244 24.48 15.34 24.544 15.436 24.576L15.532 24.768L15.436 25.104C15.34 25.296 15.292 25.424 15.292 25.488L15.34 25.632V25.728C15.34 26.048 15.356 26.256 15.388 26.352L15.484 26.544L15.388 27.936C15.388 27.968 15.34 28.032 15.244 28.128V28.752C15.212 28.784 15.164 28.896 15.1 29.088V29.136C15.1 29.296 15.212 29.648 15.436 30.192L15.388 30.288C15.356 30.288 15.244 30.288 15.052 30.288C14.892 30.32 14.652 30.32 14.332 30.288ZM15.148 3.408C15.212 3.344 15.276 3.312 15.34 3.312C15.34 3.28 15.308 3.232 15.244 3.168L15.148 3.408ZM4.012 3.936C4.108 3.968 4.204 3.92 4.3 3.792C4.236 3.728 4.188 3.696 4.156 3.696C4.06 3.696 4.012 3.776 4.012 3.936ZM5.884 4.608C5.98 4.64 6.076 4.592 6.172 4.464C6.14 4.432 6.092 4.416 6.028 4.416C5.932 4.416 5.884 4.48 5.884 4.608ZM13.228 4.848C13.292 4.88 13.356 4.864 13.42 4.8C13.452 4.768 13.436 4.688 13.372 4.56C13.276 4.56 13.228 4.656 13.228 4.848ZM15.388 7.92C15.42 7.856 15.404 7.792 15.34 7.728C15.308 7.664 15.244 7.68 15.148 7.776C15.148 7.872 15.228 7.92 15.388 7.92ZM5.212 11.328C5.244 11.296 5.26 11.248 5.26 11.184C5.26 11.088 5.196 11.04 5.068 11.04C5.036 11.136 5.084 11.232 5.212 11.328ZM6.652 13.68C6.684 13.616 6.668 13.552 6.604 13.488C6.54 13.424 6.476 13.424 6.412 13.488C6.412 13.552 6.492 13.616 6.652 13.68ZM15.196 14.016C15.228 13.952 15.212 13.888 15.148 13.824C15.084 13.76 15.02 13.76 14.956 13.824C14.956 13.888 15.036 13.952 15.196 14.016ZM4.252 14.736H4.924C5.148 14.736 5.324 14.704 5.452 14.64L5.26 14.208C5.164 14.144 5.068 14.096 4.972 14.064C4.908 14.032 4.844 14 4.78 13.968C4.62 13.968 4.46 14.016 4.3 14.112L4.156 14.544L4.252 14.736ZM13.324 14.736C13.42 14.768 13.516 14.72 13.612 14.592C13.58 14.56 13.532 14.544 13.468 14.544C13.372 14.544 13.324 14.608 13.324 14.736ZM3.1 17.28C3.132 17.248 3.164 17.216 3.196 17.184C3.228 17.152 3.26 17.12 3.292 17.088C3.292 16.992 3.276 16.944 3.244 16.944H3.004L2.86 17.088L2.812 17.28H3.1ZM12.316 21.888L12.556 21.696C12.556 21.664 12.492 21.664 12.364 21.696C12.332 21.728 12.316 21.792 12.316 21.888ZM12.94 22.224C13.004 22.256 13.1 22.208 13.228 22.08C13.196 22.048 13.132 22.032 13.036 22.032C12.94 22.032 12.908 22.096 12.94 22.224ZM10.54 26.304C10.828 26.304 10.988 26.288 11.02 26.256L10.636 26.064L10.54 26.304ZM2.86 27.456L2.764 27.312C2.7 27.312 2.652 27.328 2.62 27.36L2.86 27.456ZM2.86 28.224C2.892 28.16 2.876 28.096 2.812 28.032C2.78 27.968 2.716 27.984 2.62 28.08C2.62 28.176 2.7 28.224 2.86 28.224ZM4.06 28.032H3.916C3.948 28.064 3.996 28.144 4.06 28.272V28.032ZM5.644 29.712C5.644 29.712 5.628 29.728 5.596 29.76C5.628 29.76 5.644 29.744 5.644 29.712ZM24.6888 31.008C24.6567 30.944 24.6087 30.88 24.5447 30.816C24.4807 30.784 24.4167 30.736 24.3527 30.672C24.1607 30.544 23.9527 30.448 23.7287 30.384C23.6967 30.416 23.6007 30.464 23.4407 30.528L23.1047 30.384C22.9127 30.288 22.7847 30.24 22.7207 30.24L22.2887 30.336C22.1927 30.336 21.9687 30.192 21.6167 29.904C21.4567 29.744 21.3127 29.6 21.1847 29.472C21.0887 29.344 21.0247 29.232 20.9927 29.136C20.9927 29.104 20.9607 29.088 20.8967 29.088L20.7047 29.136C20.6407 29.136 20.5767 29.088 20.5127 28.992C20.4807 28.928 20.4487 28.848 20.4167 28.752C20.3847 28.624 20.3367 28.496 20.2727 28.368C20.2407 28.304 20.0967 28.192 19.8407 28.032C19.8087 28.032 19.7607 27.936 19.6967 27.744C19.5687 27.712 19.5047 27.648 19.5047 27.552L19.6487 27.312C19.7127 27.216 19.7447 27.104 19.7447 26.976C19.7447 26.816 19.6807 26.672 19.5527 26.544C19.3927 26.32 19.3127 26.144 19.3127 26.016C19.3767 25.952 19.4247 25.872 19.4567 25.776C19.4887 25.648 19.5367 25.52 19.6007 25.392C19.6007 25.392 19.5367 25.28 19.4087 25.056C19.1847 24.704 19.0887 24.416 19.1207 24.192C19.1207 24.16 19.2487 24.016 19.5047 23.76L19.2167 23.52C19.2167 23.488 19.2007 23.456 19.1687 23.424V22.944C19.1687 22.88 19.1687 22.816 19.1687 22.752C19.1687 22.688 19.1847 22.608 19.2167 22.512L19.4567 22.224C19.3927 22.032 19.3927 21.856 19.4567 21.696C19.4887 21.664 19.5207 21.632 19.5527 21.6C19.5847 21.568 19.6167 21.536 19.6487 21.504C19.6167 21.472 19.5367 21.456 19.4087 21.456L19.3127 20.688V20.544C19.3127 20.16 19.4087 20 19.6007 20.064L19.9367 20.112L20.0327 20.064C20.0007 19.936 19.8727 19.84 19.6487 19.776C19.4887 19.712 19.4087 19.648 19.4087 19.584L19.6007 18.384C19.6647 18.384 19.7127 18.32 19.7447 18.192L19.6487 17.856C19.5847 17.568 19.5367 17.408 19.5047 17.376C19.5687 17.312 19.6487 17.248 19.7447 17.184C19.8407 17.12 19.9207 17.024 19.9847 16.896C19.9847 16.864 19.8887 16.688 19.6967 16.368C19.6007 16.208 19.5527 16.016 19.5527 15.792C19.6167 15.728 19.6647 15.632 19.6967 15.504C19.7607 15.376 19.8247 15.232 19.8887 15.072C19.8887 14.848 19.8887 14.608 19.8887 14.352C19.9207 14.064 19.9527 13.744 19.9847 13.392C20.0807 13.296 20.1447 13.2 20.1767 13.104C20.2727 12.528 20.3047 12.128 20.2727 11.904C20.4007 11.936 20.5127 11.904 20.6087 11.808L20.6567 11.424C20.8487 11.36 20.9447 11.248 20.9447 11.088C21.0087 10.8 21.0407 10.656 21.0407 10.656C21.5527 10.048 21.8727 9.744 22.0007 9.744H22.0487V9.792H22.1447C22.2087 9.792 22.2567 9.728 22.2887 9.6L22.8167 9.408C23.3287 9.824 23.5847 9.952 23.5847 9.792V9.504C23.5847 9.44 23.5687 9.376 23.5367 9.312C23.5367 9.248 23.5367 9.2 23.5367 9.168V8.976C23.9207 8.688 24.1447 8.544 24.2087 8.544L24.4967 8.64L25.0247 8.544C25.2808 8.896 25.4727 9.072 25.6007 9.072C25.6967 9.072 25.8087 9.008 25.9367 8.88C26.0968 8.688 26.1927 8.592 26.2247 8.592L26.6087 8.304C26.6087 8.432 26.6727 8.56 26.8008 8.688L27.1367 8.448C27.1688 8.576 27.2968 8.72 27.5208 8.88L27.7127 8.832H27.9048L28.0967 8.688C28.1607 8.72 28.2568 8.752 28.3848 8.784C28.5128 8.816 28.6407 8.848 28.7687 8.88C28.8647 9.2 29.1367 9.392 29.5847 9.456L29.6808 9.648C29.7128 9.616 29.8088 9.6 29.9688 9.6C30.0648 9.6 30.1128 9.632 30.1128 9.696L30.4968 10.512C30.5608 10.448 30.6248 10.416 30.6888 10.416C30.8488 10.416 30.9448 10.512 30.9767 10.704L31.1207 11.328L31.4568 11.52C31.5208 11.584 31.5687 11.808 31.6008 12.192C31.6328 12.256 31.6648 12.336 31.6968 12.432C31.7288 12.496 31.7608 12.592 31.7928 12.72C31.7608 12.816 31.7448 13.056 31.7448 13.44L31.9847 13.728C32.1447 13.856 32.2087 14 32.1768 14.16L32.1288 14.448C32.0968 14.48 32.0328 14.512 31.9368 14.544C31.8728 14.576 31.8088 14.624 31.7448 14.688C31.6488 14.784 31.5368 14.816 31.4088 14.784C31.3768 14.816 31.3608 14.88 31.3608 14.976C31.5528 15.168 31.7448 15.296 31.9368 15.36L31.8408 15.792C31.8408 15.792 31.7768 15.824 31.6487 15.888C31.5528 15.984 31.4728 16.032 31.4088 16.032C31.2488 16.192 31.1688 16.336 31.1688 16.464C31.1688 16.656 31.3768 16.816 31.7928 16.944L31.8887 17.28C31.8568 17.312 31.8088 17.44 31.7448 17.664V17.856C31.7448 17.952 31.7448 18.064 31.7448 18.192C31.7448 18.288 31.7608 18.416 31.7928 18.576L31.4088 18.768C31.4408 18.8 31.4728 18.864 31.5048 18.96C31.5367 19.056 31.5847 19.168 31.6487 19.296C31.7768 19.456 31.8408 19.568 31.8408 19.632L31.7448 20.352C31.6807 20.288 31.5848 20.256 31.4568 20.256H31.3127L31.2167 20.448C31.2167 20.448 31.2968 20.56 31.4568 20.784C31.6168 21.008 31.6968 21.136 31.6968 21.168C31.6968 21.328 31.6328 21.424 31.5048 21.456C31.3448 21.52 31.2648 21.616 31.2648 21.744C31.2648 21.712 31.3128 21.808 31.4088 22.032C31.4728 22.064 31.4728 22.16 31.4088 22.32C31.4088 22.32 31.3767 22.352 31.3127 22.416C31.3767 22.832 31.4248 23.184 31.4568 23.472C31.4888 23.728 31.5048 23.888 31.5048 23.952C31.4728 24.048 31.4408 24.176 31.4088 24.336C31.3768 24.464 31.3288 24.608 31.2648 24.768L31.3608 25.152L31.3127 26.736L30.7368 27.696L30.5447 28.416C30.4807 28.48 30.4167 28.512 30.3528 28.512C30.3207 28.48 30.2727 28.464 30.2087 28.464C30.1448 28.464 30.0328 28.528 29.8727 28.656V29.136C29.1367 29.84 28.7207 30.176 28.6248 30.144L28.4327 30.096C28.4647 30.096 28.0487 30.24 27.1848 30.528C27.1528 30.56 27.1207 30.592 27.0887 30.624C27.0567 30.688 27.0087 30.768 26.9447 30.864H26.8008L26.4648 30.768C26.3687 30.768 26.0487 30.832 25.5047 30.96L25.0728 30.816C25.0728 30.816 24.9448 30.88 24.6888 31.008ZM22.7207 11.376C22.7527 11.376 22.7207 11.312 22.6247 11.184L22.4807 11.28C22.5127 11.312 22.5447 11.328 22.5767 11.328C22.6407 11.328 22.6887 11.344 22.7207 11.376ZM28.3848 11.76L28.5768 11.616C28.5447 11.488 28.4648 11.44 28.3368 11.472L28.3848 11.76ZM22.7207 12.144C22.7527 12.08 22.7367 12.016 22.6727 11.952C22.6087 11.888 22.5447 11.888 22.4807 11.952C22.4807 12.016 22.5607 12.08 22.7207 12.144ZM25.2167 26.688C25.2487 26.656 25.4247 26.56 25.7448 26.4C26.0008 26.304 26.1128 26.256 26.0807 26.256H26.0327C26.0647 26.256 26.0807 26.256 26.0807 26.256L26.3687 26.352C26.4327 26.352 26.5127 26.288 26.6087 26.16C26.4487 25.936 26.3687 25.76 26.3687 25.632L26.4648 25.2C26.5288 25.136 26.5768 25.104 26.6087 25.104L26.7047 25.2C26.6727 25.296 26.6727 25.408 26.7047 25.536L26.8968 25.392V25.104L26.5608 24.432C26.6888 24.368 26.8167 24.272 26.9447 24.144C26.7847 23.76 26.7207 23.456 26.7527 23.232L26.8008 22.896C26.8328 22.768 26.8488 22.672 26.8488 22.608C26.8488 22.512 26.8488 22.448 26.8488 22.416C26.9127 22.352 27.0087 22.304 27.1367 22.272C27.3928 22.208 27.5208 22.032 27.5208 21.744C27.5208 21.68 27.4727 21.648 27.3767 21.648C27.3128 21.648 27.2328 21.584 27.1367 21.456C27.1047 21.424 27.0407 21.408 26.9447 21.408C26.7847 21.152 26.7047 20.96 26.7047 20.832C26.7687 20.384 26.8168 20.192 26.8488 20.256C26.9447 20.256 26.9927 20 26.9927 19.488C27.0567 19.008 27.0567 18.688 26.9927 18.528C26.9288 18.272 26.8808 18.144 26.8488 18.144V18.192C26.8488 18.16 26.8488 18.144 26.8488 18.144C26.8808 18.016 26.9128 17.856 26.9447 17.664C26.9767 17.44 27.0087 17.2 27.0407 16.944C27.0727 16.912 27.1047 16.88 27.1367 16.848C27.2008 16.816 27.2488 16.784 27.2808 16.752C27.3767 16.656 27.4247 16.576 27.4247 16.512L27.2808 16.32C27.1528 16.192 27.0887 16 27.0887 15.744C27.1848 15.648 27.2488 15.536 27.2808 15.408L27.3287 14.736C27.3927 14.672 27.4407 14.576 27.4727 14.448C27.4727 14.416 27.4727 14.368 27.4727 14.304C27.4727 14.24 27.4407 14.176 27.3767 14.112L27.2328 13.872C27.2648 13.392 27.2968 13.168 27.3287 13.2L27.1367 13.152C27.0727 13.12 27.0087 13.104 26.9447 13.104C26.9128 13.104 26.8968 13.088 26.8968 13.056C26.7687 12.896 26.6727 12.848 26.6087 12.912L26.2727 13.008C26.1127 13.008 25.9367 12.88 25.7448 12.624H25.5527L25.4568 12.96C25.3928 13.152 25.2967 13.232 25.1687 13.2L24.7847 13.296C24.9767 13.328 25.0728 13.424 25.0728 13.584L24.7847 14.544C24.8167 14.512 24.8487 14.656 24.8807 14.976V15.12C24.8807 15.44 24.8167 15.856 24.6888 16.368C24.5927 16.464 24.5287 16.56 24.4967 16.656V17.088C24.4967 17.184 24.4967 17.28 24.4967 17.376C24.5287 17.472 24.5287 17.584 24.4967 17.712C24.4967 17.776 24.4807 17.84 24.4487 17.904C24.4487 17.968 24.4487 18.032 24.4487 18.096C24.4487 18.288 24.4967 18.432 24.5927 18.528C24.6888 18.88 24.7208 19.248 24.6888 19.632C24.6247 19.696 24.5607 19.792 24.4967 19.92C24.4327 20.016 24.3687 20.128 24.3047 20.256L24.5447 20.832C24.5447 20.896 24.5287 20.944 24.4967 20.976C24.3047 20.976 24.1767 20.992 24.1127 21.024C24.3047 21.344 24.4007 21.536 24.4007 21.6L24.2567 22.224C24.2247 22.256 24.1927 22.288 24.1607 22.32C24.1287 22.352 24.0967 22.4 24.0647 22.464V22.512L24.2087 23.088C24.2087 23.312 24.0487 23.376 23.7287 23.28V23.472C23.8887 23.536 24.0647 23.68 24.2567 23.904C24.2247 24.128 24.2087 24.4 24.2087 24.72C24.2087 25.008 24.2087 25.328 24.2087 25.68C24.2727 25.776 24.3847 25.984 24.5447 26.304C24.6087 26.304 24.7367 26.336 24.9287 26.4C24.8967 26.496 24.8967 26.592 24.9287 26.688H25.2167ZM22.1447 16.704L22.5287 16.56C22.6247 16.4 22.6727 16.224 22.6727 16.032C22.7367 15.968 22.7047 15.888 22.5767 15.792L22.2887 16.032H22.1927C22.0967 15.84 21.9847 15.744 21.8567 15.744C21.7287 15.744 21.6647 15.84 21.6647 16.032C21.6647 16.224 21.6967 16.352 21.7607 16.416L22.1447 16.704ZM29.1048 20.16L29.2487 20.064C29.2487 20 29.2327 19.952 29.2007 19.92L29.1048 20.16ZM21.4727 22.368L21.4247 21.84C21.3607 21.904 21.2967 22.016 21.2327 22.176C21.2327 22.24 21.3127 22.304 21.4727 22.368ZM29.4408 26.304C29.5688 26.368 29.6488 26.352 29.6808 26.256C29.6488 26.224 29.6168 26.192 29.5847 26.16C29.5847 26.128 29.5527 26.096 29.4887 26.064L29.4408 26.304ZM30.5447 26.88C30.6408 26.752 30.6568 26.656 30.5928 26.592L30.2567 26.64C30.2887 26.672 30.2887 26.752 30.2567 26.88H30.5447ZM21.7127 29.28C21.8087 29.28 21.9047 29.232 22.0007 29.136V28.8L21.7127 28.656C21.5527 28.656 21.4727 28.768 21.4727 28.992C21.4407 29.184 21.5207 29.28 21.7127 29.28ZM34.6176 30.192C34.4896 30.064 34.4256 29.984 34.4256 29.952C34.4256 29.824 34.6176 29.52 35.0016 29.04V28.848C35.0016 28.72 34.9856 28.608 34.9536 28.512C34.9536 28.384 34.9376 28.256 34.9056 28.128L35.3856 27.168C35.4816 26.944 35.4976 26.8 35.4336 26.736L34.8576 26.64L34.9536 26.304C35.0176 26.24 35.0176 26.112 34.9536 25.92C34.7296 25.728 34.6176 25.584 34.6176 25.488C34.6176 25.072 34.7616 24.704 35.0496 24.384H35.0976C35.0976 24.384 35.0176 24.32 34.8576 24.192C34.7296 24.064 34.6496 24 34.6176 24L34.7136 23.328C34.7136 23.296 34.7456 23.248 34.8096 23.184C34.8736 23.12 34.9056 23.072 34.9056 23.04L34.7616 22.656C34.6656 22.4 34.6176 22.256 34.6176 22.224L34.7616 22.032V21.312L34.9056 20.736C34.9376 20.672 34.9376 20.608 34.9056 20.544C34.9056 20.48 34.9056 20.4 34.9056 20.304L34.8576 19.824C34.8576 19.792 34.9056 19.728 35.0016 19.632C35.0976 19.536 35.1456 19.472 35.1456 19.44C35.1456 19.44 35.0656 19.328 34.9056 19.104L34.9536 18.96C34.9536 18.928 34.9536 18.88 34.9536 18.816C34.9536 18.752 34.9376 18.656 34.9056 18.528C34.9056 18.528 34.8896 18.528 34.8576 18.528C34.8576 18.496 34.8576 18.464 34.8576 18.432C34.8576 18.272 34.8736 18.144 34.9056 18.048C34.9696 17.952 35.0016 17.888 35.0016 17.856L34.9056 17.616C34.8416 17.488 34.8096 17.424 34.8096 17.424L34.9536 17.136C35.0496 16.976 35.0976 16.864 35.0976 16.8L34.9536 16.08C34.9216 15.856 34.8736 15.696 34.8096 15.6C34.7776 15.504 34.7616 15.44 34.7616 15.408C34.7616 15.312 34.8416 15.216 35.0016 15.12L35.2416 14.976C35.3696 14.72 35.4336 14.528 35.4336 14.4C35.4336 13.984 35.3856 13.728 35.2896 13.632C35.0976 13.376 35.0016 13.248 35.0016 13.248L34.9536 12.912V12.288C35.4976 12.224 35.7696 12.032 35.7696 11.712C35.7696 11.52 35.6896 11.424 35.5296 11.424C35.4656 11.424 35.3696 11.456 35.2416 11.52L35.1456 11.28C35.1136 11.216 35.0816 11.168 35.0496 11.136C35.0176 11.072 35.0016 11.024 35.0016 10.992C35.0016 10.832 34.9856 10.624 34.9536 10.368C34.9536 10.08 34.9376 9.76 34.9056 9.408C34.9056 9.376 34.8736 9.328 34.8096 9.264C34.7456 9.2 34.7136 9.136 34.7136 9.072C34.7136 8.784 34.8096 8.64 35.0016 8.64L35.5776 8.736C35.7376 8.768 35.8496 8.8 35.9136 8.832C36.0096 8.864 36.0736 8.88 36.1056 8.88L36.2976 8.832H36.5376L36.7776 8.88C36.8416 8.88 36.8736 8.896 36.8736 8.928C36.9056 8.928 36.9376 8.928 36.9696 8.928L37.2096 8.832C37.2736 8.8 37.3376 8.784 37.4016 8.784L37.9296 8.832C38.0896 8.864 38.2016 8.88 38.2656 8.88C38.3296 8.88 38.3776 8.88 38.4096 8.88L38.7936 8.784C38.9216 8.752 39.0016 8.736 39.0336 8.736C39.0976 8.736 39.1456 8.736 39.1776 8.736C39.4016 8.736 39.5456 8.96 39.6096 9.408C39.6736 9.888 39.8816 10.128 40.2336 10.128C40.4576 10.128 40.6176 10.064 40.7136 9.936C40.7456 9.872 40.7776 9.808 40.8096 9.744C40.8416 9.68 40.8896 9.6 40.9536 9.504H41.2896C41.6096 9.088 41.8976 8.88 42.1536 8.88L42.4416 9.024C42.4416 9.024 42.4736 8.992 42.5376 8.928C43.0176 8.704 43.3376 8.592 43.4976 8.592C43.5936 8.592 43.7056 8.608 43.8336 8.64C43.9616 8.64 44.0896 8.656 44.2176 8.688C44.3456 8.816 44.4096 8.96 44.4096 9.12C44.4096 9.12 44.3296 9.232 44.1696 9.456C44.2016 9.584 44.2176 9.744 44.2176 9.936C44.2496 10.128 44.2496 10.352 44.2176 10.608C44.1216 10.8 44.0416 10.896 43.9776 10.896C43.9776 10.896 43.9936 10.912 44.0256 10.944C44.0576 10.976 44.0896 11.056 44.1216 11.184L44.2656 11.52C44.2656 11.648 44.2176 11.744 44.1216 11.808C44.0256 11.84 43.9776 11.904 43.9776 12C43.9776 12.032 43.9936 12.08 44.0256 12.144C44.0576 12.176 44.0896 12.224 44.1216 12.288L44.2176 12.528C44.2176 12.528 44.2016 12.56 44.1696 12.624C44.1376 12.656 44.0896 12.704 44.0256 12.768C44.2176 12.896 44.3136 13.152 44.3136 13.536C44.3136 13.792 44.1856 13.92 43.9296 13.92C43.9296 13.92 43.6576 13.856 43.1136 13.728C42.6016 13.6 42.2176 13.536 41.9616 13.536C42.0576 13.536 41.7856 13.648 41.1456 13.872H41.0496C40.8256 13.872 40.5856 13.936 40.3296 14.064C40.2976 14.16 40.2496 14.272 40.1856 14.4C40.1216 14.528 40.0576 14.672 39.9936 14.832C39.9296 14.864 39.8496 14.896 39.7536 14.928C39.6896 14.96 39.6096 15.008 39.5136 15.072C39.5136 15.072 39.4816 15.216 39.4176 15.504C39.0976 15.632 38.9376 15.776 38.9376 15.936C38.9376 16.064 39.0496 16.144 39.2736 16.176C39.3376 16.144 39.4016 16.208 39.4656 16.368L39.3696 16.896C39.5296 17.376 39.6256 17.616 39.6576 17.616C39.6576 17.616 39.6416 17.648 39.6096 17.712C39.5776 17.776 39.5296 17.824 39.4656 17.856C39.2736 17.92 39.1776 17.952 39.1776 17.952C39.1776 17.984 39.1776 18.064 39.1776 18.192C39.2096 18.288 39.2416 18.432 39.2736 18.624C39.2416 18.688 39.2256 18.8 39.2256 18.96C39.2256 19.088 39.2256 19.232 39.2256 19.392C39.1616 19.456 39.1296 19.504 39.1296 19.536C39.1296 19.568 39.2256 19.616 39.4176 19.68C39.5776 19.776 39.6576 19.84 39.6576 19.872C39.6576 19.904 39.6416 19.92 39.6096 19.92L39.2256 20.304C39.1936 20.4 39.1776 20.544 39.1776 20.736C39.1776 20.992 39.2736 21.216 39.4656 21.408L39.2736 21.84V21.936C39.2736 21.968 39.2736 22.016 39.2736 22.08C39.2736 22.144 39.2896 22.224 39.3216 22.32L39.0336 22.656C39.1296 22.752 39.2256 22.896 39.3216 23.088C39.3536 23.152 39.3696 23.248 39.3696 23.376C39.4016 23.472 39.4176 23.6 39.4176 23.76C39.4176 23.632 39.3696 23.712 39.2736 24C39.2416 24.096 39.2256 24.32 39.2256 24.672C39.2256 24.704 39.2736 24.768 39.3696 24.864C39.4016 24.928 39.4176 24.976 39.4176 25.008C39.4496 25.04 39.4656 25.072 39.4656 25.104C39.4336 25.104 39.3696 25.264 39.2736 25.584C39.2736 25.68 39.2896 25.744 39.3216 25.776V25.824C39.3216 25.952 39.2736 26.16 39.1776 26.448L39.2256 26.784V26.88C39.2256 26.912 39.2096 26.96 39.1776 27.024C39.1776 27.088 39.1616 27.168 39.1296 27.264C39.1296 27.296 39.0336 27.344 38.8416 27.408C38.8416 27.504 38.8896 27.728 38.9856 28.08C39.0816 28.336 39.0656 28.56 38.9376 28.752V28.896C39.0016 28.928 39.1776 28.944 39.4656 28.944L39.5136 29.088C39.5136 29.216 39.4496 29.392 39.3216 29.616C39.1936 29.904 39.0816 30.048 38.9856 30.048L38.7936 30C38.7296 29.968 38.6496 29.952 38.5536 29.952L38.3616 30.048C38.2656 30.08 38.1696 30.096 38.0736 30.096L36.5376 29.904L36.3936 29.952C36.3616 29.952 36.3296 29.968 36.2976 30C36.2976 30 36.2816 30 36.2496 30C36.2176 30 36.1856 29.984 36.1536 29.952C36.1216 29.92 36.0736 29.904 36.0096 29.904L35.7696 29.856C35.6736 29.856 35.6096 29.872 35.5776 29.904L35.3856 30C35.3216 30.032 35.0656 30.096 34.6176 30.192ZM36.1056 9.984C36.1056 9.888 36.0736 9.808 36.0096 9.744C35.9776 9.68 35.9136 9.696 35.8176 9.792C35.8176 9.856 35.9136 9.92 36.1056 9.984ZM38.4096 11.424C38.4416 11.392 38.4096 11.328 38.3136 11.232L38.1696 11.328C38.2016 11.36 38.2336 11.376 38.2656 11.376C38.3296 11.376 38.3776 11.392 38.4096 11.424ZM38.4576 12.192C38.4896 12.128 38.4736 12.064 38.4096 12C38.3456 11.936 38.2656 11.936 38.1696 12C38.2016 12.064 38.2976 12.128 38.4576 12.192ZM42.4416 12.672C42.4736 12.576 42.4576 12.496 42.3936 12.432C42.3616 12.4 42.2816 12.416 42.1536 12.48C42.1536 12.544 42.2496 12.608 42.4416 12.672ZM39.3696 14.304L39.4176 14.208L38.9856 13.968V14.256L39.3696 14.304ZM36.8256 20.016C36.8896 20.016 36.9536 19.936 37.0176 19.776L37.1136 19.536V19.2L36.7776 19.056C36.3936 19.056 36.1696 19.104 36.1056 19.2V19.248C36.1056 19.344 36.2176 19.44 36.4416 19.536L36.6336 19.776C36.7296 19.936 36.7936 20.016 36.8256 20.016ZM39.4656 25.104V25.152C39.4656 25.152 39.4656 25.136 39.4656 25.104ZM38.3616 25.776L38.3136 25.632C38.2816 25.664 38.2976 25.712 38.3616 25.776ZM35.3856 29.472C35.4176 29.472 35.4976 29.408 35.6256 29.28C35.6576 29.216 35.6416 29.152 35.5776 29.088C35.5456 29.024 35.4816 29.04 35.3856 29.136V29.472ZM36.3456 29.472L36.4416 29.328H36.2016L36.3456 29.472ZM63.3865 30.432L63.0505 30.288C62.8585 30.224 62.6505 30.192 62.4265 30.192L62.0425 30.336L61.6585 30.24C61.6265 30.272 61.5785 30.288 61.5145 30.288C61.4505 30.288 61.3865 30.304 61.3225 30.336L61.1305 30.24C61.0025 30.176 60.9225 30.144 60.8905 30.144L60.6505 30.192C60.6185 30.032 60.5865 29.904 60.5545 29.808C60.5545 29.68 60.5545 29.584 60.5545 29.52L60.6985 29.088C60.7305 28.96 60.7465 28.736 60.7465 28.416C60.7465 28.064 60.7465 27.632 60.7465 27.12L60.8425 26.592C60.8425 26.336 60.8905 26.064 60.9865 25.776C61.3065 25.648 61.4665 25.488 61.4665 25.296L60.7945 24.288L60.8425 22.896C60.8425 22.576 60.9865 22.256 61.2745 21.936C61.1145 21.552 61.0345 21.424 61.0345 21.552L61.0825 19.92C61.1785 19.92 61.2585 19.888 61.3225 19.824L61.0825 19.536L61.1785 19.104C61.0185 18.944 60.9385 18.704 60.9385 18.384C60.9385 18.192 60.9545 18.032 60.9865 17.904L60.8425 17.712C60.9385 17.616 61.0345 17.552 61.1305 17.52C61.0665 17.328 61.0345 17.2 61.0345 17.136C61.0345 16.944 61.1305 16.8 61.3225 16.704C61.1945 16.288 61.1305 16.096 61.1305 16.128V16.176C61.1305 16.144 61.1305 16.128 61.1305 16.128C61.1625 15.936 61.2745 15.744 61.4665 15.552C61.4345 15.52 61.4025 15.488 61.3705 15.456C61.3385 15.424 61.3065 15.392 61.2745 15.36V14.544C61.1465 14.416 61.0825 14.32 61.0825 14.256V13.44C61.0505 13.408 60.9225 13.392 60.6985 13.392L60.4105 13.44C60.3145 13.472 60.2185 13.488 60.1225 13.488L59.9785 13.44C59.9145 13.408 59.8505 13.392 59.7865 13.392C59.7545 13.392 59.6745 13.424 59.5465 13.488L59.6425 13.68C59.5465 13.968 59.4345 14.112 59.3065 14.112L59.2585 14.064H59.1625C59.2265 14.064 59.0505 14.176 58.6345 14.4C58.6345 14.528 58.6345 14.656 58.6345 14.784C58.6345 14.88 58.6185 14.992 58.5865 15.12C58.5545 15.504 58.4905 15.696 58.3945 15.696H58.3465L58.2985 15.744C58.2985 15.968 58.3945 16.08 58.5865 16.08C58.6505 16.08 58.7145 16.048 58.7785 15.984L58.5865 16.608C58.6185 16.672 58.6505 16.752 58.6825 16.848C58.7145 16.912 58.7465 16.976 58.7785 17.04L58.5385 17.52C58.5065 17.488 58.4265 17.488 58.2985 17.52C58.5225 17.616 58.6345 17.776 58.6345 18C58.6345 18.096 58.5545 18.224 58.3945 18.384C58.5225 18.672 58.6185 18.784 58.6825 18.72C58.6505 18.848 58.6025 19.104 58.5385 19.488V20.064C58.5385 20.416 58.5225 20.64 58.4905 20.736L58.3465 21.072C58.3465 21.072 58.3945 21.152 58.4905 21.312L58.5865 21.6C58.6185 21.824 58.6345 22.08 58.6345 22.368C58.6345 22.656 58.6345 23.008 58.6345 23.424L58.4905 24.096C58.4585 24.16 58.4425 24.288 58.4425 24.48C58.4425 24.576 58.4425 24.688 58.4425 24.816C58.4745 24.912 58.5065 25.04 58.5385 25.2C58.5385 25.264 58.5225 25.328 58.4905 25.392C58.4905 25.456 58.4745 25.52 58.4425 25.584C58.3145 25.84 58.2505 26.016 58.2505 26.112L58.3945 26.784L58.1065 27.408C57.9785 27.632 57.9145 27.808 57.9145 27.936C57.9145 27.968 57.9305 27.984 57.9625 27.984C57.9625 27.984 58.0585 27.952 58.2505 27.888L58.3945 28.176C58.4265 28.496 58.4425 28.72 58.4425 28.848C58.4745 28.976 58.4905 29.024 58.4905 28.992L58.3945 29.376V30.048C57.7545 30.176 57.4185 30.24 57.3865 30.24H57.4345C57.4345 30.24 57.4185 30.24 57.3865 30.24L57.2425 30.192C57.1145 30.128 57.0345 30.096 57.0025 30.096L56.6185 30.24C56.6185 30.24 56.5225 30.208 56.3305 30.144L56.0425 30C55.9785 30 55.9145 30.016 55.8505 30.048C55.7545 30.048 55.5465 29.92 55.2265 29.664C55.1305 30.016 54.9385 30.192 54.6505 30.192C54.4265 30.192 54.2185 30.144 54.0265 30.048C53.8345 29.888 53.7385 29.6 53.7385 29.184C53.7385 28.736 53.9305 28.4 54.3145 28.176L53.9785 27.936L54.0265 27.648C53.9305 27.36 53.8825 27.184 53.8825 27.12C53.9145 27.056 53.9465 26.976 53.9785 26.88C54.0425 26.752 54.0905 26.608 54.1225 26.448L54.0265 25.68C54.0265 25.456 54.1065 25.264 54.2665 25.104C54.2665 25.008 54.2185 24.912 54.1225 24.816C54.0585 24.688 54.0265 24.592 54.0265 24.528L54.1705 24.144L54.2665 23.76L54.0745 23.184L54.1705 22.512L54.2665 21.936C54.2665 21.936 54.2345 21.904 54.1705 21.84C54.0745 21.68 54.0265 21.488 54.0265 21.264C54.0265 21.008 54.0745 20.72 54.1705 20.4C54.2665 20.304 54.3305 20.192 54.3625 20.064L54.2665 19.584C54.1705 19.328 54.1225 19.168 54.1225 19.104L54.3145 18.144C54.6345 18.112 54.7945 18.048 54.7945 17.952C54.7945 17.888 54.7305 17.792 54.6025 17.664C54.5065 17.568 54.4265 17.456 54.3625 17.328C54.3945 17.232 54.4105 17.04 54.4105 16.752C54.3145 16.528 54.2505 16.4 54.2185 16.368C54.2505 16.336 54.2825 16.288 54.3145 16.224C54.3465 16.16 54.3785 16.08 54.4105 15.984C54.4105 15.984 54.3465 15.872 54.2185 15.648L54.2665 13.584C54.2985 13.456 54.2985 13.376 54.2665 13.344L54.1705 13.392C54.0745 13.264 53.9625 13.152 53.8345 13.056L53.4505 13.104C53.3225 13.136 53.2265 13.168 53.1625 13.2C53.0985 13.2 53.0345 13.2 52.9705 13.2C52.6505 13.456 52.5225 13.584 52.5865 13.584L52.2985 13.536C52.2665 13.856 52.1705 14.144 52.0105 14.4C51.8825 14.464 51.7545 14.56 51.6265 14.688L51.5305 15.024L51.7225 15.792C51.7225 15.792 51.6905 15.856 51.6265 15.984C51.5305 16.112 51.4825 16.208 51.4825 16.272L51.6745 17.232C51.6745 17.264 51.5945 17.488 51.4345 17.904C51.2745 18.384 51.1945 18.624 51.1945 18.624V18.768C51.2585 18.736 51.3065 18.704 51.3385 18.672C51.4025 18.64 51.4665 18.608 51.5305 18.576L51.6265 19.68L51.4825 20.496L51.2905 21.312C51.2905 21.536 51.3545 21.76 51.4825 21.984C51.4185 22.144 51.3225 22.224 51.1945 22.224C51.2905 22.736 51.3385 23.104 51.3385 23.328C51.3065 23.392 51.2745 23.472 51.2425 23.568C51.2105 23.664 51.1785 23.776 51.1465 23.904L51.1945 24.144C51.2585 24.272 51.3065 24.352 51.3385 24.384C51.3705 24.512 51.3865 24.656 51.3865 24.816C51.3865 24.944 51.3865 25.12 51.3865 25.344C51.3225 25.28 51.2585 25.488 51.1945 25.968L51.2905 26.16C51.3865 26.352 51.3225 26.496 51.0985 26.592C51.0985 26.624 51.1465 26.688 51.2425 26.784C51.3065 26.912 51.3385 26.992 51.3385 27.024C51.3385 27.12 51.2745 27.184 51.1465 27.216L50.8105 27.36V27.552C50.9705 27.616 51.0825 27.696 51.1465 27.792C51.1145 27.92 51.0985 28.08 51.0985 28.272C51.0985 28.432 51.0985 28.64 51.0985 28.896C51.1945 29.408 51.2425 29.632 51.2425 29.568C51.2425 29.888 51.0665 30.048 50.7145 30.048C50.6825 30.048 50.6025 30.032 50.4745 30C50.3785 29.936 50.2985 29.888 50.2345 29.856C50.2025 29.856 50.1705 29.872 50.1385 29.904C50.0745 29.968 50.0105 30 49.9465 30L49.8505 29.952C49.8185 29.92 49.7865 29.904 49.7545 29.904L49.2745 30.144C49.2425 30.112 49.1305 30.064 48.9385 30C48.7785 29.968 48.6345 29.952 48.5065 29.952C48.4105 29.92 48.3305 29.904 48.2665 29.904L47.7865 29.952C47.6265 29.984 47.4985 30 47.4025 30C47.3065 30 47.2425 30 47.2105 30C47.1785 30 47.1145 29.952 47.0185 29.856C46.8905 29.76 46.8105 29.712 46.7785 29.712L46.4905 29.952H46.2505V29.808C46.2505 29.744 46.2505 29.648 46.2505 29.52C46.2505 29.392 46.2665 29.232 46.2985 29.04C46.4265 29.04 46.5545 28.992 46.6825 28.896C46.6825 28.896 46.5545 28.736 46.2985 28.416V27.744C46.4585 27.584 46.5385 27.456 46.5385 27.36C46.5385 27.264 46.4905 27.12 46.3945 26.928C46.2985 26.736 46.2505 26.592 46.2505 26.496C46.2505 26.464 46.3305 26.336 46.4905 26.112L46.4425 25.632C46.4745 25.568 46.4905 25.504 46.4905 25.44C46.4905 25.376 46.5065 25.296 46.5385 25.2L46.4425 24.96C46.4425 24.96 46.4745 24.896 46.5385 24.768L46.5865 24.624C46.5865 24.592 46.5865 24.544 46.5865 24.48C46.5865 24.416 46.5705 24.336 46.5385 24.24C46.5065 24.112 46.4745 24.016 46.4425 23.952C46.4425 23.856 46.4425 23.792 46.4425 23.76V22.608L46.5385 22.464C46.4745 22.464 46.4425 22.432 46.4425 22.368L46.5385 22.32C46.5705 22.256 46.5865 22.192 46.5865 22.128C46.6185 22.032 46.6185 21.92 46.5865 21.792L46.5385 21.552C46.5385 21.52 46.5385 21.456 46.5385 21.36C46.5385 21.264 46.5225 21.136 46.4905 20.976C46.4905 21.04 46.5865 20.88 46.7785 20.496C46.8105 20.4 46.8265 20.192 46.8265 19.872C46.8265 19.904 46.7305 19.808 46.5385 19.584V19.44C46.5705 19.344 46.6025 19.232 46.6345 19.104C46.6985 18.976 46.7465 18.848 46.7785 18.72L46.6825 18.432C46.6185 18.24 46.5865 18.144 46.5865 18.144C46.5865 17.952 46.6345 17.84 46.7305 17.808C46.8265 17.744 46.8745 17.68 46.8745 17.616C46.8745 17.68 46.8105 17.584 46.6825 17.328V17.04C46.6825 16.88 46.7465 16.736 46.8745 16.608C46.9705 16.448 47.0185 16.368 47.0185 16.368C46.8905 16.208 46.7465 16.016 46.5865 15.792L46.8265 14.88C46.8905 14.816 46.9385 14.752 46.9705 14.688L46.7305 14.4V13.584C47.0505 13.488 47.2105 13.456 47.2105 13.488C47.2105 13.392 47.1465 13.28 47.0185 13.152C47.0505 13.056 47.0665 12.88 47.0665 12.624C46.8745 12.24 46.7785 11.936 46.7785 11.712L47.0185 9.744C46.9865 9.584 46.9545 9.408 46.9225 9.216C46.8905 8.992 46.8425 8.768 46.7785 8.544C46.7785 8.352 46.8745 8.256 47.0665 8.256C47.1305 8.256 47.2425 8.32 47.4025 8.448C47.5305 8.576 47.6265 8.64 47.6905 8.64L47.7865 8.592H47.8825C47.9145 8.592 47.9465 8.608 47.9785 8.64C48.0105 8.64 48.0585 8.656 48.1225 8.688C48.2185 8.784 48.2985 8.832 48.3625 8.832H48.6985C48.6985 8.928 48.6825 9.024 48.6505 9.12L48.7465 9.216C48.8425 9.216 48.9225 9.12 48.9865 8.928C49.0825 8.736 49.1145 8.56 49.0825 8.4H49.3705C49.5305 8.56 49.6265 8.64 49.6585 8.64C49.7545 8.64 49.8185 8.624 49.8505 8.592L49.9945 8.544L50.4745 8.688L50.9545 8.88C51.0185 8.88 51.1145 8.816 51.2425 8.688C51.3065 8.752 51.3865 8.832 51.4825 8.928C51.5785 8.992 51.6905 9.072 51.8185 9.168C51.7865 9.2 51.7385 9.248 51.6745 9.312C51.6425 9.376 51.5785 9.456 51.4825 9.552C51.6745 9.808 51.8505 9.936 52.0105 9.936L52.1065 9.888C52.2025 9.792 52.2665 9.712 52.2985 9.648L52.7785 9.504C53.0345 9.44 53.1625 9.312 53.1625 9.12C53.2585 9.024 53.3545 8.96 53.4505 8.928C53.6105 8.8 53.8185 8.736 54.0745 8.736C54.0745 8.736 54.1385 8.768 54.2665 8.832C54.2985 8.8 54.4585 8.736 54.7465 8.64L55.1305 8.592C55.2585 8.464 55.3545 8.4 55.4185 8.4C55.4825 8.4 55.5785 8.448 55.7065 8.544C55.8025 8.64 55.8825 8.688 55.9465 8.688L56.3305 8.544C56.3945 8.544 56.7305 8.736 57.3385 9.12H57.5785L58.1545 9.696V9.792C58.1545 9.952 58.2345 10.112 58.3945 10.272C58.2665 10.272 58.2025 10.32 58.2025 10.416C58.2025 10.768 58.5065 10.944 59.1145 10.944C59.1465 10.944 59.2745 10.8 59.4985 10.512C59.7545 10.224 59.9145 10.08 59.9785 10.08V10.128C60.1065 10.032 60.1545 9.92 60.1225 9.792L60.0265 9.504C60.0265 9.312 60.1065 9.216 60.2665 9.216L60.6025 9.504C60.6665 9.472 60.7145 9.456 60.7465 9.456C60.8105 9.456 60.8585 9.44 60.8905 9.408C61.0185 9.376 61.0825 9.296 61.0825 9.168V9.024C61.1465 9.056 61.2425 9.072 61.3705 9.072C61.5945 9.072 61.7065 8.96 61.7065 8.736V8.64C61.7705 8.704 61.8985 8.8 62.0905 8.928H62.2345C62.6505 8.928 62.8585 8.8 62.8585 8.544L63.3385 8.88C63.4025 9.072 63.4985 9.264 63.6265 9.456C63.6905 9.456 63.7865 9.296 63.9145 8.976H64.1545C64.2185 9.136 64.3145 9.216 64.4425 9.216L64.6825 9.168C64.7465 9.168 64.8105 9.248 64.8745 9.408V9.6C64.9065 9.632 64.9865 9.68 65.1145 9.744L65.6425 10.656C65.6105 10.688 65.5945 10.752 65.5945 10.848C65.5945 10.912 65.5785 10.992 65.5465 11.088L65.7865 11.376C65.8185 11.472 65.8345 11.648 65.8345 11.904C65.8345 12.16 65.8345 12.496 65.8345 12.912V12.96L65.7865 13.056C65.7865 13.056 65.8025 13.136 65.8345 13.296C65.8665 13.328 65.8345 13.456 65.7385 13.68V13.776C65.6105 13.808 65.4985 13.904 65.4025 14.064V14.256C65.4025 14.32 65.3705 14.416 65.3065 14.544C65.2425 14.672 65.2105 14.752 65.2105 14.784C65.2105 14.848 65.2585 14.96 65.3545 15.12C65.5785 15.696 65.6745 16.048 65.6425 16.176C65.4505 16.24 65.3385 16.432 65.3065 16.752L65.7865 16.944V17.136C65.7545 17.168 65.7225 17.2 65.6905 17.232C65.6585 17.264 65.6105 17.312 65.5465 17.376C65.5465 17.44 65.5945 17.52 65.6905 17.616C65.7225 17.68 65.7385 17.728 65.7385 17.76C65.7705 17.792 65.7865 17.824 65.7865 17.856C65.7865 17.92 65.7065 18.032 65.5465 18.192C65.6105 18.48 65.6585 18.72 65.6905 18.912C65.7545 19.104 65.7705 19.248 65.7385 19.344V21.456C65.7385 21.52 65.6585 21.824 65.4985 22.368C65.5305 22.496 65.5465 22.576 65.5465 22.608C65.5785 22.64 65.5945 22.64 65.5945 22.608V24.192L65.5465 24.336C65.4825 24.464 65.4505 24.528 65.4505 24.528C65.5145 24.816 65.5305 24.992 65.4985 25.056L65.2585 25.392L65.2105 26.304C65.1145 26.208 65.0185 26.16 64.9225 26.16C64.7305 26.16 64.6345 26.24 64.6345 26.4C64.6345 26.56 64.7305 26.72 64.9225 26.88C65.0505 27.008 65.1785 27.072 65.3065 27.072V27.456C65.4025 27.68 65.4665 27.792 65.4985 27.792L65.2585 28.464C65.2585 28.496 65.2585 28.56 65.2585 28.656C65.2905 28.72 65.3225 28.816 65.3545 28.944C65.3865 28.944 65.3705 29.072 65.3065 29.328C65.4345 29.456 65.4985 29.584 65.4985 29.712C65.4985 29.808 65.4505 29.936 65.3545 30.096C65.2585 30.256 65.1625 30.336 65.0665 30.336L64.7305 30.384H64.3945L64.1065 30.288C63.9145 30.192 63.8025 30.144 63.7705 30.144C63.7385 30.24 63.6105 30.336 63.3865 30.432ZM49.7065 9.504L49.8985 9.36L49.8505 9.264C49.7865 9.328 49.7385 9.408 49.7065 9.504ZM54.0265 10.56L54.3625 10.464C54.2665 10.304 54.1065 10.16 53.8825 10.032C53.8505 10.064 53.8025 10.16 53.7385 10.32V10.464C53.8025 10.56 53.8985 10.592 54.0265 10.56ZM47.8345 10.992C47.9305 10.992 47.9945 10.976 48.0265 10.944C48.0905 10.88 48.0905 10.8 48.0265 10.704C47.9625 10.704 47.8985 10.8 47.8345 10.992ZM61.6585 12.096C61.7225 12.096 61.8825 12.016 62.1385 11.856L62.2345 11.328C62.2345 11.2 62.1545 11.056 61.9945 10.896L61.8025 10.944C61.7385 10.976 61.6905 11.008 61.6585 11.04C61.6265 11.04 61.5945 11.04 61.5625 11.04C61.1785 11.04 60.9545 11.04 60.8905 11.04C60.9225 11.104 61.0345 11.248 61.2265 11.472C61.1945 11.6 61.1945 11.728 61.2265 11.856C61.3545 11.984 61.4985 12.064 61.6585 12.096ZM50.1385 14.016C50.1705 13.952 50.1385 13.888 50.0425 13.824C50.0105 13.792 49.9465 13.792 49.8505 13.824C49.8505 13.952 49.9465 14.016 50.1385 14.016ZM57.5785 14.208C57.5785 14.112 57.5625 14.048 57.5305 14.016C57.4665 13.952 57.3865 13.952 57.2905 14.016C57.2905 14.08 57.3865 14.144 57.5785 14.208ZM54.2185 16.416C54.2185 16.352 54.2185 16.336 54.2185 16.368C54.2185 16.368 54.2185 16.384 54.2185 16.416ZM63.9625 19.872C63.9625 19.808 63.9305 19.744 63.8665 19.68C63.8345 19.616 63.7705 19.632 63.6745 19.728C63.6745 19.824 63.7705 19.872 63.9625 19.872ZM48.5065 24.096C48.6345 24.096 48.7625 24 48.8905 23.808C48.9865 23.648 49.0345 23.504 49.0345 23.376C48.9385 23.216 48.7465 23.072 48.4585 22.944H48.4105C48.0905 22.944 47.8345 23.168 47.6425 23.616C47.8665 23.872 48.1545 24.032 48.5065 24.096ZM49.4665 27.792C49.4985 27.76 49.4665 27.696 49.3705 27.6L49.2265 27.696C49.2905 27.696 49.3385 27.712 49.3705 27.744L49.4665 27.792ZM65.4985 27.744C65.4985 27.808 65.4985 27.824 65.4985 27.792V27.744ZM49.9945 28.944V28.896C49.9945 28.8 49.9305 28.72 49.8025 28.656C49.7065 28.592 49.6105 28.592 49.5145 28.656V28.8C49.5145 29.024 49.6745 29.072 49.9945 28.944ZM72.1686 30.192L71.5446 30H71.3526C71.2566 30 71.1446 30 71.0166 30C70.8886 29.968 70.7446 29.936 70.5846 29.904L69.5766 29.04C69.3206 28.784 69.1286 28.48 69.0006 28.128C68.9686 28 68.9366 27.84 68.9046 27.648C68.8726 27.456 68.8246 27.232 68.7606 26.976L68.8086 26.736C68.8086 26.64 68.7926 26.56 68.7606 26.496C68.6966 26.304 68.6646 26.208 68.6646 26.208C68.6966 26.144 68.7126 26.048 68.7126 25.92C68.7126 25.76 68.7126 25.6 68.7126 25.44L68.4246 24.48V24.336C68.4246 24.272 68.4246 24.192 68.4246 24.096C68.4246 24 68.4406 23.904 68.4726 23.808L68.7126 23.232V22.896C68.8406 22.704 68.9686 22.464 69.0966 22.176C69.2246 21.856 69.3526 21.488 69.4806 21.072L69.8646 20.88C69.8966 20.816 69.9286 20.752 69.9606 20.688C69.9926 20.624 70.0406 20.56 70.1046 20.496L70.7766 19.824C70.8086 19.76 70.8406 19.696 70.8726 19.632C70.9046 19.536 70.9526 19.424 71.0166 19.296L72.7446 18.24C72.9046 18.144 73.0646 18.048 73.2246 17.952C73.3846 17.856 73.5446 17.744 73.7046 17.616C73.7046 17.616 73.8006 17.648 73.9926 17.712C74.0246 17.68 74.0566 17.648 74.0886 17.616C74.1206 17.552 74.1686 17.504 74.2326 17.472L74.7126 17.28C74.7126 17.12 74.7766 16.96 74.9046 16.8C75.0006 16.736 75.1126 16.64 75.2406 16.512C75.4006 16.384 75.5766 16.224 75.7686 16.032C75.8006 16 75.8006 15.84 75.7686 15.552C75.8326 15.616 75.8646 15.6 75.8646 15.504C75.8646 15.216 75.8486 15.104 75.8166 15.168C75.7846 15.04 75.7366 14.912 75.6726 14.784C75.6406 14.624 75.6086 14.464 75.5766 14.304C75.5446 14.272 75.5606 14.176 75.6246 14.016L75.7206 13.776C75.7206 13.776 75.6406 13.664 75.4806 13.44L75.0006 12.816C74.8406 12.656 74.6326 12.592 74.3766 12.624L74.1366 12.672C73.9446 12.736 73.8486 12.768 73.8486 12.768H73.4166L73.3206 12.864C73.3526 12.896 73.3846 12.928 73.4166 12.96C73.4486 12.992 73.4806 13.04 73.5126 13.104C73.5126 13.168 73.4966 13.216 73.4646 13.248V13.392C73.3366 13.424 73.1926 13.552 73.0326 13.776C72.9686 13.968 72.9366 14.144 72.9366 14.304C73.0006 14.432 73.0966 14.56 73.2246 14.688C73.1926 14.72 73.1446 14.736 73.0806 14.736C73.0166 14.992 73.0166 15.168 73.0806 15.264L73.2246 15.456V15.696C73.2246 15.728 73.1766 15.776 73.0806 15.84L72.5046 15.696C72.4726 15.568 72.3926 15.536 72.2646 15.6C72.1686 15.664 72.0886 15.648 72.0246 15.552H71.9286C71.8326 15.552 71.7686 15.52 71.7366 15.456C71.7046 15.36 71.6406 15.376 71.5446 15.504L71.2566 15.84C71.0966 15.84 70.9686 15.856 70.8726 15.888L70.6326 15.792C70.5366 15.728 70.4726 15.712 70.4406 15.744C70.4086 15.744 70.3766 15.744 70.3446 15.744L69.3366 16.032C69.2726 16.032 69.1926 16.032 69.0966 16.032C69.0006 16.032 68.8886 16.016 68.7606 15.984L68.5206 15.264C68.5206 15.232 68.5366 15.216 68.5686 15.216C68.6006 15.184 68.6166 15.152 68.6166 15.12L68.6646 14.976C68.6326 14.88 68.6166 14.768 68.6166 14.64C68.6166 14.48 68.6166 14.32 68.6166 14.16C68.7126 14.064 68.7766 13.968 68.8086 13.872C68.8406 13.776 68.8566 13.568 68.8566 13.248V12.96C68.8566 12.128 69.5606 11.088 70.9686 9.84C71.0006 9.744 71.1126 9.6 71.3046 9.408C71.3366 9.376 71.5446 9.28 71.9286 9.12C71.9926 9.056 72.0086 9.008 71.9766 8.976L72.0246 8.736C72.1526 8.768 72.2806 8.8 72.4086 8.832C72.5686 8.832 72.7126 8.832 72.8406 8.832L73.1766 8.688C73.2406 8.656 73.3046 8.624 73.3686 8.592C73.4326 8.56 73.4806 8.544 73.5126 8.544H73.8486C73.8806 8.512 73.9926 8.464 74.1846 8.4C74.3766 8.368 74.5366 8.352 74.6646 8.352C74.8246 8.32 74.9686 8.304 75.0966 8.304C75.2566 8.304 75.5926 8.352 76.1046 8.448C76.6806 8.544 77.0006 8.64 77.0646 8.736L77.0166 9.072L77.1606 9.264L77.4486 9.12C77.5446 9.12 77.6566 9.216 77.7846 9.408L78.1686 9.456C78.2326 9.456 78.2966 9.472 78.3606 9.504C78.4566 9.504 78.5206 9.504 78.5526 9.504C78.5846 9.536 78.6166 9.568 78.6486 9.6C78.6806 9.6 78.7126 9.632 78.7446 9.696V10.08L78.3606 10.272C78.3926 10.4 78.5206 10.48 78.7446 10.512C79.0006 10.544 79.1446 10.592 79.1766 10.656L79.6566 12.432C79.6566 12.528 79.7526 12.656 79.9446 12.816C79.9766 13.04 79.9926 13.296 79.9926 13.584C79.9926 13.872 79.9926 14.176 79.9926 14.496L80.1366 14.736C80.1686 14.768 80.1846 14.944 80.1846 15.264L80.1366 16.08C80.1046 16.368 80.0886 16.624 80.0886 16.848C80.0886 17.04 80.0886 17.2 80.0886 17.328L80.1846 17.472C80.2166 17.792 80.2326 18.048 80.2326 18.24C80.2646 18.4 80.2806 18.464 80.2806 18.432L80.0886 18.912C80.0566 19.04 80.0246 19.136 79.9926 19.2C79.9926 19.232 79.9926 19.264 79.9926 19.296C79.9926 19.392 79.9926 19.488 79.9926 19.584C80.0246 19.68 80.0566 19.776 80.0886 19.872C80.1526 19.936 80.2006 20.032 80.2326 20.16C80.2966 20.256 80.3446 20.368 80.3766 20.496L80.3286 21.12C80.2966 21.152 80.2646 21.216 80.2326 21.312C80.2006 21.376 80.1686 21.456 80.1366 21.552C80.1366 21.552 80.2006 21.984 80.3286 22.848L80.1366 23.52C80.1686 23.552 80.2166 23.664 80.2806 23.856C80.3446 24.016 80.3766 24.112 80.3766 24.144V24.384C80.3766 24.576 80.3606 24.72 80.3286 24.816C80.6166 24.848 80.7606 25.088 80.7606 25.536L80.6646 25.824C80.6006 26.016 80.5686 26.112 80.5686 26.112L80.7126 26.64C80.7446 26.768 80.7606 26.912 80.7606 27.072C80.7926 27.232 80.8086 27.44 80.8086 27.696V28.176C80.9046 28.304 81.0006 28.528 81.0966 28.848V28.896C81.0966 29.248 80.6646 29.456 79.8006 29.52L78.8886 29.376C78.8566 29.376 78.7606 29.376 78.6006 29.376C78.4406 29.376 78.2006 29.392 77.8806 29.424C77.8486 29.424 77.8006 29.456 77.7366 29.52C77.6726 29.584 77.6086 29.616 77.5446 29.616H77.1126C77.1126 29.616 76.9206 29.552 76.5366 29.424L76.6326 28.992C76.6326 28.8 76.5366 28.656 76.3446 28.56C76.3446 28.528 76.3606 28.4 76.3926 28.176L76.4886 27.84C76.2646 27.872 75.6886 28.352 74.7606 29.28C74.5366 29.504 74.3766 29.6 74.2806 29.568L74.0886 29.52C73.9926 29.616 73.8966 29.696 73.8006 29.76C73.6086 29.856 73.4326 29.904 73.2726 29.904C73.2406 29.936 73.2246 29.936 73.2246 29.904C73.1926 29.872 73.1606 29.856 73.1286 29.856C73.0966 29.888 72.9366 29.952 72.6486 30.048C72.3926 30.144 72.2326 30.192 72.1686 30.192ZM72.4086 9.504C72.4086 9.408 72.3446 9.344 72.2166 9.312C72.1526 9.376 72.1206 9.424 72.1206 9.456C72.1526 9.648 72.2486 9.664 72.4086 9.504ZM78.3606 11.952L78.5046 11.76C78.5366 11.696 78.5046 11.632 78.4086 11.568C78.3126 11.536 78.2006 11.536 78.0726 11.568C78.1046 11.664 78.2006 11.792 78.3606 11.952ZM71.5446 13.68L72.1206 13.632C72.3766 13.632 72.5046 13.52 72.5046 13.296L72.4086 13.056L71.7846 13.008C71.5286 13.008 71.4166 13.104 71.4486 13.296L71.4966 13.488C71.5286 13.552 71.5446 13.616 71.5446 13.68ZM75.9126 17.184C75.9446 17.216 76.0246 17.216 76.1526 17.184L76.1046 16.992C75.9766 17.024 75.9126 17.088 75.9126 17.184ZM72.7446 20.016L72.7926 19.776L72.5046 19.728L72.7446 20.016ZM73.8966 25.968H74.1366C74.2006 25.968 74.2646 25.936 74.3286 25.872C74.3926 25.808 74.4406 25.776 74.4726 25.776C74.5366 25.808 74.6326 25.856 74.7606 25.92C74.8886 25.92 75.0326 25.84 75.1926 25.68C75.2566 25.52 75.3526 25.328 75.4806 25.104C75.6406 25.04 75.8166 24.912 76.0086 24.72C75.9766 24.656 75.9606 24.528 75.9606 24.336C75.9606 24.176 75.9606 24 75.9606 23.808C75.9926 23.616 76.0246 23.408 76.0566 23.184C76.0246 23.024 75.9926 22.848 75.9606 22.656C75.9286 22.432 75.8966 22.176 75.8646 21.888C75.8646 21.696 75.9606 21.584 76.1526 21.552C76.0566 21.232 75.8486 20.784 75.5286 20.208H74.7606C74.6646 20.592 74.5206 20.928 74.3286 21.216L73.9926 21.456L73.8006 21.792L73.4646 21.984C73.4326 22.112 73.3686 22.256 73.2726 22.416C73.2086 22.576 73.1446 22.768 73.0806 22.992C73.0806 23.184 72.9686 23.504 72.7446 23.952L72.7926 24.144C72.5686 24.4 72.4566 24.56 72.4566 24.624C72.5206 24.592 72.5846 24.624 72.6486 24.72L72.9366 25.488C73.0006 25.52 73.0646 25.552 73.1286 25.584C73.1926 25.584 73.2566 25.616 73.3206 25.68C73.3526 25.712 73.3846 25.744 73.4166 25.776C73.4486 25.808 73.4806 25.856 73.5126 25.92L73.8966 25.968ZM78.7926 23.52C78.8566 23.52 78.9366 23.472 79.0326 23.376C79.1606 23.248 79.2246 23.152 79.2246 23.088L79.1286 22.896C79.0966 22.864 79.0486 22.848 78.9846 22.848C78.9206 22.848 78.8566 22.832 78.7926 22.8L78.4566 23.04C78.4886 23.072 78.5366 23.184 78.6006 23.376C78.6646 23.472 78.7286 23.52 78.7926 23.52ZM76.8246 24.864L77.1126 24.768C77.0806 24.736 77.0646 24.656 77.0646 24.528L76.7766 24.576C76.7766 24.736 76.7926 24.832 76.8246 24.864ZM74.2806 28.944C74.3446 28.688 74.3286 28.56 74.2326 28.56L74.1366 28.656C74.1046 28.688 74.0886 28.768 74.0886 28.896L74.2806 28.944ZM84.8324 30.096L84.2084 29.904C84.1124 29.84 84.0644 29.776 84.0644 29.712C84.1284 29.616 84.1284 29.296 84.0644 28.752C84.0964 28.72 84.1124 28.672 84.1124 28.608L84.3524 28.416C84.3524 28.32 84.3364 28.24 84.3044 28.176L84.2564 27.984C84.2884 27.984 84.3524 27.904 84.4484 27.744C84.4804 27.616 84.5444 27.552 84.6404 27.552C84.8324 27.392 84.9284 27.248 84.9284 27.12C84.9284 26.736 84.7524 26.592 84.4004 26.688L84.2084 26.736C84.2404 26.672 84.2564 26.608 84.2564 26.544C84.2564 26.48 84.2724 26.4 84.3044 26.304L84.0644 25.92C84.0644 25.888 84.0644 25.84 84.0644 25.776C84.0644 25.712 84.0804 25.616 84.1124 25.488L84.0644 25.296C84.0644 25.264 84.0484 25.248 84.0164 25.248C83.9844 25.216 83.9684 25.184 83.9684 25.152L84.1124 24.672C84.2084 24.416 84.2564 24.272 84.2564 24.24L84.1124 23.952C84.1124 23.792 84.0964 23.584 84.0644 23.328C84.0644 23.04 84.0484 22.736 84.0164 22.416L83.8244 21.888V21.744C83.8244 21.648 83.8404 21.52 83.8724 21.36C83.9364 21.2 83.9684 21.008 83.9684 20.784V20.736C83.9684 20.672 83.9524 20.608 83.9204 20.544C83.9204 20.448 83.9044 20.336 83.8724 20.208L84.0164 19.968C84.0164 19.936 84.0004 19.904 83.9684 19.872L83.8724 19.536C83.8084 19.376 83.8244 19.216 83.9204 19.056L84.1124 18.72L83.9684 18.528V18.192C83.9684 18.064 83.9524 17.936 83.9204 17.808C83.9204 17.648 83.9204 17.488 83.9204 17.328L83.7284 16.608C83.7604 16.512 83.7764 16.4 83.7764 16.272C83.7764 16.112 83.7924 15.952 83.8244 15.792L84.0644 15.504C83.8404 15.376 83.6964 15.152 83.6324 14.832C83.6324 14.704 83.7124 14.56 83.8724 14.4C84.0324 14.304 84.1124 14.208 84.1124 14.112C84.1124 14.016 84.0644 13.872 83.9684 13.68L84.1604 13.536C84.0964 13.504 84.0164 13.456 83.9204 13.392C83.8244 13.328 83.7124 13.264 83.5844 13.2L83.9684 12.768C83.7764 12.672 83.6804 12.336 83.6804 11.76L83.2964 9.552V8.352C83.2964 8.192 83.2804 8.112 83.2484 8.112L83.1524 7.776C83.1524 7.584 83.1844 7.392 83.2484 7.2C83.2484 7.136 83.2964 7.088 83.3924 7.056C83.4564 6.992 83.4884 6.944 83.4884 6.912C83.4884 6.912 83.4564 6.848 83.3924 6.72C83.2964 6.624 83.2484 6.56 83.2484 6.528C83.2804 6.464 83.2964 6.32 83.2964 6.096L83.6324 6.144C83.6644 6.048 83.6804 5.856 83.6804 5.568L83.3444 5.424C83.3764 5.392 83.3924 5.28 83.3924 5.088L83.1524 2.976L83.2964 2.592L83.1044 2.352L82.9604 1.824C82.9604 1.6 83.0884 1.312 83.3444 0.959999H83.5844C83.7124 1.184 83.8244 1.296 83.9204 1.296C83.9844 1.296 84.0804 1.232 84.2084 1.104C84.3364 0.975999 84.4324 0.912 84.4964 0.912L84.8804 1.104C85.1044 1.232 85.2324 1.296 85.2644 1.296C85.2964 1.264 85.3284 1.232 85.3604 1.2C85.3924 1.168 85.4404 1.136 85.5044 1.104L85.6964 1.152C85.7604 1.184 85.8244 1.2 85.8884 1.2C85.9524 1.2 86.1284 1.168 86.4164 1.104C86.7044 1.008 86.8804 0.943999 86.9444 0.912C87.2964 0.912 87.5204 0.927999 87.6164 0.959999C87.7444 0.991999 87.9204 1.264 88.1444 1.776L87.9524 2.496C88.0164 2.656 88.0644 2.864 88.0964 3.12C88.0964 3.184 88.0964 3.264 88.0964 3.36C88.0964 3.424 88.0804 3.52 88.0484 3.648L87.9524 4.08C87.9524 4.112 87.9684 4.16 88.0004 4.224C88.0324 4.256 88.0644 4.336 88.0964 4.464L88.1924 4.848C88.1924 4.88 88.1924 4.928 88.1924 4.992C88.1924 5.024 88.1764 5.104 88.1444 5.232C88.1444 5.328 88.0804 5.424 87.9524 5.52L88.2884 6.24C88.2884 6.272 88.2404 6.416 88.1444 6.672C88.2404 6.896 88.2884 7.152 88.2884 7.44C88.2884 7.44 88.2564 7.536 88.1924 7.728C88.1284 7.888 88.1124 7.984 88.1444 8.016L88.3844 8.688C88.4484 9.104 88.4964 9.392 88.5284 9.552C88.5284 9.552 88.4804 9.632 88.3844 9.792C88.2884 9.92 88.2404 10.016 88.2404 10.08C88.1764 10.08 88.0484 10.112 87.8564 10.176C88.1124 10.496 88.3524 10.928 88.5764 11.472L88.3844 11.952C88.2564 12.24 88.1924 12.464 88.1924 12.624C88.2564 12.688 88.3364 12.832 88.4324 13.056L88.4804 13.44C88.5764 13.536 88.6404 13.632 88.6724 13.728C88.6724 13.728 88.6244 13.808 88.5284 13.968L88.2884 14.304C88.2564 14.368 88.2404 14.464 88.2404 14.592L88.6244 14.976L88.4324 15.264C88.4644 15.232 88.4964 15.312 88.5284 15.504L88.4804 15.936L88.6244 16.32L88.4324 17.232L88.8644 17.952C88.8644 18.016 88.8164 18.192 88.7204 18.48L88.5284 18.96C88.5284 19.024 88.6244 19.472 88.8164 20.304C88.6884 20.208 88.5444 20.16 88.3844 20.16C88.1604 20.16 88.0484 20.256 88.0484 20.448C88.0484 20.672 88.1764 20.784 88.4324 20.784C88.4644 20.784 88.5284 20.832 88.6244 20.928L88.7684 21.024C88.7364 21.248 88.7364 21.456 88.7684 21.648L88.9124 22.032C88.9124 22.032 88.8804 22.128 88.8164 22.32L88.7204 22.608C88.8484 22.736 88.9284 22.88 88.9604 23.04V23.328C88.9284 23.36 88.8324 23.376 88.6724 23.376L88.7204 23.664V24C88.5924 23.936 88.4804 23.952 88.3844 24.048V24.192L88.7684 24.144C88.8324 24.464 88.8804 24.688 88.9124 24.816L88.8164 25.104C88.7524 25.296 88.7204 25.392 88.7204 25.392C88.7204 25.488 88.7844 25.584 88.9124 25.68L89.1524 25.824C89.0564 25.952 89.0404 26.16 89.1044 26.448C89.1044 26.48 89.0724 26.528 89.0084 26.592C88.9444 26.656 88.9124 26.72 88.9124 26.784L89.1524 28.224L89.2004 29.712C89.2004 29.904 89.1044 30 88.9124 30L88.7204 29.904C88.6564 29.872 88.6084 29.856 88.5764 29.856C88.5444 29.824 88.5124 29.808 88.4804 29.808C88.4164 29.776 88.3364 29.76 88.2404 29.76C88.1444 29.76 88.0644 29.76 88.0004 29.76C87.6484 29.76 87.3604 29.776 87.1364 29.808C86.9124 29.808 86.7684 29.792 86.7044 29.76L86.4164 29.712C86.3524 29.744 86.2724 29.792 86.1764 29.856C86.1124 29.888 86.0164 29.936 85.8884 30H85.1684C85.1364 30.032 85.0884 30.048 85.0244 30.048C84.9604 30.048 84.8964 30.064 84.8324 30.096ZM84.9764 2.88C85.0084 2.848 85.0404 2.832 85.0724 2.832C85.1044 2.832 85.1364 2.816 85.1684 2.784C85.1684 2.752 85.1364 2.704 85.0724 2.64L84.9764 2.88ZM87.3764 11.184C87.4084 11.152 87.3764 11.104 87.2804 11.04C87.2164 11.04 87.1684 11.056 87.1364 11.088C87.2004 11.152 87.2804 11.184 87.3764 11.184ZM87.4724 11.952C87.5044 11.888 87.4884 11.824 87.4244 11.76C87.3924 11.728 87.3124 11.744 87.1844 11.808C87.2484 11.904 87.3444 11.952 87.4724 11.952ZM84.3524 16.608C84.4164 16.608 84.4804 16.576 84.5444 16.512C84.6084 16.448 84.5924 16.384 84.4964 16.32C84.4004 16.32 84.3524 16.416 84.3524 16.608ZM86.8484 19.968H86.9924C87.1844 19.968 87.3284 19.856 87.4244 19.632C87.5844 19.312 87.6644 19.184 87.6644 19.248C87.6004 18.96 87.3604 18.88 86.9444 19.008C86.7844 19.072 86.6564 19.168 86.5604 19.296C86.4964 19.392 86.4644 19.504 86.4644 19.632C86.4644 19.856 86.5924 19.968 86.8484 19.968ZM85.5524 29.136C85.5844 29.072 85.5684 29.008 85.5044 28.944C85.4724 28.88 85.3924 28.912 85.2644 29.04C85.3284 29.136 85.4244 29.168 85.5524 29.136Z" fill="#FEDC77"/>
</svg>
