<svg width="72" height="64" viewBox="0 0 72 64" fill="none" xmlns="http://www.w3.org/2000/svg">
<path d="M9.66671 13.1066L13.76 12.6466L11.3334 15.9999L13.7867 19.3133L9.66671 18.8799L8.02005 22.6666L6.33338 18.8933L2.24005 19.3533L4.66671 15.9999L2.21338 12.6866L6.33338 13.1199L7.98005 9.33325L9.66671 13.1066Z" fill="#835148"/>
<path d="M38.5001 7.66L44.6401 6.97L41.0001 12L44.6801 16.97L38.5001 16.32L36.0301 22L33.5001 16.34L27.3601 17.03L31.0001 12L27.3201 7.03L33.5001 7.68L35.9701 2L38.5001 7.66Z" fill="#835148"/>
<path d="M65.6667 13.1066L69.76 12.6466L67.3334 15.9999L69.7867 19.3133L65.6667 18.8799L64.02 22.6666L62.3334 18.8933L58.24 19.3533L60.6667 15.9999L58.2134 12.6866L62.3334 13.1199L63.98 9.33325L65.6667 13.1066Z" fill="#835148"/>
<path d="M9.74 56.08L9.66 56.04H8.86C8.83333 56.04 8.78 56.04 8.7 56.04C8.64667 56.04 8.58 56.0267 8.5 56C8.42 55.9467 8.3 55.9067 8.14 55.88L7.22 56.04C7.03333 55.96 6.79333 55.88 6.5 55.8L5.7 55.96C5.48667 55.9067 5.34 55.8533 5.26 55.8L5.22 55.68L5.5 50.52C5.74 50.0667 5.86 49.7867 5.86 49.68C5.86 49.6267 5.86 49.5733 5.86 49.52C5.86 49.4667 5.84667 49.4 5.82 49.32C5.76667 49.1333 5.75333 49 5.78 48.92C5.78 48.7867 5.82 48.6267 5.9 48.44L6.02 48.12L5.78 47.28L5.9 46.92C5.92667 46.8667 5.95333 46.7867 5.98 46.68C6.00667 46.5733 6.03333 46.44 6.06 46.28L6.38 45.8L5.98 45.52L6.06 45.2V45.16C6.06 45.0533 6.00667 44.9467 5.9 44.84L5.94 44.68C5.99333 44.6533 6.06 44.6267 6.14 44.6C6.22 44.5467 6.31333 44.48 6.42 44.4L6.5 44.36C6.20667 44.12 6.06 43.96 6.06 43.88L6.22 43.6C6.22 43.5733 6.14 43.52 5.98 43.44V42.96C5.98 42.9067 5.98 42.8533 5.98 42.8C6.00667 42.7467 6.03333 42.68 6.06 42.6C6.11333 42.52 6.20667 42.48 6.34 42.48L6.42 42.4C6.18 41.52 6.06 41.0133 6.06 40.88L6.14 40.64L6.22 40.36L6.26 39.76C6.28667 39.7333 6.31333 39.7067 6.34 39.68C6.39333 39.6267 6.46 39.5733 6.54 39.52L6.22 39.16C6.19333 39.0267 6.19333 38.9067 6.22 38.8C6.14 38.4 6.1 38.1067 6.1 37.92C6.1 37.84 6.12667 37.7733 6.18 37.72C6.20667 37.72 6.24667 37.7467 6.3 37.8C6.32667 37.6933 6.34 37.6 6.34 37.52C6.36667 37.44 6.38 37.3867 6.38 37.36C6.35333 37.2267 6.34 37.1467 6.34 37.12C6.34 37.0667 6.32667 37.0667 6.3 37.12L6.46 36.04C6.48667 35.9867 6.51333 35.9333 6.54 35.88C6.56667 35.8267 6.59333 35.7733 6.62 35.72L6.5 35.4C6.39333 35.2133 6.34 35.1067 6.34 35.08C6.34 35.0533 6.40667 34.88 6.54 34.56L6.9 34.36C6.82 34.28 6.7 34.24 6.54 34.24C6.54 34.16 6.52667 34.08 6.5 34C6.5 33.92 6.5 33.84 6.5 33.76C6.5 33.3067 6.51333 32.9867 6.54 32.8C6.56667 32.5867 6.59333 32.52 6.62 32.6L6.54 32.4C6.51333 32.3467 6.5 32.28 6.5 32.2C6.5 31.9333 6.74 31.8267 7.22 31.88L7.46 31.96C7.59333 32.04 7.67333 32.08 7.7 32.08L7.86 32C7.91333 31.9733 7.98 31.96 8.06 31.96C8.14 32.04 8.22 32.1067 8.3 32.16C8.62 32.2933 8.83333 32.36 8.94 32.36C8.99333 32.36 9.04667 32.2933 9.1 32.16C9.20667 32.1333 9.3 32.12 9.38 32.12C9.46 32.0933 9.55333 32.0933 9.66 32.12C9.71333 32.12 9.83333 32.24 10.02 32.48C10.18 32.7467 10.2733 32.88 10.3 32.88C10.3 32.88 10.4467 32.7733 10.74 32.56C10.98 32.3467 11.1133 32.2533 11.14 32.28L11.42 32.32C11.4467 32.32 11.5 32.28 11.58 32.2C11.6867 32.1467 11.7533 32.12 11.78 32.12C11.8867 32.12 11.9533 32.2 11.98 32.36C12.0067 32.52 12.14 32.6133 12.38 32.64H12.5C12.5533 32.5333 12.58 32.4533 12.58 32.4H12.74L13.9 32.64C14.0333 32.64 14.1133 32.6933 14.14 32.8L14.26 33.08C14.6333 32.8667 14.7933 32.76 14.74 32.76C14.82 32.8133 14.9533 32.9067 15.14 33.04L15.62 33.24C15.7267 33.32 15.78 33.4133 15.78 33.52C15.78 33.6 15.7667 33.68 15.74 33.76L15.66 33.96C15.66 34.12 15.8733 34.1867 16.3 34.16H16.82C16.82 34.1867 16.82 34.24 16.82 34.32C16.8467 34.3733 16.8733 34.44 16.9 34.52C16.9533 34.5467 16.9933 34.5867 17.02 34.64C17.0733 34.6933 17.1267 34.7467 17.18 34.8C17.42 35.12 17.54 35.32 17.54 35.4C17.54 35.48 17.5133 35.5467 17.46 35.6L17.5 35.68C17.5267 35.7333 17.54 35.7867 17.54 35.84L17.26 36.24C17.26 36.4533 17.4733 36.6133 17.9 36.72L17.86 36.8C17.9133 36.96 17.94 37.1333 17.94 37.32L18.06 37.48V37.76L18.14 37.92L18.1 39C17.9933 39.1067 17.9 39.24 17.82 39.4C17.82 39.4267 17.8467 39.5067 17.9 39.64C18.0333 39.8267 18.0733 40.0667 18.02 40.36L17.78 41.12C17.78 41.1733 17.78 41.2533 17.78 41.36C17.78 41.4667 17.7667 41.5867 17.74 41.72C17.6867 41.9333 17.5933 42.24 17.46 42.64L17.22 42.88C17.2733 43.1467 17.26 43.32 17.18 43.4C17.1 43.5067 17.06 43.5733 17.06 43.6C17.0333 43.76 17.0467 43.92 17.1 44.08L16.66 44.56C16.66 44.6133 16.6467 44.6667 16.62 44.72C16.5667 44.72 16.46 44.7467 16.3 44.8C16.2467 44.8533 16.1933 45.0267 16.14 45.32C16.1133 45.4267 16.0067 45.52 15.82 45.6C15.7133 45.6267 15.6333 45.6667 15.58 45.72C15.5533 45.7467 15.5267 45.7733 15.5 45.8C15.4733 45.8533 15.3933 46 15.26 46.24C15.2333 46.2667 14.8333 46.44 14.06 46.76L13.54 46.8L12.86 47C12.8067 46.9733 12.7 46.9333 12.54 46.88L12.3 46.92C12.22 46.9467 12.1533 46.96 12.1 46.96L11.58 46.8L10.98 46.68H10.74C10.5267 46.68 10.3133 46.7867 10.1 47L10.14 47.84C10.1133 47.8933 10.0333 47.9867 9.9 48.12C9.95333 48.3067 9.98 48.48 9.98 48.64C9.98 48.7733 9.98 48.8933 9.98 49C9.98 49.1867 9.96667 49.3067 9.94 49.36L10.02 50C9.91333 50.1333 9.86 50.2267 9.86 50.28L9.98 51.24C9.82 51.3467 9.74 51.5067 9.74 51.72C9.74 51.9333 9.76667 52.0533 9.82 52.08L9.9 52.12C9.82 53.88 9.7 55.0133 9.54 55.52C9.59333 55.6267 9.66 55.7333 9.74 55.84V56.08ZM7.78 33.36C7.86 33.28 7.88667 33.2267 7.86 33.2L7.62 33.16L7.58 33.28L7.78 33.36ZM7.42 33.72L7.5 33.64C7.5 33.5067 7.46 33.3467 7.38 33.16C7.27333 33.2667 7.22 33.3733 7.22 33.48L7.26 33.72H7.42ZM11.06 33.6C11.14 33.6267 11.22 33.5867 11.3 33.48C11.2467 33.4267 11.18 33.4133 11.1 33.44C11.0733 33.4667 11.06 33.52 11.06 33.6ZM14.14 34.68C14.1667 34.6267 14.1533 34.5733 14.1 34.52C14.0467 34.4667 13.9933 34.4667 13.94 34.52C13.94 34.6267 14.0067 34.68 14.14 34.68ZM10.62 35.64L10.66 35.56C10.6333 35.48 10.58 35.44 10.5 35.44C10.4467 35.5467 10.4067 35.6133 10.38 35.64H10.62ZM10.14 43.08C10.14 43.08 10.22 43.0533 10.38 43L10.54 42.92C10.5933 42.9467 10.7 42.96 10.86 42.96L11.26 42.92C11.42 42.92 11.5133 42.96 11.54 43.04C11.7 42.9867 11.8067 42.96 11.86 42.96L12.18 43.04C12.2333 43.04 12.3133 43 12.42 42.92C12.5 42.84 12.5533 42.8 12.58 42.8C12.58 42.8 12.62 42.8267 12.7 42.88C12.7533 42.88 12.86 42.8 13.02 42.64C13.18 42.4267 13.3 42.3067 13.38 42.28C13.4867 41.72 13.5267 41.4267 13.5 41.4L13.58 40.72C13.66 40.56 13.74 40.36 13.82 40.12L13.78 39.6C13.7533 39.4133 13.7267 39.2667 13.7 39.16C13.7 39.0267 13.7 38.92 13.7 38.84C13.8333 38.76 13.9533 38.64 14.06 38.48C14.06 38.3733 13.98 38.2667 13.82 38.16L13.5 37.92C13.5267 37.84 13.54 37.7467 13.54 37.64C13.54 37.3733 13.42 37.2 13.18 37.12C13.2067 37.12 13.22 37.1067 13.22 37.08C13.22 37 13.1133 36.8533 12.9 36.64L12.54 36.24C12.4867 36.24 12.4467 36.2267 12.42 36.2C12.34 36.28 12.3 36.36 12.3 36.44H11.94C11.86 36.4133 11.7533 36.4 11.62 36.4C10.98 36.4 10.66 36.52 10.66 36.76L10.82 37.08C10.82 37.1333 10.7267 37.24 10.54 37.4C10.7 37.6667 10.78 37.8667 10.78 38C10.7533 38.2667 10.6067 38.4133 10.34 38.44C10.3933 38.6 10.46 38.72 10.54 38.8C10.5667 38.9067 10.58 39.0533 10.58 39.24C10.58 39.4 10.58 39.5867 10.58 39.8L10.5 39.92V40.32L10.54 40.48C10.5667 40.56 10.58 40.6533 10.58 40.76C10.58 40.8133 10.54 40.8267 10.46 40.8C10.5933 40.9333 10.5667 41.0667 10.38 41.2L10.5 41.44C10.2867 41.6 10.18 41.72 10.18 41.8L10.26 41.96L10.38 42.24C10.14 42.5067 10.02 42.7067 10.02 42.84L9.98 43L10.14 43.08ZM6.78 37.04C6.86 37.04 6.9 36.96 6.9 36.8C6.84667 36.8 6.79333 36.8267 6.74 36.88C6.71333 36.9067 6.72667 36.96 6.78 37.04ZM15.9 37.64C15.9267 37.6133 15.94 37.5733 15.94 37.52C15.94 37.44 15.8867 37.4 15.78 37.4C15.7533 37.48 15.7933 37.56 15.9 37.64ZM7.98 38.24C8.06 38.1867 8.1 38.1067 8.1 38C8.04667 37.9733 7.99333 37.9867 7.94 38.04C7.91333 38.0667 7.92667 38.1333 7.98 38.24ZM16.82 38.4L16.9 38.36C16.9267 38.36 16.9533 38.3467 16.98 38.32L16.9 38.2C16.8733 38.2267 16.86 38.2533 16.86 38.28C16.86 38.3067 16.8467 38.3467 16.82 38.4ZM16.14 39.24C16.1667 39.2133 16.2333 39.1733 16.34 39.12C16.3133 39.0933 16.2467 39.0933 16.14 39.12V39.24ZM17.3 40.56L17.38 40.44C17.3533 40.4133 17.34 40.3333 17.34 40.2C17.26 40.04 17.1267 39.96 16.94 39.96H16.86C16.7533 39.96 16.6467 40.0133 16.54 40.12V40.2C16.7267 40.2267 16.98 40.3467 17.3 40.56ZM7.1 43.4C7.12667 43.3467 7.11333 43.2933 7.06 43.24C7.03333 43.1867 6.98 43.2 6.9 43.28C6.9 43.36 6.96667 43.4 7.1 43.4ZM10.18 43.84C10.26 43.8667 10.3267 43.8533 10.38 43.8C10.4067 43.7733 10.3933 43.7067 10.34 43.6C10.2867 43.6 10.2333 43.68 10.18 43.84ZM15.38 43.84C15.46 43.8667 15.54 43.8267 15.62 43.72C15.5933 43.6933 15.5533 43.68 15.5 43.68C15.42 43.68 15.38 43.7333 15.38 43.84ZM11.78 44.28L11.7 44.16L11.66 44.2L11.7 44.28H11.78ZM12.42 44.84L12.46 44.64L12.38 44.56L12.18 44.52L12.06 44.64C12.0867 44.6667 12.1 44.7067 12.1 44.76L12.42 44.84ZM8.5 46.04C8.55333 46.04 8.59333 46.0267 8.62 46V45.8L8.38 45.68C8.46 45.6533 8.46 45.52 8.38 45.28C8.40667 45.2267 8.42 45.12 8.42 44.96L7.86 45.12V45.32C7.83333 45.3733 7.91333 45.5067 8.1 45.72C8.31333 45.9333 8.44667 46.04 8.5 46.04ZM12.7 46.08L12.82 45.92L12.62 45.88L12.54 46.04C12.5667 46.0667 12.62 46.08 12.7 46.08ZM13.22 46.04L13.34 45.88H13.06L13.22 46.04ZM11.14 46.32C11.2467 46.3467 11.3267 46.3333 11.38 46.28L11.3 46.2C11.1667 46.2533 11.1133 46.2933 11.14 46.32ZM8.34 49.44L8.22 49.32C8.16667 49.32 8.12667 49.3333 8.1 49.36L8.34 49.44ZM8.34 50.08C8.36667 50.0267 8.35333 49.9733 8.3 49.92C8.27333 49.8933 8.20667 49.9067 8.1 49.96C8.1 50.04 8.18 50.08 8.34 50.08ZM9.3 50.12C9.32667 50.0933 9.34 50.0267 9.34 49.92H9.18C9.20667 49.9467 9.24667 50.0133 9.3 50.12ZM6.7 52.68C6.72667 52.6533 6.75333 52.6267 6.78 52.6C6.83333 52.5733 6.87333 52.5467 6.9 52.52L6.66 52.4L6.58 52.48C6.63333 52.5867 6.67333 52.6533 6.7 52.68ZM5.9 52.64C5.95333 52.6933 6.00667 52.6933 6.06 52.64L6.02 52.52C5.99333 52.52 5.95333 52.56 5.9 52.64ZM8.14 54.96C8.16667 54.9067 8.15333 54.8533 8.1 54.8C8.07333 54.7733 8.00667 54.7867 7.9 54.84C7.9 54.92 7.98 54.96 8.14 54.96ZM22.3337 56.16L21.8137 56H21.6537C21.5737 56 21.4804 56 21.3737 56C21.2671 55.9733 21.1471 55.9467 21.0137 55.92L20.1737 55.2C19.9604 54.9867 19.8004 54.7333 19.6937 54.44C19.6671 54.3333 19.6404 54.2 19.6137 54.04C19.5871 53.88 19.5471 53.6933 19.4937 53.48L19.5337 53.28C19.5337 53.2 19.5204 53.1333 19.4937 53.08C19.4404 52.92 19.4137 52.84 19.4137 52.84C19.4404 52.7867 19.4537 52.7067 19.4537 52.6C19.4537 52.4667 19.4537 52.3333 19.4537 52.2L19.2137 51.4V51.28C19.2137 51.2267 19.2137 51.16 19.2137 51.08C19.2137 51 19.2271 50.92 19.2537 50.84L19.4537 50.36V50.08C19.5604 49.92 19.6671 49.72 19.7737 49.48C19.8804 49.2133 19.9871 48.9067 20.0937 48.56L20.4137 48.4C20.4404 48.3467 20.4671 48.2933 20.4937 48.24C20.5204 48.1867 20.5604 48.1333 20.6137 48.08L21.1737 47.52C21.2004 47.4667 21.2271 47.4133 21.2537 47.36C21.2804 47.28 21.3204 47.1867 21.3737 47.08L22.8137 46.2C22.9471 46.12 23.0804 46.04 23.2137 45.96C23.3471 45.88 23.4804 45.7867 23.6137 45.68C23.6137 45.68 23.6937 45.7067 23.8537 45.76C23.8804 45.7333 23.9071 45.7067 23.9337 45.68C23.9604 45.6267 24.0004 45.5867 24.0538 45.56L24.4537 45.4C24.4537 45.2667 24.5071 45.1333 24.6138 45C24.6937 44.9467 24.7871 44.8667 24.8938 44.76C25.0271 44.6533 25.1737 44.52 25.3337 44.36C25.3604 44.3333 25.3604 44.2 25.3337 43.96C25.3871 44.0133 25.4137 44 25.4137 43.92C25.4137 43.68 25.4004 43.5867 25.3737 43.64C25.3471 43.5333 25.3071 43.4267 25.2538 43.32C25.2271 43.1867 25.2004 43.0533 25.1738 42.92C25.1471 42.8933 25.1604 42.8133 25.2138 42.68L25.2937 42.48C25.2937 42.48 25.2271 42.3867 25.0937 42.2L24.6937 41.68C24.5604 41.5467 24.3871 41.4933 24.1737 41.52L23.9737 41.56C23.8138 41.6133 23.7338 41.64 23.7338 41.64H23.3737L23.2937 41.72C23.3204 41.7467 23.3471 41.7733 23.3737 41.8C23.4004 41.8267 23.4271 41.8667 23.4537 41.92C23.4537 41.9733 23.4404 42.0133 23.4137 42.04V42.16C23.3071 42.1867 23.1871 42.2933 23.0537 42.48C23.0004 42.64 22.9737 42.7867 22.9737 42.92C23.0271 43.0267 23.1071 43.1333 23.2137 43.24C23.1871 43.2667 23.1471 43.28 23.0937 43.28C23.0404 43.4933 23.0404 43.64 23.0937 43.72L23.2137 43.88V44.08C23.2137 44.1067 23.1737 44.1467 23.0937 44.2L22.6137 44.08C22.5871 43.9733 22.5204 43.9467 22.4137 44C22.3337 44.0533 22.2671 44.04 22.2137 43.96H22.1337C22.0537 43.96 22.0004 43.9333 21.9737 43.88C21.9471 43.8 21.8937 43.8133 21.8137 43.92L21.5737 44.2C21.4404 44.2 21.3337 44.2133 21.2537 44.24L21.0537 44.16C20.9737 44.1067 20.9204 44.0933 20.8937 44.12C20.8671 44.12 20.8404 44.12 20.8137 44.12L19.9737 44.36C19.9204 44.36 19.8537 44.36 19.7737 44.36C19.6937 44.36 19.6004 44.3467 19.4937 44.32L19.2937 43.72C19.2937 43.6933 19.3071 43.68 19.3337 43.68C19.3604 43.6533 19.3737 43.6267 19.3737 43.6L19.4137 43.48C19.3871 43.4 19.3737 43.3067 19.3737 43.2C19.3737 43.0667 19.3737 42.9333 19.3737 42.8C19.4537 42.72 19.5071 42.64 19.5337 42.56C19.5604 42.48 19.5737 42.3067 19.5737 42.04V41.8C19.5737 41.1067 20.1604 40.24 21.3337 39.2C21.3604 39.12 21.4537 39 21.6137 38.84C21.6404 38.8133 21.8137 38.7333 22.1337 38.6C22.1871 38.5467 22.2004 38.5067 22.1737 38.48L22.2137 38.28C22.3204 38.3067 22.4271 38.3333 22.5337 38.36C22.6671 38.36 22.7871 38.36 22.8937 38.36L23.1737 38.24C23.2271 38.2133 23.2804 38.1867 23.3337 38.16C23.3871 38.1333 23.4271 38.12 23.4537 38.12H23.7338C23.7604 38.0933 23.8537 38.0533 24.0138 38C24.1738 37.9733 24.3071 37.96 24.4137 37.96C24.5471 37.9333 24.6671 37.92 24.7737 37.92C24.9071 37.92 25.1871 37.96 25.6137 38.04C26.0937 38.12 26.3604 38.2 26.4138 38.28L26.3738 38.56L26.4937 38.72L26.7338 38.6C26.8137 38.6 26.9071 38.68 27.0138 38.84L27.3338 38.88C27.3871 38.88 27.4404 38.8933 27.4937 38.92C27.5738 38.92 27.6271 38.92 27.6538 38.92C27.6804 38.9467 27.7071 38.9733 27.7337 39C27.7604 39 27.7871 39.0267 27.8138 39.08V39.4L27.4937 39.56C27.5204 39.6667 27.6271 39.7333 27.8138 39.76C28.0271 39.7867 28.1471 39.8267 28.1738 39.88L28.5737 41.36C28.5737 41.44 28.6537 41.5467 28.8138 41.68C28.8404 41.8667 28.8537 42.08 28.8537 42.32C28.8537 42.56 28.8537 42.8133 28.8537 43.08L28.9738 43.28C29.0004 43.3067 29.0138 43.4533 29.0138 43.72L28.9738 44.4C28.9471 44.64 28.9337 44.8533 28.9337 45.04C28.9337 45.2 28.9337 45.3333 28.9337 45.44L29.0138 45.56C29.0404 45.8267 29.0537 46.04 29.0537 46.2C29.0804 46.3333 29.0938 46.3867 29.0938 46.36L28.9337 46.76C28.9071 46.8667 28.8804 46.9467 28.8537 47C28.8537 47.0267 28.8537 47.0533 28.8537 47.08C28.8537 47.16 28.8537 47.24 28.8537 47.32C28.8804 47.4 28.9071 47.48 28.9337 47.56C28.9871 47.6133 29.0271 47.6933 29.0537 47.8C29.1071 47.88 29.1471 47.9733 29.1738 48.08L29.1337 48.6C29.1071 48.6267 29.0804 48.68 29.0537 48.76C29.0271 48.8133 29.0004 48.88 28.9738 48.96C28.9738 48.96 29.0271 49.32 29.1337 50.04L28.9738 50.6C29.0004 50.6267 29.0404 50.72 29.0938 50.88C29.1471 51.0133 29.1738 51.0933 29.1738 51.12V51.32C29.1738 51.48 29.1604 51.6 29.1337 51.68C29.3737 51.7067 29.4937 51.9067 29.4937 52.28L29.4137 52.52C29.3604 52.68 29.3338 52.76 29.3338 52.76L29.4538 53.2C29.4804 53.3067 29.4937 53.4267 29.4937 53.56C29.5204 53.6933 29.5338 53.8667 29.5338 54.08V54.48C29.6138 54.5867 29.6938 54.7733 29.7737 55.04V55.08C29.7737 55.3733 29.4138 55.5467 28.6938 55.6L27.9338 55.48C27.9071 55.48 27.8271 55.48 27.6937 55.48C27.5604 55.48 27.3604 55.4933 27.0937 55.52C27.0671 55.52 27.0271 55.5467 26.9738 55.6C26.9204 55.6533 26.8671 55.68 26.8137 55.68H26.4538C26.4538 55.68 26.2938 55.6267 25.9737 55.52L26.0538 55.16C26.0538 55 25.9738 54.88 25.8138 54.8C25.8138 54.7733 25.8271 54.6667 25.8538 54.48L25.9337 54.2C25.7471 54.2267 25.2671 54.6267 24.4937 55.4C24.3071 55.5867 24.1737 55.6667 24.0937 55.64L23.9337 55.6C23.8537 55.68 23.7737 55.7467 23.6938 55.8C23.5337 55.88 23.3871 55.92 23.2537 55.92C23.2271 55.9467 23.2137 55.9467 23.2137 55.92C23.1871 55.8933 23.1604 55.88 23.1337 55.88C23.1071 55.9067 22.9737 55.96 22.7337 56.04C22.5204 56.12 22.3871 56.16 22.3337 56.16ZM22.5337 38.92C22.5337 38.84 22.4804 38.7867 22.3737 38.76C22.3204 38.8133 22.2937 38.8533 22.2937 38.88C22.3204 39.04 22.4004 39.0533 22.5337 38.92ZM27.4937 40.96L27.6138 40.8C27.6404 40.7467 27.6138 40.6933 27.5338 40.64C27.4537 40.6133 27.3604 40.6133 27.2538 40.64C27.2804 40.72 27.3604 40.8267 27.4937 40.96ZM21.8137 42.4L22.2937 42.36C22.5071 42.36 22.6137 42.2667 22.6137 42.08L22.5337 41.88L22.0137 41.84C21.8004 41.84 21.7071 41.92 21.7337 42.08L21.7737 42.24C21.8004 42.2933 21.8137 42.3467 21.8137 42.4ZM25.4538 45.32C25.4804 45.3467 25.5471 45.3467 25.6537 45.32L25.6137 45.16C25.5071 45.1867 25.4538 45.24 25.4538 45.32ZM22.8137 47.68L22.8537 47.48L22.6137 47.44L22.8137 47.68ZM23.7737 52.64H23.9737C24.0271 52.64 24.0804 52.6133 24.1337 52.56C24.1871 52.5067 24.2271 52.48 24.2537 52.48C24.3071 52.5067 24.3871 52.5467 24.4937 52.6C24.6004 52.6 24.7204 52.5333 24.8537 52.4C24.9071 52.2667 24.9871 52.1067 25.0937 51.92C25.2271 51.8667 25.3737 51.76 25.5338 51.6C25.5071 51.5467 25.4938 51.44 25.4938 51.28C25.4938 51.1467 25.4938 51 25.4938 50.84C25.5204 50.68 25.5471 50.5067 25.5737 50.32C25.5471 50.1867 25.5204 50.04 25.4938 49.88C25.4671 49.6933 25.4404 49.48 25.4137 49.24C25.4137 49.08 25.4937 48.9867 25.6537 48.96C25.5738 48.6933 25.4004 48.32 25.1337 47.84H24.4937C24.4137 48.16 24.2937 48.44 24.1337 48.68L23.8537 48.88L23.6938 49.16L23.4137 49.32C23.3871 49.4267 23.3337 49.5467 23.2537 49.68C23.2004 49.8133 23.1471 49.9733 23.0937 50.16C23.0937 50.32 23.0004 50.5867 22.8137 50.96L22.8537 51.12C22.6671 51.3333 22.5737 51.4667 22.5737 51.52C22.6271 51.4933 22.6804 51.52 22.7337 51.6L22.9737 52.24C23.0271 52.2667 23.0804 52.2933 23.1337 52.32C23.1871 52.32 23.2404 52.3467 23.2937 52.4C23.3204 52.4267 23.3471 52.4533 23.3737 52.48C23.4004 52.5067 23.4271 52.5467 23.4537 52.6L23.7737 52.64ZM27.8538 50.6C27.9071 50.6 27.9738 50.56 28.0537 50.48C28.1604 50.3733 28.2138 50.2933 28.2138 50.24L28.1338 50.08C28.1071 50.0533 28.0671 50.04 28.0137 50.04C27.9604 50.04 27.9071 50.0267 27.8538 50L27.5738 50.2C27.6004 50.2267 27.6404 50.32 27.6937 50.48C27.7471 50.56 27.8004 50.6 27.8538 50.6ZM26.2137 51.72L26.4538 51.64C26.4271 51.6133 26.4138 51.5467 26.4138 51.44L26.1737 51.48C26.1737 51.6133 26.1871 51.6933 26.2137 51.72ZM24.0937 55.12C24.1471 54.9067 24.1337 54.8 24.0538 54.8L23.9737 54.88C23.9471 54.9067 23.9337 54.9733 23.9337 55.08L24.0937 55.12ZM35.4069 56.56C35.3802 56.5333 35.1802 56.4933 34.8069 56.44H34.2069C34.1269 56.36 34.0735 56.32 34.0469 56.32L33.7269 56.28C33.5935 56.1467 33.3669 55.96 33.0469 55.72L32.8069 54.88C32.7802 54.8533 32.7269 54.8267 32.6469 54.8C32.5935 54.7733 32.5269 54.7333 32.4469 54.68L32.3669 54.12C32.3402 54.0667 32.3135 54.0133 32.2869 53.96C32.2602 53.88 32.2202 53.7867 32.1669 53.68C32.1669 53.5467 32.2335 53.4133 32.3669 53.28C32.4735 53.1733 32.5269 53.0933 32.5269 53.04L32.4469 52.88C32.3935 52.7733 32.3669 52.72 32.3669 52.72L32.5269 52.16C32.4735 52.0533 32.4202 51.9467 32.3669 51.84C32.3135 51.7333 32.2602 51.6133 32.2069 51.48C32.2069 51.3733 32.2735 51.2133 32.4069 51C32.4869 50.8933 32.5135 50.84 32.4869 50.84C32.3802 50.76 32.3002 50.6133 32.2469 50.4V49.76C32.2202 49.6267 32.1935 49.48 32.1669 49.32C32.1402 49.16 32.1002 49 32.0469 48.84C32.0469 48.68 32.1002 48.5333 32.2069 48.4C32.3135 48.2667 32.3669 48.1733 32.3669 48.12C32.2869 48.04 32.2335 47.96 32.2069 47.88C32.1802 47.72 32.1802 47.4 32.2069 46.92C32.2069 46.8933 32.1802 46.8533 32.1269 46.8C32.0735 46.7467 32.0469 46.72 32.0469 46.72C32.0469 46.6667 32.0869 46.52 32.1669 46.28L32.2869 45.88C32.2869 45.8267 32.2469 45.7867 32.1669 45.76C32.0869 45.6267 32.0469 45.4667 32.0469 45.28L32.0069 44.52C32.0602 44.4667 32.1402 44.4667 32.2469 44.52L32.3269 44.4C32.1669 44.32 32.0602 44.2 32.0069 44.04C31.9535 43.8267 31.9002 43.64 31.8469 43.48C31.8202 43.32 31.8202 43.1867 31.8469 43.08L31.8869 42.72C31.8602 42.6667 31.8202 42.5867 31.7669 42.48C31.7669 42.3467 31.8202 42.2133 31.9269 42.08V41.8C32.0335 41.6133 32.0735 41.5067 32.0469 41.48C32.1002 41.48 32.1002 41.4133 32.0469 41.28C31.9935 41.1467 31.9802 41.08 32.0069 41.08C31.8735 40.76 31.8335 40.5733 31.8869 40.52C31.9402 40.36 31.9802 40.28 32.0069 40.28L31.6869 39.92C31.7135 39.8667 31.7269 39.8 31.7269 39.72C31.7269 39.64 31.7402 39.5467 31.7669 39.44L31.6869 39.4C31.6335 38.9467 31.6335 38.6933 31.6869 38.64L32.1669 38.52C32.2202 38.5467 32.2735 38.56 32.3269 38.56C32.3802 38.56 32.4335 38.5733 32.4869 38.6L32.6069 38.52C32.6335 38.4933 32.6869 38.48 32.7669 38.48C32.8202 38.5067 32.8735 38.5333 32.9269 38.56C33.0069 38.56 33.1002 38.5733 33.2069 38.6L33.4469 38.52C33.6069 38.4667 33.6869 38.44 33.6869 38.44L33.8469 38.56H34.2069C34.4469 38.56 34.6469 38.5067 34.8069 38.4C34.8602 38.3733 34.9135 38.3467 34.9669 38.32C35.0202 38.2933 35.0869 38.28 35.1669 38.28H35.2469C35.6202 38.28 35.8069 38.4267 35.8069 38.72L35.6869 39.4C35.6602 39.64 35.6602 39.8133 35.6869 39.92C35.7402 40.0267 35.7669 40.1333 35.7669 40.24C35.7669 40.3467 35.7669 40.44 35.7669 40.52C35.7669 40.7067 35.7269 40.8667 35.6469 41L35.7269 41.36C35.7269 41.3867 35.7269 41.4267 35.7269 41.48C35.7269 41.5333 35.7135 41.6267 35.6869 41.76C35.7135 41.8133 35.7269 41.9467 35.7269 42.16C35.7002 42.5067 35.6202 42.88 35.4869 43.28C35.6202 43.3067 35.7535 43.4 35.8869 43.56C35.8335 43.6133 35.7669 43.72 35.6869 43.88L35.7269 45.48C35.7269 45.5067 35.7402 45.5333 35.7669 45.56C35.7935 45.6667 35.8069 45.7733 35.8069 45.88C35.8069 45.9867 35.8069 46.1067 35.8069 46.24C35.7002 46.2933 35.6469 46.4 35.6469 46.56C35.6469 46.8267 35.6735 47.0267 35.7269 47.16C35.7802 47.2667 35.8202 47.3067 35.8469 47.28L35.8869 48.28L35.8469 48.84C35.8735 48.8667 35.9002 48.8933 35.9269 48.92C35.9802 48.9467 36.0202 48.9867 36.0469 49.04C36.1269 49.1467 36.1669 49.2667 36.1669 49.4L36.0469 49.64C36.1002 49.8533 36.1002 49.9867 36.0469 50.04C35.9669 50.0667 35.8202 50.1867 35.6069 50.4L35.6869 50.48C35.6869 50.4533 35.7269 50.4267 35.8069 50.4H35.8869C36.0469 50.4 36.1269 50.4933 36.1269 50.68C36.0202 50.84 35.9535 51 35.9269 51.16L36.0469 51.48C36.1269 51.6667 36.1135 51.7867 36.0069 51.84L36.0469 52.84L36.1669 52.96C36.3002 52.9867 36.4469 53.0133 36.6069 53.04C36.7935 53.04 36.9802 53.04 37.1669 53.04L38.0469 52.68C38.1802 52.4133 38.2469 52.16 38.2469 51.92C38.2469 51.6267 38.2335 51.4 38.2069 51.24C38.2069 51.08 38.2202 50.9867 38.2469 50.96C38.2469 50.96 38.2202 50.7467 38.1669 50.32L38.3269 49.68L38.0869 49.04L38.0069 47.4C38.0602 47.3733 38.1002 47.3333 38.1269 47.28C38.1802 47.2267 38.2335 47.1733 38.2869 47.12C38.2335 47.12 38.1402 47.08 38.0069 47L38.0469 46.84C38.0469 46.8133 38.0469 46.8 38.0469 46.8C38.0735 46.7733 38.0869 46.7467 38.0869 46.72C38.0869 46.6133 38.0469 46.4533 37.9669 46.24C37.8869 46 37.8469 45.88 37.8469 45.88V45.76C37.8469 45.5733 37.9135 45.48 38.0469 45.48C38.1002 45.48 38.1402 45.4933 38.1669 45.52C38.1669 45.5467 38.1935 45.56 38.2469 45.56L38.4069 45.48C38.2735 45.4267 38.1269 45.28 37.9669 45.04L38.0469 44.76C37.9135 44.5733 37.8469 44.44 37.8469 44.36C37.8735 44.3067 37.8869 44.1867 37.8869 44C37.8869 43.8667 37.8735 43.76 37.8469 43.68C37.8469 43.6 37.8469 43.5333 37.8469 43.48C37.8469 43.1867 37.8602 43 37.8869 42.92C37.9402 42.8133 37.9669 42.7867 37.9669 42.84L37.8469 42.48C37.8202 42.3467 37.7802 42.2667 37.7269 42.24C37.7002 42.2133 37.6869 42.1867 37.6869 42.16C37.6869 42.1067 37.7402 41.9867 37.8469 41.8L38.0069 41.48L37.7669 41.16V40.84C37.7669 40.76 37.7669 40.6667 37.7669 40.56C37.7669 40.4533 37.7535 40.3333 37.7269 40.2C37.7535 40.12 37.7535 39.9867 37.7269 39.8L37.6469 39.48L37.7669 38.8L37.6869 38.64C37.6602 38.5867 37.6335 38.5467 37.6069 38.52C37.5802 38.4667 37.5669 38.4133 37.5669 38.36C37.5669 38.2267 37.5802 38.1333 37.6069 38.08L38.0069 38.04L38.4869 38.28L38.8869 38.16C39.0202 38.16 39.1402 38.1733 39.2469 38.2C39.3535 38.2 39.4469 38.2133 39.5269 38.24L39.7669 38.44C39.7669 38.36 39.8869 38.2667 40.1269 38.16L40.4469 38.2C40.5535 38.1733 40.6869 38.1467 40.8469 38.12C41.0335 38.0667 41.2335 38.0133 41.4469 37.96C41.6602 38.0933 41.7802 38.32 41.8069 38.64L41.6869 39C41.5802 39.2933 41.5269 39.6267 41.5269 40L41.5669 40.96C41.5669 40.9867 41.5669 41.0267 41.5669 41.08C41.5935 41.1067 41.6069 41.1467 41.6069 41.2L41.6469 41.52C41.6469 41.5733 41.6202 41.68 41.5669 41.84C41.5135 42 41.4335 42.0667 41.3269 42.04C41.3269 42.1467 41.4202 42.2 41.6069 42.2H41.6869L41.8069 42.36L41.8869 43.48C41.7002 43.8533 41.6069 44.0267 41.6069 44C41.6069 44.0533 41.6602 44.1333 41.7669 44.24C41.8469 44.3467 41.8869 44.4267 41.8869 44.48L42.0069 46.72L41.8869 47.48L41.7669 48.2C41.8202 48.28 41.9135 48.4533 42.0469 48.72C42.1002 48.9333 42.1269 49.12 42.1269 49.28C42.1535 49.4667 42.1535 49.56 42.1269 49.56L41.8869 50.04C41.9935 50.0933 42.1002 50.1733 42.2069 50.28C42.2069 50.36 42.1402 50.44 42.0069 50.52C42.0869 50.5733 42.1402 50.6667 42.1669 50.8L42.1269 50.96C42.0735 51.12 42.0469 51.2 42.0469 51.2L42.2069 52.8C42.2069 52.8 42.2069 52.8667 42.2069 53C42.2069 53.1333 42.1935 53.3467 42.1669 53.64C42.1669 53.64 42.1402 53.7067 42.0869 53.84C42.1135 53.92 42.1269 54.0533 42.1269 54.24C42.1269 54.2667 42.0869 54.3067 42.0069 54.36C42.0602 54.44 42.1535 54.5067 42.2869 54.56V55.32C42.3135 55.3467 42.3269 55.3867 42.3269 55.44C42.3269 55.4933 42.3402 55.56 42.3669 55.64C42.3935 55.7467 42.3535 55.84 42.2469 55.92L41.3269 56.08C41.2202 56.08 40.9669 56.0533 40.5669 56C40.1935 55.9733 39.9935 55.9733 39.9669 56C39.8602 56.0267 39.7402 56.04 39.6069 56.04C39.5002 56.0667 39.3802 56.1067 39.2469 56.16C39.1402 56.1333 39.0335 56.12 38.9269 56.12C38.8202 56.12 38.7002 56.12 38.5669 56.12H38.5269C38.3669 56.12 38.2869 55.96 38.2869 55.64C38.2602 55.2933 38.1669 55.1333 38.0069 55.16C38.0069 55.16 37.9269 55.1867 37.7669 55.24L37.6469 55.2L37.4869 55.16L37.0069 55.8C36.9535 55.7467 36.8602 55.7867 36.7269 55.92C36.5669 56.08 36.4602 56.16 36.4069 56.16L35.8469 56.28C35.7402 56.3867 35.5935 56.48 35.4069 56.56ZM34.9669 39.72C34.9935 39.64 34.9802 39.5733 34.9269 39.52C34.9002 39.4667 34.8335 39.4933 34.7269 39.6C34.7802 39.68 34.8602 39.72 34.9669 39.72ZM39.0469 39.76L39.2469 39.68V39.64H39.0869C39.0602 39.64 39.0469 39.68 39.0469 39.76ZM39.4469 40.16C39.5002 40.24 39.5802 40.2267 39.6869 40.12C39.5535 39.9067 39.4735 39.92 39.4469 40.16ZM33.8069 45.08C33.8069 44.8933 33.9002 44.6533 34.0869 44.36L34.4069 44.32L34.3669 44.16C34.3669 44.1067 34.3135 44.0533 34.2069 44L34.0469 44.12C33.9669 44.0133 33.8869 43.96 33.8069 43.96L33.6869 44C33.5269 44.4267 33.4469 44.6533 33.4469 44.68C33.4469 44.7333 33.5669 44.8667 33.8069 45.08ZM40.6469 46.2C40.6735 46.12 40.6469 46.0533 40.5669 46C40.5135 45.9467 40.4602 45.9733 40.4069 46.08C40.4602 46.16 40.5402 46.2 40.6469 46.2ZM35.0469 49.52L35.1669 49.44C35.1669 49.3867 35.1535 49.3467 35.1269 49.32L35.0469 49.52ZM33.5669 50.88C33.6202 50.9067 33.6735 50.8933 33.7269 50.84C33.7535 50.8133 33.7402 50.7467 33.6869 50.64C33.6069 50.6667 33.5669 50.7467 33.5669 50.88ZM41.0469 52.68C41.3135 52.68 41.4602 52.5867 41.4869 52.4C41.3802 52.4 41.2335 52.3467 41.0469 52.24H40.8869L40.9269 52.52C40.9269 52.6267 40.9669 52.68 41.0469 52.68ZM35.6469 53.28C35.6469 53.2267 35.6202 53.1733 35.5669 53.12C35.5402 53.0667 35.4869 53.08 35.4069 53.16C35.4069 53.24 35.4869 53.28 35.6469 53.28ZM49.4697 56.6L49.1897 56.52C49.0297 56.44 48.923 56.4 48.8697 56.4L48.5897 56.44H48.4697C48.4964 56.44 48.443 56.4267 48.3097 56.4C48.1764 56.4 47.923 56.36 47.5497 56.28C47.443 56.0933 47.3364 56 47.2297 56L47.0297 56.04C47.003 56.04 46.9764 56.04 46.9497 56.04C46.923 56.0667 46.8964 56.08 46.8697 56.08C46.763 56.08 46.643 56.0133 46.5097 55.88C46.4564 55.8267 46.3897 55.76 46.3097 55.68C46.2297 55.5733 46.123 55.4667 45.9897 55.36C45.563 55.2533 45.283 55.0667 45.1497 54.8C45.1497 54.64 45.1097 54.5467 45.0297 54.52C44.923 54.4933 44.8697 54.4133 44.8697 54.28C44.8697 54.12 44.923 53.88 45.0297 53.56L44.4297 53.32L44.2297 52.52C44.1764 52.3867 44.0964 52.24 43.9897 52.08C43.9097 51.8933 43.803 51.6933 43.6697 51.48V51.24C43.6697 51.08 43.6964 50.9733 43.7497 50.92C43.7764 50.8933 43.8564 50.88 43.9897 50.88H44.1097C44.1364 50.88 44.1497 50.8933 44.1497 50.92C44.1497 50.92 44.163 50.92 44.1897 50.92L44.3897 50.8C44.4164 50.7733 44.523 50.76 44.7097 50.76L44.8697 50.8C44.8964 50.8 44.9097 50.8133 44.9097 50.84C44.9364 50.84 44.963 50.84 44.9897 50.84L45.4697 50.68L45.5897 50.56C45.6964 50.5067 45.8297 50.4667 45.9897 50.44C46.1497 50.4133 46.363 50.3867 46.6297 50.36L46.7497 50.4C46.723 50.4 46.7097 50.4933 46.7097 50.68C46.7097 50.8133 46.7897 50.88 46.9497 50.88C46.9764 50.88 47.123 50.72 47.3897 50.4C47.443 50.56 47.4697 50.8267 47.4697 51.2C47.4697 51.3867 47.523 51.52 47.6297 51.6C47.7097 51.7333 47.7364 51.8667 47.7097 52C47.7097 52.0533 47.7364 52.08 47.7897 52.08C47.5764 52.08 47.4697 52.1333 47.4697 52.24C47.4697 52.4267 47.563 52.52 47.7497 52.52C47.803 52.52 47.8964 52.4133 48.0297 52.2C48.0564 52.2533 48.1364 52.4 48.2697 52.64C48.3497 52.72 48.6297 52.88 49.1097 53.12C49.323 53.2 49.603 53.24 49.9497 53.24C50.0564 53.24 50.1764 53.1333 50.3097 52.92C50.4964 52.92 50.6697 52.7867 50.8297 52.52C50.803 52.5467 50.7764 52.56 50.7497 52.56C50.7497 52.5333 50.7364 52.52 50.7097 52.52C50.7097 52.4933 50.7097 52.4667 50.7097 52.44C50.7097 52.36 50.723 52.28 50.7497 52.2C50.803 52.0933 50.843 51.9867 50.8697 51.88C50.8164 51.8267 50.7497 51.7467 50.6697 51.64C50.6164 51.5067 50.5497 51.36 50.4697 51.2C50.603 51.0667 50.5764 50.92 50.3897 50.76L49.9897 50.48L50.0697 50.04C49.9897 49.9067 49.6697 49.8 49.1097 49.72L48.9497 49.4C48.8164 49.2667 48.6297 49.12 48.3897 48.96C48.3097 48.96 48.1897 48.92 48.0297 48.84C48.003 48.8133 47.9764 48.7867 47.9497 48.76C47.923 48.7067 47.883 48.6667 47.8297 48.64C47.803 48.6133 47.723 48.6 47.5897 48.6C47.5097 48.5467 47.3897 48.4267 47.2297 48.24L47.1897 47.92C47.1097 47.92 46.963 47.8933 46.7497 47.84C46.5364 47.76 46.3764 47.6667 46.2697 47.56L45.9897 47.08C45.7497 46.8667 45.523 46.64 45.3097 46.4C44.963 46.0533 44.7764 45.7733 44.7497 45.56L44.9897 45.28C44.963 45.28 44.8964 45.28 44.7897 45.28C44.7097 45.28 44.6164 45.1867 44.5097 45V44.72C44.4564 44.5333 44.403 44.4267 44.3497 44.4C44.323 44.3467 44.3097 44.3067 44.3097 44.28L44.3497 44.12V43.44C44.3764 43.4667 44.4164 43.48 44.4697 43.48C44.603 43.48 44.6697 43.4 44.6697 43.24C44.6697 43.0533 44.5364 42.96 44.2697 42.96C44.563 42.7467 44.7097 42.5467 44.7097 42.36C44.7097 42.1733 44.5764 42 44.3097 41.84C44.283 41.7067 44.323 41.5867 44.4297 41.48L44.7497 41.32C44.7764 41.2667 44.803 41.2133 44.8297 41.16C44.883 41.08 44.9497 40.9867 45.0297 40.88C45.003 40.8267 44.9764 40.76 44.9497 40.68C44.9497 40.6 44.9497 40.5333 44.9497 40.48C44.9497 40.32 44.9764 40.2 45.0297 40.12C45.0564 40.0933 45.0964 40.08 45.1497 40.08C45.203 40.08 45.2697 40.0667 45.3497 40.04L45.5097 39.72C45.9097 39.72 46.043 39.5733 45.9097 39.28H45.9497C46.0297 39.28 46.123 39.16 46.2297 38.92C46.283 38.92 46.4297 38.84 46.6697 38.68C46.7764 38.5733 46.923 38.52 47.1097 38.52H47.2297C47.2564 38.52 47.2697 38.5333 47.2697 38.56C47.2964 38.56 47.323 38.56 47.3497 38.56L47.5097 38.52C47.5097 38.4667 47.5497 38.4 47.6297 38.32C47.843 38.16 48.003 38.08 48.1097 38.08L48.4297 38.16L48.5497 38.12H48.6697C49.0697 38.12 49.363 38.2133 49.5497 38.4L49.5097 38.6H49.5897C49.6164 38.6 49.6964 38.5333 49.8297 38.4C49.9364 38.2933 50.043 38.24 50.1497 38.24C50.3097 38.24 50.443 38.28 50.5497 38.36C50.683 38.44 50.763 38.48 50.7897 38.48L51.1097 38.4C51.2164 38.3733 51.283 38.36 51.3097 38.36C51.363 38.36 51.403 38.36 51.4297 38.36C51.5097 38.36 51.5897 38.3733 51.6697 38.4L51.8297 38.48C51.8564 38.5333 51.9497 38.64 52.1097 38.8H52.1497C52.3097 38.8 52.563 38.88 52.9097 39.04C53.0964 39.1733 53.243 39.3733 53.3497 39.64L53.7097 40.36C53.7097 40.5733 53.7497 40.8667 53.8297 41.24C53.883 41.2933 53.9497 41.3733 54.0297 41.48C54.1097 41.56 54.203 41.6667 54.3097 41.8C54.3097 41.8267 54.2964 41.88 54.2697 41.96C54.2697 42.0133 54.2564 42.08 54.2297 42.16C54.3097 42.24 54.3764 42.3733 54.4297 42.56C54.4564 42.64 54.483 42.7067 54.5097 42.76C54.5364 42.8133 54.563 42.8667 54.5897 42.92V43.12L53.8697 43.4C53.4697 43.5067 53.123 43.5867 52.8297 43.64C52.563 43.6933 52.3364 43.72 52.1497 43.72L52.0297 43.68C52.003 43.68 51.9764 43.68 51.9497 43.68C51.9497 43.6533 51.9364 43.64 51.9097 43.64C51.8564 43.64 51.7897 43.68 51.7097 43.76L51.5497 43.92C51.3097 44 51.123 44.04 50.9897 44.04C50.883 44.04 50.763 43.92 50.6297 43.68C50.523 43.4933 50.4697 43.36 50.4697 43.28C50.4697 42.3733 50.443 41.9467 50.3897 42C50.123 41.84 49.9364 41.8 49.8297 41.88H49.7897L49.4297 41.72C49.323 41.6667 49.2297 41.64 49.1497 41.64C49.0964 41.6133 49.0564 41.6 49.0297 41.6L48.8297 41.64C48.7497 41.6667 48.683 41.68 48.6297 41.68C48.5764 41.68 48.523 41.68 48.4697 41.68L48.3897 42.04C48.3364 42.0667 48.2297 42.16 48.0697 42.32L47.9497 42.84C48.083 42.8667 48.1764 42.96 48.2297 43.12C48.283 43.36 48.3097 43.48 48.3097 43.48C48.283 43.5067 48.123 43.5467 47.8297 43.6C47.7764 43.6 47.723 43.6267 47.6697 43.68C47.6964 43.76 47.883 43.8267 48.2297 43.88C48.3097 43.96 48.363 44.0933 48.3897 44.28L48.8297 44.36C48.8297 44.4667 48.883 44.5867 48.9897 44.72C49.0164 44.72 49.083 44.7467 49.1897 44.8C49.243 44.9067 49.323 45.0133 49.4297 45.12C49.563 45.12 49.683 45.16 49.7897 45.24C49.923 45.3733 49.9897 45.4933 49.9897 45.6H49.9097C49.8297 45.6 49.723 45.64 49.5897 45.72V45.88C49.643 45.9333 49.7097 45.9867 49.7897 46.04C49.8964 46.0667 50.0164 46.0667 50.1497 46.04L50.2697 46H50.3897L50.5497 46.12C50.7097 46.1467 50.8297 46.16 50.9097 46.16C50.9897 46.16 51.043 46.16 51.0697 46.16C51.283 46.2133 51.4297 46.2933 51.5097 46.4C51.5897 46.6133 51.723 46.8267 51.9097 47.04L52.3097 47.16C52.443 47.24 52.5364 47.36 52.5897 47.52C52.9897 47.8667 53.1897 48.12 53.1897 48.28V48.36L53.6697 48.84C53.6697 48.8933 53.6697 48.96 53.6697 49.04C53.6964 49.12 53.723 49.2133 53.7497 49.32C53.803 49.3467 53.8564 49.3733 53.9097 49.4C53.963 49.4267 54.0164 49.4667 54.0697 49.52C54.2297 49.7067 54.3097 49.8533 54.3097 49.96L54.2297 50.16C54.203 50.2133 54.1764 50.2533 54.1497 50.28C54.1497 50.3067 54.1497 50.3333 54.1497 50.36C54.1497 50.44 54.243 50.6267 54.4297 50.92C54.4297 50.92 54.403 50.9867 54.3497 51.12L54.4297 51.48L54.5097 51.76L54.3897 52.16C54.4164 52.2133 54.4297 52.3467 54.4297 52.56C54.403 52.5867 54.3764 52.6133 54.3497 52.64C54.323 52.64 54.2964 52.6667 54.2697 52.72L53.9497 53.72C53.9497 53.7733 53.9497 53.8533 53.9497 53.96C53.9497 54.04 53.9364 54.1333 53.9097 54.24C53.8564 54.4533 53.643 54.56 53.2697 54.56L52.9897 55.24L52.3897 55.64C52.3097 55.72 52.123 55.8667 51.8297 56.08H51.5097L50.8697 56.36C50.043 56.52 49.5764 56.6 49.4697 56.6ZM48.7497 39.04C48.7764 38.9867 48.763 38.9333 48.7097 38.88C48.683 38.8533 48.6164 38.8667 48.5097 38.92C48.563 39 48.643 39.04 48.7497 39.04ZM53.8697 42.8C53.8697 42.6133 53.8564 42.52 53.8297 42.52L53.6297 42.48C53.603 42.48 53.5764 42.48 53.5497 42.48C53.523 42.4533 53.4964 42.44 53.4697 42.44C53.4164 42.4933 53.3897 42.5867 53.3897 42.72L53.8697 42.8ZM45.3497 43.04C45.3497 42.9333 45.3364 42.8667 45.3097 42.84C45.2297 42.8133 45.163 42.8267 45.1097 42.88C45.1097 42.9333 45.1897 42.9867 45.3497 43.04ZM47.9897 45.88C48.123 45.8267 48.1897 45.7733 48.1897 45.72C48.1897 45.6667 48.123 45.6133 47.9897 45.56V45.88ZM45.2697 52.36C45.2697 52.3067 45.243 52.2267 45.1897 52.12L45.0697 52.16C44.9364 52.16 44.8964 52.0933 44.9497 51.96L44.8697 52.12C44.8964 52.2 44.9497 52.28 45.0297 52.36H45.2697ZM52.7097 53.44C52.683 53.44 52.8564 53.3067 53.2297 53.04V52.88C53.0697 52.6933 52.923 52.6 52.7897 52.6H52.6697C52.6697 52.6533 52.6564 52.72 52.6297 52.8C52.6297 52.8533 52.6164 52.92 52.5897 53C52.4564 53.2133 52.3897 53.32 52.3897 53.32C52.4697 53.4 52.5764 53.44 52.7097 53.44ZM48.5897 55.12L48.3497 54.84H48.1897L48.1497 54.96L48.5897 55.12ZM60.4787 56.52C60.4254 56.52 60.4121 56.52 60.4387 56.52C60.4121 56.52 60.3587 56.4933 60.2787 56.44L60.0787 56.36C60.0254 56.3867 59.9587 56.4 59.8787 56.4C59.8254 56.4 59.7587 56.4133 59.6787 56.44L59.1187 56.12C59.0387 55.9333 58.9321 55.84 58.7987 55.84C58.7721 55.8133 58.7454 55.8133 58.7187 55.84C58.6921 55.8667 58.6387 55.88 58.5587 55.88C58.5587 55.88 58.4254 55.7733 58.1587 55.56L57.8387 55.44C57.7587 55.36 57.6654 55.2667 57.5587 55.16C57.4787 55.0533 57.3721 54.9333 57.2387 54.8L56.9187 54.56V54.48C56.9187 54.3733 56.8521 54.2133 56.7187 54C56.5854 53.8667 56.4787 53.76 56.3987 53.68C56.3454 53.5733 56.3054 53.5067 56.2787 53.48V53C56.4121 53.08 56.4921 53.0667 56.5187 52.96C56.5721 52.88 56.5187 52.8 56.3587 52.72C56.2521 52.64 56.1987 52.5733 56.1987 52.52V52.04C56.1987 51.96 56.1987 51.88 56.1987 51.8C56.1987 51.72 56.1854 51.64 56.1587 51.56C56.1321 51.4267 56.1054 51.3067 56.0787 51.2C56.0787 51.0667 56.0921 50.9467 56.1187 50.84L56.1987 50.44C56.1721 50.28 56.1587 50.12 56.1587 49.96C56.1587 49.7733 56.1587 49.5867 56.1587 49.4C56.1587 49.2933 56.1987 49.16 56.2787 49L56.3987 48.68C56.3721 48.4667 56.3454 48.24 56.3187 48C56.2921 47.7333 56.2654 47.4667 56.2387 47.2C56.2387 47.12 56.3454 46.8667 56.5587 46.44C56.6121 46.4133 56.6654 46.3867 56.7187 46.36C56.7721 46.3333 56.8254 46.2933 56.8787 46.24C56.8787 46.2133 56.7587 46.12 56.5187 45.96L56.3987 45.12C56.3987 44.9867 56.4521 44.9067 56.5587 44.88C56.6387 44.8267 56.6654 44.7333 56.6387 44.6L57.1587 44.24C57.1321 44.1333 57.0387 44.0667 56.8787 44.04C56.8521 44.04 56.7587 44.0667 56.5987 44.12C56.5187 44.0667 56.4787 44.0133 56.4787 43.96C56.4787 43.8 56.5587 43.6667 56.7187 43.56C56.8787 43.4267 56.9587 43.3467 56.9587 43.32L56.7587 42.64C56.7587 42.64 56.8654 42.4533 57.0787 42.08C57.2654 42.0533 57.3587 42 57.3587 41.92C57.3587 41.8667 57.3187 41.8 57.2387 41.72C57.1321 41.64 57.0787 41.5733 57.0787 41.52C57.0787 41.4933 57.1054 41.4533 57.1587 41.4C57.2387 41.24 57.3187 40.9467 57.3987 40.52L57.6387 40.28L57.7587 39.88C57.9187 39.8267 58.1054 39.7467 58.3187 39.64L58.8387 39C59.1054 38.6533 59.3321 38.4933 59.5187 38.52L59.6387 38.56C59.6387 38.5333 59.7454 38.4933 59.9587 38.44C60.5987 38.2267 60.9587 38.1333 61.0387 38.16L61.2387 38.2C61.3987 38.0933 61.5187 38 61.5987 37.92L61.7987 37.96C61.8521 37.96 61.8921 37.9733 61.9187 38C61.9454 38.0267 61.9721 38.04 61.9987 38.04L62.3187 38L62.6787 38.32C62.6787 38.32 62.7587 38.2933 62.9187 38.24L63.1187 38.16C63.2254 38.2133 63.3454 38.2667 63.4787 38.32C63.6121 38.3733 63.7454 38.4267 63.8787 38.48C64.0121 38.4267 64.1987 38.4267 64.4387 38.48L64.3987 38.68V38.72C64.3987 38.88 64.5454 38.96 64.8387 38.96H65.1587C65.1587 38.96 65.3321 39.28 65.6787 39.92L65.9187 39.84C66.0254 39.84 66.0921 39.88 66.1187 39.96L66.5587 41.48C66.5321 41.5333 66.5187 41.6267 66.5187 41.76C66.5187 41.8667 66.5187 41.9867 66.5187 42.12L66.6387 42.4C66.6921 42.56 66.7187 42.64 66.7187 42.64L66.6387 42.76C66.6121 42.7867 66.5987 42.8267 66.5987 42.88V43.48C66.5721 43.5067 66.5454 43.56 66.5187 43.64C66.4921 43.6933 66.4654 43.7733 66.4387 43.88C66.2787 43.9067 66.1987 43.96 66.1987 44.04C66.1987 44.12 66.3187 44.2667 66.5587 44.48C66.7721 44.6933 66.8787 44.8267 66.8787 44.88C66.8787 44.9333 66.8121 44.96 66.6787 44.96L66.5587 45.52C66.5321 45.5467 66.4921 45.6267 66.4387 45.76C66.4387 45.92 66.5187 46.2667 66.6787 46.8C66.5721 46.8533 66.4921 46.92 66.4387 47C66.4387 47 66.4387 47.1067 66.4387 47.32L66.4787 47.72C66.4787 47.7467 66.4787 47.8 66.4787 47.88C66.4787 47.9333 66.4654 48.0133 66.4387 48.12L66.3987 48.52H66.1987C65.9854 48.52 65.8121 48.4133 65.6787 48.2C65.5721 48.0133 65.4787 47.92 65.3987 47.92C65.3721 47.92 65.2921 48 65.1587 48.16C64.9987 48.32 64.8921 48.4 64.8387 48.4L64.3987 48.36C64.2654 48.3333 64.1587 48.3333 64.0787 48.36C63.9987 48.36 63.9454 48.36 63.9187 48.36L63.0787 48C62.8921 48.16 62.6787 48.24 62.4387 48.24C62.1454 48.24 61.8921 48.1467 61.6787 47.96C61.6254 48.0133 61.5987 48.0533 61.5987 48.08H60.9987C60.9721 48.08 60.9587 48.08 60.9587 48.08C60.9587 48.0533 60.9454 48.04 60.9187 48.04H60.7587C60.5187 48.04 60.3187 48.1867 60.1587 48.48V48.64C60.1321 48.6933 60.0921 48.7733 60.0387 48.88C60.0121 48.96 59.9721 49.0533 59.9187 49.16C59.9187 49.1867 59.9454 49.2267 59.9987 49.28L60.0787 49.44V49.52C60.0787 49.5467 60.0787 49.6 60.0787 49.68C60.0787 49.7333 60.0654 49.8133 60.0387 49.92C60.0654 50 60.0787 50.1333 60.0787 50.32C60.0787 50.4267 60.0121 50.52 59.8787 50.6L59.7987 51.92C59.9587 52.0533 60.0254 52.28 59.9987 52.6H60.4787C60.6387 52.6 60.7587 52.6533 60.8387 52.76C60.9187 52.8667 60.9721 52.92 60.9987 52.92L61.2787 52.8L61.5587 53C61.6387 53 61.6921 52.96 61.7187 52.88L61.9587 52.32V51.72L61.9987 51.12C62.0254 51.04 62.0387 50.9733 62.0387 50.92C62.0654 50.84 62.0787 50.7867 62.0787 50.76L62.0387 50.64C62.0921 50.5333 62.1187 50.4533 62.1187 50.4C62.1187 50.32 62.1187 50.2667 62.1187 50.24L62.0387 49.88C62.1454 49.6133 62.2787 49.48 62.4387 49.48C62.6521 49.5867 62.9454 49.68 63.3187 49.76L63.5187 49.68C63.5987 49.6533 63.6654 49.64 63.7187 49.64C63.7721 49.64 63.8654 49.7467 63.9987 49.96C64.2921 49.8533 64.4387 49.8 64.4387 49.8L64.7587 50H64.8387C65.1587 50 65.4654 49.8667 65.7587 49.6L66.4387 50.24C66.3054 50.48 66.1587 50.7867 65.9987 51.16C65.9721 51.2933 65.9321 51.4533 65.8787 51.64C65.8521 51.8267 65.7987 52.0267 65.7187 52.24C65.5321 52.32 65.4387 52.4267 65.4387 52.56C65.4387 52.6133 65.4787 52.7067 65.5587 52.84C65.6387 53 65.6787 53.1067 65.6787 53.16L65.5987 53.28C65.6521 53.4133 65.6387 53.5333 65.5587 53.64L65.4387 53.84C65.4654 53.8667 65.4787 53.92 65.4787 54C65.4787 54.24 65.3054 54.44 64.9587 54.6L64.8787 54.68C64.9054 54.7067 64.9187 54.7467 64.9187 54.8C64.9187 54.9867 64.8121 55.1067 64.5987 55.16C64.3054 55.24 64.1321 55.3067 64.0787 55.36C64.0254 55.44 63.9454 55.5333 63.8387 55.64C63.7321 55.7467 63.6121 55.8667 63.4787 56C62.9454 56.3467 62.5721 56.4933 62.3587 56.44L61.8787 56.32C61.7454 56.32 61.6121 56.36 61.4787 56.44C61.3454 56.52 61.2387 56.5467 61.1587 56.52L60.9987 56.48H60.7987C60.6921 56.48 60.6121 56.48 60.5587 56.48C60.5054 56.5067 60.4654 56.52 60.4387 56.52C60.4654 56.52 60.4787 56.52 60.4787 56.52ZM61.2787 39.68L61.3587 39.52L61.2387 39.44C61.2387 39.52 61.2521 39.6 61.2787 39.68ZM64.0787 41.04C64.2121 41.04 64.2921 40.96 64.3187 40.8L64.2787 40.28H64.1987C64.1187 40.28 64.0787 40.2133 64.0787 40.08C64.0254 39.9467 63.9587 39.88 63.8787 39.88C63.7721 39.8267 63.6921 39.8667 63.6387 40C63.6121 40.0267 63.5987 40.0667 63.5987 40.12C63.6254 40.1733 63.6387 40.2267 63.6387 40.28L63.6787 40.56L63.5587 40.68L64.0787 41.04ZM60.5587 41.56C60.7721 41.48 60.7721 41.3867 60.5587 41.28C60.5054 41.3333 60.5054 41.4267 60.5587 41.56ZM65.7587 41.52L65.6787 41.36L65.5587 41.44L65.7587 41.52ZM60.4387 45.16L60.8387 45.04L61.3987 44.88C61.5854 44.88 61.7854 44.8667 61.9987 44.84C62.2121 44.7867 62.4521 44.7333 62.7187 44.68L62.8387 44.2C62.8654 44.1733 62.9321 44.1333 63.0387 44.08C62.9321 43.9733 62.8387 43.8667 62.7587 43.76C62.7054 43.6533 62.6921 43.5467 62.7187 43.44L62.7587 43.16V42.92C62.7587 42.68 62.6521 42.48 62.4387 42.32C62.4654 42.24 62.4787 42.1333 62.4787 42C62.4787 41.7867 62.2387 41.6667 61.7587 41.64C61.6787 41.64 61.5321 41.72 61.3187 41.88L60.6787 42.32C60.7854 42.4 60.7987 42.5067 60.7187 42.64C60.6921 42.7467 60.5987 42.8 60.4387 42.8V42.92C60.5187 42.8667 60.5987 42.9067 60.6787 43.04C60.7321 43.1467 60.7454 43.2133 60.7187 43.24L60.6387 44.44C60.6387 44.52 60.6387 44.5867 60.6387 44.64C60.6654 44.6933 60.6787 44.72 60.6787 44.72C60.6787 44.8 60.6387 44.84 60.5587 44.84C60.4787 44.7867 60.4121 44.72 60.3587 44.64L60.2387 44.72L60.1987 44.96L60.4387 45.16ZM63.2387 42.72C63.2921 42.8 63.3721 42.8 63.4787 42.72C63.3987 42.48 63.3187 42.48 63.2387 42.72ZM60.6787 44.68C60.6787 44.7333 60.6787 44.7467 60.6787 44.72C60.6787 44.72 60.6787 44.7067 60.6787 44.68ZM57.1587 47.84C57.2387 47.7867 57.3454 47.64 57.4787 47.4L57.4387 47.28H57.3587C57.2254 47.28 57.0521 47.3467 56.8387 47.48C56.9187 47.6133 57.0254 47.7333 57.1587 47.84ZM64.8387 47.56C64.8654 47.48 64.8521 47.4133 64.7987 47.36C64.7721 47.3333 64.7054 47.3467 64.5987 47.4C64.5987 47.4533 64.6787 47.5067 64.8387 47.56ZM57.9187 52.92L58.2387 52.76L58.1987 52.6L57.9987 52.56L57.9187 52.64V52.6L57.8787 52.44L57.7587 52.4L57.6787 52.84L57.9187 52.92ZM60.9587 53.56C60.9854 53.5067 60.9721 53.4533 60.9187 53.4C60.8654 53.3467 60.8121 53.3467 60.7587 53.4C60.7587 53.4533 60.8254 53.5067 60.9587 53.56Z" fill="#835148"/>
</svg>
