<svg width="88" height="64" viewBox="0 0 88 64" fill="none" xmlns="http://www.w3.org/2000/svg">
<path d="M17.6667 13.1068L21.76 12.6468L19.3334 16.0002L21.7867 19.3135L17.6667 18.8802L16.02 22.6668L14.3334 18.8935L10.24 19.3535L12.6667 16.0002L10.2134 12.6868L14.3334 13.1202L15.98 9.3335L17.6667 13.1068Z" fill="#835148"/>
<path d="M46.5001 7.66L52.6401 6.97L49.0001 12L52.6801 16.97L46.5001 16.32L44.0301 22L41.5001 16.34L35.3601 17.03L39.0001 12L35.3201 7.03L41.5001 7.68L43.9701 2L46.5001 7.66Z" fill="#835148"/>
<path d="M73.6667 13.1068L77.76 12.6468L75.3334 16.0002L77.7867 19.3135L73.6667 18.8802L72.02 22.6668L70.3334 18.8935L66.24 19.3535L68.6667 16.0002L66.2134 12.6868L70.3334 13.1202L71.98 9.3335L73.6667 13.1068Z" fill="#835148"/>
<path d="M6.88 56.72C6.66667 56.72 6.49333 56.68 6.36 56.6C6.25333 56.52 6.10667 56.48 5.92 56.48L5.88 56.52C5.88 56.52 5.85333 56.52 5.8 56.52C5.77333 56.5467 5.68 56.52 5.52 56.44L5.2 56.32L5.16 56.36C5.16 56.3867 5.14667 56.4 5.12 56.4C5.17333 56.4 5.06667 56.3333 4.8 56.2C4.66667 56.2 4.50667 56.1467 4.32 56.04L3.76 55.56C3.70667 55.5333 3.62667 55.5067 3.52 55.48C3.44 55.4533 3.34667 55.4267 3.24 55.4C3.10667 55.32 2.93333 55.2 2.72 55.04C2.53333 54.88 2.33333 54.6667 2.12 54.4L2.08 54.12L1.88 53.84L1.8 53.28C1.77333 53.1733 1.72 53.0533 1.64 52.92C1.58667 52.76 1.53333 52.5867 1.48 52.4C1.4 52.3733 1.29333 52.2667 1.16 52.08C1 51.7067 0.92 51.4533 0.92 51.32C0.92 51.2933 0.946667 51.2533 1 51.2C1.05333 51.12 1.09333 51.08 1.12 51.08C1.06667 51 0.933333 50.8933 0.72 50.76L0.68 50.32C0.866667 50.1867 0.986667 50.12 1.04 50.12H1.32C1.4 50.0933 1.49333 50.0667 1.6 50.04C1.70667 50.0133 1.82667 49.9867 1.96 49.96C2.09333 49.9067 2.2 49.9467 2.28 50.08C2.30667 50.1867 2.38667 50.24 2.52 50.24C2.54667 50.24 2.61333 50.1467 2.72 49.96L3.08 49.48C3.48 49.6133 3.72 49.6667 3.8 49.64L4.44 49.2H4.84V49.64L5.2 49.8L5.12 50.4C5.12 50.4533 5.16 50.52 5.24 50.6C5.32 50.68 5.36 50.7333 5.36 50.76C5.38667 50.7867 5.37333 50.8533 5.32 50.96L5.2 51.16C5.25333 51.3733 5.37333 51.56 5.56 51.72C5.61333 51.72 5.72 51.7467 5.88 51.8C5.88 51.9067 5.92 52 6 52.08C6.10667 52.16 6.21333 52.1733 6.32 52.12C6.32 52.12 6.34667 52.24 6.4 52.48C6.45333 52.6133 6.50667 52.68 6.56 52.68C6.56 52.68 6.61333 52.6533 6.72 52.6C6.77333 52.5467 6.82667 52.52 6.88 52.52L7.08 52.56C7.13333 52.56 7.17333 52.5733 7.2 52.6C7.22667 52.6267 7.25333 52.64 7.28 52.64C7.30667 52.64 7.36 52.6 7.44 52.52C7.54667 52.4667 7.61333 52.44 7.64 52.44C7.66667 52.4133 7.76 52.4267 7.92 52.48L8.16 52.56C8.16 52.56 8.21333 52.5333 8.32 52.48L8.44 52.44C8.44 52.44 8.52 52.4667 8.68 52.52C8.73333 52.4667 8.76 52.4133 8.76 52.36C8.76 52.1467 8.8 51.8667 8.88 51.52L9.24 51.48C9.37333 51.48 9.45333 51.4267 9.48 51.32C9.45333 51.2933 9.41333 51.2533 9.36 51.2C9.30667 51.1467 9.25333 51.0933 9.2 51.04C9.17333 50.9333 9.14667 50.8267 9.12 50.72C9.09333 50.5867 9.06667 50.4533 9.04 50.32C9.04 50.24 9.08 50.16 9.16 50.08C9.24 50.0533 9.30667 50.0133 9.36 49.96C9.36 49.96 9.30667 49.9733 9.2 50C9.06667 50 8.96 49.8667 8.88 49.6L8.72 49.12C8.64 49.0667 8.57333 49 8.52 48.92C8.41333 48.8133 8.36 48.7067 8.36 48.6C8.36 48.5467 8.37333 48.5067 8.4 48.48C8.37333 48.4267 8.29333 48.4267 8.16 48.48L7.96 47.92C7.93333 47.92 7.92 47.9333 7.92 47.96C7.86667 48.0133 7.82667 48.04 7.8 48.04C7.77333 48.0133 7.72 48 7.64 48L7.56 47.64L7.28 47.52L6.8 47.08C6.77333 47.0267 6.72 46.9867 6.64 46.96C6.58667 46.9333 6.50667 46.8933 6.4 46.84L6.36 46.52C6.33333 46.4667 6.29333 46.4267 6.24 46.4C6.18667 46.3467 6.13333 46.2933 6.08 46.24H5.88C5.85333 46.2667 5.78667 46.28 5.68 46.28C5.65333 46.3067 5.58667 46.24 5.48 46.08C5.42667 45.9733 5.37333 45.8933 5.32 45.84C5.26667 45.76 5.21333 45.7067 5.16 45.68L4.52 45.28L4.2 45.16L4.16 44.8L3.48 44.44L3.32 44.16C3.26667 44.0267 3.16 43.96 3 43.96H2.96C2.88 43.88 2.84 43.8 2.84 43.72C2.46667 43.1067 2.26667 42.8 2.24 42.8C2.24 42.8 2.16 42.8267 2 42.88H1.96C1.82667 42.88 1.74667 42.7867 1.72 42.6L1.6 42.12C1.33333 42.12 1.16 41.8133 1.08 41.2L0.72 41.04C0.693333 40.8533 0.666667 40.72 0.64 40.64C0.64 40.56 0.64 40.5333 0.64 40.56C0.666667 40.32 0.693333 40.2267 0.72 40.28C0.693333 40.1467 0.613333 40.0533 0.48 40C0.4 40 0.333333 39.96 0.28 39.88C0.253333 39.5867 0.253333 39.3067 0.28 39.04C0.306667 38.7467 0.333333 38.4533 0.36 38.16C0.36 38.08 0.333333 37.96 0.28 37.8L0.16 37.52L0.28 37.36V37.2C0.28 36.9333 0.333333 36.64 0.44 36.32C0.466667 36.32 0.52 36.32 0.6 36.32C0.68 36.2933 0.746667 36.24 0.8 36.16L0.56 35.64L1.08 34.64C1.29333 34.2667 1.46667 34.08 1.6 34.08L1.84 34.12C1.86667 34.12 1.89333 34.1067 1.92 34.08C1.92 34.0533 1.89333 33.9467 1.84 33.76H2C2.05333 33.76 2.08 33.76 2.08 33.76L2.32 33.44C2.37333 33.3867 2.52 33.3333 2.76 33.28L2.92 32.84H3.08C3.10667 32.8667 3.13333 32.8933 3.16 32.92C3.18667 32.9467 3.21333 32.9867 3.24 33.04C3.42667 32.96 3.58667 32.7733 3.72 32.48L4.08 32.2C4.08 32.2 4.09333 32.2 4.12 32.2C4.17333 32.2 4.24 32.1867 4.32 32.16L4.52 32.2C4.6 32.2267 4.66667 32.24 4.72 32.24C4.8 32.24 4.93333 32.1467 5.12 31.96C5.33333 31.8 5.45333 31.72 5.48 31.72L5.84 31.92C5.84 32 5.85333 32.0667 5.88 32.12L6.52 31.8C6.6 31.8 6.8 31.92 7.12 32.16C7.17333 32.24 7.17333 32.4267 7.12 32.72L7.24 32.68L7.28 32.52C7.33333 32.4933 7.38667 32.4533 7.44 32.4C7.49333 32.3467 7.56 32.2933 7.64 32.24C7.64 32.1867 7.68 32.1067 7.76 32C7.78667 32.0267 7.81333 32.0533 7.84 32.08C7.89333 32.1067 7.94667 32.1467 8 32.2C8.10667 32.3067 8.18667 32.36 8.24 32.36C8.29333 32.3067 8.37333 32.2667 8.48 32.24H8.56C8.8 32.24 9.06667 32.3333 9.36 32.52L9.88 32.92L9.92 33.12C9.86667 33.12 9.8 33.16 9.72 33.24C9.8 33.3733 9.92 33.44 10.08 33.44V33.6C10.1333 33.6267 10.2267 33.6133 10.36 33.56C10.4133 33.72 10.5467 33.8 10.76 33.8C10.8133 33.8 10.88 33.8667 10.96 34C10.9333 34.08 10.9333 34.1733 10.96 34.28C11.2533 34.8133 11.4 35.0533 11.4 35V35.04C11.4 35.12 11.3467 35.2667 11.24 35.48C11.1067 35.8 11.04 35.9733 11.04 36C11.04 36.1067 11.2 36.1867 11.52 36.24C11.8133 36.2933 11.9467 36.3467 11.92 36.4L12.12 36.68C12.0933 36.7067 12.08 36.76 12.08 36.84C12.08 36.92 12.1067 37.04 12.16 37.2C12.2667 37.44 12.32 37.6133 12.32 37.72C12.2667 37.7733 12.2 37.84 12.12 37.92C12.04 37.9733 11.9467 38.04 11.84 38.12C11.7867 38.1467 11.6933 38.1733 11.56 38.2C11.4533 38.2267 11.2933 38.2533 11.08 38.28L10.2 38.4C10.1467 38.4267 10.08 38.4533 10 38.48C9.92 38.5067 9.84 38.5333 9.76 38.56L9.28 38.4C9.12 38.4533 9 38.6 8.92 38.84C8.81333 39.1067 8.70667 39.24 8.6 39.24C8.57333 39.24 8.53333 39.1733 8.48 39.04C8.4 38.9067 8.34667 38.84 8.32 38.84C8.29333 38.84 8.24 38.88 8.16 38.96L7.92 39L7.84 38.72C7.84 38.6133 7.88 38.52 7.96 38.44C8.01333 38.3333 8.04 38.2667 8.04 38.24L7.84 38C7.94667 37.92 8.04 37.76 8.12 37.52C7.96 37.52 7.76 37.48 7.52 37.4C7.52 37.3467 7.50667 37.28 7.48 37.2C7.45333 37.0933 7.41333 36.9867 7.36 36.88L7.2 36.44C7.06667 36.2533 6.8 36.1067 6.4 36L6.04 36.04C5.98667 36.04 5.92 36.0533 5.84 36.08C5.78667 36.08 5.70667 36.0933 5.6 36.12C5.52 36.12 5.41333 36 5.28 35.76C5.22667 35.76 5.2 35.8133 5.2 35.92L5.4 36.32C5.10667 36.56 4.86667 36.6667 4.68 36.64V37.24C4.62667 37.2933 4.58667 37.3467 4.56 37.4C4.56 37.4533 4.56 37.52 4.56 37.6C4.58667 37.68 4.61333 37.7733 4.64 37.88C4.69333 38.12 4.70667 38.28 4.68 38.36C4.68 38.3867 4.66667 38.4133 4.64 38.44C4.58667 38.4933 4.56 38.56 4.56 38.64C4.56 38.6933 4.6 38.76 4.68 38.84C4.73333 38.9467 4.76 39 4.76 39C4.76 39.0267 4.66667 39.1333 4.48 39.32C4.29333 39.5067 4.2 39.6133 4.2 39.64C4.22667 40.1467 4.42667 40.4 4.8 40.4H4.92C5 40.4 5.08 40.4 5.16 40.4C5.24 40.3733 5.32 40.36 5.4 40.36C5.50667 40.36 5.61333 40.3733 5.72 40.4C5.82667 40.4 5.93333 40.4133 6.04 40.44V40.84C6.04 41 6.21333 41.2267 6.56 41.52C6.61333 41.52 6.68 41.5333 6.76 41.56C6.86667 41.56 6.97333 41.5733 7.08 41.6L7.2 41.84C7.25333 41.8667 7.34667 41.9467 7.48 42.08L7.64 42.4C7.69333 42.48 7.74667 42.52 7.8 42.52C8.01333 42.4933 8.14667 42.4667 8.2 42.44C8.22667 42.44 8.22667 42.44 8.2 42.44C8.28 43.1333 8.33333 43.48 8.36 43.48L8.8 42.96H8.92L9.08 43.4C9.10667 43.4267 9.12 43.44 9.12 43.44C9.14667 43.44 9.16 43.44 9.16 43.44L9.4 43.36C9.50667 43.3867 9.54667 43.52 9.52 43.76L9.92 43.96C9.94667 43.96 10.04 44.0667 10.2 44.28C10.44 44.28 10.6133 44.3733 10.72 44.56C10.7467 44.6133 10.7733 44.68 10.8 44.76C10.8267 44.8133 10.8667 44.8933 10.92 45L11.24 45.16C11.24 45.2133 11.24 45.28 11.24 45.36C11.24 45.44 11.2533 45.5467 11.28 45.68C11.28 45.8133 11.3067 45.9067 11.36 45.96C11.3867 45.96 11.48 45.8667 11.64 45.68C11.7733 45.7067 11.8667 45.84 11.92 46.08C11.9733 46.2933 12.0533 46.4 12.16 46.4C12.2133 46.4 12.2533 46.3867 12.28 46.36C12.3067 46.44 12.32 46.5333 12.32 46.64C12.32 46.72 12.32 46.8133 12.32 46.92C12.32 47 12.3733 47.08 12.48 47.16C12.5867 47.2133 12.68 47.2267 12.76 47.2L12.92 47.72C12.9733 47.8533 12.9333 47.9467 12.8 48C12.8533 48.0533 12.9067 48.0667 12.96 48.04L12.92 48.24L13.12 48.56L13.16 48.88C13.24 48.96 13.2933 49.0267 13.32 49.08C13.4267 49.2133 13.4933 49.6533 13.52 50.4C13.4933 50.48 13.48 50.64 13.48 50.88L13.32 51.12C13.3733 51.2267 13.4133 51.4267 13.44 51.72L13.28 51.88C13.28 52.04 13.1333 52.48 12.84 53.2L12.68 53.08C12.6 53.1067 12.56 53.1867 12.56 53.32C12.56 53.6667 12.5467 53.8533 12.52 53.88L12.12 54.12C12.1467 54.3067 12.1467 54.44 12.12 54.52L11.48 55.04L11.32 55.28C11.1333 55.4133 10.9467 55.5467 10.76 55.68C10.6 55.7867 10.4267 55.8667 10.24 55.92C10.2133 55.92 10.16 55.9333 10.08 55.96C10.0267 55.96 9.94667 55.9733 9.84 56C9.73333 56.1333 9.54667 56.2933 9.28 56.48L8.88 56.36L8.64 56.48C8.58667 56.5333 8.42667 56.56 8.16 56.56H7.52C7.41333 56.5867 7.30667 56.6133 7.2 56.64C7.12 56.6667 7.01333 56.6933 6.88 56.72ZM2.96 36.52C2.98667 36.4933 3.08 36.4533 3.24 36.4L3.56 36.44L3.88 36.52C4.09333 36.4667 4.2 36.3467 4.2 36.16L4.16 36L3.6 36.08C3.46667 36.08 3.33333 36.1333 3.2 36.24C3.01333 36.1067 2.88 36.04 2.8 36.04C2.82667 36.0933 2.85333 36.16 2.88 36.24C2.90667 36.32 2.93333 36.4133 2.96 36.52ZM2.2 36.44C2.28 36.4933 2.34667 36.44 2.4 36.28C2.34667 36.2267 2.29333 36.2267 2.24 36.28C2.18667 36.3333 2.17333 36.3867 2.2 36.44ZM10.32 36.56L10.48 36.4C10.48 36.3733 10.4267 36.3733 10.32 36.4V36.56ZM10.84 36.76C10.92 36.7867 11 36.7467 11.08 36.64C11.0533 36.6133 11.0133 36.6 10.96 36.6C10.88 36.6 10.84 36.6533 10.84 36.76ZM4.04 37.2C4.04 37.0933 4.01333 37.04 3.96 37.04C3.93333 36.9867 3.88 37 3.8 37.08C3.8 37.16 3.88 37.2 4.04 37.2ZM1.2 38.36C1.22667 38.3867 1.24 38.4133 1.24 38.44C1.26667 38.4667 1.29333 38.4933 1.32 38.52C1.32 38.4933 1.32 38.4533 1.32 38.4V38.36H1.2ZM6.72 42.64C6.77333 42.64 6.82667 42.6133 6.88 42.56C6.93333 42.5067 6.90667 42.4533 6.8 42.4C6.74667 42.4533 6.72 42.5333 6.72 42.64ZM3.6 42.64C3.6 42.5867 3.57333 42.5333 3.52 42.48C3.46667 42.4267 3.41333 42.4533 3.36 42.56C3.36 42.64 3.44 42.6667 3.6 42.64ZM9.28 47.72C9.33333 47.72 9.38667 47.6933 9.44 47.64C9.44 47.56 9.41333 47.4933 9.36 47.44C9.28 47.4933 9.25333 47.5867 9.28 47.72ZM10.96 48.28C10.96 48.2267 10.9333 48.1733 10.88 48.12C10.8 48.0667 10.7333 48.0933 10.68 48.2C10.7333 48.28 10.8267 48.3067 10.96 48.28ZM11.64 49.8C11.64 49.72 11.6 49.6667 11.52 49.64C11.4667 49.64 11.4133 49.6667 11.36 49.72C11.4133 49.8 11.5067 49.8267 11.64 49.8ZM9.36 49.92C9.38667 49.9467 9.38667 49.96 9.36 49.96C9.38667 49.9333 9.4 49.92 9.4 49.92H9.36ZM3.32 50.8L3.48 50.68C3.48 50.68 3.45333 50.6533 3.4 50.6C3.4 50.6 3.38667 50.6267 3.36 50.68C3.33333 50.7333 3.32 50.7733 3.32 50.8ZM4.72 55.32L4.88 55.28C4.90667 55.2533 5 55.24 5.16 55.24L5.64 54.68C5.58667 54.6267 5.53333 54.5467 5.48 54.44C5.42667 54.3067 5.37333 54.16 5.32 54V53.88C5.32 53.7467 5.36 53.64 5.44 53.56L5.04 53.6L5.28 54.4C5.28 54.6133 5.25333 54.6933 5.2 54.64L5.16 54.6C5.16 54.6 5.13333 54.6 5.08 54.6C5.02667 54.68 4.88 54.84 4.64 55.08C4.69333 55.1333 4.72 55.2133 4.72 55.32ZM6.72 54C6.72 53.9733 6.68 53.92 6.6 53.84C6.6 53.84 6.57333 53.8667 6.52 53.92C6.52 53.92 6.54667 53.9333 6.6 53.96C6.65333 53.9867 6.69333 54 6.72 54ZM4.08 54.52C4.08 54.4667 4.05333 54.4133 4 54.36C3.97333 54.3067 3.92 54.32 3.84 54.4C3.84 54.48 3.92 54.52 4.08 54.52ZM6.8 54.6C6.82667 54.5467 6.81333 54.4933 6.76 54.44C6.73333 54.3867 6.66667 54.4133 6.56 54.52C6.61333 54.6 6.69333 54.6267 6.8 54.6ZM18.7631 56.52C18.7098 56.52 18.6965 56.52 18.7231 56.52C18.6965 56.52 18.6431 56.4933 18.5631 56.44L18.3631 56.36C18.3098 56.3867 18.2431 56.4 18.1631 56.4C18.1098 56.4 18.0431 56.4133 17.9631 56.44L17.4031 56.12C17.3231 55.9333 17.2165 55.84 17.0831 55.84C17.0565 55.8133 17.0298 55.8133 17.0031 55.84C16.9765 55.8667 16.9231 55.88 16.8431 55.88C16.8431 55.88 16.7098 55.7733 16.4431 55.56L16.1231 55.44C16.0431 55.36 15.9498 55.2667 15.8431 55.16C15.7631 55.0533 15.6565 54.9333 15.5231 54.8L15.2031 54.56V54.48C15.2031 54.3733 15.1365 54.2133 15.0031 54C14.8698 53.8667 14.7631 53.76 14.6831 53.68C14.6298 53.5733 14.5898 53.5067 14.5631 53.48V53C14.6965 53.08 14.7765 53.0667 14.8031 52.96C14.8565 52.88 14.8031 52.8 14.6431 52.72C14.5365 52.64 14.4831 52.5733 14.4831 52.52V52.04C14.4831 51.96 14.4831 51.88 14.4831 51.8C14.4831 51.72 14.4698 51.64 14.4431 51.56C14.4165 51.4267 14.3898 51.3067 14.3631 51.2C14.3631 51.0667 14.3765 50.9467 14.4031 50.84L14.4831 50.44C14.4565 50.28 14.4431 50.12 14.4431 49.96C14.4431 49.7733 14.4431 49.5867 14.4431 49.4C14.4431 49.2933 14.4831 49.16 14.5631 49L14.6831 48.68C14.6565 48.4667 14.6298 48.24 14.6031 48C14.5765 47.7333 14.5498 47.4667 14.5231 47.2C14.5231 47.12 14.6298 46.8667 14.8431 46.44C14.8965 46.4133 14.9498 46.3867 15.0031 46.36C15.0565 46.3333 15.1098 46.2933 15.1631 46.24C15.1631 46.2133 15.0431 46.12 14.8031 45.96L14.6831 45.12C14.6831 44.9867 14.7365 44.9067 14.8431 44.88C14.9231 44.8267 14.9498 44.7333 14.9231 44.6L15.4431 44.24C15.4165 44.1333 15.3231 44.0667 15.1631 44.04C15.1365 44.04 15.0431 44.0667 14.8831 44.12C14.8031 44.0667 14.7631 44.0133 14.7631 43.96C14.7631 43.8 14.8431 43.6667 15.0031 43.56C15.1631 43.4267 15.2431 43.3467 15.2431 43.32L15.0431 42.64C15.0431 42.64 15.1498 42.4533 15.3631 42.08C15.5498 42.0533 15.6431 42 15.6431 41.92C15.6431 41.8667 15.6031 41.8 15.5231 41.72C15.4165 41.64 15.3631 41.5733 15.3631 41.52C15.3631 41.4933 15.3898 41.4533 15.4431 41.4C15.5231 41.24 15.6031 40.9467 15.6831 40.52L15.9231 40.28L16.0431 39.88C16.2031 39.8267 16.3898 39.7467 16.6031 39.64L17.1231 39C17.3898 38.6533 17.6165 38.4933 17.8031 38.52L17.9231 38.56C17.9231 38.5333 18.0298 38.4933 18.2431 38.44C18.8831 38.2267 19.2431 38.1333 19.3231 38.16L19.5231 38.2C19.6831 38.0933 19.8031 38 19.8831 37.92L20.0831 37.96C20.1365 37.96 20.1765 37.9733 20.2031 38C20.2298 38.0267 20.2565 38.04 20.2831 38.04L20.6031 38L20.9631 38.32C20.9631 38.32 21.0431 38.2933 21.2031 38.24L21.4031 38.16C21.5098 38.2133 21.6298 38.2667 21.7631 38.32C21.8965 38.3733 22.0298 38.4267 22.1631 38.48C22.2965 38.4267 22.4831 38.4267 22.7231 38.48L22.6831 38.68V38.72C22.6831 38.88 22.8298 38.96 23.1231 38.96H23.4431C23.4431 38.96 23.6165 39.28 23.9631 39.92L24.2031 39.84C24.3098 39.84 24.3765 39.88 24.4031 39.96L24.8431 41.48C24.8165 41.5333 24.8031 41.6267 24.8031 41.76C24.8031 41.8667 24.8031 41.9867 24.8031 42.12L24.9231 42.4C24.9765 42.56 25.0031 42.64 25.0031 42.64L24.9231 42.76C24.8965 42.7867 24.8831 42.8267 24.8831 42.88V43.48C24.8565 43.5067 24.8298 43.56 24.8031 43.64C24.7765 43.6933 24.7498 43.7733 24.7231 43.88C24.5631 43.9067 24.4831 43.96 24.4831 44.04C24.4831 44.12 24.6031 44.2667 24.8431 44.48C25.0565 44.6933 25.1631 44.8267 25.1631 44.88C25.1631 44.9333 25.0965 44.96 24.9631 44.96L24.8431 45.52C24.8165 45.5467 24.7765 45.6267 24.7231 45.76C24.7231 45.92 24.8031 46.2667 24.9631 46.8C24.8565 46.8533 24.7765 46.92 24.7231 47C24.7231 47 24.7231 47.1067 24.7231 47.32L24.7631 47.72C24.7631 47.7467 24.7631 47.8 24.7631 47.88C24.7631 47.9333 24.7498 48.0133 24.7231 48.12L24.6831 48.52H24.4831C24.2698 48.52 24.0965 48.4133 23.9631 48.2C23.8565 48.0133 23.7631 47.92 23.6831 47.92C23.6565 47.92 23.5765 48 23.4431 48.16C23.2831 48.32 23.1765 48.4 23.1231 48.4L22.6831 48.36C22.5498 48.3333 22.4431 48.3333 22.3631 48.36C22.2831 48.36 22.2298 48.36 22.2031 48.36L21.3631 48C21.1765 48.16 20.9631 48.24 20.7231 48.24C20.4298 48.24 20.1765 48.1467 19.9631 47.96C19.9098 48.0133 19.8831 48.0533 19.8831 48.08H19.2831C19.2565 48.08 19.2431 48.08 19.2431 48.08C19.2431 48.0533 19.2298 48.04 19.2031 48.04H19.0431C18.8031 48.04 18.6031 48.1867 18.4431 48.48V48.64C18.4165 48.6933 18.3765 48.7733 18.3231 48.88C18.2965 48.96 18.2565 49.0533 18.2031 49.16C18.2031 49.1867 18.2298 49.2267 18.2831 49.28L18.3631 49.44V49.52C18.3631 49.5467 18.3631 49.6 18.3631 49.68C18.3631 49.7333 18.3498 49.8133 18.3231 49.92C18.3498 50 18.3631 50.1333 18.3631 50.32C18.3631 50.4267 18.2965 50.52 18.1631 50.6L18.0831 51.92C18.2431 52.0533 18.3098 52.28 18.2831 52.6H18.7631C18.9231 52.6 19.0431 52.6533 19.1231 52.76C19.2031 52.8667 19.2565 52.92 19.2831 52.92L19.5631 52.8L19.8431 53C19.9231 53 19.9765 52.96 20.0031 52.88L20.2431 52.32V51.72L20.2831 51.12C20.3098 51.04 20.3231 50.9733 20.3231 50.92C20.3498 50.84 20.3631 50.7867 20.3631 50.76L20.3231 50.64C20.3765 50.5333 20.4031 50.4533 20.4031 50.4C20.4031 50.32 20.4031 50.2667 20.4031 50.24L20.3231 49.88C20.4298 49.6133 20.5631 49.48 20.7231 49.48C20.9365 49.5867 21.2298 49.68 21.6031 49.76L21.8031 49.68C21.8831 49.6533 21.9498 49.64 22.0031 49.64C22.0565 49.64 22.1498 49.7467 22.2831 49.96C22.5765 49.8533 22.7231 49.8 22.7231 49.8L23.0431 50H23.1231C23.4431 50 23.7498 49.8667 24.0431 49.6L24.7231 50.24C24.5898 50.48 24.4431 50.7867 24.2831 51.16C24.2565 51.2933 24.2165 51.4533 24.1631 51.64C24.1365 51.8267 24.0831 52.0267 24.0031 52.24C23.8165 52.32 23.7231 52.4267 23.7231 52.56C23.7231 52.6133 23.7631 52.7067 23.8431 52.84C23.9231 53 23.9631 53.1067 23.9631 53.16L23.8831 53.28C23.9365 53.4133 23.9231 53.5333 23.8431 53.64L23.7231 53.84C23.7498 53.8667 23.7631 53.92 23.7631 54C23.7631 54.24 23.5898 54.44 23.2431 54.6L23.1631 54.68C23.1898 54.7067 23.2031 54.7467 23.2031 54.8C23.2031 54.9867 23.0965 55.1067 22.8831 55.16C22.5898 55.24 22.4165 55.3067 22.3631 55.36C22.3098 55.44 22.2298 55.5333 22.1231 55.64C22.0165 55.7467 21.8965 55.8667 21.7631 56C21.2298 56.3467 20.8565 56.4933 20.6431 56.44L20.1631 56.32C20.0298 56.32 19.8965 56.36 19.7631 56.44C19.6298 56.52 19.5231 56.5467 19.4431 56.52L19.2831 56.48H19.0831C18.9765 56.48 18.8965 56.48 18.8431 56.48C18.7898 56.5067 18.7498 56.52 18.7231 56.52C18.7498 56.52 18.7631 56.52 18.7631 56.52ZM19.5631 39.68L19.6431 39.52L19.5231 39.44C19.5231 39.52 19.5365 39.6 19.5631 39.68ZM22.3631 41.04C22.4965 41.04 22.5765 40.96 22.6031 40.8L22.5631 40.28H22.4831C22.4031 40.28 22.3631 40.2133 22.3631 40.08C22.3098 39.9467 22.2431 39.88 22.1631 39.88C22.0565 39.8267 21.9765 39.8667 21.9231 40C21.8965 40.0267 21.8831 40.0667 21.8831 40.12C21.9098 40.1733 21.9231 40.2267 21.9231 40.28L21.9631 40.56L21.8431 40.68L22.3631 41.04ZM18.8431 41.56C19.0565 41.48 19.0565 41.3867 18.8431 41.28C18.7898 41.3333 18.7898 41.4267 18.8431 41.56ZM24.0431 41.52L23.9631 41.36L23.8431 41.44L24.0431 41.52ZM18.7231 45.16L19.1231 45.04L19.6831 44.88C19.8698 44.88 20.0698 44.8667 20.2831 44.84C20.4965 44.7867 20.7365 44.7333 21.0031 44.68L21.1231 44.2C21.1498 44.1733 21.2165 44.1333 21.3231 44.08C21.2165 43.9733 21.1231 43.8667 21.0431 43.76C20.9898 43.6533 20.9765 43.5467 21.0031 43.44L21.0431 43.16V42.92C21.0431 42.68 20.9365 42.48 20.7231 42.32C20.7498 42.24 20.7631 42.1333 20.7631 42C20.7631 41.7867 20.5231 41.6667 20.0431 41.64C19.9631 41.64 19.8165 41.72 19.6031 41.88L18.9631 42.32C19.0698 42.4 19.0831 42.5067 19.0031 42.64C18.9765 42.7467 18.8831 42.8 18.7231 42.8V42.92C18.8031 42.8667 18.8831 42.9067 18.9631 43.04C19.0165 43.1467 19.0298 43.2133 19.0031 43.24L18.9231 44.44C18.9231 44.52 18.9231 44.5867 18.9231 44.64C18.9498 44.6933 18.9631 44.72 18.9631 44.72C18.9631 44.8 18.9231 44.84 18.8431 44.84C18.7631 44.7867 18.6965 44.72 18.6431 44.64L18.5231 44.72L18.4831 44.96L18.7231 45.16ZM21.5231 42.72C21.5765 42.8 21.6565 42.8 21.7631 42.72C21.6831 42.48 21.6031 42.48 21.5231 42.72ZM18.9631 44.68C18.9631 44.7333 18.9631 44.7467 18.9631 44.72C18.9631 44.72 18.9631 44.7067 18.9631 44.68ZM15.4431 47.84C15.5231 47.7867 15.6298 47.64 15.7631 47.4L15.7231 47.28H15.6431C15.5098 47.28 15.3365 47.3467 15.1231 47.48C15.2031 47.6133 15.3098 47.7333 15.4431 47.84ZM23.1231 47.56C23.1498 47.48 23.1365 47.4133 23.0831 47.36C23.0565 47.3333 22.9898 47.3467 22.8831 47.4C22.8831 47.4533 22.9631 47.5067 23.1231 47.56ZM16.2031 52.92L16.5231 52.76L16.4831 52.6L16.2831 52.56L16.2031 52.64V52.6L16.1631 52.44L16.0431 52.4L15.9631 52.84L16.2031 52.92ZM19.2431 53.56C19.2698 53.5067 19.2565 53.4533 19.2031 53.4C19.1498 53.3467 19.0965 53.3467 19.0431 53.4C19.0431 53.4533 19.1098 53.5067 19.2431 53.56ZM32.9116 56.6L32.2316 56.56C32.0182 56.5333 31.8449 56.52 31.7116 56.52C31.6049 56.52 31.5382 56.52 31.5116 56.52C31.1116 56.52 30.8716 56.5067 30.7916 56.48L30.1116 56.12C30.0582 56.0933 29.9916 56.0667 29.9116 56.04C29.8316 56.0133 29.7382 55.9867 29.6316 55.96C29.4716 55.88 29.3916 55.7467 29.3916 55.56C29.3382 55.5333 29.2849 55.52 29.2316 55.52C29.1782 55.4933 29.1249 55.48 29.0716 55.48C29.0716 55.24 29.0182 55.08 28.9116 55L28.6316 54.88C28.5782 54.8267 28.5116 54.68 28.4316 54.44L28.2716 54.04V53.92C28.2716 53.8667 28.2582 53.8 28.2316 53.72C28.2316 53.6133 28.2182 53.5067 28.1916 53.4C28.1916 53.1867 28.1916 53 28.1916 52.84C28.2182 52.68 28.2449 52.5467 28.2716 52.44C28.1649 52.3867 28.0849 52.3067 28.0316 52.2C28.0049 52.1467 28.0182 52.04 28.0716 51.88L28.1116 51.52C28.1382 51.3867 28.1516 51.2667 28.1516 51.16C28.1516 51.0533 28.1649 50.9467 28.1916 50.84C28.1916 50.7067 28.2316 50.5467 28.3116 50.36C28.4182 50.1733 28.4716 50.0533 28.4716 50C28.4716 49.9733 28.4449 49.9333 28.3916 49.88C28.3382 49.8267 28.3116 49.8 28.3116 49.8C28.3116 49.7467 28.2982 49.7067 28.2716 49.68C28.2716 49.6533 28.2716 49.6267 28.2716 49.6C28.2716 49.44 28.3116 49.28 28.3916 49.12C28.2849 48.9333 28.2316 48.7067 28.2316 48.44C28.2316 48.2267 28.2982 48.0267 28.4316 47.84C28.3516 47.7333 28.2849 47.6267 28.2316 47.52V46.48C28.2316 46.48 28.2049 46.4267 28.1516 46.32C28.0982 46.2667 28.0716 46.2133 28.0716 46.16C28.0716 46.08 28.2182 45.7867 28.5116 45.28C28.2982 45.1467 28.1916 45.0667 28.1916 45.04L28.3916 44.32C28.3916 44.2667 28.3782 44.1867 28.3516 44.08C28.3516 43.9733 28.3516 43.8533 28.3516 43.72L28.3116 43.08C28.2849 42.7867 28.2849 42.5467 28.3116 42.36C28.3382 42.1733 28.3382 42.0267 28.3116 41.92C28.2316 41.7867 28.1382 41.72 28.0316 41.72V41.52L28.3916 41.36C28.3916 41.3067 28.3782 41.2667 28.3516 41.24H27.6716V41.36C27.6716 41.4667 27.7249 41.56 27.8316 41.64C27.9382 41.72 27.9916 41.7867 27.9916 41.84L27.5116 41.8C27.4049 41.7733 27.3116 41.76 27.2316 41.76C27.1782 41.76 27.1382 41.76 27.1116 41.76L26.8716 41.84C26.7116 41.8933 26.6316 41.92 26.6316 41.92C26.5249 41.92 26.3649 41.8667 26.1516 41.76C26.1249 41.7067 26.1249 41.6267 26.1516 41.52L26.2316 41.28C26.2049 41.2 26.1916 41.12 26.1916 41.04C26.1916 40.96 26.1916 40.8933 26.1916 40.84C26.2449 40.68 26.3382 40.5867 26.4716 40.56C26.3649 40.4533 26.2982 40.3467 26.2716 40.24C26.2716 40.1067 26.2716 39.9733 26.2716 39.84L26.2316 39.64C26.2849 39.4 26.2982 39.2533 26.2716 39.2L26.1516 39C26.0982 38.8933 26.0716 38.8267 26.0716 38.8L26.2316 38.44C26.2582 38.4133 26.2982 38.4 26.3516 38.4C26.4049 38.4 26.4716 38.3867 26.5516 38.36C26.6316 38.3333 26.6849 38.28 26.7116 38.2H26.7916L27.1916 38.32L27.7116 38.48C27.7382 38.5067 27.7649 38.5467 27.7916 38.6C27.8182 38.6533 27.8449 38.72 27.8716 38.8C27.9782 38.72 28.0849 38.6133 28.1916 38.48C28.2982 38.3467 28.4049 38.1867 28.5116 38C28.6716 37.8933 28.6849 37.8133 28.5516 37.76C28.4716 37.7067 28.4316 37.6267 28.4316 37.52L28.4716 36.24C28.3382 35.76 28.2716 35.4267 28.2716 35.24L28.3916 34.92L28.4716 34.6C28.4716 34.52 28.4316 34.4533 28.3516 34.4C28.2716 34.3467 28.2316 34.24 28.2316 34.08L28.3116 33.68C28.3649 33.6533 28.4182 33.6133 28.4716 33.56C28.5249 33.5067 28.6049 33.44 28.7116 33.36C28.8716 33.2 28.9649 33.12 28.9916 33.12L29.3516 33.28C29.4582 33.3067 29.5382 33.3467 29.5916 33.4C29.6449 33.4533 29.6849 33.48 29.7116 33.48L29.8316 33.44H30.7116C30.8982 33.44 31.0449 33.4533 31.1516 33.48C31.2849 33.48 31.3916 33.48 31.4716 33.48L31.7516 33.4C31.9116 33.3467 31.9916 33.32 31.9916 33.32C32.1782 33.32 32.2716 33.4533 32.2716 33.72C32.2716 33.8 32.2582 33.9067 32.2316 34.04C32.2316 34.1467 32.2182 34.28 32.1916 34.44L32.0316 34.4C31.9249 34.4 31.7916 34.4533 31.6316 34.56C31.3916 34.6933 31.2982 34.8667 31.3516 35.08C31.4049 35.1333 31.4316 35.16 31.4316 35.16C31.4582 35.16 31.5116 35.12 31.5916 35.04C31.6982 34.9867 31.7649 34.96 31.7916 34.96C31.9249 34.96 32.0582 35.0667 32.1916 35.28C32.2982 35.4667 32.3516 35.5867 32.3516 35.64C32.3516 35.6933 32.3249 35.76 32.2716 35.84C32.2449 35.8933 32.2182 35.9333 32.1916 35.96C32.1649 36.4133 32.1382 36.7333 32.1116 36.92C32.1116 37.1067 32.1116 37.1467 32.1116 37.04C31.9249 37.0667 31.8316 37.1467 31.8316 37.28C31.8316 37.4133 31.9116 37.5067 32.0716 37.56V37.8C32.0716 37.96 32.1382 38.24 32.2716 38.64C32.2982 38.6933 32.3916 38.7733 32.5516 38.88H32.6716V38.6C32.6982 38.4933 32.7782 38.44 32.9116 38.44C33.4449 38.36 33.6716 38.32 33.5916 38.32L33.7916 38.36C33.8716 38.3867 33.9516 38.4 34.0316 38.4L34.4316 38.68C34.4049 38.7867 34.3916 38.8933 34.3916 39C34.3916 39.08 34.3916 39.1867 34.3916 39.32C34.6049 39.5333 34.7116 39.6267 34.7116 39.6C34.7116 39.68 34.6582 39.7733 34.5516 39.88C34.5782 39.9067 34.6049 39.9333 34.6316 39.96C34.5782 39.9867 34.5382 40.0933 34.5116 40.28L34.5516 40.4C34.5782 40.4533 34.5916 40.5067 34.5916 40.56C34.5916 40.7733 34.5782 40.9867 34.5516 41.2C34.5516 41.3867 34.5382 41.56 34.5116 41.72C34.4582 41.88 34.3782 41.96 34.2716 41.96H34.2316H34.2716C34.2716 41.9333 34.1516 41.88 33.9116 41.8C33.8049 41.7733 33.5916 41.76 33.2716 41.76C33.1382 41.76 32.8716 41.8 32.4716 41.88L32.3116 42C32.2049 42.0533 32.1516 42.08 32.1516 42.08L32.1116 42.44C32.0849 42.7067 32.0449 42.84 31.9916 42.84C32.1516 43.2133 32.2316 43.56 32.2316 43.88C32.2049 43.88 32.1382 44.04 32.0316 44.36C32.0582 44.3067 32.0716 44.4533 32.0716 44.8L31.9916 45C31.9382 45.16 31.9116 45.24 31.9116 45.24L32.0316 45.72C32.0849 45.8533 32.1116 45.9733 32.1116 46.08C32.1116 46.16 32.1116 46.2133 32.1116 46.24C32.1116 46.24 32.0582 46.3067 31.9516 46.44C31.9249 46.44 31.9116 46.5067 31.9116 46.64C31.9116 46.8 31.9782 46.9067 32.1116 46.96V48.28C32.1116 48.3067 32.0849 48.3467 32.0316 48.4C31.9782 48.5067 31.9516 48.5733 31.9516 48.6C31.9249 48.7867 31.9249 48.9467 31.9516 49.08C32.0049 49.2933 32.0449 49.3867 32.0716 49.36C31.9916 49.44 31.9249 49.52 31.8716 49.6C31.9249 49.6533 31.9916 49.84 32.0716 50.16C31.7516 50.3467 31.5916 50.5067 31.5916 50.64C31.5916 50.5867 31.6982 50.7467 31.9116 51.12C31.9116 51.12 31.9382 51.3333 31.9916 51.76L32.0716 51.88C32.0716 51.9867 32.0716 52.1067 32.0716 52.24C32.0716 52.3467 32.0849 52.48 32.1116 52.64C32.1116 52.64 32.2716 52.7467 32.5916 52.96C32.5916 53.0667 32.6582 53.16 32.7916 53.24H32.8716C32.9249 53.24 33.0182 53.1867 33.1516 53.08C33.2582 52.9733 33.3516 52.92 33.4316 52.92C33.4316 52.92 33.4849 52.9467 33.5916 53C33.6449 53.0533 33.6849 53.08 33.7116 53.08C33.7649 53.08 33.8449 53.0533 33.9516 53C34.0049 52.9467 34.0582 52.9067 34.1116 52.88C34.1649 52.8267 34.2316 52.7733 34.3116 52.72L34.4716 52.84V54.52C34.4716 54.5467 34.4582 54.5733 34.4316 54.6C34.3782 54.6533 34.3516 54.6933 34.3516 54.72V55.12C34.2982 55.1733 34.2449 55.2133 34.1916 55.24C34.2182 55.4267 34.2716 55.5733 34.3516 55.68C34.4316 55.76 34.4716 55.88 34.4716 56.04C34.4716 56.3067 34.3249 56.44 34.0316 56.44H33.9116C33.8849 56.44 33.8582 56.4267 33.8316 56.4C33.8316 56.4 33.8182 56.4 33.7916 56.4L33.3516 56.52C33.2182 56.5467 33.1116 56.56 33.0316 56.56C32.9782 56.5867 32.9382 56.6 32.9116 56.6ZM29.6716 39.6C29.8316 39.6 29.9116 39.52 29.9116 39.36L29.8316 39.12H29.6316C29.5516 39.2 29.4849 39.2667 29.4316 39.32C29.4049 39.3733 29.3782 39.4133 29.3516 39.44C29.3782 39.4667 29.3916 39.5067 29.3916 39.56H29.5516C29.5782 39.56 29.5916 39.5733 29.5916 39.6C29.6182 39.6 29.6449 39.6 29.6716 39.6ZM33.5916 39.52L33.7516 39.44L33.5516 39.32C33.5249 39.3467 33.4982 39.36 33.4716 39.36L33.5916 39.52ZM34.6316 39.96V40.04C34.6316 40.0133 34.6316 39.9867 34.6316 39.96ZM30.4716 40.52C30.4982 40.4933 30.4716 40.44 30.3916 40.36L30.2716 40.44C30.2982 40.4667 30.3249 40.48 30.3516 40.48C30.4049 40.48 30.4449 40.4933 30.4716 40.52ZM30.5116 41.16C30.5382 41.1067 30.5249 41.0533 30.4716 41C30.4182 40.9467 30.3516 40.9467 30.2716 41C30.2982 41.0533 30.3782 41.1067 30.5116 41.16ZM32.2316 43.88V43.92V43.88ZM31.0716 47.96L31.1516 47.92C31.1782 47.8933 31.2049 47.88 31.2316 47.88L31.1516 47.76C31.1249 47.7867 31.1116 47.8133 31.1116 47.84C31.1116 47.8667 31.0982 47.9067 31.0716 47.96ZM29.5116 49.24C29.5649 49.2667 29.6182 49.2533 29.6716 49.2C29.7249 49.1467 29.7116 49.08 29.6316 49C29.5516 49.0267 29.5116 49.1067 29.5116 49.24ZM29.1916 54.28L29.3916 54.48C29.4449 54.48 29.5382 54.4667 29.6716 54.44L29.8716 54.2L29.5916 53.96C29.5649 53.9867 29.4316 54.04 29.1916 54.12V54.28ZM28.1516 55.4C28.0982 55.4 28.0316 55.36 27.9516 55.28C27.9782 55.2533 28.0182 55.24 28.0716 55.24C28.1516 55.24 28.1782 55.2933 28.1516 55.4ZM42.2178 56.6L41.5378 56.56C41.3245 56.5333 41.1511 56.52 41.0178 56.52C40.9111 56.52 40.8445 56.52 40.8178 56.52C40.4178 56.52 40.1778 56.5067 40.0978 56.48L39.4178 56.12C39.3645 56.0933 39.2978 56.0667 39.2178 56.04C39.1378 56.0133 39.0445 55.9867 38.9378 55.96C38.7778 55.88 38.6978 55.7467 38.6978 55.56C38.6445 55.5333 38.5911 55.52 38.5378 55.52C38.4845 55.4933 38.4311 55.48 38.3778 55.48C38.3778 55.24 38.3245 55.08 38.2178 55L37.9378 54.88C37.8845 54.8267 37.8178 54.68 37.7378 54.44L37.5778 54.04V53.92C37.5778 53.8667 37.5645 53.8 37.5378 53.72C37.5378 53.6133 37.5245 53.5067 37.4978 53.4C37.4978 53.1867 37.4978 53 37.4978 52.84C37.5245 52.68 37.5511 52.5467 37.5778 52.44C37.4711 52.3867 37.3911 52.3067 37.3378 52.2C37.3111 52.1467 37.3245 52.04 37.3778 51.88L37.4178 51.52C37.4445 51.3867 37.4578 51.2667 37.4578 51.16C37.4578 51.0533 37.4711 50.9467 37.4978 50.84C37.4978 50.7067 37.5378 50.5467 37.6178 50.36C37.7245 50.1733 37.7778 50.0533 37.7778 50C37.7778 49.9733 37.7511 49.9333 37.6978 49.88C37.6445 49.8267 37.6178 49.8 37.6178 49.8C37.6178 49.7467 37.6045 49.7067 37.5778 49.68C37.5778 49.6533 37.5778 49.6267 37.5778 49.6C37.5778 49.44 37.6178 49.28 37.6978 49.12C37.5911 48.9333 37.5378 48.7067 37.5378 48.44C37.5378 48.2267 37.6045 48.0267 37.7378 47.84C37.6578 47.7333 37.5911 47.6267 37.5378 47.52V46.48C37.5378 46.48 37.5111 46.4267 37.4578 46.32C37.4045 46.2667 37.3778 46.2133 37.3778 46.16C37.3778 46.08 37.5245 45.7867 37.8178 45.28C37.6045 45.1467 37.4978 45.0667 37.4978 45.04L37.6978 44.32C37.6978 44.2667 37.6845 44.1867 37.6578 44.08C37.6578 43.9733 37.6578 43.8533 37.6578 43.72L37.6178 43.08C37.5911 42.7867 37.5911 42.5467 37.6178 42.36C37.6445 42.1733 37.6445 42.0267 37.6178 41.92C37.5378 41.7867 37.4445 41.72 37.3378 41.72V41.52L37.6978 41.36C37.6978 41.3067 37.6845 41.2667 37.6578 41.24H36.9778V41.36C36.9778 41.4667 37.0311 41.56 37.1378 41.64C37.2445 41.72 37.2978 41.7867 37.2978 41.84L36.8178 41.8C36.7111 41.7733 36.6178 41.76 36.5378 41.76C36.4845 41.76 36.4445 41.76 36.4178 41.76L36.1778 41.84C36.0178 41.8933 35.9378 41.92 35.9378 41.92C35.8311 41.92 35.6711 41.8667 35.4578 41.76C35.4311 41.7067 35.4311 41.6267 35.4578 41.52L35.5378 41.28C35.5111 41.2 35.4978 41.12 35.4978 41.04C35.4978 40.96 35.4978 40.8933 35.4978 40.84C35.5511 40.68 35.6445 40.5867 35.7778 40.56C35.6711 40.4533 35.6045 40.3467 35.5778 40.24C35.5778 40.1067 35.5778 39.9733 35.5778 39.84L35.5378 39.64C35.5911 39.4 35.6045 39.2533 35.5778 39.2L35.4578 39C35.4045 38.8933 35.3778 38.8267 35.3778 38.8L35.5378 38.44C35.5645 38.4133 35.6045 38.4 35.6578 38.4C35.7111 38.4 35.7778 38.3867 35.8578 38.36C35.9378 38.3333 35.9911 38.28 36.0178 38.2H36.0978L36.4978 38.32L37.0178 38.48C37.0445 38.5067 37.0711 38.5467 37.0978 38.6C37.1245 38.6533 37.1511 38.72 37.1778 38.8C37.2845 38.72 37.3911 38.6133 37.4978 38.48C37.6045 38.3467 37.7111 38.1867 37.8178 38C37.9778 37.8933 37.9911 37.8133 37.8578 37.76C37.7778 37.7067 37.7378 37.6267 37.7378 37.52L37.7778 36.24C37.6445 35.76 37.5778 35.4267 37.5778 35.24L37.6978 34.92L37.7778 34.6C37.7778 34.52 37.7378 34.4533 37.6578 34.4C37.5778 34.3467 37.5378 34.24 37.5378 34.08L37.6178 33.68C37.6711 33.6533 37.7245 33.6133 37.7778 33.56C37.8311 33.5067 37.9111 33.44 38.0178 33.36C38.1778 33.2 38.2711 33.12 38.2978 33.12L38.6578 33.28C38.7645 33.3067 38.8445 33.3467 38.8978 33.4C38.9511 33.4533 38.9911 33.48 39.0178 33.48L39.1378 33.44H40.0178C40.2045 33.44 40.3511 33.4533 40.4578 33.48C40.5911 33.48 40.6978 33.48 40.7778 33.48L41.0578 33.4C41.2178 33.3467 41.2978 33.32 41.2978 33.32C41.4845 33.32 41.5778 33.4533 41.5778 33.72C41.5778 33.8 41.5645 33.9067 41.5378 34.04C41.5378 34.1467 41.5245 34.28 41.4978 34.44L41.3378 34.4C41.2311 34.4 41.0978 34.4533 40.9378 34.56C40.6978 34.6933 40.6045 34.8667 40.6578 35.08C40.7111 35.1333 40.7378 35.16 40.7378 35.16C40.7645 35.16 40.8178 35.12 40.8978 35.04C41.0045 34.9867 41.0711 34.96 41.0978 34.96C41.2311 34.96 41.3645 35.0667 41.4978 35.28C41.6045 35.4667 41.6578 35.5867 41.6578 35.64C41.6578 35.6933 41.6311 35.76 41.5778 35.84C41.5511 35.8933 41.5245 35.9333 41.4978 35.96C41.4711 36.4133 41.4445 36.7333 41.4178 36.92C41.4178 37.1067 41.4178 37.1467 41.4178 37.04C41.2311 37.0667 41.1378 37.1467 41.1378 37.28C41.1378 37.4133 41.2178 37.5067 41.3778 37.56V37.8C41.3778 37.96 41.4445 38.24 41.5778 38.64C41.6045 38.6933 41.6978 38.7733 41.8578 38.88H41.9778V38.6C42.0045 38.4933 42.0845 38.44 42.2178 38.44C42.7511 38.36 42.9778 38.32 42.8978 38.32L43.0978 38.36C43.1778 38.3867 43.2578 38.4 43.3378 38.4L43.7378 38.68C43.7111 38.7867 43.6978 38.8933 43.6978 39C43.6978 39.08 43.6978 39.1867 43.6978 39.32C43.9111 39.5333 44.0178 39.6267 44.0178 39.6C44.0178 39.68 43.9645 39.7733 43.8578 39.88C43.8845 39.9067 43.9111 39.9333 43.9378 39.96C43.8845 39.9867 43.8445 40.0933 43.8178 40.28L43.8578 40.4C43.8845 40.4533 43.8978 40.5067 43.8978 40.56C43.8978 40.7733 43.8845 40.9867 43.8578 41.2C43.8578 41.3867 43.8445 41.56 43.8178 41.72C43.7645 41.88 43.6845 41.96 43.5778 41.96H43.5378H43.5778C43.5778 41.9333 43.4578 41.88 43.2178 41.8C43.1111 41.7733 42.8978 41.76 42.5778 41.76C42.4445 41.76 42.1778 41.8 41.7778 41.88L41.6178 42C41.5111 42.0533 41.4578 42.08 41.4578 42.08L41.4178 42.44C41.3911 42.7067 41.3511 42.84 41.2978 42.84C41.4578 43.2133 41.5378 43.56 41.5378 43.88C41.5111 43.88 41.4445 44.04 41.3378 44.36C41.3645 44.3067 41.3778 44.4533 41.3778 44.8L41.2978 45C41.2445 45.16 41.2178 45.24 41.2178 45.24L41.3378 45.72C41.3911 45.8533 41.4178 45.9733 41.4178 46.08C41.4178 46.16 41.4178 46.2133 41.4178 46.24C41.4178 46.24 41.3645 46.3067 41.2578 46.44C41.2311 46.44 41.2178 46.5067 41.2178 46.64C41.2178 46.8 41.2845 46.9067 41.4178 46.96V48.28C41.4178 48.3067 41.3911 48.3467 41.3378 48.4C41.2845 48.5067 41.2578 48.5733 41.2578 48.6C41.2311 48.7867 41.2311 48.9467 41.2578 49.08C41.3111 49.2933 41.3511 49.3867 41.3778 49.36C41.2978 49.44 41.2311 49.52 41.1778 49.6C41.2311 49.6533 41.2978 49.84 41.3778 50.16C41.0578 50.3467 40.8978 50.5067 40.8978 50.64C40.8978 50.5867 41.0045 50.7467 41.2178 51.12C41.2178 51.12 41.2445 51.3333 41.2978 51.76L41.3778 51.88C41.3778 51.9867 41.3778 52.1067 41.3778 52.24C41.3778 52.3467 41.3911 52.48 41.4178 52.64C41.4178 52.64 41.5778 52.7467 41.8978 52.96C41.8978 53.0667 41.9645 53.16 42.0978 53.24H42.1778C42.2311 53.24 42.3245 53.1867 42.4578 53.08C42.5645 52.9733 42.6578 52.92 42.7378 52.92C42.7378 52.92 42.7911 52.9467 42.8978 53C42.9511 53.0533 42.9911 53.08 43.0178 53.08C43.0711 53.08 43.1511 53.0533 43.2578 53C43.3111 52.9467 43.3645 52.9067 43.4178 52.88C43.4711 52.8267 43.5378 52.7733 43.6178 52.72L43.7778 52.84V54.52C43.7778 54.5467 43.7645 54.5733 43.7378 54.6C43.6845 54.6533 43.6578 54.6933 43.6578 54.72V55.12C43.6045 55.1733 43.5511 55.2133 43.4978 55.24C43.5245 55.4267 43.5778 55.5733 43.6578 55.68C43.7378 55.76 43.7778 55.88 43.7778 56.04C43.7778 56.3067 43.6311 56.44 43.3378 56.44H43.2178C43.1911 56.44 43.1645 56.4267 43.1378 56.4C43.1378 56.4 43.1245 56.4 43.0978 56.4L42.6578 56.52C42.5245 56.5467 42.4178 56.56 42.3378 56.56C42.2845 56.5867 42.2445 56.6 42.2178 56.6ZM38.9778 39.6C39.1378 39.6 39.2178 39.52 39.2178 39.36L39.1378 39.12H38.9378C38.8578 39.2 38.7911 39.2667 38.7378 39.32C38.7111 39.3733 38.6845 39.4133 38.6578 39.44C38.6845 39.4667 38.6978 39.5067 38.6978 39.56H38.8578C38.8845 39.56 38.8978 39.5733 38.8978 39.6C38.9245 39.6 38.9511 39.6 38.9778 39.6ZM42.8978 39.52L43.0578 39.44L42.8578 39.32C42.8311 39.3467 42.8045 39.36 42.7778 39.36L42.8978 39.52ZM43.9378 39.96V40.04C43.9378 40.0133 43.9378 39.9867 43.9378 39.96ZM39.7778 40.52C39.8045 40.4933 39.7778 40.44 39.6978 40.36L39.5778 40.44C39.6045 40.4667 39.6311 40.48 39.6578 40.48C39.7111 40.48 39.7511 40.4933 39.7778 40.52ZM39.8178 41.16C39.8445 41.1067 39.8311 41.0533 39.7778 41C39.7245 40.9467 39.6578 40.9467 39.5778 41C39.6045 41.0533 39.6845 41.1067 39.8178 41.16ZM41.5378 43.88V43.92V43.88ZM40.3778 47.96L40.4578 47.92C40.4845 47.8933 40.5111 47.88 40.5378 47.88L40.4578 47.76C40.4311 47.7867 40.4178 47.8133 40.4178 47.84C40.4178 47.8667 40.4045 47.9067 40.3778 47.96ZM38.8178 49.24C38.8711 49.2667 38.9245 49.2533 38.9778 49.2C39.0311 49.1467 39.0178 49.08 38.9378 49C38.8578 49.0267 38.8178 49.1067 38.8178 49.24ZM38.4978 54.28L38.6978 54.48C38.7511 54.48 38.8445 54.4667 38.9778 54.44L39.1778 54.2L38.8978 53.96C38.8711 53.9867 38.7378 54.04 38.4978 54.12V54.28ZM37.4578 55.4C37.4045 55.4 37.3378 55.36 37.2578 55.28C37.2845 55.2533 37.3245 55.24 37.3778 55.24C37.4578 55.24 37.4845 55.2933 37.4578 55.4ZM46.2441 36.52C46.1374 36.4933 46.0041 36.4133 45.8441 36.28C45.7641 36.2 45.7241 36.1067 45.7241 36C45.6974 35.84 45.7107 35.68 45.7641 35.52L45.9641 35.28C45.9907 35.2533 45.9907 35.1867 45.9641 35.08C45.9641 34.9733 45.9507 34.9067 45.9241 34.88C45.8174 34.8267 45.7507 34.7467 45.7241 34.64C45.6974 34.5867 45.6841 34.4267 45.6841 34.16L45.7641 33.88C45.7907 33.8 45.8041 33.7333 45.8041 33.68C45.8041 33.6 45.8041 33.5467 45.8041 33.52L45.8441 32.48C45.8974 32.32 46.0041 32.24 46.1641 32.24L46.2841 32.28C46.3107 32.3067 46.3507 32.32 46.4041 32.32L46.6441 32.2H47.1241C47.1774 32.2 47.2441 32.2533 47.3241 32.36C47.3774 32.44 47.4174 32.5067 47.4441 32.56C47.4974 32.5867 47.5374 32.6133 47.5641 32.64C47.6174 32.56 47.7241 32.4933 47.8841 32.44L47.9641 32.04C48.0707 32.0667 48.2041 32.1467 48.3641 32.28C48.4174 32.3067 48.5641 32.32 48.8041 32.32C48.8307 32.32 48.8841 32.28 48.9641 32.2C49.0441 32.12 49.1107 32.08 49.1641 32.08L49.5641 32.12C49.6174 32.2267 49.6707 32.36 49.7241 32.52C49.7774 32.6533 49.8307 32.7867 49.8841 32.92C49.8841 32.9733 49.8574 33.0267 49.8041 33.08C49.8574 33.1067 49.8574 33.2667 49.8041 33.56L49.6841 33.72C49.6841 33.8267 49.6441 33.9467 49.5641 34.08L49.4041 34C49.3241 34 49.2574 34.08 49.2041 34.24C49.2841 34.3467 49.3374 34.4 49.3641 34.4L49.5641 34.32C49.6441 34.32 49.7107 34.3867 49.7641 34.52V35.08L49.8841 35.92V35.96C49.8841 36.1733 49.7507 36.2933 49.4841 36.32L49.2841 36.2C49.2307 36.2267 49.1641 36.2533 49.0841 36.28C49.0307 36.3067 48.9774 36.3333 48.9241 36.36L48.6441 36.28C48.5641 36.2533 48.4841 36.24 48.4041 36.24C48.1374 36.24 47.8707 36.2533 47.6041 36.28C47.3374 36.3067 47.0974 36.3467 46.8841 36.4C46.7774 36.48 46.6441 36.52 46.4841 36.52H46.2441ZM48.7241 32.76C48.7507 32.7333 48.8041 32.72 48.8841 32.72L48.8441 32.56C48.7374 32.5867 48.6974 32.6533 48.7241 32.76ZM46.8841 33.64H46.7241L46.8841 33.84V33.64ZM48.7241 56.4C48.6707 56.4 48.6174 56.3733 48.5641 56.32C48.5107 56.2667 48.4707 56.24 48.4441 56.24L47.6441 56.16C47.6174 56.16 47.5507 56.1867 47.4441 56.24C47.3641 56.2667 47.2841 56.28 47.2041 56.28L46.8441 56.24C46.7374 56.2133 46.6574 56.2 46.6041 56.2C46.5507 56.2 46.5107 56.2 46.4841 56.2C46.4574 56.2267 46.4041 56.2533 46.3241 56.28C46.2707 56.3067 46.2041 56.3333 46.1241 56.36L45.9241 56.28V55.56L46.0841 55.32C46.1107 55.24 46.1241 55.0667 46.1241 54.8C46.2307 54.7733 46.2574 54.6933 46.2041 54.56L46.0841 54.32C46.0841 54.08 46.1641 53.92 46.3241 53.84C46.4841 53.76 46.5641 53.7067 46.5641 53.68C46.5641 53.6267 46.5507 53.5733 46.5241 53.52C46.5241 53.44 46.5107 53.3467 46.4841 53.24C46.3774 53.16 46.2841 53.04 46.2041 52.88C46.1774 52.8 46.1374 52.68 46.0841 52.52C46.0041 51.96 45.9641 51.5467 45.9641 51.28C46.0441 51.1733 46.0574 50.8667 46.0041 50.36L46.1241 50.24C46.1241 50.24 46.1241 50.08 46.1241 49.76C46.1774 49.7067 46.2174 49.6267 46.2441 49.52L45.9241 49.36V49.04C45.9241 48.9067 45.9107 48.7733 45.8841 48.64C45.8841 48.48 45.8707 48.32 45.8441 48.16L45.7641 47.56C45.8707 47.5333 45.9374 47.2667 45.9641 46.76L46.2441 46.8L46.2841 46.76V46.48C46.2041 46.3467 46.0841 46.3067 45.9241 46.36C45.9241 46.2 45.8974 45.9333 45.8441 45.56C45.8174 45.1867 45.8041 45 45.8041 45C45.8041 44.9733 45.8307 44.88 45.8841 44.72L45.9641 44.56V43.64C45.9641 43.4533 45.9241 43.32 45.8441 43.24V43.08C45.8441 42.92 45.8707 42.7867 45.9241 42.68C46.0574 42.68 46.1374 42.6267 46.1641 42.52C46.1907 42.4133 46.1241 42.3333 45.9641 42.28C45.9907 42.2533 46.0041 42.2 46.0041 42.12C46.0041 42.04 45.9641 41.9467 45.8841 41.84V40.8L46.0441 39.48L45.9641 39.08L45.8441 38.72V38.44H46.4041C46.5374 38.6533 46.6707 38.76 46.8041 38.76L47.1241 38.6C47.3374 38.52 47.4441 38.48 47.4441 38.48C47.4707 38.48 47.5374 38.52 47.6441 38.6C47.7507 38.7067 47.8174 38.76 47.8441 38.76L48.2041 38.64C48.1774 38.6933 48.1641 38.7467 48.1641 38.8C48.1641 38.8267 48.1641 38.84 48.1641 38.84V38.88C48.1641 38.9067 48.2707 38.92 48.4841 38.92C48.6174 38.92 48.7107 38.8933 48.7641 38.84C48.8174 38.7867 48.8574 38.76 48.8841 38.76C48.9107 38.7867 48.9774 38.8 49.0841 38.8H49.2041C49.2574 38.7467 49.2974 38.6667 49.3241 38.56L49.7641 38.36C49.8974 38.36 49.9774 38.44 50.0041 38.6C50.0041 38.7067 49.9907 38.8533 49.9641 39.04C49.9374 39.2267 49.8974 39.4667 49.8441 39.76C49.4974 39.76 49.3241 39.8133 49.3241 39.92C49.3241 39.92 49.4307 40.0267 49.6441 40.24C49.8307 40.4267 49.9241 40.6 49.9241 40.76V41.04C49.8441 41.2267 49.7907 41.32 49.7641 41.32L49.9641 41.96C49.7774 42.12 49.6841 42.2133 49.6841 42.24L49.8041 42.56C49.8307 42.5867 49.8441 42.64 49.8441 42.72C49.8441 42.7733 49.8174 42.88 49.7641 43.04C49.7907 43.0667 49.8041 43.1333 49.8041 43.24L49.7641 43.28L49.8041 43.52C49.8841 43.6 49.9374 43.68 49.9641 43.76L49.8841 44.24L49.5641 44.32C49.5907 44.4267 49.6441 44.44 49.7241 44.36C49.8841 44.4667 49.9641 44.6 49.9641 44.76L49.8841 45.12C49.8041 45.3067 49.7641 45.4267 49.7641 45.48C49.8174 45.5067 49.8574 45.5467 49.8841 45.6C49.9374 45.6533 49.9907 45.7067 50.0441 45.76C50.0441 45.8667 49.9907 45.96 49.8841 46.04C49.7241 46.2 49.6307 46.32 49.6041 46.4C49.7907 46.5333 49.8974 46.72 49.9241 46.96C49.9507 47.04 49.9507 47.2133 49.9241 47.48L49.9641 47.68C49.9907 47.76 50.0041 47.8267 50.0041 47.88V48.24C50.0041 48.4267 50.0041 48.6133 50.0041 48.8C50.0307 48.9867 50.0574 49.1867 50.0841 49.4C50.0841 49.5333 50.0574 49.68 50.0041 49.84C50.0307 49.8933 50.0441 49.9733 50.0441 50.08C50.0441 50.24 49.9907 50.3733 49.8841 50.48C49.7507 50.6667 49.6841 50.7733 49.6841 50.8C49.6841 50.88 49.7241 50.96 49.8041 51.04C49.8041 51.04 49.7641 51.1067 49.6841 51.24C49.5774 51.3467 49.5241 51.4267 49.5241 51.48C49.5774 51.5333 49.6174 51.56 49.6441 51.56C49.6707 51.56 49.7241 51.52 49.8041 51.44C49.8841 51.44 49.9507 51.4667 50.0041 51.52L50.0441 53.92L50.0041 54.36L49.9641 54.56L49.8441 54.76C49.7641 54.84 49.7241 54.8933 49.7241 54.92C49.7774 55.0267 49.8307 55.1067 49.8841 55.16C49.9907 55.3467 50.0441 55.5467 50.0441 55.76C50.0441 55.8667 50.0041 56.0267 49.9241 56.24H49.7241L49.3241 56.08C49.2174 56.08 49.0174 56.1867 48.7241 56.4ZM47.8441 39.76V39.56C47.8174 39.5333 47.7641 39.52 47.6841 39.52L47.6041 39.64L47.6441 39.76H47.8441ZM48.3641 42.92C48.4707 42.92 48.6174 42.8667 48.8041 42.76L49.0041 42.52C49.0041 42.6 49.0307 42.6667 49.0841 42.72C49.2174 42.6667 49.2841 42.5867 49.2841 42.48C49.2841 42.32 49.2174 42.24 49.0841 42.24L48.8841 42.28C48.7774 42.0133 48.6574 41.88 48.5241 41.88C48.4707 41.96 48.4041 42.0267 48.3241 42.08C48.2174 42.2667 48.1507 42.4533 48.1241 42.64C48.1241 42.8267 48.2041 42.92 48.3641 42.92ZM47.6441 46.04C47.6974 46.04 47.7507 46.0133 47.8041 45.96C47.8041 45.9333 47.7774 45.8933 47.7241 45.84C47.7241 45.92 47.6974 45.9867 47.6441 46.04ZM48.3641 47.16C48.4974 47.1067 48.5774 47.0267 48.6041 46.92L48.4041 46.76C48.2974 46.84 48.2841 46.9733 48.3641 47.16ZM46.1241 47.36C46.1774 47.36 46.2307 47.3333 46.2841 47.28C46.3374 47.2267 46.3241 47.1733 46.2441 47.12C46.1641 47.12 46.1241 47.2 46.1241 47.36ZM48.1241 49.8C48.1507 49.7467 48.1374 49.6933 48.0841 49.64C48.0574 49.6133 47.9907 49.6267 47.8841 49.68C47.9374 49.76 48.0174 49.8 48.1241 49.8ZM48.0041 55.04C48.1107 55.04 48.2174 54.9867 48.3241 54.88C48.3241 54.7467 48.2307 54.68 48.0441 54.68C48.0174 54.7067 47.9774 54.8133 47.9241 55C47.9507 55.0267 47.9774 55.04 48.0041 55.04ZM53.4484 56.52C53.3151 56.5467 53.2218 56.4933 53.1684 56.36C53.1418 56.1467 53.0884 56.0133 53.0084 55.96C53.0884 55.9067 53.1551 55.84 53.2084 55.76V55.56C53.2351 55.4267 53.2618 55.3467 53.2884 55.32C53.2351 55.2667 53.1818 55.2133 53.1284 55.16C53.1018 55.1067 53.0618 55.04 53.0084 54.96V54.44C53.0084 54.2533 53.0484 54.12 53.1284 54.04C53.1018 53.9867 53.0884 53.9067 53.0884 53.8C53.0884 53.6933 53.0751 53.5733 53.0484 53.44L53.0084 53.04L52.9284 53.08C52.9284 53.1067 52.9151 53.12 52.8884 53.12C52.8884 53.12 52.8751 53.12 52.8484 53.12C52.8484 53.12 52.8484 53.1067 52.8484 53.08C52.8484 52.92 52.8884 52.8 52.9684 52.72V52.52C52.9684 52.28 52.9684 52.0933 52.9684 51.96C52.9951 51.8267 53.0084 51.7467 53.0084 51.72L52.9684 51.6C52.9418 51.5467 52.9284 51.48 52.9284 51.4C53.0084 51.2667 53.0484 50.9733 53.0484 50.52V50.4C53.0484 50.3467 53.0484 50.2667 53.0484 50.16C53.0484 50.0533 53.0618 49.92 53.0884 49.76C53.1418 49.3067 53.1551 49.08 53.1284 49.08C53.1018 49.0267 53.0618 48.96 53.0084 48.88C52.9818 48.7733 52.9418 48.6667 52.8884 48.56L52.8484 48.24C53.0618 48.08 53.1418 47.8133 53.0884 47.44L52.8884 47.08C52.8884 47.0267 52.8884 46.9467 52.8884 46.84C52.8884 46.7333 52.8751 46.6133 52.8484 46.48C52.8218 46.4533 52.7818 46.3467 52.7284 46.16C52.7018 46.1333 52.7284 46.0267 52.8084 45.84L52.8884 45.52L52.8084 44.96C52.7818 44.8 52.7551 44.68 52.7284 44.6C52.7018 44.4933 52.6884 44.4267 52.6884 44.4C52.6884 44.4 52.6884 44.2933 52.6884 44.08V44.04L52.7684 43.88H52.8084L52.9284 43.8C52.9018 43.7733 52.8884 43.7467 52.8884 43.72L52.9684 43.52L53.0484 43.4C53.0484 43.3733 53.0351 43.36 53.0084 43.36C52.9284 43.36 52.8618 43.3867 52.8084 43.44C52.8618 43.28 52.9018 43.0267 52.9284 42.68C53.1151 42.68 53.2084 42.5867 53.2084 42.4C53.2084 42.2667 53.1551 42.2 53.0484 42.2C52.9951 42.2 52.9284 42.24 52.8484 42.32C52.8218 42.2133 52.7818 42.1067 52.7284 42C52.7018 41.8667 52.6751 41.7333 52.6484 41.6L52.6884 41.48V41.4C52.6618 41.32 52.6484 41.2267 52.6484 41.12C52.6484 40.9867 52.6484 40.8533 52.6484 40.72C52.6751 40.6133 52.7684 40.4667 52.9284 40.28C52.9284 40.28 52.8484 40.2533 52.6884 40.2V39.92C52.6884 39.8133 52.6884 39.72 52.6884 39.64C52.6884 39.5333 52.6751 39.4267 52.6484 39.32L52.5284 39C52.5284 38.9733 52.5684 38.88 52.6484 38.72C52.7284 38.56 52.7684 38.4533 52.7684 38.4C52.7151 38.3733 52.8884 38.36 53.2884 38.36C53.3684 38.36 53.4218 38.4133 53.4484 38.52C53.4751 38.6267 53.5551 38.68 53.6884 38.68C53.7418 38.68 53.8084 38.64 53.8884 38.56L54.3684 38.52C54.3951 38.52 54.4218 38.5467 54.4484 38.6C54.5018 38.6533 54.6218 38.7467 54.8084 38.88C54.8884 38.88 54.9418 38.7867 54.9684 38.6L55.0084 38.52C55.0084 38.4933 55.0351 38.48 55.0884 38.48L55.2084 38.52C55.2618 38.52 55.2884 38.52 55.2884 38.52L55.5684 38.44C55.6218 38.4133 55.6751 38.4 55.7284 38.4C55.7818 38.4 55.8218 38.4 55.8484 38.4L56.0484 38.48C56.1551 38.5333 56.2084 38.56 56.2084 38.56C56.3151 38.56 56.4351 38.4533 56.5684 38.24C56.7284 38.3733 56.8218 38.5867 56.8484 38.88C56.8751 39.1467 56.9551 39.32 57.0884 39.4C57.0084 39.4267 56.9151 39.52 56.8084 39.68V39.92C56.7018 40.1067 56.6484 40.2 56.6484 40.2C56.6484 40.28 56.7018 40.3733 56.8084 40.48C56.8351 40.48 56.8618 40.48 56.8884 40.48C56.9418 40.4533 56.9818 40.44 57.0084 40.44C57.1418 40.44 57.3284 40.48 57.5684 40.56C57.6751 40.5333 57.7284 40.48 57.7284 40.4C57.6751 40.1067 57.6351 39.96 57.6084 39.96L57.6484 39.76L57.7684 39.52C57.7684 39.4133 57.8218 39.2667 57.9284 39.08C58.0351 38.9733 58.1951 38.92 58.4084 38.92C58.5151 38.8933 58.5818 38.8 58.6084 38.64L58.7284 38.68C58.8084 38.68 58.8884 38.6133 58.9684 38.48C59.0484 38.3467 59.1284 38.28 59.2084 38.28C59.3418 38.28 59.4884 38.36 59.6484 38.52C59.7018 38.36 59.7818 38.2133 59.8884 38.08C59.8618 38.0533 59.8484 38.04 59.8484 38.04H59.8884V38.08C59.9151 38.1067 60.1151 38.1867 60.4884 38.32C60.5684 38.3467 60.6618 38.3733 60.7684 38.4C60.8751 38.4 60.9818 38.4 61.0884 38.4C61.5151 38.4 61.7684 38.4533 61.8484 38.56L62.0084 38.84C62.4618 39.2933 62.7418 39.7467 62.8484 40.2V40.36C62.8484 40.4133 62.8484 40.48 62.8484 40.56C62.8484 40.64 62.8351 40.72 62.8084 40.8L62.9284 41.08C62.9284 41.3467 62.9284 41.5733 62.9284 41.76C62.9284 41.92 62.9151 42.0267 62.8884 42.08L62.5284 42.44C62.5818 42.5467 62.6618 42.6133 62.7684 42.64L63.0084 42.6V42.64C63.0084 42.6667 62.9951 42.7067 62.9684 42.76C62.9684 42.8133 62.9551 42.88 62.9284 42.96C62.9551 42.9333 62.9818 43 63.0084 43.16C62.9551 43.24 62.9551 43.4667 63.0084 43.84C63.0084 44.0533 62.9684 44.4267 62.8884 44.96C62.8084 45.1467 62.7684 45.44 62.7684 45.84C62.7684 45.8933 62.8351 45.96 62.9684 46.04C63.0484 46.0933 63.1151 46.44 63.1684 47.08L62.9284 47.2L63.1684 48.2C63.1418 48.28 63.1151 48.3733 63.0884 48.48C63.0618 48.5867 63.0351 48.7067 63.0084 48.84L63.1684 49.56C63.2218 49.8 63.2484 49.9867 63.2484 50.12C63.2751 50.2267 63.2884 50.2933 63.2884 50.32C63.2884 50.4267 63.2351 50.5467 63.1284 50.68C63.1284 50.68 63.0884 50.7067 63.0084 50.76C62.9284 50.7867 62.8884 50.8133 62.8884 50.84C62.8884 50.8667 62.9284 50.9067 63.0084 50.96C63.0618 51.0133 63.0884 51.08 63.0884 51.16C63.0884 51.2133 63.0618 51.32 63.0084 51.48C63.1684 51.56 63.2484 51.68 63.2484 51.84C63.1684 52.1067 63.1284 52.4667 63.1284 52.92C63.0751 52.8933 62.9951 52.88 62.8884 52.88C62.7284 52.88 62.6484 52.9867 62.6484 53.2C62.6484 53.6533 62.8218 53.8933 63.1684 53.92L63.0084 54.36L63.4084 54.6L63.3284 55.04L63.2484 55.52C63.3018 55.68 63.3284 55.7867 63.3284 55.84C63.3284 56.0533 63.1951 56.2 62.9284 56.28L62.6484 56.04C62.5684 56.0133 62.4484 56 62.2884 56L62.1284 56.08C62.0751 56.1067 62.0351 56.12 62.0084 56.12C61.9818 56.1467 61.9551 56.16 61.9284 56.16L61.2884 56.12L60.6484 56.04L60.4084 56.12L60.1284 56.2H59.9284C59.8218 56.2 59.7151 56.1867 59.6084 56.16C59.5018 56.16 59.3818 56.1467 59.2484 56.12C59.2218 56.12 59.2084 56.08 59.2084 56L59.3284 55.76C59.3818 55.6 59.4084 55.52 59.4084 55.52C59.3284 55.44 59.2751 55.3333 59.2484 55.2C59.2218 55.1733 59.1551 55.1733 59.0484 55.2V54.92L59.1284 54.76C59.1551 54.7067 59.1684 54.6533 59.1684 54.6C59.1684 54.4933 59.1684 54.36 59.1684 54.2C59.1951 54.0133 59.2218 53.7867 59.2484 53.52C59.5151 53.1733 59.6484 52.9467 59.6484 52.84C59.6484 52.76 59.5951 52.7067 59.4884 52.68C59.3018 52.6 59.3151 52.4933 59.5284 52.36C59.5018 52.3333 59.4618 52.2933 59.4084 52.24C59.3818 52.1867 59.3151 52.1333 59.2084 52.08L59.1684 50.64C59.1151 50.64 59.0884 50.6133 59.0884 50.56V49.68C59.0884 49.1733 59.1018 48.8933 59.1284 48.84L59.3284 48.64C59.4351 48.5333 59.4884 48.4533 59.4884 48.4L59.0484 48.12C59.0484 47.96 59.0351 47.8267 59.0084 47.72L59.2084 46.32C59.1551 46.2667 59.0884 46.1333 59.0084 45.92L58.8884 45.28C58.8884 45.2267 58.9418 45.1467 59.0484 45.04C59.1818 44.9067 59.2218 44.8267 59.1684 44.8L59.0484 44.32C58.9684 44.08 58.9284 43.9333 58.9284 43.88C58.9284 43.72 59.0218 43.56 59.2084 43.4V43.12C59.1551 43.0667 59.0351 43.04 58.8484 43.04L58.8884 42.52V42.4C58.8884 42.0533 58.7684 41.9067 58.5284 41.96C58.5018 41.96 58.3951 42.0267 58.2084 42.16C57.9951 42.2933 57.8884 42.36 57.8884 42.36C57.8084 42.3067 57.6884 42.2667 57.5284 42.24C57.3951 42.24 57.3418 42.4 57.3684 42.72C57.3151 42.7733 57.2484 42.84 57.1684 42.92C57.1151 43 57.0484 43.0933 56.9684 43.2L56.9284 43.96C56.9284 44.0133 56.9151 44.0667 56.8884 44.12L56.8084 44.28C56.8084 44.4133 56.8218 44.52 56.8484 44.6C56.9018 44.6533 56.9418 44.7067 56.9684 44.76C56.9684 44.7867 56.9418 44.8533 56.8884 44.96C56.8351 45.0667 56.8084 45.1333 56.8084 45.16L56.9284 45.32C57.0084 45.4 57.0351 45.52 57.0084 45.68L56.8884 45.84V46.04C56.8884 46.1467 56.9284 46.2667 57.0084 46.4C57.0884 46.5067 57.1284 46.5733 57.1284 46.6L57.1684 48.2L57.0884 48.48C57.0084 48.64 56.9684 48.7733 56.9684 48.88C56.9684 48.96 57.0084 49.0667 57.0884 49.2C57.0618 49.2533 57.0484 49.3733 57.0484 49.56L57.1684 49.84C57.1684 49.84 57.1418 50 57.0884 50.32C57.0618 50.6133 57.0484 50.8267 57.0484 50.96L57.0884 52C57.1418 52 57.1684 52.0267 57.1684 52.08L57.2084 53.52C57.2084 53.52 57.1018 53.6533 56.8884 53.92C56.8618 53.9467 56.8884 53.9867 56.9684 54.04C57.1551 54.0933 57.2618 54.1333 57.2884 54.16V54.24C57.2884 54.32 57.2484 54.5067 57.1684 54.8C57.1951 54.88 57.2084 55.08 57.2084 55.4C57.1551 55.6667 57.0351 55.8133 56.8484 55.84C56.9018 55.8667 56.9684 55.92 57.0484 56C57.1284 56.0533 57.2084 56.1333 57.2884 56.24C57.3151 56.3467 57.2618 56.4 57.1284 56.4H56.7284C56.7018 56.4267 56.6351 56.4 56.5284 56.32C56.4484 56.2133 56.3418 56.1867 56.2084 56.24L55.7284 56.36L55.3284 56.28L54.8484 56.16C54.8218 56.16 54.7818 56.1733 54.7284 56.2C54.7018 56.2267 54.6484 56.2533 54.5684 56.28L54.2884 56.36C54.2351 56.36 54.1018 56.28 53.8884 56.12C53.7818 56.1733 53.7151 56.2533 53.6884 56.36C53.6618 56.4667 53.5818 56.52 53.4484 56.52ZM61.6884 40L61.9684 39.64L61.7684 39.76H61.5684C61.5684 39.8667 61.6084 39.9467 61.6884 40ZM55.7284 40.6C55.7551 40.5733 55.7151 40.52 55.6084 40.44L55.5284 40.52C55.5551 40.5467 55.5818 40.56 55.6084 40.56C55.6618 40.56 55.7018 40.5733 55.7284 40.6ZM55.8084 41.2C55.8084 41.1467 55.7818 41.0933 55.7284 41.04C55.7018 40.9867 55.6484 41 55.5684 41.08C55.5684 41.16 55.6484 41.2 55.8084 41.2ZM60.0484 42.16L60.4084 42.12C60.5151 42.0933 60.6218 42.0267 60.7284 41.92C60.8351 41.8133 60.8884 41.7067 60.8884 41.6C60.8618 41.3333 60.7418 41.2 60.5284 41.2C60.4218 41.2 60.2884 41.2933 60.1284 41.48C59.9684 41.64 59.8884 41.7867 59.8884 41.92C59.8884 41.9733 59.9418 42.0533 60.0484 42.16ZM55.0884 44.6L55.2084 44.48C55.2084 44.48 55.1818 44.4533 55.1284 44.4L55.0884 44.6ZM60.2884 50.08C60.3418 50.08 60.3951 50.0533 60.4484 50C60.5018 49.9467 60.4884 49.8933 60.4084 49.84C60.3284 49.84 60.2884 49.92 60.2884 50.08ZM62.3284 52.48C62.3284 52.4267 62.3018 52.3733 62.2484 52.32C62.2218 52.2667 62.1684 52.28 62.0884 52.36C62.0884 52.44 62.1684 52.48 62.3284 52.48ZM54.6084 53.96C54.6084 53.8533 54.6084 53.7467 54.6084 53.64C54.6351 53.5333 54.6618 53.4267 54.6884 53.32C54.5018 53.1333 54.3284 53.0533 54.1684 53.08L54.0084 53.16L54.1284 53.56L54.6084 53.96ZM53.9284 55.52C53.9551 55.4667 53.9418 55.4133 53.8884 55.36C53.8618 55.3333 53.7951 55.3467 53.6884 55.4C53.7418 55.48 53.8218 55.52 53.9284 55.52ZM68.8313 61.88C68.7246 61.88 68.6446 61.8133 68.5913 61.68L68.4713 61.32H68.3113L68.1913 61.52C68.1113 61.6267 68.0579 61.68 68.0313 61.68C68.0046 61.68 67.9379 61.6533 67.8313 61.6C67.7246 61.52 67.6446 61.48 67.5913 61.48L67.5113 61.52H67.3913C67.2846 61.52 67.1646 61.48 67.0313 61.4C66.8446 61.2933 66.7246 61.2533 66.6713 61.28L66.5513 61.32H66.3913C66.1246 61.32 65.8446 61.12 65.5513 60.72H65.4713C65.1513 60.72 64.9113 60.5067 64.7513 60.08L64.5913 59.6C64.5913 59.5467 64.5246 59.48 64.3913 59.4L64.4313 59.32C64.4313 59.2933 64.4046 59.2267 64.3513 59.12C64.3246 59.0667 64.3113 59 64.3113 58.92C64.3113 58.76 64.3513 58.5467 64.4313 58.28L64.6313 57.68C64.7646 57.4933 65.0046 57.2667 65.3513 57L65.3913 56.8C65.5246 56.5867 65.7513 56.44 66.0713 56.36C66.1246 56.28 66.1513 56.1867 66.1513 56.08C66.1779 56 66.2046 55.9067 66.2313 55.8C66.1779 55.7467 66.0713 55.72 65.9113 55.72H65.8713C65.6046 55.4533 65.4579 55.2933 65.4313 55.24C65.3246 55.1067 65.2579 54.92 65.2313 54.68L64.9913 54.48C65.0446 54.32 65.0713 54.2 65.0713 54.12V53.84C65.0713 53.7867 65.0579 53.7333 65.0313 53.68C65.0313 53.6267 65.0313 53.5867 65.0313 53.56C65.0313 53.4 65.1246 53.24 65.3113 53.08C65.3113 53.08 65.3113 52.9467 65.3113 52.68V52.64C65.3379 52.6133 65.3779 52.6 65.4313 52.6L65.6313 52.76C65.7379 52.76 65.7913 52.72 65.7913 52.64C65.7913 52.5333 65.7379 52.4667 65.6313 52.44C65.7913 52.3867 65.9246 52.3333 66.0313 52.28L66.4713 51.4C66.7646 51.2667 66.9113 51.0933 66.9113 50.88C66.9113 50.8267 66.8579 50.76 66.7513 50.68C66.6446 50.68 66.5779 50.7333 66.5513 50.84H66.4313C66.3779 50.7333 66.3513 50.64 66.3513 50.56C66.3513 50.5067 66.3246 50.48 66.2713 50.48L66.1113 50.52C65.9246 50.52 65.7646 50.3733 65.6313 50.08C65.4979 49.76 65.3379 49.5867 65.1513 49.56C65.1246 49.5067 65.0979 49.4667 65.0713 49.44C65.0713 49.3867 65.0713 49.3467 65.0713 49.32C65.1246 49.32 65.1913 49.2133 65.2713 49H65.2313C65.2046 48.9733 65.1246 48.96 64.9913 48.96C64.9113 48.56 64.8713 48.32 64.8713 48.24C64.8713 48.1867 64.9113 48.1067 64.9913 48C65.0446 47.84 65.0713 47.76 65.0713 47.76L64.9913 47.52C64.9646 47.4667 64.9379 47.4267 64.9113 47.4C64.8846 47.3467 64.8713 47.3067 64.8713 47.28L64.7513 45.8H64.7913V45.08C64.7913 44.9467 64.8046 44.84 64.8313 44.76C64.8313 44.6533 64.7913 44.5067 64.7113 44.32C64.6846 44.2133 64.6579 44.12 64.6313 44.04C64.6313 43.96 64.6313 43.8933 64.6313 43.84C64.6313 43.7867 64.6979 43.6533 64.8313 43.44L64.7913 42.84L64.6313 42.6C64.7113 42.5467 64.8579 42.4133 65.0713 42.2C64.9379 42.0667 64.8713 41.9333 64.8713 41.8C64.8713 41.6933 64.8713 41.56 64.8713 41.4C64.8979 41.24 64.9246 41.04 64.9513 40.8C65.0846 40.72 65.1779 40.68 65.2313 40.68C65.3113 40.68 65.3646 40.6933 65.3913 40.72L65.4313 40.32C65.6179 40.2133 65.6846 40.0667 65.6313 39.88H65.7113C65.8979 39.88 66.0979 39.7867 66.3113 39.6L66.2313 39.36C66.2313 39.2267 66.2713 39.1467 66.3513 39.12C66.5113 39.0933 66.6713 39.0667 66.8313 39.04C66.9913 39.0133 67.1379 38.9733 67.2713 38.92L68.0713 38.6C68.1246 38.5467 68.1913 38.48 68.2713 38.4C68.3779 38.32 68.4979 38.2533 68.6313 38.2H68.9113L69.1113 38.08H69.1513C69.3113 38.08 69.5113 38.1333 69.7513 38.24C69.8046 38.24 69.8846 38.28 69.9913 38.36C70.0713 38.44 70.1379 38.48 70.1913 38.48L70.3113 38.44C70.3379 38.44 70.3513 38.44 70.3513 38.44C70.3779 38.4133 70.4046 38.4 70.4313 38.4C70.5113 38.4 70.5646 38.4133 70.5913 38.44C70.6446 38.4933 70.6979 38.52 70.7513 38.52L70.8313 38.48C70.8579 38.4533 70.8713 38.44 70.8713 38.44H70.9113C70.8846 38.44 70.8713 38.44 70.8713 38.44C70.8713 38.4667 70.9646 38.52 71.1513 38.6L71.6313 38.68C71.7379 38.7067 71.8713 38.84 72.0313 39.08L72.4713 39.16C72.6846 39.2133 72.7913 39.2933 72.7913 39.4L72.7113 39.56C72.6579 39.72 72.6313 39.8 72.6313 39.8C72.6313 39.8533 72.6979 39.88 72.8313 39.88C73.2046 39.88 73.3513 39.6933 73.2713 39.32C73.4846 39.32 73.7379 39.1733 74.0313 38.88C74.3246 38.5867 74.4713 38.44 74.4713 38.44C74.4979 38.44 74.5913 38.52 74.7513 38.68C74.7779 38.6 74.9113 38.44 75.1513 38.2C75.2579 38.2 75.4446 38.16 75.7113 38.08L76.1113 38.8C76.1113 38.88 76.0979 38.9733 76.0713 39.08C76.0179 39.2933 75.9913 39.44 75.9913 39.52C75.8846 39.6267 75.8313 39.8667 75.8313 40.24C75.8313 40.56 75.9113 40.8267 76.0713 41.04L76.1513 41.6C76.1779 41.6 76.1513 41.64 76.0713 41.72C76.0179 41.7733 75.9246 41.84 75.7913 41.92C75.6313 41.7333 75.5113 41.64 75.4313 41.64L75.2313 41.68C75.2046 41.68 75.1646 41.6933 75.1113 41.72C75.0846 41.72 75.0579 41.72 75.0313 41.72C75.0046 41.72 74.9513 41.6667 74.8713 41.56C74.7913 41.4533 74.7246 41.4 74.6713 41.4C74.6179 41.4 74.5646 41.4267 74.5113 41.48L74.3113 41.44H74.1913C74.1913 41.6267 74.2713 41.8 74.4313 41.96C74.4313 41.9867 74.4046 42.0533 74.3513 42.16C74.2979 42.32 74.2713 42.4 74.2713 42.4C74.2713 42.4533 74.3113 42.52 74.3913 42.6C74.4446 42.7067 74.4713 42.7733 74.4713 42.8C74.4713 43.04 74.3913 43.16 74.2313 43.16L74.1513 43.12C74.0446 43.12 73.9913 43.2533 73.9913 43.52C73.9913 43.6267 74.0313 43.7067 74.1113 43.76L74.0313 43.88C74.0313 43.9067 74.0579 43.9467 74.1113 44C74.1646 44.0533 74.1913 44.0933 74.1913 44.12C74.1913 44.1467 74.1779 44.2 74.1513 44.28C74.1513 44.3333 74.1379 44.4 74.1113 44.48C74.0846 44.5867 74.0579 44.6667 74.0313 44.72C74.0313 44.7733 74.0313 44.8267 74.0313 44.88C74.0313 44.9067 74.0579 44.9733 74.1113 45.08C74.1646 45.1867 74.1913 45.2667 74.1913 45.32V45.68C74.4046 45.8933 74.5113 46.04 74.5113 46.12C74.5113 46.3067 74.4313 46.4267 74.2713 46.48C74.4046 46.6933 74.4713 46.92 74.4713 47.16C74.4713 47.16 74.2846 47.3867 73.9113 47.84C74.2579 48.1067 74.4313 48.24 74.4313 48.24C74.4313 48.72 74.3779 49.08 74.2713 49.32C74.2446 49.3733 74.1513 49.48 73.9913 49.64L73.7913 50.16C73.6846 50.1867 73.5646 50.36 73.4313 50.68C73.4313 50.68 73.2979 50.7067 73.0313 50.76L72.7113 51.16L72.6313 51.12C72.6046 51.12 72.5113 51.1733 72.3513 51.28L72.0713 51.48C71.9379 51.48 71.7779 51.5333 71.5913 51.64L70.0713 51.96C70.0446 51.96 70.0046 51.92 69.9513 51.84L69.8313 51.64C69.5379 51.7733 69.3913 51.8533 69.3913 51.88C69.3913 51.88 69.3779 51.88 69.3513 51.88C69.3513 51.88 69.3513 51.8667 69.3513 51.84H69.3113C69.2846 51.84 69.2179 51.9333 69.1113 52.12C69.0046 52.3067 68.9113 52.4 68.8313 52.4C68.8313 52.4 68.8046 52.3733 68.7513 52.32C68.7246 52.2933 68.6713 52.28 68.5913 52.28C68.5379 52.28 68.4313 52.4 68.2713 52.64C68.3246 52.72 68.3913 52.76 68.4713 52.76L68.6313 52.72C68.6579 52.72 68.6713 52.72 68.6713 52.72C68.6979 52.6933 68.7246 52.68 68.7513 52.68L69.2313 53.04C69.3113 53.0667 69.4046 53.0933 69.5113 53.12C69.6446 53.1467 69.7779 53.1867 69.9113 53.24C69.9379 53.24 69.9913 53.2933 70.0713 53.4C70.1513 53.48 70.2179 53.52 70.2713 53.52C70.3246 53.52 70.3779 53.4933 70.4313 53.44L70.6313 53.28C70.7646 53.28 70.8713 53.2667 70.9513 53.24L71.0713 53.16V53.12C71.0979 53.0933 71.1779 53.08 71.3113 53.08C71.3646 53.24 71.5246 53.3067 71.7913 53.28L72.0713 53.24H72.4713C72.4979 53.24 72.5113 53.2533 72.5113 53.28C72.5379 53.28 72.5646 53.28 72.5913 53.28C72.7246 53.4933 72.8579 53.6 72.9913 53.6C73.0446 53.6 73.1779 53.5333 73.3913 53.4C73.5779 53.2933 73.7246 53.24 73.8313 53.24C74.0713 53.24 74.2846 53.3733 74.4713 53.64C74.6046 53.64 74.7913 53.68 75.0313 53.76C75.0846 53.8133 75.1246 53.92 75.1513 54.08C75.2046 54.24 75.2713 54.3067 75.3513 54.28L75.4713 54.24H75.5913C75.5913 54.24 75.6979 54.3067 75.9113 54.44H76.1513C76.2046 54.5467 76.2713 54.6533 76.3513 54.76C76.4313 54.8667 76.4979 54.9867 76.5513 55.12L76.4713 55.24V55.28C76.4713 55.4133 76.5379 55.64 76.6713 55.96L76.8313 56.32C76.8313 56.3467 76.8313 56.3867 76.8313 56.44C76.8313 56.4933 76.8179 56.5467 76.7913 56.6L76.7513 56.84C76.7513 56.8667 76.7513 56.88 76.7513 56.88C76.7779 56.9067 76.7913 56.9333 76.7913 56.96V57.08C76.7913 57.16 76.7779 57.2133 76.7513 57.24C76.6979 57.2933 76.6713 57.3467 76.6713 57.4C76.6713 57.4267 76.7379 57.4667 76.8713 57.52C76.7113 57.7867 76.6313 57.9867 76.6313 58.12C76.6313 58.12 76.6579 58.2 76.7113 58.36L76.7513 58.52C76.7513 58.6533 76.6979 58.7867 76.5913 58.92L76.3513 59.28C76.3513 59.3333 76.3513 59.3867 76.3513 59.44C76.3513 59.52 76.3379 59.6133 76.3113 59.72C76.2313 59.72 76.0846 59.76 75.8713 59.84C75.6846 59.92 75.5379 59.9467 75.4313 59.92C75.4313 60.0267 75.4713 60.1067 75.5513 60.16C75.4446 60.5867 74.7246 60.9467 73.3913 61.24C73.3379 61.24 73.2713 61.28 73.1913 61.36C73.0846 61.4133 73.0179 61.44 72.9913 61.44L72.6713 61.4C72.5913 61.3733 72.5246 61.36 72.4713 61.36C72.4179 61.36 72.3646 61.36 72.3113 61.36L72.0713 61.4C71.9913 61.4267 71.9113 61.44 71.8313 61.44L71.6313 61.6C71.5246 61.6267 71.3913 61.64 71.2313 61.64C71.0979 61.6667 70.9646 61.68 70.8313 61.68L70.3113 61.48C70.2046 61.72 70.1113 61.84 70.0313 61.84L69.7513 61.8L69.4313 61.72C69.3779 61.72 69.3246 61.72 69.2713 61.72C69.2179 61.7467 69.1646 61.7733 69.1113 61.8L68.8313 61.88ZM74.2713 40.32C74.3246 40.2667 74.3913 40.2267 74.4713 40.2C74.3646 40.0933 74.2846 40.04 74.2313 40.04H74.1913L74.1513 40.2L74.2713 40.32ZM68.2713 40.68L68.3113 40.6C68.3113 40.6 68.2579 40.5733 68.1513 40.52L68.0713 40.6L68.2713 40.68ZM71.9513 40.84L72.1913 40.8V40.64C72.1913 40.6133 72.1246 40.5867 71.9913 40.56L71.9513 40.84ZM68.3513 41.28V41.24C68.3513 41.16 68.3113 41.12 68.2313 41.12L68.1113 41.16C68.1646 41.24 68.2313 41.28 68.3113 41.28H68.3513ZM66.2313 41.8C66.2846 41.7733 66.3246 41.7467 66.3513 41.72C66.3779 41.6933 66.4046 41.6667 66.4313 41.64L66.3513 41.52L66.1513 41.56V41.68L66.2313 41.8ZM69.1113 49.16C69.0846 49.1333 69.0713 49.0667 69.0713 48.96C69.0713 48.7467 69.2046 48.64 69.4713 48.64C69.5779 48.64 69.8046 48.7333 70.1513 48.92C70.1779 48.8667 70.2713 48.76 70.4313 48.6C70.4579 48.6267 70.4713 48.6933 70.4713 48.8C70.5246 48.8 70.6313 48.8267 70.7913 48.88V48.8L70.7513 48.64C70.7513 48.6133 70.7379 48.6 70.7113 48.6C70.6846 48.5733 70.6713 48.5467 70.6713 48.52C70.6713 48.4667 70.7113 48.36 70.7913 48.2C70.8713 48.04 70.9113 47.9333 70.9113 47.88C70.9113 47.88 70.8846 47.8267 70.8313 47.72C70.7779 47.6667 70.7513 47.6267 70.7513 47.6C70.9646 47.2267 71.0713 46.96 71.0713 46.8V46.76C70.8579 46.7067 70.7513 46.52 70.7513 46.2C70.7513 46.1733 70.7913 46.1067 70.8713 46C71.1646 46 71.3113 45.96 71.3113 45.88C71.2846 45.8533 71.1379 45.84 70.8713 45.84C70.6846 45.84 70.5913 45.7467 70.5913 45.56C70.5913 45.5067 70.6313 45.3867 70.7113 45.2C70.7913 44.9867 70.8313 44.8533 70.8313 44.8C70.8313 44.7467 70.7913 44.6667 70.7113 44.56C70.6046 44.4533 70.5513 44.3867 70.5513 44.36C70.5513 44.3067 70.5646 44.2667 70.5913 44.24C70.6179 44.1867 70.6446 44.1333 70.6713 44.08L70.7513 43.88L70.7113 43.16C70.3913 42.9733 70.2713 42.7067 70.3513 42.36C70.2979 42.3333 70.2313 42.2933 70.1513 42.24C70.0979 42.1867 70.0313 42.1333 69.9513 42.08L69.9113 41.88C69.5913 42.0133 69.2579 42.08 68.9113 42.08C68.8046 42.08 68.7246 42.12 68.6713 42.2C68.6713 42.4133 68.6179 42.6133 68.5113 42.8L68.3113 43.16L68.3513 44.24L68.4313 44.36C68.4579 44.3867 68.4713 44.4267 68.4713 44.48C68.4713 44.5067 68.4446 44.5733 68.3913 44.68C68.4979 44.68 68.5513 44.9067 68.5513 45.36C68.5513 45.4133 68.5246 45.4667 68.4713 45.52C68.4179 45.6267 68.3913 45.68 68.3913 45.68C68.4179 45.7067 68.4313 45.7867 68.4313 45.92L68.3513 46.08C68.3513 46.1067 68.3913 46.1867 68.4713 46.32C68.5246 46.48 68.5513 46.6 68.5513 46.68C68.5513 46.8933 68.4846 47.16 68.3513 47.48C68.5113 47.5867 68.5913 47.68 68.5913 47.76C68.5913 47.84 68.5513 47.9467 68.4713 48.08C68.6313 48.1333 68.7646 48.2933 68.8713 48.56L69.1113 49.16ZM67.7913 49.48H68.0713L68.1913 49.36V49.04C68.0846 48.9333 67.9646 48.88 67.8313 48.88C67.7513 49.0667 67.7113 49.1333 67.7113 49.08L67.7513 49.28C67.7513 49.3067 67.7513 49.3467 67.7513 49.4C67.7779 49.4267 67.7913 49.4533 67.7913 49.48ZM65.0713 49.28C65.0713 49.28 65.0713 49.2933 65.0713 49.32V49.28ZM73.0313 50.08C73.1113 50.08 73.1513 50.04 73.1513 49.96L73.1113 49.84C73.0313 49.84 72.9913 49.8933 72.9913 50V50.08H73.0313ZM68.2713 53.96L68.3113 53.76L68.0713 53.72L68.0313 53.92L68.2713 53.96ZM70.7913 54.92V54.88C70.7913 54.7733 70.7513 54.72 70.6713 54.72L70.5513 54.8C70.6046 54.88 70.6713 54.92 70.7513 54.92H70.7913ZM66.7513 55.64V55.6C66.7513 55.52 66.7113 55.48 66.6313 55.48L66.5113 55.52C66.5646 55.6 66.6313 55.64 66.7113 55.64H66.7513ZM69.8313 58.88L69.7913 58.72V58.68C69.8713 58.6 69.9513 58.56 70.0313 58.56C70.1379 58.56 70.2313 58.6267 70.3113 58.76C70.3379 58.7867 70.4179 58.8 70.5513 58.8H70.7913C71.0313 58.8 71.1646 58.76 71.1913 58.68C71.2179 58.6267 71.2446 58.5867 71.2713 58.56C71.2979 58.5333 71.3246 58.5067 71.3513 58.48L71.9913 58.76C72.0713 58.6533 72.2046 58.52 72.3913 58.36L72.6313 58.52C72.6579 58.4133 72.7913 58.3333 73.0313 58.28C73.2713 58.2 73.4179 58.1333 73.4713 58.08L73.5513 58.16L73.5913 57.8C73.4046 57.7733 73.2846 57.5867 73.2313 57.24C73.2046 56.92 73.1246 56.76 72.9913 56.76C72.9646 56.76 72.9379 56.7733 72.9113 56.8C72.8846 56.8267 72.8446 56.84 72.7913 56.84L72.5913 56.88C72.5646 56.88 72.4713 56.8533 72.3113 56.8C72.1513 56.7467 72.0446 56.72 71.9913 56.72C71.9646 56.72 71.9379 56.7333 71.9113 56.76C71.8846 56.7867 71.8579 56.8 71.8313 56.8L71.7113 56.84H71.6713L71.5913 56.8C71.5913 56.7467 71.6046 56.6933 71.6313 56.64C71.6313 56.56 71.5513 56.52 71.3913 56.52L71.4713 56.44L70.9913 56.68C70.8846 56.68 70.8446 56.6267 70.8713 56.52L70.5113 56.6L70.2313 56.52C70.1513 56.4933 70.0846 56.4667 70.0313 56.44C69.9779 56.44 69.9246 56.44 69.8713 56.44L69.7513 56.56C69.4046 56.6133 69.2046 56.64 69.1513 56.64C69.1246 56.6667 69.0046 56.8267 68.7913 57.12V57.2L68.7513 57.52C68.7513 57.5733 68.7379 57.6133 68.7113 57.64C68.7113 57.6933 68.7113 57.7333 68.7113 57.76C68.7113 57.8133 68.7246 57.8533 68.7513 57.88C68.8313 58.0133 68.9113 58.1467 68.9913 58.28C69.0979 58.44 69.2446 58.52 69.4313 58.52C69.5379 58.52 69.5913 58.5733 69.5913 58.68V58.76C69.6446 58.84 69.7246 58.88 69.8313 58.88ZM75.1113 57C75.1646 57 75.2446 56.9467 75.3513 56.84C75.2713 56.76 75.0713 56.6933 74.7513 56.64L74.6313 56.48C74.4979 56.56 74.4313 56.6667 74.4313 56.8C74.4313 56.8267 74.4579 56.8667 74.5113 56.92L75.1113 57ZM71.1513 60.4C71.2046 60.3733 71.2579 60.3333 71.3113 60.28C71.2579 60.1733 71.2046 60.0933 71.1513 60.04V60.4ZM82.2728 56.6L81.9928 56.52C81.8328 56.44 81.7261 56.4 81.6728 56.4L81.3928 56.44H81.2728C81.2995 56.44 81.2461 56.4267 81.1128 56.4C80.9795 56.4 80.7261 56.36 80.3528 56.28C80.2461 56.0933 80.1395 56 80.0328 56L79.8328 56.04C79.8061 56.04 79.7795 56.04 79.7528 56.04C79.7261 56.0667 79.6995 56.08 79.6728 56.08C79.5661 56.08 79.4461 56.0133 79.3128 55.88C79.2595 55.8267 79.1928 55.76 79.1128 55.68C79.0328 55.5733 78.9261 55.4667 78.7928 55.36C78.3661 55.2533 78.0861 55.0667 77.9528 54.8C77.9528 54.64 77.9128 54.5467 77.8328 54.52C77.7261 54.4933 77.6728 54.4133 77.6728 54.28C77.6728 54.12 77.7261 53.88 77.8328 53.56L77.2328 53.32L77.0328 52.52C76.9795 52.3867 76.8995 52.24 76.7928 52.08C76.7128 51.8933 76.6061 51.6933 76.4728 51.48V51.24C76.4728 51.08 76.4995 50.9733 76.5528 50.92C76.5795 50.8933 76.6595 50.88 76.7928 50.88H76.9128C76.9395 50.88 76.9528 50.8933 76.9528 50.92C76.9528 50.92 76.9661 50.92 76.9928 50.92L77.1928 50.8C77.2195 50.7733 77.3261 50.76 77.5128 50.76L77.6728 50.8C77.6995 50.8 77.7128 50.8133 77.7128 50.84C77.7395 50.84 77.7661 50.84 77.7928 50.84L78.2728 50.68L78.3928 50.56C78.4995 50.5067 78.6328 50.4667 78.7928 50.44C78.9528 50.4133 79.1661 50.3867 79.4328 50.36L79.5528 50.4C79.5261 50.4 79.5128 50.4933 79.5128 50.68C79.5128 50.8133 79.5928 50.88 79.7528 50.88C79.7795 50.88 79.9261 50.72 80.1928 50.4C80.2461 50.56 80.2728 50.8267 80.2728 51.2C80.2728 51.3867 80.3261 51.52 80.4328 51.6C80.5128 51.7333 80.5395 51.8667 80.5128 52C80.5128 52.0533 80.5395 52.08 80.5928 52.08C80.3795 52.08 80.2728 52.1333 80.2728 52.24C80.2728 52.4267 80.3661 52.52 80.5528 52.52C80.6061 52.52 80.6995 52.4133 80.8328 52.2C80.8595 52.2533 80.9395 52.4 81.0728 52.64C81.1528 52.72 81.4328 52.88 81.9128 53.12C82.1261 53.2 82.4061 53.24 82.7528 53.24C82.8595 53.24 82.9795 53.1333 83.1128 52.92C83.2995 52.92 83.4728 52.7867 83.6328 52.52C83.6061 52.5467 83.5795 52.56 83.5528 52.56C83.5528 52.5333 83.5395 52.52 83.5128 52.52C83.5128 52.4933 83.5128 52.4667 83.5128 52.44C83.5128 52.36 83.5261 52.28 83.5528 52.2C83.6061 52.0933 83.6461 51.9867 83.6728 51.88C83.6195 51.8267 83.5528 51.7467 83.4728 51.64C83.4195 51.5067 83.3528 51.36 83.2728 51.2C83.4061 51.0667 83.3795 50.92 83.1928 50.76L82.7928 50.48L82.8728 50.04C82.7928 49.9067 82.4728 49.8 81.9128 49.72L81.7528 49.4C81.6195 49.2667 81.4328 49.12 81.1928 48.96C81.1128 48.96 80.9928 48.92 80.8328 48.84C80.8061 48.8133 80.7795 48.7867 80.7528 48.76C80.7261 48.7067 80.6861 48.6667 80.6328 48.64C80.6061 48.6133 80.5261 48.6 80.3928 48.6C80.3128 48.5467 80.1928 48.4267 80.0328 48.24L79.9928 47.92C79.9128 47.92 79.7661 47.8933 79.5528 47.84C79.3395 47.76 79.1795 47.6667 79.0728 47.56L78.7928 47.08C78.5528 46.8667 78.3261 46.64 78.1128 46.4C77.7661 46.0533 77.5795 45.7733 77.5528 45.56L77.7928 45.28C77.7661 45.28 77.6995 45.28 77.5928 45.28C77.5128 45.28 77.4195 45.1867 77.3128 45V44.72C77.2595 44.5333 77.2061 44.4267 77.1528 44.4C77.1261 44.3467 77.1128 44.3067 77.1128 44.28L77.1528 44.12V43.44C77.1795 43.4667 77.2195 43.48 77.2728 43.48C77.4061 43.48 77.4728 43.4 77.4728 43.24C77.4728 43.0533 77.3395 42.96 77.0728 42.96C77.3661 42.7467 77.5128 42.5467 77.5128 42.36C77.5128 42.1733 77.3795 42 77.1128 41.84C77.0861 41.7067 77.1261 41.5867 77.2328 41.48L77.5528 41.32C77.5795 41.2667 77.6061 41.2133 77.6328 41.16C77.6861 41.08 77.7528 40.9867 77.8328 40.88C77.8061 40.8267 77.7795 40.76 77.7528 40.68C77.7528 40.6 77.7528 40.5333 77.7528 40.48C77.7528 40.32 77.7795 40.2 77.8328 40.12C77.8595 40.0933 77.8995 40.08 77.9528 40.08C78.0061 40.08 78.0728 40.0667 78.1528 40.04L78.3128 39.72C78.7128 39.72 78.8461 39.5733 78.7128 39.28H78.7528C78.8328 39.28 78.9261 39.16 79.0328 38.92C79.0861 38.92 79.2328 38.84 79.4728 38.68C79.5795 38.5733 79.7261 38.52 79.9128 38.52H80.0328C80.0595 38.52 80.0728 38.5333 80.0728 38.56C80.0995 38.56 80.1261 38.56 80.1528 38.56L80.3128 38.52C80.3128 38.4667 80.3528 38.4 80.4328 38.32C80.6461 38.16 80.8061 38.08 80.9128 38.08L81.2328 38.16L81.3528 38.12H81.4728C81.8728 38.12 82.1661 38.2133 82.3528 38.4L82.3128 38.6H82.3928C82.4195 38.6 82.4995 38.5333 82.6328 38.4C82.7395 38.2933 82.8461 38.24 82.9528 38.24C83.1128 38.24 83.2461 38.28 83.3528 38.36C83.4861 38.44 83.5661 38.48 83.5928 38.48L83.9128 38.4C84.0195 38.3733 84.0861 38.36 84.1128 38.36C84.1661 38.36 84.2061 38.36 84.2328 38.36C84.3128 38.36 84.3928 38.3733 84.4728 38.4L84.6328 38.48C84.6595 38.5333 84.7528 38.64 84.9128 38.8H84.9528C85.1128 38.8 85.3661 38.88 85.7128 39.04C85.8995 39.1733 86.0461 39.3733 86.1528 39.64L86.5128 40.36C86.5128 40.5733 86.5528 40.8667 86.6328 41.24C86.6861 41.2933 86.7528 41.3733 86.8328 41.48C86.9128 41.56 87.0061 41.6667 87.1128 41.8C87.1128 41.8267 87.0995 41.88 87.0728 41.96C87.0728 42.0133 87.0595 42.08 87.0328 42.16C87.1128 42.24 87.1795 42.3733 87.2328 42.56C87.2595 42.64 87.2861 42.7067 87.3128 42.76C87.3395 42.8133 87.3661 42.8667 87.3928 42.92V43.12L86.6728 43.4C86.2728 43.5067 85.9261 43.5867 85.6328 43.64C85.3661 43.6933 85.1395 43.72 84.9528 43.72L84.8328 43.68C84.8061 43.68 84.7795 43.68 84.7528 43.68C84.7528 43.6533 84.7395 43.64 84.7128 43.64C84.6595 43.64 84.5928 43.68 84.5128 43.76L84.3528 43.92C84.1128 44 83.9261 44.04 83.7928 44.04C83.6861 44.04 83.5661 43.92 83.4328 43.68C83.3261 43.4933 83.2728 43.36 83.2728 43.28C83.2728 42.3733 83.2461 41.9467 83.1928 42C82.9261 41.84 82.7395 41.8 82.6328 41.88H82.5928L82.2328 41.72C82.1261 41.6667 82.0328 41.64 81.9528 41.64C81.8995 41.6133 81.8595 41.6 81.8328 41.6L81.6328 41.64C81.5528 41.6667 81.4861 41.68 81.4328 41.68C81.3795 41.68 81.3261 41.68 81.2728 41.68L81.1928 42.04C81.1395 42.0667 81.0328 42.16 80.8728 42.32L80.7528 42.84C80.8861 42.8667 80.9795 42.96 81.0328 43.12C81.0861 43.36 81.1128 43.48 81.1128 43.48C81.0861 43.5067 80.9261 43.5467 80.6328 43.6C80.5795 43.6 80.5261 43.6267 80.4728 43.68C80.4995 43.76 80.6861 43.8267 81.0328 43.88C81.1128 43.96 81.1661 44.0933 81.1928 44.28L81.6328 44.36C81.6328 44.4667 81.6861 44.5867 81.7928 44.72C81.8195 44.72 81.8861 44.7467 81.9928 44.8C82.0461 44.9067 82.1261 45.0133 82.2328 45.12C82.3661 45.12 82.4861 45.16 82.5928 45.24C82.7261 45.3733 82.7928 45.4933 82.7928 45.6H82.7128C82.6328 45.6 82.5261 45.64 82.3928 45.72V45.88C82.4461 45.9333 82.5128 45.9867 82.5928 46.04C82.6995 46.0667 82.8195 46.0667 82.9528 46.04L83.0728 46H83.1928L83.3528 46.12C83.5128 46.1467 83.6328 46.16 83.7128 46.16C83.7928 46.16 83.8461 46.16 83.8728 46.16C84.0861 46.2133 84.2328 46.2933 84.3128 46.4C84.3928 46.6133 84.5261 46.8267 84.7128 47.04L85.1128 47.16C85.2461 47.24 85.3395 47.36 85.3928 47.52C85.7928 47.8667 85.9928 48.12 85.9928 48.28V48.36L86.4728 48.84C86.4728 48.8933 86.4728 48.96 86.4728 49.04C86.4995 49.12 86.5261 49.2133 86.5528 49.32C86.6061 49.3467 86.6595 49.3733 86.7128 49.4C86.7661 49.4267 86.8195 49.4667 86.8728 49.52C87.0328 49.7067 87.1128 49.8533 87.1128 49.96L87.0328 50.16C87.0061 50.2133 86.9795 50.2533 86.9528 50.28C86.9528 50.3067 86.9528 50.3333 86.9528 50.36C86.9528 50.44 87.0461 50.6267 87.2328 50.92C87.2328 50.92 87.2061 50.9867 87.1528 51.12L87.2328 51.48L87.3128 51.76L87.1928 52.16C87.2195 52.2133 87.2328 52.3467 87.2328 52.56C87.2061 52.5867 87.1795 52.6133 87.1528 52.64C87.1261 52.64 87.0995 52.6667 87.0728 52.72L86.7528 53.72C86.7528 53.7733 86.7528 53.8533 86.7528 53.96C86.7528 54.04 86.7395 54.1333 86.7128 54.24C86.6595 54.4533 86.4461 54.56 86.0728 54.56L85.7928 55.24L85.1928 55.64C85.1128 55.72 84.9261 55.8667 84.6328 56.08H84.3128L83.6728 56.36C82.8461 56.52 82.3795 56.6 82.2728 56.6ZM81.5528 39.04C81.5795 38.9867 81.5661 38.9333 81.5128 38.88C81.4861 38.8533 81.4195 38.8667 81.3128 38.92C81.3661 39 81.4461 39.04 81.5528 39.04ZM86.6728 42.8C86.6728 42.6133 86.6595 42.52 86.6328 42.52L86.4328 42.48C86.4061 42.48 86.3795 42.48 86.3528 42.48C86.3261 42.4533 86.2995 42.44 86.2728 42.44C86.2195 42.4933 86.1928 42.5867 86.1928 42.72L86.6728 42.8ZM78.1528 43.04C78.1528 42.9333 78.1395 42.8667 78.1128 42.84C78.0328 42.8133 77.9661 42.8267 77.9128 42.88C77.9128 42.9333 77.9928 42.9867 78.1528 43.04ZM80.7928 45.88C80.9261 45.8267 80.9928 45.7733 80.9928 45.72C80.9928 45.6667 80.9261 45.6133 80.7928 45.56V45.88ZM78.0728 52.36C78.0728 52.3067 78.0461 52.2267 77.9928 52.12L77.8728 52.16C77.7395 52.16 77.6995 52.0933 77.7528 51.96L77.6728 52.12C77.6995 52.2 77.7528 52.28 77.8328 52.36H78.0728ZM85.5128 53.44C85.4861 53.44 85.6595 53.3067 86.0328 53.04V52.88C85.8728 52.6933 85.7261 52.6 85.5928 52.6H85.4728C85.4728 52.6533 85.4595 52.72 85.4328 52.8C85.4328 52.8533 85.4195 52.92 85.3928 53C85.2595 53.2133 85.1928 53.32 85.1928 53.32C85.2728 53.4 85.3795 53.44 85.5128 53.44ZM81.3928 55.12L81.1528 54.84H80.9928L80.9528 54.96L81.3928 55.12Z" fill="#835148"/>
</svg>
