<svg width="24" height="24" viewBox="0 0 24 24" fill="none" xmlns="http://www.w3.org/2000/svg">
<path d="M14.4 2.39997C14.4 2.1118 14.245 1.84589 13.9943 1.70388C13.7435 1.56185 13.4357 1.56567 13.1886 1.71386L5.37854 6.39685H2.4C1.07395 6.39685 0 7.46905 0 8.79567V15.2C0 16.5259 1.07318 17.6 2.4 17.6H5.37842L13.1884 22.2859C13.4356 22.4342 13.7433 22.4382 13.9942 22.2961C14.245 22.1541 14.4 21.8881 14.4 21.6V2.39997Z" fill="#FEDC77"/>
<path d="M21.132 11.994L23.3937 14.2543L22.2627 15.3861L20.0001 13.1249L17.7376 15.3861L16.6067 14.2543L18.8684 11.994L16.6062 9.73318L17.7372 8.60144L20.0001 10.8629L22.2632 8.60144L23.3942 9.73318L21.132 11.994Z" fill="#FEDC77"/>
</svg>
