<svg width="25" height="24" viewBox="0 0 25 24" fill="none" xmlns="http://www.w3.org/2000/svg">
<path d="M12.5001 8.25C11.7584 8.25 11.0334 8.46993 10.4167 8.88199C9.79999 9.29404 9.31935 9.87971 9.03552 10.5649C8.75169 11.2502 8.67743 12.0042 8.82212 12.7316C8.96682 13.459 9.32397 14.1272 9.84842 14.6517C10.3729 15.1761 11.041 15.5333 11.7685 15.6779C12.4959 15.8226 13.2499 15.7484 13.9351 15.4645C14.6204 15.1807 15.206 14.7001 15.6181 14.0834C16.0301 13.4667 16.2501 12.7417 16.2501 12C16.2471 11.0064 15.8511 10.0542 15.1484 9.35163C14.4458 8.64901 13.4937 8.25297 12.5001 8.25ZM20.5963 12C20.5944 12.3504 20.5687 12.7003 20.5194 13.0472L22.8018 14.8341C22.9012 14.9161 22.9682 15.0309 22.9908 15.1578C23.0133 15.2847 22.9901 15.4155 22.9251 15.5269L20.766 19.2544C20.7004 19.3647 20.5979 19.4484 20.4767 19.4907C20.3555 19.5329 20.2232 19.5311 20.1032 19.4855L17.4196 18.4073C16.8608 18.8377 16.2493 19.1948 15.5999 19.47L15.1987 22.3191C15.1762 22.4467 15.1101 22.5625 15.0117 22.6468C14.9133 22.7311 14.7887 22.7786 14.6591 22.7812H10.341C10.2138 22.7788 10.0912 22.7333 9.99322 22.6521C9.89523 22.571 9.82763 22.459 9.80147 22.3345L9.40022 19.4855C8.74907 19.2134 8.13711 18.8557 7.58054 18.4219L4.89694 19.5C4.77698 19.5457 4.64477 19.5476 4.52354 19.5054C4.40231 19.4632 4.29984 19.3796 4.23413 19.2694L2.07507 15.5423C2.01008 15.431 1.9868 15.3002 2.00938 15.1733C2.03196 15.0464 2.09894 14.9316 2.19835 14.8495L4.48069 13.0627C4.43201 12.7105 4.40633 12.3555 4.40382 12C4.40577 11.6496 4.43145 11.2997 4.48069 10.9528L2.19835 9.16594C2.09894 9.08386 2.03196 8.96911 2.00938 8.84219C1.9868 8.71527 2.01008 8.58446 2.07507 8.47312L4.23413 4.74563C4.29976 4.63528 4.40221 4.55161 4.52344 4.50934C4.64467 4.46707 4.77693 4.46891 4.89694 4.51453L7.58054 5.59266C8.13934 5.16235 8.75086 4.80524 9.40022 4.53L9.80147 1.68094C9.82393 1.55332 9.89001 1.43746 9.98842 1.35316C10.0868 1.26886 10.2115 1.22135 10.341 1.21875H14.6591C14.7863 1.22123 14.9089 1.26675 15.0069 1.34788C15.1049 1.42901 15.1725 1.54097 15.1987 1.66547L15.5999 4.51453C16.2519 4.78639 16.8646 5.14408 17.4219 5.57812L20.1032 4.5C20.2232 4.45434 20.3554 4.45243 20.4766 4.49461C20.5978 4.53679 20.7003 4.62036 20.766 4.73062L22.9251 8.45813C22.9901 8.56946 23.0133 8.70027 22.9908 8.82719C22.9682 8.95411 22.9012 9.06886 22.8018 9.15094L20.5194 10.9378C20.5681 11.2898 20.5938 11.6446 20.5963 12Z" fill="#FEDC77"/>
</svg>
